%
M48
M72
T01C0.0138
T02C0.0315
T03C0.0320
T04C0.0394
T05C0.0400
T06C0.1260
%
T01
X21340Y8800
T02
X1600Y13600
X2600Y13600
X3600Y13600
X4600Y13600
X5600Y13600
X6600Y13600
X7600Y13600
X8600Y13600
X9600Y13600
X10600Y13600
X11600Y13600
X12600Y13600
X13600Y13600
X14600Y13600
X15600Y13600
X15100Y11600
X15100Y10600
X16100Y10600
X16100Y11600
X16100Y9600
X15100Y9600
X14600Y7600
X13600Y7600
X12600Y7600
X11600Y7600
X10600Y7600
X9600Y7600
X8600Y7600
X7600Y7600
X6600Y7600
X5600Y7600
X4600Y7600
X3600Y7600
X2600Y7600
X1600Y7600
X15600Y7600
T03
X20100Y17600
X20100Y14600
X24100Y14600
X24100Y17600
X24100Y11600
X20100Y11600
T04
X21116Y6116
X23084Y6116
X22100Y8084
T05
X4600Y19100
X5600Y19100
X6600Y19100
X9600Y19100
X10600Y19100
X11600Y19100
X12600Y19100
X16100Y19100
X17100Y19100
X26100Y2100
X25100Y2100
X24100Y2100
X23100Y2100
X22100Y2100
X19600Y2100
X18600Y2100
X17600Y2100
X16600Y2100
X15600Y2100
X14600Y2100
X13600Y2100
X12600Y2100
X11600Y2100
X10600Y2100
X9600Y2100
X8600Y2100
X7600Y2100
X6600Y2100
X5600Y2100
X4600Y2100
T06
X1100Y1100
X1100Y21100
X27600Y21100
X27600Y1100
M30
