G75*
%MOIN*%
%OFA0B0*%
%FSLAX25Y25*%
%IPPOS*%
%LPD*%
%AMOC8*
5,1,8,0,0,1.08239X$1,22.5*
%
%ADD10C,0.00000*%
%ADD11R,0.00050X0.00450*%
%ADD12R,0.00050X0.01350*%
%ADD13R,0.00050X0.01450*%
%ADD14R,0.00050X0.02050*%
%ADD15R,0.00050X0.00600*%
%ADD16R,0.00050X0.00650*%
%ADD17R,0.00050X0.01000*%
%ADD18R,0.00050X0.02450*%
%ADD19R,0.00050X0.01650*%
%ADD20R,0.00050X0.01300*%
%ADD21R,0.00050X0.01600*%
%ADD22R,0.00050X0.01900*%
%ADD23R,0.00050X0.02750*%
%ADD24R,0.00050X0.02150*%
%ADD25R,0.00050X0.02350*%
%ADD26R,0.00050X0.02850*%
%ADD27R,0.00050X0.02400*%
%ADD28R,0.00050X0.03100*%
%ADD29R,0.00050X0.02600*%
%ADD30R,0.00050X0.03050*%
%ADD31R,0.00050X0.02550*%
%ADD32R,0.00050X0.05350*%
%ADD33R,0.00050X0.03400*%
%ADD34R,0.00050X0.01250*%
%ADD35R,0.00050X0.01200*%
%ADD36R,0.00050X0.02100*%
%ADD37R,0.00050X0.02950*%
%ADD38R,0.00050X0.03600*%
%ADD39R,0.00050X0.02900*%
%ADD40R,0.00050X0.05650*%
%ADD41R,0.00050X0.03200*%
%ADD42R,0.00050X0.02650*%
%ADD43R,0.00050X0.03300*%
%ADD44R,0.00050X0.04050*%
%ADD45R,0.00050X0.03250*%
%ADD46R,0.00050X0.05900*%
%ADD47R,0.00050X0.03550*%
%ADD48R,0.00050X0.03850*%
%ADD49R,0.00050X0.03500*%
%ADD50R,0.00050X0.04500*%
%ADD51R,0.00050X0.06150*%
%ADD52R,0.00050X0.04100*%
%ADD53R,0.00050X0.03450*%
%ADD54R,0.00050X0.03800*%
%ADD55R,0.00050X0.04900*%
%ADD56R,0.00050X0.06300*%
%ADD57R,0.00050X0.04250*%
%ADD58R,0.00050X0.03750*%
%ADD59R,0.00050X0.05200*%
%ADD60R,0.00050X0.06500*%
%ADD61R,0.00050X0.04350*%
%ADD62R,0.00050X0.04450*%
%ADD63R,0.00050X0.05550*%
%ADD64R,0.00050X0.06650*%
%ADD65R,0.00050X0.04550*%
%ADD66R,0.00050X0.04600*%
%ADD67R,0.00050X0.04300*%
%ADD68R,0.00050X0.05850*%
%ADD69R,0.00050X0.06750*%
%ADD70R,0.00050X0.04750*%
%ADD71R,0.00050X0.04800*%
%ADD72R,0.00050X0.04650*%
%ADD73R,0.00050X0.06050*%
%ADD74R,0.00050X0.04700*%
%ADD75R,0.00050X0.06900*%
%ADD76R,0.00050X0.04950*%
%ADD77R,0.00050X0.04850*%
%ADD78R,0.00050X0.07050*%
%ADD79R,0.00050X0.05150*%
%ADD80R,0.00050X0.05050*%
%ADD81R,0.00050X0.06550*%
%ADD82R,0.00050X0.05000*%
%ADD83R,0.00050X0.07150*%
%ADD84R,0.00050X0.05300*%
%ADD85R,0.00050X0.06800*%
%ADD86R,0.00050X0.05250*%
%ADD87R,0.00050X0.07250*%
%ADD88R,0.00050X0.05500*%
%ADD89R,0.00050X0.07000*%
%ADD90R,0.00050X0.05400*%
%ADD91R,0.00050X0.07350*%
%ADD92R,0.00050X0.05450*%
%ADD93R,0.00050X0.07200*%
%ADD94R,0.00050X0.07450*%
%ADD95R,0.00050X0.05800*%
%ADD96R,0.00050X0.05700*%
%ADD97R,0.00050X0.07400*%
%ADD98R,0.00050X0.07550*%
%ADD99R,0.00050X0.01400*%
%ADD100R,0.00050X0.07650*%
%ADD101R,0.00050X0.06100*%
%ADD102R,0.00050X0.05750*%
%ADD103R,0.00050X0.06000*%
%ADD104R,0.00050X0.07750*%
%ADD105R,0.00050X0.06200*%
%ADD106R,0.00050X0.07950*%
%ADD107R,0.00050X0.07850*%
%ADD108R,0.00050X0.06250*%
%ADD109R,0.00050X0.08050*%
%ADD110R,0.00050X0.02700*%
%ADD111R,0.00050X0.06400*%
%ADD112R,0.00050X0.06350*%
%ADD113R,0.00050X0.08250*%
%ADD114R,0.00050X0.08000*%
%ADD115R,0.00050X0.06600*%
%ADD116R,0.00050X0.02250*%
%ADD117R,0.00050X0.08100*%
%ADD118R,0.00050X0.03350*%
%ADD119R,0.00050X0.02500*%
%ADD120R,0.00050X0.03150*%
%ADD121R,0.00050X0.01950*%
%ADD122R,0.00050X0.01800*%
%ADD123R,0.00050X0.02300*%
%ADD124R,0.00050X0.01700*%
%ADD125R,0.00050X0.02200*%
%ADD126R,0.00050X0.02800*%
%ADD127R,0.00050X0.01550*%
%ADD128R,0.00050X0.01500*%
%ADD129R,0.00050X0.02000*%
%ADD130R,0.00050X0.01850*%
%ADD131R,0.00050X0.01750*%
%ADD132R,0.00050X0.11750*%
%ADD133R,0.00050X0.11700*%
%ADD134R,0.00050X0.11650*%
%ADD135R,0.00050X0.11600*%
%ADD136R,0.00050X0.11550*%
%ADD137R,0.00050X0.11450*%
%ADD138R,0.00050X0.11400*%
%ADD139R,0.00050X0.11350*%
%ADD140R,0.00050X0.00900*%
%ADD141R,0.00050X0.11250*%
%ADD142R,0.00050X0.11200*%
%ADD143R,0.00050X0.11150*%
%ADD144R,0.00050X0.11050*%
%ADD145R,0.00050X0.09850*%
%ADD146R,0.00050X0.09900*%
%ADD147R,0.00050X0.08750*%
%ADD148R,0.00050X0.08800*%
%ADD149R,0.00050X0.01150*%
%ADD150R,0.00050X0.09800*%
%ADD151R,0.00050X0.08850*%
%ADD152R,0.00050X0.09750*%
%ADD153R,0.00050X0.08900*%
%ADD154R,0.00050X0.08950*%
%ADD155R,0.00050X0.09450*%
%ADD156R,0.00050X0.09400*%
%ADD157R,0.00050X0.09350*%
%ADD158R,0.00050X0.09250*%
%ADD159R,0.00050X0.09150*%
%ADD160R,0.00050X0.09050*%
%ADD161R,0.00050X0.08650*%
%ADD162R,0.00050X0.08550*%
%ADD163R,0.00050X0.08450*%
%ADD164R,0.00050X0.08350*%
%ADD165R,0.00050X0.08300*%
%ADD166R,0.00050X0.08150*%
%ADD167R,0.00050X0.07900*%
%ADD168R,0.00050X0.07600*%
%ADD169R,0.00050X0.06450*%
%ADD170R,0.00050X0.05600*%
%ADD171R,0.00050X0.05100*%
%ADD172R,0.00050X0.04400*%
%ADD173R,0.00050X0.04200*%
%ADD174R,0.00050X0.04150*%
%ADD175R,0.00050X0.04000*%
%ADD176R,0.00050X0.03900*%
%ADD177R,0.00050X0.03650*%
%ADD178R,0.00050X0.01100*%
%ADD179R,0.00050X0.00950*%
%ADD180R,0.00050X0.03950*%
%ADD181R,0.00050X0.03000*%
%ADD182R,0.00050X0.07800*%
%ADD183R,0.00050X0.07700*%
%ADD184R,0.00050X0.07500*%
%ADD185R,0.00050X0.05950*%
%ADD186R,0.00050X0.06850*%
%ADD187R,0.00050X0.06700*%
%ADD188R,0.00050X0.03700*%
%ADD189R,0.00050X0.08400*%
%ADD190R,0.00050X0.11300*%
%ADD191R,0.00050X0.11500*%
%ADD192C,0.00300*%
%ADD193C,0.00400*%
%ADD194C,0.00600*%
%ADD195C,0.00500*%
%ADD196C,0.00700*%
%ADD197R,0.03400X0.02400*%
D10*
X0001000Y0001000D02*
X0001000Y0219701D01*
X0285921Y0219701D01*
X0285921Y0001000D01*
X0001000Y0001000D01*
X0004701Y0011000D02*
X0004703Y0011158D01*
X0004709Y0011316D01*
X0004719Y0011474D01*
X0004733Y0011632D01*
X0004751Y0011789D01*
X0004772Y0011946D01*
X0004798Y0012102D01*
X0004828Y0012258D01*
X0004861Y0012413D01*
X0004899Y0012566D01*
X0004940Y0012719D01*
X0004985Y0012871D01*
X0005034Y0013022D01*
X0005087Y0013171D01*
X0005143Y0013319D01*
X0005203Y0013465D01*
X0005267Y0013610D01*
X0005335Y0013753D01*
X0005406Y0013895D01*
X0005480Y0014035D01*
X0005558Y0014172D01*
X0005640Y0014308D01*
X0005724Y0014442D01*
X0005813Y0014573D01*
X0005904Y0014702D01*
X0005999Y0014829D01*
X0006096Y0014954D01*
X0006197Y0015076D01*
X0006301Y0015195D01*
X0006408Y0015312D01*
X0006518Y0015426D01*
X0006631Y0015537D01*
X0006746Y0015646D01*
X0006864Y0015751D01*
X0006985Y0015853D01*
X0007108Y0015953D01*
X0007234Y0016049D01*
X0007362Y0016142D01*
X0007492Y0016232D01*
X0007625Y0016318D01*
X0007760Y0016402D01*
X0007896Y0016481D01*
X0008035Y0016558D01*
X0008176Y0016630D01*
X0008318Y0016700D01*
X0008462Y0016765D01*
X0008608Y0016827D01*
X0008755Y0016885D01*
X0008904Y0016940D01*
X0009054Y0016991D01*
X0009205Y0017038D01*
X0009357Y0017081D01*
X0009510Y0017120D01*
X0009665Y0017156D01*
X0009820Y0017187D01*
X0009976Y0017215D01*
X0010132Y0017239D01*
X0010289Y0017259D01*
X0010447Y0017275D01*
X0010604Y0017287D01*
X0010763Y0017295D01*
X0010921Y0017299D01*
X0011079Y0017299D01*
X0011237Y0017295D01*
X0011396Y0017287D01*
X0011553Y0017275D01*
X0011711Y0017259D01*
X0011868Y0017239D01*
X0012024Y0017215D01*
X0012180Y0017187D01*
X0012335Y0017156D01*
X0012490Y0017120D01*
X0012643Y0017081D01*
X0012795Y0017038D01*
X0012946Y0016991D01*
X0013096Y0016940D01*
X0013245Y0016885D01*
X0013392Y0016827D01*
X0013538Y0016765D01*
X0013682Y0016700D01*
X0013824Y0016630D01*
X0013965Y0016558D01*
X0014104Y0016481D01*
X0014240Y0016402D01*
X0014375Y0016318D01*
X0014508Y0016232D01*
X0014638Y0016142D01*
X0014766Y0016049D01*
X0014892Y0015953D01*
X0015015Y0015853D01*
X0015136Y0015751D01*
X0015254Y0015646D01*
X0015369Y0015537D01*
X0015482Y0015426D01*
X0015592Y0015312D01*
X0015699Y0015195D01*
X0015803Y0015076D01*
X0015904Y0014954D01*
X0016001Y0014829D01*
X0016096Y0014702D01*
X0016187Y0014573D01*
X0016276Y0014442D01*
X0016360Y0014308D01*
X0016442Y0014172D01*
X0016520Y0014035D01*
X0016594Y0013895D01*
X0016665Y0013753D01*
X0016733Y0013610D01*
X0016797Y0013465D01*
X0016857Y0013319D01*
X0016913Y0013171D01*
X0016966Y0013022D01*
X0017015Y0012871D01*
X0017060Y0012719D01*
X0017101Y0012566D01*
X0017139Y0012413D01*
X0017172Y0012258D01*
X0017202Y0012102D01*
X0017228Y0011946D01*
X0017249Y0011789D01*
X0017267Y0011632D01*
X0017281Y0011474D01*
X0017291Y0011316D01*
X0017297Y0011158D01*
X0017299Y0011000D01*
X0017297Y0010842D01*
X0017291Y0010684D01*
X0017281Y0010526D01*
X0017267Y0010368D01*
X0017249Y0010211D01*
X0017228Y0010054D01*
X0017202Y0009898D01*
X0017172Y0009742D01*
X0017139Y0009587D01*
X0017101Y0009434D01*
X0017060Y0009281D01*
X0017015Y0009129D01*
X0016966Y0008978D01*
X0016913Y0008829D01*
X0016857Y0008681D01*
X0016797Y0008535D01*
X0016733Y0008390D01*
X0016665Y0008247D01*
X0016594Y0008105D01*
X0016520Y0007965D01*
X0016442Y0007828D01*
X0016360Y0007692D01*
X0016276Y0007558D01*
X0016187Y0007427D01*
X0016096Y0007298D01*
X0016001Y0007171D01*
X0015904Y0007046D01*
X0015803Y0006924D01*
X0015699Y0006805D01*
X0015592Y0006688D01*
X0015482Y0006574D01*
X0015369Y0006463D01*
X0015254Y0006354D01*
X0015136Y0006249D01*
X0015015Y0006147D01*
X0014892Y0006047D01*
X0014766Y0005951D01*
X0014638Y0005858D01*
X0014508Y0005768D01*
X0014375Y0005682D01*
X0014240Y0005598D01*
X0014104Y0005519D01*
X0013965Y0005442D01*
X0013824Y0005370D01*
X0013682Y0005300D01*
X0013538Y0005235D01*
X0013392Y0005173D01*
X0013245Y0005115D01*
X0013096Y0005060D01*
X0012946Y0005009D01*
X0012795Y0004962D01*
X0012643Y0004919D01*
X0012490Y0004880D01*
X0012335Y0004844D01*
X0012180Y0004813D01*
X0012024Y0004785D01*
X0011868Y0004761D01*
X0011711Y0004741D01*
X0011553Y0004725D01*
X0011396Y0004713D01*
X0011237Y0004705D01*
X0011079Y0004701D01*
X0010921Y0004701D01*
X0010763Y0004705D01*
X0010604Y0004713D01*
X0010447Y0004725D01*
X0010289Y0004741D01*
X0010132Y0004761D01*
X0009976Y0004785D01*
X0009820Y0004813D01*
X0009665Y0004844D01*
X0009510Y0004880D01*
X0009357Y0004919D01*
X0009205Y0004962D01*
X0009054Y0005009D01*
X0008904Y0005060D01*
X0008755Y0005115D01*
X0008608Y0005173D01*
X0008462Y0005235D01*
X0008318Y0005300D01*
X0008176Y0005370D01*
X0008035Y0005442D01*
X0007896Y0005519D01*
X0007760Y0005598D01*
X0007625Y0005682D01*
X0007492Y0005768D01*
X0007362Y0005858D01*
X0007234Y0005951D01*
X0007108Y0006047D01*
X0006985Y0006147D01*
X0006864Y0006249D01*
X0006746Y0006354D01*
X0006631Y0006463D01*
X0006518Y0006574D01*
X0006408Y0006688D01*
X0006301Y0006805D01*
X0006197Y0006924D01*
X0006096Y0007046D01*
X0005999Y0007171D01*
X0005904Y0007298D01*
X0005813Y0007427D01*
X0005724Y0007558D01*
X0005640Y0007692D01*
X0005558Y0007828D01*
X0005480Y0007965D01*
X0005406Y0008105D01*
X0005335Y0008247D01*
X0005267Y0008390D01*
X0005203Y0008535D01*
X0005143Y0008681D01*
X0005087Y0008829D01*
X0005034Y0008978D01*
X0004985Y0009129D01*
X0004940Y0009281D01*
X0004899Y0009434D01*
X0004861Y0009587D01*
X0004828Y0009742D01*
X0004798Y0009898D01*
X0004772Y0010054D01*
X0004751Y0010211D01*
X0004733Y0010368D01*
X0004719Y0010526D01*
X0004709Y0010684D01*
X0004703Y0010842D01*
X0004701Y0011000D01*
X0004701Y0211000D02*
X0004703Y0211158D01*
X0004709Y0211316D01*
X0004719Y0211474D01*
X0004733Y0211632D01*
X0004751Y0211789D01*
X0004772Y0211946D01*
X0004798Y0212102D01*
X0004828Y0212258D01*
X0004861Y0212413D01*
X0004899Y0212566D01*
X0004940Y0212719D01*
X0004985Y0212871D01*
X0005034Y0213022D01*
X0005087Y0213171D01*
X0005143Y0213319D01*
X0005203Y0213465D01*
X0005267Y0213610D01*
X0005335Y0213753D01*
X0005406Y0213895D01*
X0005480Y0214035D01*
X0005558Y0214172D01*
X0005640Y0214308D01*
X0005724Y0214442D01*
X0005813Y0214573D01*
X0005904Y0214702D01*
X0005999Y0214829D01*
X0006096Y0214954D01*
X0006197Y0215076D01*
X0006301Y0215195D01*
X0006408Y0215312D01*
X0006518Y0215426D01*
X0006631Y0215537D01*
X0006746Y0215646D01*
X0006864Y0215751D01*
X0006985Y0215853D01*
X0007108Y0215953D01*
X0007234Y0216049D01*
X0007362Y0216142D01*
X0007492Y0216232D01*
X0007625Y0216318D01*
X0007760Y0216402D01*
X0007896Y0216481D01*
X0008035Y0216558D01*
X0008176Y0216630D01*
X0008318Y0216700D01*
X0008462Y0216765D01*
X0008608Y0216827D01*
X0008755Y0216885D01*
X0008904Y0216940D01*
X0009054Y0216991D01*
X0009205Y0217038D01*
X0009357Y0217081D01*
X0009510Y0217120D01*
X0009665Y0217156D01*
X0009820Y0217187D01*
X0009976Y0217215D01*
X0010132Y0217239D01*
X0010289Y0217259D01*
X0010447Y0217275D01*
X0010604Y0217287D01*
X0010763Y0217295D01*
X0010921Y0217299D01*
X0011079Y0217299D01*
X0011237Y0217295D01*
X0011396Y0217287D01*
X0011553Y0217275D01*
X0011711Y0217259D01*
X0011868Y0217239D01*
X0012024Y0217215D01*
X0012180Y0217187D01*
X0012335Y0217156D01*
X0012490Y0217120D01*
X0012643Y0217081D01*
X0012795Y0217038D01*
X0012946Y0216991D01*
X0013096Y0216940D01*
X0013245Y0216885D01*
X0013392Y0216827D01*
X0013538Y0216765D01*
X0013682Y0216700D01*
X0013824Y0216630D01*
X0013965Y0216558D01*
X0014104Y0216481D01*
X0014240Y0216402D01*
X0014375Y0216318D01*
X0014508Y0216232D01*
X0014638Y0216142D01*
X0014766Y0216049D01*
X0014892Y0215953D01*
X0015015Y0215853D01*
X0015136Y0215751D01*
X0015254Y0215646D01*
X0015369Y0215537D01*
X0015482Y0215426D01*
X0015592Y0215312D01*
X0015699Y0215195D01*
X0015803Y0215076D01*
X0015904Y0214954D01*
X0016001Y0214829D01*
X0016096Y0214702D01*
X0016187Y0214573D01*
X0016276Y0214442D01*
X0016360Y0214308D01*
X0016442Y0214172D01*
X0016520Y0214035D01*
X0016594Y0213895D01*
X0016665Y0213753D01*
X0016733Y0213610D01*
X0016797Y0213465D01*
X0016857Y0213319D01*
X0016913Y0213171D01*
X0016966Y0213022D01*
X0017015Y0212871D01*
X0017060Y0212719D01*
X0017101Y0212566D01*
X0017139Y0212413D01*
X0017172Y0212258D01*
X0017202Y0212102D01*
X0017228Y0211946D01*
X0017249Y0211789D01*
X0017267Y0211632D01*
X0017281Y0211474D01*
X0017291Y0211316D01*
X0017297Y0211158D01*
X0017299Y0211000D01*
X0017297Y0210842D01*
X0017291Y0210684D01*
X0017281Y0210526D01*
X0017267Y0210368D01*
X0017249Y0210211D01*
X0017228Y0210054D01*
X0017202Y0209898D01*
X0017172Y0209742D01*
X0017139Y0209587D01*
X0017101Y0209434D01*
X0017060Y0209281D01*
X0017015Y0209129D01*
X0016966Y0208978D01*
X0016913Y0208829D01*
X0016857Y0208681D01*
X0016797Y0208535D01*
X0016733Y0208390D01*
X0016665Y0208247D01*
X0016594Y0208105D01*
X0016520Y0207965D01*
X0016442Y0207828D01*
X0016360Y0207692D01*
X0016276Y0207558D01*
X0016187Y0207427D01*
X0016096Y0207298D01*
X0016001Y0207171D01*
X0015904Y0207046D01*
X0015803Y0206924D01*
X0015699Y0206805D01*
X0015592Y0206688D01*
X0015482Y0206574D01*
X0015369Y0206463D01*
X0015254Y0206354D01*
X0015136Y0206249D01*
X0015015Y0206147D01*
X0014892Y0206047D01*
X0014766Y0205951D01*
X0014638Y0205858D01*
X0014508Y0205768D01*
X0014375Y0205682D01*
X0014240Y0205598D01*
X0014104Y0205519D01*
X0013965Y0205442D01*
X0013824Y0205370D01*
X0013682Y0205300D01*
X0013538Y0205235D01*
X0013392Y0205173D01*
X0013245Y0205115D01*
X0013096Y0205060D01*
X0012946Y0205009D01*
X0012795Y0204962D01*
X0012643Y0204919D01*
X0012490Y0204880D01*
X0012335Y0204844D01*
X0012180Y0204813D01*
X0012024Y0204785D01*
X0011868Y0204761D01*
X0011711Y0204741D01*
X0011553Y0204725D01*
X0011396Y0204713D01*
X0011237Y0204705D01*
X0011079Y0204701D01*
X0010921Y0204701D01*
X0010763Y0204705D01*
X0010604Y0204713D01*
X0010447Y0204725D01*
X0010289Y0204741D01*
X0010132Y0204761D01*
X0009976Y0204785D01*
X0009820Y0204813D01*
X0009665Y0204844D01*
X0009510Y0204880D01*
X0009357Y0204919D01*
X0009205Y0204962D01*
X0009054Y0205009D01*
X0008904Y0205060D01*
X0008755Y0205115D01*
X0008608Y0205173D01*
X0008462Y0205235D01*
X0008318Y0205300D01*
X0008176Y0205370D01*
X0008035Y0205442D01*
X0007896Y0205519D01*
X0007760Y0205598D01*
X0007625Y0205682D01*
X0007492Y0205768D01*
X0007362Y0205858D01*
X0007234Y0205951D01*
X0007108Y0206047D01*
X0006985Y0206147D01*
X0006864Y0206249D01*
X0006746Y0206354D01*
X0006631Y0206463D01*
X0006518Y0206574D01*
X0006408Y0206688D01*
X0006301Y0206805D01*
X0006197Y0206924D01*
X0006096Y0207046D01*
X0005999Y0207171D01*
X0005904Y0207298D01*
X0005813Y0207427D01*
X0005724Y0207558D01*
X0005640Y0207692D01*
X0005558Y0207828D01*
X0005480Y0207965D01*
X0005406Y0208105D01*
X0005335Y0208247D01*
X0005267Y0208390D01*
X0005203Y0208535D01*
X0005143Y0208681D01*
X0005087Y0208829D01*
X0005034Y0208978D01*
X0004985Y0209129D01*
X0004940Y0209281D01*
X0004899Y0209434D01*
X0004861Y0209587D01*
X0004828Y0209742D01*
X0004798Y0209898D01*
X0004772Y0210054D01*
X0004751Y0210211D01*
X0004733Y0210368D01*
X0004719Y0210526D01*
X0004709Y0210684D01*
X0004703Y0210842D01*
X0004701Y0211000D01*
X0269701Y0211000D02*
X0269703Y0211158D01*
X0269709Y0211316D01*
X0269719Y0211474D01*
X0269733Y0211632D01*
X0269751Y0211789D01*
X0269772Y0211946D01*
X0269798Y0212102D01*
X0269828Y0212258D01*
X0269861Y0212413D01*
X0269899Y0212566D01*
X0269940Y0212719D01*
X0269985Y0212871D01*
X0270034Y0213022D01*
X0270087Y0213171D01*
X0270143Y0213319D01*
X0270203Y0213465D01*
X0270267Y0213610D01*
X0270335Y0213753D01*
X0270406Y0213895D01*
X0270480Y0214035D01*
X0270558Y0214172D01*
X0270640Y0214308D01*
X0270724Y0214442D01*
X0270813Y0214573D01*
X0270904Y0214702D01*
X0270999Y0214829D01*
X0271096Y0214954D01*
X0271197Y0215076D01*
X0271301Y0215195D01*
X0271408Y0215312D01*
X0271518Y0215426D01*
X0271631Y0215537D01*
X0271746Y0215646D01*
X0271864Y0215751D01*
X0271985Y0215853D01*
X0272108Y0215953D01*
X0272234Y0216049D01*
X0272362Y0216142D01*
X0272492Y0216232D01*
X0272625Y0216318D01*
X0272760Y0216402D01*
X0272896Y0216481D01*
X0273035Y0216558D01*
X0273176Y0216630D01*
X0273318Y0216700D01*
X0273462Y0216765D01*
X0273608Y0216827D01*
X0273755Y0216885D01*
X0273904Y0216940D01*
X0274054Y0216991D01*
X0274205Y0217038D01*
X0274357Y0217081D01*
X0274510Y0217120D01*
X0274665Y0217156D01*
X0274820Y0217187D01*
X0274976Y0217215D01*
X0275132Y0217239D01*
X0275289Y0217259D01*
X0275447Y0217275D01*
X0275604Y0217287D01*
X0275763Y0217295D01*
X0275921Y0217299D01*
X0276079Y0217299D01*
X0276237Y0217295D01*
X0276396Y0217287D01*
X0276553Y0217275D01*
X0276711Y0217259D01*
X0276868Y0217239D01*
X0277024Y0217215D01*
X0277180Y0217187D01*
X0277335Y0217156D01*
X0277490Y0217120D01*
X0277643Y0217081D01*
X0277795Y0217038D01*
X0277946Y0216991D01*
X0278096Y0216940D01*
X0278245Y0216885D01*
X0278392Y0216827D01*
X0278538Y0216765D01*
X0278682Y0216700D01*
X0278824Y0216630D01*
X0278965Y0216558D01*
X0279104Y0216481D01*
X0279240Y0216402D01*
X0279375Y0216318D01*
X0279508Y0216232D01*
X0279638Y0216142D01*
X0279766Y0216049D01*
X0279892Y0215953D01*
X0280015Y0215853D01*
X0280136Y0215751D01*
X0280254Y0215646D01*
X0280369Y0215537D01*
X0280482Y0215426D01*
X0280592Y0215312D01*
X0280699Y0215195D01*
X0280803Y0215076D01*
X0280904Y0214954D01*
X0281001Y0214829D01*
X0281096Y0214702D01*
X0281187Y0214573D01*
X0281276Y0214442D01*
X0281360Y0214308D01*
X0281442Y0214172D01*
X0281520Y0214035D01*
X0281594Y0213895D01*
X0281665Y0213753D01*
X0281733Y0213610D01*
X0281797Y0213465D01*
X0281857Y0213319D01*
X0281913Y0213171D01*
X0281966Y0213022D01*
X0282015Y0212871D01*
X0282060Y0212719D01*
X0282101Y0212566D01*
X0282139Y0212413D01*
X0282172Y0212258D01*
X0282202Y0212102D01*
X0282228Y0211946D01*
X0282249Y0211789D01*
X0282267Y0211632D01*
X0282281Y0211474D01*
X0282291Y0211316D01*
X0282297Y0211158D01*
X0282299Y0211000D01*
X0282297Y0210842D01*
X0282291Y0210684D01*
X0282281Y0210526D01*
X0282267Y0210368D01*
X0282249Y0210211D01*
X0282228Y0210054D01*
X0282202Y0209898D01*
X0282172Y0209742D01*
X0282139Y0209587D01*
X0282101Y0209434D01*
X0282060Y0209281D01*
X0282015Y0209129D01*
X0281966Y0208978D01*
X0281913Y0208829D01*
X0281857Y0208681D01*
X0281797Y0208535D01*
X0281733Y0208390D01*
X0281665Y0208247D01*
X0281594Y0208105D01*
X0281520Y0207965D01*
X0281442Y0207828D01*
X0281360Y0207692D01*
X0281276Y0207558D01*
X0281187Y0207427D01*
X0281096Y0207298D01*
X0281001Y0207171D01*
X0280904Y0207046D01*
X0280803Y0206924D01*
X0280699Y0206805D01*
X0280592Y0206688D01*
X0280482Y0206574D01*
X0280369Y0206463D01*
X0280254Y0206354D01*
X0280136Y0206249D01*
X0280015Y0206147D01*
X0279892Y0206047D01*
X0279766Y0205951D01*
X0279638Y0205858D01*
X0279508Y0205768D01*
X0279375Y0205682D01*
X0279240Y0205598D01*
X0279104Y0205519D01*
X0278965Y0205442D01*
X0278824Y0205370D01*
X0278682Y0205300D01*
X0278538Y0205235D01*
X0278392Y0205173D01*
X0278245Y0205115D01*
X0278096Y0205060D01*
X0277946Y0205009D01*
X0277795Y0204962D01*
X0277643Y0204919D01*
X0277490Y0204880D01*
X0277335Y0204844D01*
X0277180Y0204813D01*
X0277024Y0204785D01*
X0276868Y0204761D01*
X0276711Y0204741D01*
X0276553Y0204725D01*
X0276396Y0204713D01*
X0276237Y0204705D01*
X0276079Y0204701D01*
X0275921Y0204701D01*
X0275763Y0204705D01*
X0275604Y0204713D01*
X0275447Y0204725D01*
X0275289Y0204741D01*
X0275132Y0204761D01*
X0274976Y0204785D01*
X0274820Y0204813D01*
X0274665Y0204844D01*
X0274510Y0204880D01*
X0274357Y0204919D01*
X0274205Y0204962D01*
X0274054Y0205009D01*
X0273904Y0205060D01*
X0273755Y0205115D01*
X0273608Y0205173D01*
X0273462Y0205235D01*
X0273318Y0205300D01*
X0273176Y0205370D01*
X0273035Y0205442D01*
X0272896Y0205519D01*
X0272760Y0205598D01*
X0272625Y0205682D01*
X0272492Y0205768D01*
X0272362Y0205858D01*
X0272234Y0205951D01*
X0272108Y0206047D01*
X0271985Y0206147D01*
X0271864Y0206249D01*
X0271746Y0206354D01*
X0271631Y0206463D01*
X0271518Y0206574D01*
X0271408Y0206688D01*
X0271301Y0206805D01*
X0271197Y0206924D01*
X0271096Y0207046D01*
X0270999Y0207171D01*
X0270904Y0207298D01*
X0270813Y0207427D01*
X0270724Y0207558D01*
X0270640Y0207692D01*
X0270558Y0207828D01*
X0270480Y0207965D01*
X0270406Y0208105D01*
X0270335Y0208247D01*
X0270267Y0208390D01*
X0270203Y0208535D01*
X0270143Y0208681D01*
X0270087Y0208829D01*
X0270034Y0208978D01*
X0269985Y0209129D01*
X0269940Y0209281D01*
X0269899Y0209434D01*
X0269861Y0209587D01*
X0269828Y0209742D01*
X0269798Y0209898D01*
X0269772Y0210054D01*
X0269751Y0210211D01*
X0269733Y0210368D01*
X0269719Y0210526D01*
X0269709Y0210684D01*
X0269703Y0210842D01*
X0269701Y0211000D01*
X0269701Y0011000D02*
X0269703Y0011158D01*
X0269709Y0011316D01*
X0269719Y0011474D01*
X0269733Y0011632D01*
X0269751Y0011789D01*
X0269772Y0011946D01*
X0269798Y0012102D01*
X0269828Y0012258D01*
X0269861Y0012413D01*
X0269899Y0012566D01*
X0269940Y0012719D01*
X0269985Y0012871D01*
X0270034Y0013022D01*
X0270087Y0013171D01*
X0270143Y0013319D01*
X0270203Y0013465D01*
X0270267Y0013610D01*
X0270335Y0013753D01*
X0270406Y0013895D01*
X0270480Y0014035D01*
X0270558Y0014172D01*
X0270640Y0014308D01*
X0270724Y0014442D01*
X0270813Y0014573D01*
X0270904Y0014702D01*
X0270999Y0014829D01*
X0271096Y0014954D01*
X0271197Y0015076D01*
X0271301Y0015195D01*
X0271408Y0015312D01*
X0271518Y0015426D01*
X0271631Y0015537D01*
X0271746Y0015646D01*
X0271864Y0015751D01*
X0271985Y0015853D01*
X0272108Y0015953D01*
X0272234Y0016049D01*
X0272362Y0016142D01*
X0272492Y0016232D01*
X0272625Y0016318D01*
X0272760Y0016402D01*
X0272896Y0016481D01*
X0273035Y0016558D01*
X0273176Y0016630D01*
X0273318Y0016700D01*
X0273462Y0016765D01*
X0273608Y0016827D01*
X0273755Y0016885D01*
X0273904Y0016940D01*
X0274054Y0016991D01*
X0274205Y0017038D01*
X0274357Y0017081D01*
X0274510Y0017120D01*
X0274665Y0017156D01*
X0274820Y0017187D01*
X0274976Y0017215D01*
X0275132Y0017239D01*
X0275289Y0017259D01*
X0275447Y0017275D01*
X0275604Y0017287D01*
X0275763Y0017295D01*
X0275921Y0017299D01*
X0276079Y0017299D01*
X0276237Y0017295D01*
X0276396Y0017287D01*
X0276553Y0017275D01*
X0276711Y0017259D01*
X0276868Y0017239D01*
X0277024Y0017215D01*
X0277180Y0017187D01*
X0277335Y0017156D01*
X0277490Y0017120D01*
X0277643Y0017081D01*
X0277795Y0017038D01*
X0277946Y0016991D01*
X0278096Y0016940D01*
X0278245Y0016885D01*
X0278392Y0016827D01*
X0278538Y0016765D01*
X0278682Y0016700D01*
X0278824Y0016630D01*
X0278965Y0016558D01*
X0279104Y0016481D01*
X0279240Y0016402D01*
X0279375Y0016318D01*
X0279508Y0016232D01*
X0279638Y0016142D01*
X0279766Y0016049D01*
X0279892Y0015953D01*
X0280015Y0015853D01*
X0280136Y0015751D01*
X0280254Y0015646D01*
X0280369Y0015537D01*
X0280482Y0015426D01*
X0280592Y0015312D01*
X0280699Y0015195D01*
X0280803Y0015076D01*
X0280904Y0014954D01*
X0281001Y0014829D01*
X0281096Y0014702D01*
X0281187Y0014573D01*
X0281276Y0014442D01*
X0281360Y0014308D01*
X0281442Y0014172D01*
X0281520Y0014035D01*
X0281594Y0013895D01*
X0281665Y0013753D01*
X0281733Y0013610D01*
X0281797Y0013465D01*
X0281857Y0013319D01*
X0281913Y0013171D01*
X0281966Y0013022D01*
X0282015Y0012871D01*
X0282060Y0012719D01*
X0282101Y0012566D01*
X0282139Y0012413D01*
X0282172Y0012258D01*
X0282202Y0012102D01*
X0282228Y0011946D01*
X0282249Y0011789D01*
X0282267Y0011632D01*
X0282281Y0011474D01*
X0282291Y0011316D01*
X0282297Y0011158D01*
X0282299Y0011000D01*
X0282297Y0010842D01*
X0282291Y0010684D01*
X0282281Y0010526D01*
X0282267Y0010368D01*
X0282249Y0010211D01*
X0282228Y0010054D01*
X0282202Y0009898D01*
X0282172Y0009742D01*
X0282139Y0009587D01*
X0282101Y0009434D01*
X0282060Y0009281D01*
X0282015Y0009129D01*
X0281966Y0008978D01*
X0281913Y0008829D01*
X0281857Y0008681D01*
X0281797Y0008535D01*
X0281733Y0008390D01*
X0281665Y0008247D01*
X0281594Y0008105D01*
X0281520Y0007965D01*
X0281442Y0007828D01*
X0281360Y0007692D01*
X0281276Y0007558D01*
X0281187Y0007427D01*
X0281096Y0007298D01*
X0281001Y0007171D01*
X0280904Y0007046D01*
X0280803Y0006924D01*
X0280699Y0006805D01*
X0280592Y0006688D01*
X0280482Y0006574D01*
X0280369Y0006463D01*
X0280254Y0006354D01*
X0280136Y0006249D01*
X0280015Y0006147D01*
X0279892Y0006047D01*
X0279766Y0005951D01*
X0279638Y0005858D01*
X0279508Y0005768D01*
X0279375Y0005682D01*
X0279240Y0005598D01*
X0279104Y0005519D01*
X0278965Y0005442D01*
X0278824Y0005370D01*
X0278682Y0005300D01*
X0278538Y0005235D01*
X0278392Y0005173D01*
X0278245Y0005115D01*
X0278096Y0005060D01*
X0277946Y0005009D01*
X0277795Y0004962D01*
X0277643Y0004919D01*
X0277490Y0004880D01*
X0277335Y0004844D01*
X0277180Y0004813D01*
X0277024Y0004785D01*
X0276868Y0004761D01*
X0276711Y0004741D01*
X0276553Y0004725D01*
X0276396Y0004713D01*
X0276237Y0004705D01*
X0276079Y0004701D01*
X0275921Y0004701D01*
X0275763Y0004705D01*
X0275604Y0004713D01*
X0275447Y0004725D01*
X0275289Y0004741D01*
X0275132Y0004761D01*
X0274976Y0004785D01*
X0274820Y0004813D01*
X0274665Y0004844D01*
X0274510Y0004880D01*
X0274357Y0004919D01*
X0274205Y0004962D01*
X0274054Y0005009D01*
X0273904Y0005060D01*
X0273755Y0005115D01*
X0273608Y0005173D01*
X0273462Y0005235D01*
X0273318Y0005300D01*
X0273176Y0005370D01*
X0273035Y0005442D01*
X0272896Y0005519D01*
X0272760Y0005598D01*
X0272625Y0005682D01*
X0272492Y0005768D01*
X0272362Y0005858D01*
X0272234Y0005951D01*
X0272108Y0006047D01*
X0271985Y0006147D01*
X0271864Y0006249D01*
X0271746Y0006354D01*
X0271631Y0006463D01*
X0271518Y0006574D01*
X0271408Y0006688D01*
X0271301Y0006805D01*
X0271197Y0006924D01*
X0271096Y0007046D01*
X0270999Y0007171D01*
X0270904Y0007298D01*
X0270813Y0007427D01*
X0270724Y0007558D01*
X0270640Y0007692D01*
X0270558Y0007828D01*
X0270480Y0007965D01*
X0270406Y0008105D01*
X0270335Y0008247D01*
X0270267Y0008390D01*
X0270203Y0008535D01*
X0270143Y0008681D01*
X0270087Y0008829D01*
X0270034Y0008978D01*
X0269985Y0009129D01*
X0269940Y0009281D01*
X0269899Y0009434D01*
X0269861Y0009587D01*
X0269828Y0009742D01*
X0269798Y0009898D01*
X0269772Y0010054D01*
X0269751Y0010211D01*
X0269733Y0010368D01*
X0269719Y0010526D01*
X0269709Y0010684D01*
X0269703Y0010842D01*
X0269701Y0011000D01*
D11*
X0253900Y0169850D03*
D12*
X0257800Y0166050D03*
X0257850Y0166050D03*
X0257900Y0166050D03*
X0257950Y0166050D03*
X0258000Y0166050D03*
X0258050Y0166050D03*
X0258100Y0166050D03*
X0258150Y0166050D03*
X0258200Y0166050D03*
X0258250Y0166050D03*
X0258300Y0166050D03*
X0258350Y0166050D03*
X0258400Y0166050D03*
X0258450Y0166050D03*
X0258500Y0166050D03*
X0258550Y0166050D03*
X0258600Y0166050D03*
X0258650Y0166050D03*
X0258700Y0166050D03*
X0258750Y0166050D03*
X0258800Y0166050D03*
X0258850Y0166050D03*
X0258900Y0166050D03*
X0258950Y0166050D03*
X0259000Y0166050D03*
X0259050Y0166050D03*
X0259100Y0166050D03*
X0259150Y0166050D03*
X0259200Y0166050D03*
X0259250Y0166050D03*
X0259300Y0166050D03*
X0259350Y0166050D03*
X0259400Y0166050D03*
X0259450Y0166050D03*
X0259500Y0166050D03*
X0259550Y0166050D03*
X0259600Y0166050D03*
X0259650Y0166050D03*
X0259700Y0166050D03*
X0259750Y0166050D03*
X0259800Y0166050D03*
X0259850Y0166050D03*
X0259900Y0166050D03*
X0259950Y0166050D03*
X0260000Y0166050D03*
X0260050Y0166050D03*
X0260100Y0166050D03*
X0260150Y0166050D03*
X0260200Y0166050D03*
X0260250Y0166050D03*
X0260300Y0166050D03*
X0260350Y0166050D03*
X0260400Y0166050D03*
X0260450Y0166050D03*
X0260500Y0166050D03*
X0260550Y0166050D03*
X0260600Y0166050D03*
X0260650Y0166050D03*
X0260700Y0166050D03*
X0260750Y0166050D03*
X0260800Y0166050D03*
X0260850Y0166050D03*
X0260900Y0166050D03*
X0260950Y0166050D03*
X0261000Y0166050D03*
X0261050Y0166050D03*
X0261100Y0166050D03*
X0261150Y0166050D03*
X0261200Y0166050D03*
X0261250Y0166050D03*
X0261300Y0166050D03*
X0261350Y0166050D03*
X0261400Y0166050D03*
X0261450Y0166050D03*
X0261500Y0166050D03*
X0261550Y0166050D03*
X0261600Y0166050D03*
X0261650Y0166050D03*
X0261700Y0166050D03*
X0261750Y0166050D03*
X0261800Y0166050D03*
X0261850Y0166050D03*
X0261900Y0166050D03*
X0261950Y0166050D03*
X0262000Y0166050D03*
X0262050Y0166050D03*
X0262100Y0166050D03*
X0262150Y0166050D03*
X0262200Y0166050D03*
X0262250Y0166050D03*
X0262300Y0166050D03*
X0262350Y0166050D03*
X0262400Y0166050D03*
X0262450Y0166050D03*
X0262500Y0166050D03*
X0262550Y0166050D03*
X0262600Y0166050D03*
X0262650Y0166050D03*
X0262700Y0166050D03*
X0262750Y0166050D03*
X0262800Y0166050D03*
X0262850Y0166050D03*
X0262900Y0166050D03*
X0262950Y0166050D03*
X0263000Y0166050D03*
X0263050Y0166050D03*
X0263100Y0166050D03*
X0263150Y0166050D03*
X0263200Y0166050D03*
X0263250Y0166050D03*
X0263300Y0166050D03*
X0263350Y0166050D03*
X0263400Y0166050D03*
X0263450Y0166050D03*
X0263500Y0166050D03*
X0263550Y0166050D03*
X0263600Y0166050D03*
X0260250Y0162350D03*
X0260200Y0162350D03*
X0260150Y0162350D03*
X0260100Y0162350D03*
X0258100Y0162350D03*
X0258050Y0162350D03*
X0258000Y0162350D03*
X0257950Y0162350D03*
X0257900Y0162350D03*
X0257000Y0154050D03*
X0257100Y0154000D03*
X0257150Y0154000D03*
X0257200Y0153950D03*
X0257250Y0153950D03*
X0261000Y0154100D03*
X0261100Y0154150D03*
X0261200Y0154200D03*
X0260050Y0146800D03*
X0260200Y0146750D03*
X0260250Y0146750D03*
X0260300Y0146700D03*
X0260350Y0146700D03*
X0260400Y0146700D03*
X0260500Y0146650D03*
X0258550Y0146900D03*
X0258500Y0146900D03*
X0258450Y0146900D03*
X0258400Y0146900D03*
X0258350Y0146900D03*
X0258300Y0146900D03*
X0258250Y0146850D03*
X0258200Y0146850D03*
X0258150Y0146850D03*
X0258100Y0146850D03*
X0258050Y0146850D03*
X0257950Y0146800D03*
X0257900Y0146800D03*
X0257850Y0146800D03*
X0257700Y0146750D03*
X0257650Y0146750D03*
X0257500Y0146700D03*
X0257350Y0146650D03*
X0256750Y0138750D03*
X0256850Y0138700D03*
X0256950Y0138650D03*
X0257050Y0138600D03*
X0257100Y0138600D03*
X0257200Y0138550D03*
X0260350Y0138550D03*
X0260400Y0138550D03*
X0260450Y0138600D03*
X0260500Y0138600D03*
X0257700Y0123550D03*
X0257800Y0123500D03*
X0257850Y0123500D03*
X0257900Y0123450D03*
X0257950Y0123450D03*
X0258000Y0123400D03*
X0258050Y0123400D03*
X0258150Y0123350D03*
X0258800Y0123150D03*
X0259000Y0123100D03*
X0258550Y0120100D03*
X0258500Y0120100D03*
X0258450Y0120100D03*
X0258300Y0120050D03*
X0258250Y0120050D03*
X0258200Y0120050D03*
X0258150Y0120050D03*
X0258100Y0120050D03*
X0258050Y0120000D03*
X0258000Y0120000D03*
X0257950Y0120000D03*
X0257900Y0120000D03*
X0257750Y0119950D03*
X0257700Y0119950D03*
X0257550Y0119900D03*
X0257400Y0119850D03*
X0260000Y0120000D03*
X0260150Y0119950D03*
X0260200Y0119950D03*
X0260250Y0119900D03*
X0260300Y0119900D03*
X0260350Y0119900D03*
X0260450Y0119850D03*
X0260500Y0111800D03*
X0260400Y0111750D03*
X0260300Y0111700D03*
X0260250Y0111700D03*
X0257150Y0111750D03*
X0257050Y0111800D03*
X0257000Y0111800D03*
X0256950Y0111850D03*
X0256900Y0111850D03*
X0256850Y0111900D03*
X0256800Y0111900D03*
X0256750Y0111950D03*
X0256700Y0111950D03*
X0256650Y0112000D03*
X0261100Y0108300D03*
X0261150Y0108300D03*
X0261450Y0101500D03*
X0261400Y0101450D03*
X0261350Y0101450D03*
X0261250Y0101400D03*
X0260250Y0097950D03*
X0260200Y0097950D03*
X0260300Y0097900D03*
X0260350Y0097900D03*
X0260400Y0097900D03*
X0260500Y0097850D03*
X0260050Y0098000D03*
X0258550Y0098100D03*
X0258500Y0098100D03*
X0258450Y0098100D03*
X0258400Y0098100D03*
X0258350Y0098100D03*
X0258300Y0098100D03*
X0258200Y0098050D03*
X0258150Y0098050D03*
X0258100Y0098050D03*
X0258050Y0098050D03*
X0258000Y0098050D03*
X0257900Y0098000D03*
X0257850Y0098000D03*
X0257800Y0098000D03*
X0257700Y0097950D03*
X0257650Y0097950D03*
X0257500Y0097900D03*
X0257350Y0097850D03*
X0256800Y0089950D03*
X0256750Y0089950D03*
X0256850Y0089900D03*
X0256950Y0089850D03*
X0257050Y0089800D03*
X0257100Y0089800D03*
X0257200Y0089750D03*
X0260350Y0089750D03*
X0260400Y0089750D03*
X0260450Y0089800D03*
X0260500Y0089800D03*
X0255900Y0085950D03*
X0255850Y0085950D03*
X0255800Y0085950D03*
X0255750Y0085950D03*
X0255700Y0085950D03*
X0255650Y0085950D03*
X0255450Y0086000D03*
X0255400Y0086000D03*
X0255350Y0086000D03*
X0255300Y0086000D03*
X0255250Y0086000D03*
X0255200Y0086000D03*
X0255150Y0086000D03*
X0255100Y0086000D03*
X0255050Y0086000D03*
X0255000Y0086000D03*
X0254950Y0086000D03*
X0254850Y0086050D03*
X0254800Y0086050D03*
X0254750Y0086050D03*
X0254700Y0086050D03*
X0254650Y0086050D03*
X0254600Y0086050D03*
X0254550Y0086050D03*
X0254500Y0086050D03*
X0254450Y0086050D03*
X0254400Y0086050D03*
X0254350Y0086050D03*
X0254300Y0086050D03*
X0254250Y0086050D03*
X0254200Y0086050D03*
X0254150Y0086050D03*
X0254100Y0086050D03*
X0254050Y0086050D03*
X0254000Y0086050D03*
X0253950Y0086050D03*
X0253900Y0086050D03*
X0254850Y0075500D03*
X0254900Y0075500D03*
X0254950Y0075500D03*
X0255000Y0075500D03*
X0255050Y0075500D03*
X0255100Y0075500D03*
X0255150Y0075500D03*
X0255200Y0075500D03*
X0255250Y0075500D03*
X0255300Y0075500D03*
X0255350Y0075500D03*
X0255400Y0075500D03*
X0255600Y0075550D03*
X0255650Y0075550D03*
X0255700Y0075550D03*
X0255750Y0075550D03*
X0255800Y0075550D03*
X0255850Y0075550D03*
X0254800Y0075450D03*
X0254750Y0075450D03*
X0254700Y0075450D03*
X0254650Y0075450D03*
X0254600Y0075450D03*
X0254550Y0075450D03*
X0254500Y0075450D03*
X0254450Y0075450D03*
X0254400Y0075450D03*
X0254350Y0075450D03*
X0254300Y0075450D03*
X0254250Y0075450D03*
X0254200Y0075450D03*
X0254150Y0075450D03*
X0254100Y0075450D03*
X0254050Y0075450D03*
X0254000Y0075450D03*
X0253950Y0075450D03*
X0253900Y0075450D03*
X0253900Y0073600D03*
X0253950Y0073600D03*
X0254000Y0073600D03*
X0254050Y0073600D03*
X0254100Y0073600D03*
X0254150Y0073600D03*
X0254200Y0073600D03*
X0254250Y0073600D03*
X0254300Y0073600D03*
X0254350Y0073600D03*
X0254400Y0073600D03*
X0254450Y0073600D03*
X0254500Y0073600D03*
X0254550Y0073600D03*
X0254600Y0073600D03*
X0254650Y0073600D03*
X0254700Y0073600D03*
X0254750Y0073600D03*
X0254800Y0073600D03*
X0254850Y0073600D03*
X0254900Y0073600D03*
X0254950Y0073550D03*
X0255000Y0073550D03*
X0255050Y0073550D03*
X0255100Y0073550D03*
X0255150Y0073550D03*
X0255200Y0073550D03*
X0255250Y0073550D03*
X0255300Y0073550D03*
X0255350Y0073550D03*
X0255400Y0073550D03*
X0255450Y0073550D03*
X0255650Y0073500D03*
X0255700Y0073500D03*
X0255750Y0073500D03*
X0255800Y0073500D03*
X0255850Y0073500D03*
X0255900Y0073500D03*
X0255850Y0063100D03*
X0255800Y0063100D03*
X0255750Y0063100D03*
X0255700Y0063100D03*
X0255650Y0063100D03*
X0255600Y0063100D03*
X0255550Y0063100D03*
X0255400Y0063050D03*
X0255350Y0063050D03*
X0255300Y0063050D03*
X0255250Y0063050D03*
X0255200Y0063050D03*
X0255150Y0063050D03*
X0255100Y0063050D03*
X0255050Y0063050D03*
X0255000Y0063050D03*
X0254950Y0063050D03*
X0254900Y0063050D03*
X0254850Y0063050D03*
X0254800Y0063050D03*
X0254750Y0063000D03*
X0254700Y0063000D03*
X0254650Y0063000D03*
X0254600Y0063000D03*
X0254550Y0063000D03*
X0254500Y0063000D03*
X0254450Y0063000D03*
X0254400Y0063000D03*
X0254350Y0063000D03*
X0254300Y0063000D03*
X0254250Y0063000D03*
X0254200Y0063000D03*
X0254150Y0063000D03*
X0254100Y0063000D03*
X0254050Y0063000D03*
X0254000Y0063000D03*
X0253950Y0063000D03*
X0253900Y0063000D03*
X0275150Y0063100D03*
X0275200Y0063100D03*
X0275250Y0063100D03*
X0275300Y0063100D03*
X0275350Y0063100D03*
X0275400Y0063100D03*
X0275550Y0063050D03*
X0275600Y0063050D03*
X0275650Y0063050D03*
X0275700Y0063050D03*
X0275750Y0063050D03*
X0275800Y0063050D03*
X0275850Y0063050D03*
X0275900Y0063050D03*
X0275950Y0063050D03*
X0276000Y0063050D03*
X0276050Y0063050D03*
X0276100Y0063050D03*
X0276150Y0063050D03*
X0276200Y0063000D03*
X0276250Y0063000D03*
X0276300Y0063000D03*
X0276350Y0063000D03*
X0276400Y0063000D03*
X0276450Y0063000D03*
X0276500Y0063000D03*
X0276550Y0063000D03*
X0276600Y0063000D03*
X0276650Y0063000D03*
X0276700Y0063000D03*
X0276750Y0063000D03*
X0276800Y0063000D03*
X0276850Y0063000D03*
X0276900Y0063000D03*
X0276950Y0063000D03*
X0277000Y0063000D03*
X0277050Y0063000D03*
X0277050Y0073600D03*
X0277000Y0073600D03*
X0276950Y0073600D03*
X0276900Y0073600D03*
X0276850Y0073600D03*
X0276800Y0073600D03*
X0276750Y0073600D03*
X0276700Y0073600D03*
X0276650Y0073600D03*
X0276600Y0073600D03*
X0276550Y0073600D03*
X0276500Y0073600D03*
X0276450Y0073600D03*
X0276400Y0073600D03*
X0276350Y0073600D03*
X0276300Y0073600D03*
X0276250Y0073600D03*
X0276200Y0073600D03*
X0276150Y0073600D03*
X0276100Y0073600D03*
X0276050Y0073600D03*
X0276000Y0073550D03*
X0275950Y0073550D03*
X0275900Y0073550D03*
X0275850Y0073550D03*
X0275800Y0073550D03*
X0275750Y0073550D03*
X0275700Y0073550D03*
X0275650Y0073550D03*
X0275600Y0073550D03*
X0275550Y0073550D03*
X0275500Y0073550D03*
X0275300Y0073500D03*
X0275250Y0073500D03*
X0275200Y0073500D03*
X0275150Y0073500D03*
X0275100Y0073500D03*
X0275050Y0073500D03*
X0275100Y0075550D03*
X0275150Y0075550D03*
X0275200Y0075550D03*
X0275250Y0075550D03*
X0275300Y0075550D03*
X0275350Y0075550D03*
X0275400Y0075550D03*
X0275550Y0075500D03*
X0275600Y0075500D03*
X0275650Y0075500D03*
X0275700Y0075500D03*
X0275750Y0075500D03*
X0275800Y0075500D03*
X0275850Y0075500D03*
X0275900Y0075500D03*
X0275950Y0075500D03*
X0276000Y0075500D03*
X0276050Y0075500D03*
X0276100Y0075500D03*
X0276150Y0075450D03*
X0276200Y0075450D03*
X0276250Y0075450D03*
X0276300Y0075450D03*
X0276350Y0075450D03*
X0276400Y0075450D03*
X0276450Y0075450D03*
X0276500Y0075450D03*
X0276550Y0075450D03*
X0276600Y0075450D03*
X0276650Y0075450D03*
X0276700Y0075450D03*
X0276750Y0075450D03*
X0276800Y0075450D03*
X0276850Y0075450D03*
X0276900Y0075450D03*
X0276950Y0075450D03*
X0277000Y0075450D03*
X0277050Y0075450D03*
X0277050Y0086050D03*
X0277000Y0086050D03*
X0276950Y0086050D03*
X0276900Y0086050D03*
X0276850Y0086050D03*
X0276800Y0086050D03*
X0276750Y0086050D03*
X0276700Y0086050D03*
X0276650Y0086050D03*
X0276600Y0086050D03*
X0276550Y0086050D03*
X0276500Y0086050D03*
X0276450Y0086050D03*
X0276400Y0086050D03*
X0276350Y0086050D03*
X0276300Y0086050D03*
X0276250Y0086050D03*
X0276200Y0086050D03*
X0276150Y0086050D03*
X0276100Y0086050D03*
X0276000Y0086000D03*
X0275950Y0086000D03*
X0275900Y0086000D03*
X0275850Y0086000D03*
X0275800Y0086000D03*
X0275750Y0086000D03*
X0275700Y0086000D03*
X0275650Y0086000D03*
X0275600Y0086000D03*
X0275550Y0086000D03*
X0275500Y0086000D03*
X0275300Y0085950D03*
X0275250Y0085950D03*
X0275200Y0085950D03*
X0275150Y0085950D03*
X0275100Y0085950D03*
X0263600Y0173050D03*
X0263550Y0173050D03*
X0263500Y0173050D03*
X0263450Y0173050D03*
X0263400Y0173050D03*
X0263350Y0173050D03*
X0263300Y0173050D03*
X0263250Y0173050D03*
X0263200Y0173050D03*
X0263150Y0173050D03*
X0263100Y0173050D03*
X0263050Y0173050D03*
X0263000Y0173050D03*
X0262950Y0173050D03*
X0262900Y0173050D03*
X0262850Y0173050D03*
X0262800Y0173050D03*
X0262750Y0173050D03*
X0262700Y0173050D03*
X0262650Y0173050D03*
X0262600Y0173050D03*
X0262550Y0173050D03*
X0262500Y0173050D03*
X0262450Y0173050D03*
X0262400Y0173050D03*
X0262350Y0173050D03*
X0262300Y0173050D03*
X0262250Y0173050D03*
X0262200Y0173050D03*
X0262150Y0173050D03*
X0262100Y0173050D03*
X0262050Y0173050D03*
X0262000Y0173050D03*
X0261950Y0173050D03*
X0261900Y0173050D03*
X0261850Y0173050D03*
X0261800Y0173050D03*
X0261750Y0173050D03*
X0261700Y0173050D03*
X0261650Y0173050D03*
X0261600Y0173050D03*
X0261550Y0173050D03*
X0261500Y0173050D03*
X0261450Y0173050D03*
X0261400Y0173050D03*
X0261350Y0173050D03*
X0261300Y0173050D03*
X0261250Y0173050D03*
X0261200Y0173050D03*
X0261150Y0173050D03*
X0261100Y0173050D03*
X0261050Y0173050D03*
X0261000Y0173050D03*
X0260950Y0173050D03*
X0260900Y0173050D03*
X0260850Y0173050D03*
X0260800Y0173050D03*
X0260750Y0173050D03*
X0260700Y0173050D03*
X0260650Y0173050D03*
X0260600Y0173050D03*
X0260550Y0173050D03*
X0260500Y0173050D03*
X0260450Y0173050D03*
X0260400Y0173050D03*
X0260350Y0173050D03*
X0260300Y0173050D03*
X0260250Y0173050D03*
X0260200Y0173050D03*
X0260150Y0173050D03*
X0260100Y0173050D03*
X0260050Y0173050D03*
X0260000Y0173050D03*
X0259950Y0173050D03*
X0259900Y0173050D03*
X0259850Y0173050D03*
X0259800Y0173050D03*
X0259750Y0173050D03*
X0259700Y0173050D03*
X0259650Y0173050D03*
X0259600Y0173050D03*
X0259550Y0173050D03*
X0259500Y0173050D03*
X0259450Y0173050D03*
X0259400Y0173050D03*
X0259350Y0173050D03*
X0259300Y0173050D03*
X0259250Y0173050D03*
X0259200Y0173050D03*
X0259150Y0173050D03*
X0259100Y0173050D03*
X0259050Y0173050D03*
X0259000Y0173050D03*
X0258950Y0173050D03*
X0258900Y0173050D03*
X0258850Y0173050D03*
X0258800Y0173050D03*
X0258750Y0173050D03*
X0258700Y0173050D03*
X0258650Y0173050D03*
X0258600Y0173050D03*
X0258550Y0173050D03*
X0258500Y0173050D03*
X0258450Y0173050D03*
X0258400Y0173050D03*
X0258350Y0173050D03*
X0258300Y0173050D03*
X0258250Y0173050D03*
X0258200Y0173050D03*
X0258150Y0173050D03*
X0258100Y0173050D03*
X0258050Y0173050D03*
X0258400Y0176250D03*
X0258450Y0176250D03*
X0258500Y0176250D03*
X0258550Y0176250D03*
X0258600Y0176250D03*
X0258650Y0176250D03*
X0258700Y0176250D03*
X0258750Y0176250D03*
X0258800Y0176200D03*
X0258850Y0176200D03*
X0258900Y0176200D03*
X0258950Y0176200D03*
X0259000Y0176200D03*
X0259050Y0176200D03*
X0259100Y0176200D03*
X0259150Y0176200D03*
X0259200Y0176200D03*
X0259250Y0176200D03*
X0259300Y0176200D03*
X0259350Y0176200D03*
X0259400Y0176200D03*
X0259450Y0176200D03*
X0259500Y0176200D03*
X0259550Y0176200D03*
X0259600Y0176200D03*
X0259650Y0176200D03*
X0259700Y0176200D03*
X0259800Y0176250D03*
X0259850Y0176250D03*
X0259900Y0176250D03*
X0259950Y0176250D03*
X0260000Y0176250D03*
X0260200Y0176300D03*
X0258250Y0176300D03*
X0258200Y0176300D03*
X0258150Y0176300D03*
X0258100Y0176300D03*
X0257950Y0176350D03*
X0257900Y0176350D03*
X0258000Y0184750D03*
X0258050Y0184750D03*
X0258200Y0184800D03*
X0258250Y0184800D03*
X0258300Y0184800D03*
X0258350Y0184800D03*
X0258400Y0184800D03*
X0258550Y0184850D03*
X0258600Y0184850D03*
X0258650Y0184850D03*
X0258700Y0184850D03*
X0258750Y0184850D03*
X0258800Y0184850D03*
X0258850Y0184850D03*
X0258900Y0184850D03*
X0258950Y0184850D03*
X0259000Y0184850D03*
X0259050Y0184850D03*
X0259150Y0184850D03*
X0259200Y0184850D03*
X0259250Y0184850D03*
X0259300Y0184850D03*
X0259350Y0184850D03*
X0259400Y0184850D03*
X0259450Y0184850D03*
X0259500Y0184850D03*
X0259550Y0184850D03*
X0259800Y0184800D03*
X0259850Y0184800D03*
X0260000Y0187900D03*
X0260050Y0187900D03*
X0260100Y0187900D03*
X0260150Y0187900D03*
X0260200Y0187900D03*
X0260250Y0187900D03*
X0260300Y0187900D03*
X0260350Y0187900D03*
X0260400Y0187900D03*
X0260450Y0187900D03*
X0260500Y0187900D03*
X0260550Y0187900D03*
X0260600Y0187900D03*
X0260650Y0187900D03*
X0260700Y0187900D03*
X0260750Y0187900D03*
X0260800Y0187900D03*
X0260850Y0187900D03*
X0260900Y0187900D03*
X0260950Y0187950D03*
X0261000Y0187950D03*
X0261050Y0187950D03*
X0261100Y0187950D03*
X0261150Y0187950D03*
X0261200Y0187950D03*
X0261250Y0187950D03*
X0261300Y0187950D03*
X0261350Y0187950D03*
X0261550Y0188000D03*
X0261600Y0188000D03*
X0261650Y0188000D03*
X0261850Y0188050D03*
X0261900Y0188050D03*
X0259900Y0187950D03*
X0259850Y0187950D03*
X0259800Y0187950D03*
X0259750Y0187950D03*
X0259700Y0187950D03*
X0259650Y0187950D03*
X0259600Y0187950D03*
X0259550Y0187950D03*
X0259400Y0188000D03*
X0259350Y0188000D03*
X0259300Y0188000D03*
X0259250Y0188000D03*
X0259050Y0188050D03*
D13*
X0258650Y0188150D03*
X0258500Y0188200D03*
X0258350Y0188250D03*
X0258300Y0188250D03*
X0258250Y0188300D03*
X0258200Y0188300D03*
X0258100Y0188350D03*
X0258000Y0188400D03*
X0257600Y0184650D03*
X0257450Y0184600D03*
X0257400Y0184600D03*
X0257300Y0184550D03*
X0257250Y0184550D03*
X0257200Y0184500D03*
X0257150Y0184500D03*
X0257050Y0184450D03*
X0256950Y0184400D03*
X0260250Y0184700D03*
X0260400Y0184650D03*
X0260450Y0184650D03*
X0260550Y0184600D03*
X0260600Y0184600D03*
X0260650Y0184550D03*
X0260700Y0184550D03*
X0260750Y0184500D03*
X0260800Y0184500D03*
X0260900Y0184450D03*
X0261000Y0184400D03*
X0262100Y0188100D03*
X0262300Y0188150D03*
X0262450Y0188200D03*
X0262500Y0188200D03*
X0262600Y0188250D03*
X0262650Y0188250D03*
X0262700Y0188300D03*
X0262750Y0188300D03*
X0262800Y0188300D03*
X0262850Y0188350D03*
X0262900Y0188350D03*
X0263000Y0188400D03*
X0257200Y0176600D03*
X0257150Y0176600D03*
X0257050Y0176650D03*
X0257250Y0176550D03*
X0257300Y0176550D03*
X0257400Y0176500D03*
X0257550Y0176450D03*
X0260400Y0176350D03*
X0260550Y0176400D03*
X0260600Y0176400D03*
X0260650Y0176450D03*
X0260700Y0176450D03*
X0260800Y0176500D03*
X0257350Y0173050D03*
X0257300Y0173050D03*
X0257250Y0173050D03*
X0257200Y0173050D03*
X0257150Y0173050D03*
X0257100Y0173000D03*
X0257050Y0173000D03*
X0257000Y0173000D03*
X0256950Y0173000D03*
X0253950Y0169750D03*
X0257200Y0166100D03*
X0257250Y0166100D03*
X0257300Y0166100D03*
X0257350Y0166100D03*
X0257550Y0162300D03*
X0257600Y0162300D03*
X0257650Y0162300D03*
X0257700Y0162300D03*
X0255650Y0160950D03*
X0255600Y0160900D03*
X0254150Y0157750D03*
X0256650Y0154250D03*
X0256700Y0154200D03*
X0256750Y0154200D03*
X0256800Y0154150D03*
X0261350Y0154300D03*
X0261400Y0154350D03*
X0261500Y0154400D03*
X0260750Y0146550D03*
X0260850Y0146500D03*
X0260900Y0146450D03*
X0260950Y0146450D03*
X0256850Y0146450D03*
X0256800Y0146400D03*
X0256750Y0146400D03*
X0256700Y0146350D03*
X0256600Y0146300D03*
X0256550Y0146250D03*
X0256450Y0146200D03*
X0256450Y0138950D03*
X0256500Y0138900D03*
X0260600Y0138650D03*
X0260700Y0138700D03*
X0260750Y0138700D03*
X0260800Y0138750D03*
X0260650Y0135400D03*
X0260600Y0135400D03*
X0260550Y0135400D03*
X0260500Y0135400D03*
X0261050Y0135350D03*
X0261100Y0135350D03*
X0261150Y0135350D03*
X0261200Y0135350D03*
X0261250Y0135350D03*
X0261400Y0135300D03*
X0261450Y0135300D03*
X0261500Y0135300D03*
X0261550Y0135300D03*
X0261600Y0135300D03*
X0261700Y0135250D03*
X0261750Y0135250D03*
X0261800Y0135250D03*
X0261850Y0135250D03*
X0261950Y0135200D03*
X0262000Y0135200D03*
X0262050Y0135200D03*
X0262150Y0135150D03*
X0262200Y0135150D03*
X0262250Y0135150D03*
X0262400Y0135100D03*
X0262550Y0135050D03*
X0263000Y0134900D03*
X0259950Y0135350D03*
X0259900Y0135350D03*
X0259850Y0135350D03*
X0259500Y0135300D03*
X0259200Y0135250D03*
X0258600Y0135100D03*
X0258450Y0135050D03*
X0258300Y0135000D03*
X0258150Y0134950D03*
X0258000Y0134900D03*
X0257900Y0134850D03*
X0257800Y0134800D03*
X0257700Y0134750D03*
X0257600Y0134700D03*
X0257550Y0134700D03*
X0257500Y0134650D03*
X0257450Y0134650D03*
X0257400Y0134600D03*
X0257350Y0134550D03*
X0257300Y0134550D03*
X0257250Y0134500D03*
X0257150Y0134450D03*
X0257200Y0123850D03*
X0257250Y0123800D03*
X0257300Y0123800D03*
X0257350Y0123750D03*
X0257000Y0119700D03*
X0256900Y0119650D03*
X0256800Y0119600D03*
X0256750Y0119550D03*
X0256700Y0119550D03*
X0256650Y0119500D03*
X0256550Y0119450D03*
X0260700Y0119750D03*
X0260800Y0119700D03*
X0260900Y0119650D03*
X0261000Y0119600D03*
X0260850Y0111950D03*
X0260750Y0111900D03*
X0260650Y0111850D03*
X0261300Y0108250D03*
X0261350Y0108250D03*
X0256500Y0112100D03*
X0256400Y0112150D03*
X0256350Y0112200D03*
X0261650Y0101600D03*
X0261750Y0101650D03*
X0260750Y0097750D03*
X0260850Y0097700D03*
X0260900Y0097650D03*
X0260950Y0097650D03*
X0261050Y0097600D03*
X0256850Y0097650D03*
X0256800Y0097600D03*
X0256750Y0097600D03*
X0256700Y0097550D03*
X0256650Y0097550D03*
X0256600Y0097500D03*
X0256450Y0097400D03*
X0256400Y0090200D03*
X0256450Y0090150D03*
X0256500Y0090100D03*
X0260600Y0089850D03*
X0260700Y0089900D03*
X0260750Y0089900D03*
X0260800Y0089950D03*
X0260900Y0090000D03*
X0258550Y0085350D03*
X0258400Y0085400D03*
X0258250Y0085450D03*
X0258200Y0085450D03*
X0258100Y0085500D03*
X0258050Y0085500D03*
X0258000Y0085500D03*
X0257950Y0085550D03*
X0257900Y0085550D03*
X0258550Y0076150D03*
X0258400Y0076100D03*
X0258250Y0076050D03*
X0258200Y0076050D03*
X0258100Y0076000D03*
X0258050Y0076000D03*
X0258000Y0076000D03*
X0257950Y0075950D03*
X0257900Y0075950D03*
X0257900Y0073100D03*
X0257950Y0073100D03*
X0258050Y0073050D03*
X0258100Y0073050D03*
X0258200Y0073000D03*
X0258250Y0073000D03*
X0258400Y0072950D03*
X0272400Y0072900D03*
X0272550Y0072950D03*
X0272700Y0073000D03*
X0272750Y0073000D03*
X0272850Y0073050D03*
X0272900Y0073050D03*
X0272950Y0073050D03*
X0273000Y0073100D03*
X0273050Y0073100D03*
X0273100Y0073100D03*
X0273100Y0075950D03*
X0273050Y0075950D03*
X0272950Y0076000D03*
X0272900Y0076000D03*
X0272850Y0076000D03*
X0272750Y0076050D03*
X0272700Y0076050D03*
X0272550Y0076100D03*
X0272400Y0085350D03*
X0272550Y0085400D03*
X0272700Y0085450D03*
X0272750Y0085450D03*
X0272850Y0085500D03*
X0272900Y0085500D03*
X0272950Y0085500D03*
X0273000Y0085550D03*
X0273050Y0085550D03*
X0273100Y0085550D03*
X0272600Y0063650D03*
X0272550Y0063650D03*
X0272700Y0063600D03*
X0272750Y0063600D03*
X0272850Y0063550D03*
X0272900Y0063550D03*
X0272950Y0063550D03*
X0273050Y0063500D03*
X0273100Y0063500D03*
X0258400Y0063650D03*
X0258250Y0063600D03*
X0258200Y0063600D03*
X0258100Y0063550D03*
X0258050Y0063550D03*
X0258000Y0063550D03*
X0257950Y0063500D03*
X0257900Y0063500D03*
X0260400Y0162300D03*
X0260450Y0162300D03*
X0260500Y0162300D03*
D14*
X0261350Y0162000D03*
X0262600Y0160400D03*
X0262550Y0155450D03*
X0256350Y0162000D03*
X0256100Y0166400D03*
X0254000Y0169750D03*
X0255450Y0172100D03*
X0255500Y0172150D03*
X0255800Y0177650D03*
X0255600Y0183300D03*
X0255650Y0183350D03*
X0256000Y0190050D03*
X0255950Y0190100D03*
X0265250Y0190150D03*
X0262300Y0145250D03*
X0262400Y0140100D03*
X0262350Y0140000D03*
X0255500Y0145150D03*
X0255950Y0133250D03*
X0255900Y0133200D03*
X0265150Y0133200D03*
X0265200Y0125200D03*
X0262300Y0118450D03*
X0262400Y0113250D03*
X0255600Y0113000D03*
X0255500Y0118350D03*
X0255800Y0125150D03*
X0262050Y0107950D03*
X0263750Y0104550D03*
X0262500Y0102400D03*
X0262300Y0096450D03*
X0262350Y0096400D03*
X0262400Y0091300D03*
X0262350Y0091200D03*
X0255500Y0096350D03*
X0263100Y0082800D03*
X0263250Y0082700D03*
X0263300Y0082650D03*
X0263350Y0082600D03*
X0263400Y0082550D03*
X0263500Y0082500D03*
X0263550Y0082450D03*
X0263600Y0082400D03*
X0263650Y0082350D03*
X0263650Y0079150D03*
X0263600Y0079100D03*
X0263550Y0079050D03*
X0263450Y0079000D03*
X0263400Y0078950D03*
X0263350Y0078900D03*
X0263300Y0078850D03*
X0263100Y0078700D03*
X0267250Y0079200D03*
X0267300Y0079150D03*
X0267350Y0079100D03*
X0267500Y0079000D03*
X0267550Y0078950D03*
X0267600Y0078900D03*
X0267650Y0078850D03*
X0267800Y0078750D03*
X0267850Y0078700D03*
X0267300Y0082350D03*
X0267350Y0082400D03*
X0267400Y0082450D03*
X0267500Y0082500D03*
X0267550Y0082550D03*
X0267600Y0082600D03*
X0267650Y0082650D03*
X0267800Y0082750D03*
X0267850Y0082800D03*
X0267850Y0070350D03*
X0267800Y0070300D03*
X0267650Y0070200D03*
X0267600Y0070150D03*
X0267550Y0070100D03*
X0267500Y0070050D03*
X0267400Y0070000D03*
X0267350Y0069950D03*
X0267300Y0069900D03*
X0267250Y0066750D03*
X0267300Y0066700D03*
X0267350Y0066650D03*
X0267500Y0066550D03*
X0267550Y0066500D03*
X0267600Y0066450D03*
X0267650Y0066400D03*
X0267750Y0066350D03*
X0267800Y0066300D03*
X0263650Y0066700D03*
X0263600Y0066650D03*
X0263550Y0066600D03*
X0263450Y0066550D03*
X0263400Y0066500D03*
X0263350Y0066450D03*
X0263300Y0066400D03*
X0263150Y0066300D03*
X0263100Y0066250D03*
X0263650Y0069900D03*
X0263600Y0069950D03*
X0263550Y0070000D03*
X0263500Y0070050D03*
X0263400Y0070100D03*
X0263350Y0070150D03*
X0263300Y0070200D03*
X0263250Y0070250D03*
X0263100Y0070350D03*
D15*
X0254000Y0142425D03*
X0264000Y0157975D03*
D16*
X0254000Y0115600D03*
X0254000Y0093650D03*
D17*
X0263650Y0123575D03*
X0254050Y0180475D03*
D18*
X0255300Y0182800D03*
X0255450Y0178150D03*
X0254050Y0169750D03*
X0255900Y0161800D03*
X0263850Y0158000D03*
X0255550Y0132650D03*
X0265600Y0125850D03*
X0255500Y0125700D03*
X0262650Y0113750D03*
X0263700Y0104550D03*
X0255400Y0091400D03*
X0265350Y0080750D03*
X0265650Y0080750D03*
X0265650Y0068300D03*
X0265350Y0068300D03*
D19*
X0260250Y0072200D03*
X0260200Y0072250D03*
X0260150Y0072250D03*
X0260050Y0072300D03*
X0259950Y0072350D03*
X0259950Y0076700D03*
X0260050Y0076750D03*
X0260150Y0076800D03*
X0260250Y0076850D03*
X0260250Y0084650D03*
X0260150Y0084700D03*
X0260050Y0084750D03*
X0259950Y0084800D03*
X0261400Y0090300D03*
X0261500Y0090350D03*
X0261550Y0090400D03*
X0254050Y0093650D03*
X0255950Y0096950D03*
X0256000Y0097000D03*
X0261500Y0097300D03*
X0261550Y0097250D03*
X0261600Y0097200D03*
X0262000Y0101850D03*
X0262050Y0101900D03*
X0262550Y0106900D03*
X0261650Y0108150D03*
X0261450Y0112300D03*
X0261500Y0112350D03*
X0256050Y0112450D03*
X0256000Y0112500D03*
X0256000Y0119000D03*
X0256050Y0119050D03*
X0261550Y0119250D03*
X0261600Y0119200D03*
X0261650Y0119150D03*
X0264300Y0124250D03*
X0264350Y0124300D03*
X0264400Y0124350D03*
X0264450Y0124400D03*
X0256700Y0124200D03*
X0256650Y0124250D03*
X0256600Y0124300D03*
X0256550Y0124300D03*
X0256550Y0133950D03*
X0261400Y0139100D03*
X0261500Y0139150D03*
X0261550Y0139200D03*
X0264100Y0134300D03*
X0264150Y0134250D03*
X0264250Y0134200D03*
X0264300Y0134150D03*
X0264350Y0134100D03*
X0254050Y0142450D03*
X0255950Y0145750D03*
X0256000Y0145800D03*
X0261550Y0146050D03*
X0261600Y0146000D03*
X0261950Y0154750D03*
X0256250Y0154500D03*
X0256200Y0154550D03*
X0255450Y0160650D03*
X0257050Y0162200D03*
X0257100Y0162200D03*
X0260850Y0162200D03*
X0256750Y0166200D03*
X0256700Y0166200D03*
X0256100Y0172650D03*
X0256150Y0172700D03*
X0256200Y0172700D03*
X0256250Y0172750D03*
X0256450Y0177000D03*
X0256400Y0177050D03*
X0261250Y0176750D03*
X0261300Y0176800D03*
X0261350Y0176800D03*
X0261400Y0176850D03*
X0261700Y0183900D03*
X0261650Y0183950D03*
X0261600Y0184000D03*
X0256450Y0184100D03*
X0256350Y0184050D03*
X0256300Y0184000D03*
X0256250Y0183950D03*
X0257200Y0188850D03*
X0257150Y0188900D03*
X0257050Y0188950D03*
X0257000Y0189000D03*
X0264100Y0189000D03*
X0264150Y0189050D03*
X0264250Y0189100D03*
X0264300Y0189150D03*
X0264350Y0189200D03*
X0271000Y0084800D03*
X0270900Y0084750D03*
X0270800Y0084700D03*
X0270700Y0084650D03*
X0270700Y0076850D03*
X0270750Y0076850D03*
X0270800Y0076800D03*
X0270900Y0076750D03*
X0271000Y0072350D03*
X0270900Y0072300D03*
X0270800Y0072250D03*
X0270700Y0072200D03*
X0270700Y0064400D03*
X0270750Y0064400D03*
X0270800Y0064350D03*
X0270900Y0064300D03*
X0260250Y0064400D03*
X0260150Y0064350D03*
X0260050Y0064300D03*
X0259950Y0064250D03*
D20*
X0260150Y0089675D03*
X0260200Y0089675D03*
X0260250Y0089725D03*
X0260300Y0089725D03*
X0257150Y0089775D03*
X0257000Y0089825D03*
X0256900Y0089875D03*
X0258250Y0098075D03*
X0259650Y0098075D03*
X0259700Y0098075D03*
X0259750Y0098075D03*
X0259800Y0098075D03*
X0259850Y0098025D03*
X0259900Y0098025D03*
X0259950Y0098025D03*
X0260000Y0098025D03*
X0260100Y0097975D03*
X0260150Y0097975D03*
X0260750Y0101275D03*
X0260950Y0101325D03*
X0261000Y0101325D03*
X0261050Y0101325D03*
X0261100Y0101375D03*
X0261150Y0101375D03*
X0261200Y0101375D03*
X0261300Y0101425D03*
X0261050Y0108325D03*
X0261000Y0108325D03*
X0260950Y0108325D03*
X0260050Y0111625D03*
X0260150Y0111675D03*
X0260200Y0111675D03*
X0260350Y0111725D03*
X0257200Y0111725D03*
X0257100Y0111775D03*
X0258350Y0120075D03*
X0258400Y0120075D03*
X0259650Y0120075D03*
X0259700Y0120075D03*
X0259800Y0120025D03*
X0259850Y0120025D03*
X0259900Y0120025D03*
X0259950Y0120025D03*
X0260050Y0119975D03*
X0260100Y0119975D03*
X0259050Y0123075D03*
X0258950Y0123125D03*
X0258900Y0123125D03*
X0258850Y0123125D03*
X0258750Y0123175D03*
X0258700Y0123175D03*
X0258650Y0123175D03*
X0258550Y0123225D03*
X0258500Y0123225D03*
X0258450Y0123225D03*
X0258400Y0123275D03*
X0258350Y0123275D03*
X0258300Y0123275D03*
X0258250Y0123325D03*
X0258200Y0123325D03*
X0258100Y0123375D03*
X0254050Y0128975D03*
X0257150Y0138575D03*
X0257000Y0138625D03*
X0256900Y0138675D03*
X0260150Y0138475D03*
X0260200Y0138475D03*
X0260250Y0138525D03*
X0260300Y0138525D03*
X0260150Y0146775D03*
X0260100Y0146775D03*
X0260000Y0146825D03*
X0259950Y0146825D03*
X0259900Y0146825D03*
X0259850Y0146825D03*
X0259800Y0146875D03*
X0259750Y0146875D03*
X0259700Y0146875D03*
X0259650Y0146875D03*
X0257750Y0153775D03*
X0257600Y0153825D03*
X0257550Y0153825D03*
X0257500Y0153875D03*
X0257450Y0153875D03*
X0257400Y0153875D03*
X0257350Y0153925D03*
X0257300Y0153925D03*
X0260750Y0153975D03*
X0260850Y0154025D03*
X0260900Y0154025D03*
X0260950Y0154075D03*
X0261050Y0154125D03*
X0260050Y0162375D03*
X0260000Y0162375D03*
X0259950Y0162375D03*
X0259900Y0162375D03*
X0258400Y0162375D03*
X0258350Y0162375D03*
X0258300Y0162375D03*
X0258250Y0162375D03*
X0258200Y0162375D03*
X0258150Y0162375D03*
X0259100Y0184875D03*
X0259950Y0187925D03*
D21*
X0257400Y0188725D03*
X0257300Y0188775D03*
X0257250Y0188825D03*
X0257100Y0188925D03*
X0256550Y0184175D03*
X0256500Y0184125D03*
X0256400Y0184075D03*
X0261450Y0184125D03*
X0261500Y0184075D03*
X0261550Y0184025D03*
X0263750Y0188775D03*
X0263850Y0188825D03*
X0263900Y0188875D03*
X0263950Y0188925D03*
X0264000Y0188925D03*
X0264050Y0188975D03*
X0264200Y0189075D03*
X0261200Y0176725D03*
X0261150Y0176675D03*
X0256650Y0176875D03*
X0256600Y0176925D03*
X0256550Y0176925D03*
X0256500Y0176975D03*
X0256400Y0172825D03*
X0256350Y0172775D03*
X0256300Y0172775D03*
X0256800Y0166175D03*
X0256850Y0166175D03*
X0257150Y0162225D03*
X0257200Y0162225D03*
X0257250Y0162225D03*
X0260750Y0162225D03*
X0260800Y0162225D03*
X0261900Y0154725D03*
X0261850Y0154675D03*
X0261800Y0154625D03*
X0256450Y0154375D03*
X0256350Y0154425D03*
X0256300Y0154475D03*
X0256100Y0145925D03*
X0256050Y0145875D03*
X0261400Y0146175D03*
X0261450Y0146125D03*
X0261500Y0146075D03*
X0261450Y0139125D03*
X0261350Y0139075D03*
X0261300Y0139025D03*
X0256150Y0139175D03*
X0256100Y0139225D03*
X0256050Y0139275D03*
X0256700Y0134125D03*
X0256650Y0134075D03*
X0256600Y0134025D03*
X0263850Y0134475D03*
X0264000Y0134375D03*
X0264050Y0134325D03*
X0264200Y0134225D03*
X0264250Y0124225D03*
X0264200Y0124175D03*
X0264150Y0124125D03*
X0264050Y0124075D03*
X0261450Y0119325D03*
X0261500Y0119275D03*
X0256100Y0119075D03*
X0254050Y0115625D03*
X0256100Y0112425D03*
X0256150Y0112375D03*
X0261250Y0112175D03*
X0261300Y0112225D03*
X0261350Y0112225D03*
X0261400Y0112275D03*
X0261550Y0108175D03*
X0261600Y0108175D03*
X0261400Y0097375D03*
X0261450Y0097325D03*
X0256100Y0097125D03*
X0256050Y0097075D03*
X0256050Y0090475D03*
X0256100Y0090425D03*
X0256150Y0090375D03*
X0261300Y0090225D03*
X0261350Y0090275D03*
X0261450Y0090325D03*
X0259450Y0085025D03*
X0259550Y0084975D03*
X0259650Y0084925D03*
X0259700Y0084925D03*
X0259750Y0084875D03*
X0259800Y0084875D03*
X0259850Y0084825D03*
X0259900Y0084825D03*
X0260000Y0084775D03*
X0260100Y0084725D03*
X0260200Y0084675D03*
X0260200Y0076825D03*
X0260100Y0076775D03*
X0260000Y0076725D03*
X0259900Y0076675D03*
X0259850Y0076675D03*
X0259800Y0076625D03*
X0259750Y0076625D03*
X0259700Y0076575D03*
X0259650Y0076575D03*
X0259550Y0076525D03*
X0259300Y0076425D03*
X0259450Y0072575D03*
X0259550Y0072525D03*
X0259650Y0072475D03*
X0259700Y0072475D03*
X0259750Y0072425D03*
X0259800Y0072425D03*
X0259850Y0072375D03*
X0259900Y0072375D03*
X0260000Y0072325D03*
X0260100Y0072275D03*
X0260200Y0064375D03*
X0260100Y0064325D03*
X0260000Y0064275D03*
X0259900Y0064225D03*
X0259850Y0064225D03*
X0259800Y0064175D03*
X0259750Y0064175D03*
X0259700Y0064125D03*
X0259650Y0064125D03*
X0259550Y0064075D03*
X0259300Y0063975D03*
X0270850Y0064325D03*
X0270950Y0064275D03*
X0271000Y0064275D03*
X0271050Y0064225D03*
X0271100Y0064225D03*
X0271150Y0064175D03*
X0271200Y0064175D03*
X0271300Y0064125D03*
X0271400Y0064075D03*
X0271550Y0064025D03*
X0270750Y0072225D03*
X0270850Y0072275D03*
X0270950Y0072325D03*
X0271050Y0072375D03*
X0271100Y0072375D03*
X0271150Y0072425D03*
X0271200Y0072425D03*
X0271250Y0072475D03*
X0271300Y0072475D03*
X0271400Y0072525D03*
X0271500Y0072575D03*
X0271400Y0076525D03*
X0271300Y0076575D03*
X0271200Y0076625D03*
X0271150Y0076625D03*
X0271100Y0076675D03*
X0271050Y0076675D03*
X0271000Y0076725D03*
X0270950Y0076725D03*
X0270850Y0076775D03*
X0270750Y0084675D03*
X0270850Y0084725D03*
X0270950Y0084775D03*
X0271050Y0084825D03*
X0271100Y0084825D03*
X0271150Y0084875D03*
X0271200Y0084875D03*
X0271250Y0084925D03*
X0271300Y0084925D03*
X0271400Y0084975D03*
X0256800Y0124125D03*
X0256750Y0124175D03*
D22*
X0256000Y0124875D03*
X0255650Y0118575D03*
X0262100Y0118725D03*
X0263750Y0115825D03*
X0262200Y0112975D03*
X0262150Y0112925D03*
X0261900Y0108025D03*
X0262350Y0102225D03*
X0262050Y0096775D03*
X0262100Y0096725D03*
X0263750Y0093825D03*
X0262250Y0091075D03*
X0262200Y0091025D03*
X0255750Y0090825D03*
X0255650Y0096575D03*
X0262200Y0083475D03*
X0262250Y0083425D03*
X0262300Y0083425D03*
X0262350Y0083375D03*
X0262400Y0083325D03*
X0262550Y0083225D03*
X0262400Y0078175D03*
X0262350Y0078125D03*
X0262250Y0078075D03*
X0262200Y0078025D03*
X0268550Y0078175D03*
X0268600Y0078125D03*
X0268700Y0078075D03*
X0268750Y0078025D03*
X0268800Y0078025D03*
X0268550Y0083325D03*
X0268600Y0083375D03*
X0268700Y0083425D03*
X0268750Y0083475D03*
X0268750Y0071025D03*
X0268700Y0070975D03*
X0268600Y0070925D03*
X0268550Y0070875D03*
X0262550Y0070775D03*
X0262400Y0070875D03*
X0262350Y0070925D03*
X0262300Y0070975D03*
X0262250Y0070975D03*
X0262200Y0071025D03*
X0262150Y0071075D03*
X0262400Y0065725D03*
X0262350Y0065675D03*
X0262250Y0065625D03*
X0262200Y0065575D03*
X0268550Y0065725D03*
X0268600Y0065675D03*
X0268700Y0065625D03*
X0268750Y0065575D03*
X0268800Y0065575D03*
X0265000Y0124925D03*
X0264950Y0133475D03*
X0264900Y0133525D03*
X0262200Y0139825D03*
X0263750Y0142625D03*
X0262100Y0145525D03*
X0262050Y0145575D03*
X0255650Y0145375D03*
X0255750Y0139625D03*
X0256150Y0133525D03*
X0255850Y0154875D03*
X0262450Y0160625D03*
X0261200Y0162075D03*
X0256600Y0162075D03*
X0256550Y0162075D03*
X0256300Y0166325D03*
X0256250Y0166325D03*
X0256050Y0177375D03*
X0256000Y0177425D03*
X0254100Y0180475D03*
X0255800Y0183525D03*
X0255850Y0183575D03*
X0256350Y0189625D03*
X0256300Y0189675D03*
X0256250Y0189725D03*
X0262200Y0183375D03*
X0262250Y0183325D03*
X0261800Y0177225D03*
X0265000Y0189825D03*
X0265050Y0189875D03*
D23*
X0255300Y0178450D03*
X0254100Y0169750D03*
X0262050Y0161650D03*
X0262900Y0156200D03*
X0263650Y0142600D03*
X0255350Y0132250D03*
X0265750Y0126200D03*
X0263650Y0115800D03*
X0263650Y0104550D03*
X0265150Y0080750D03*
X0265800Y0080750D03*
X0265800Y0068300D03*
X0265150Y0068300D03*
D24*
X0264250Y0067200D03*
X0263950Y0066950D03*
X0264250Y0069400D03*
X0264200Y0069450D03*
X0266700Y0069400D03*
X0267000Y0069650D03*
X0266900Y0067050D03*
X0266950Y0067000D03*
X0266950Y0079450D03*
X0266700Y0079650D03*
X0266700Y0081850D03*
X0266950Y0082050D03*
X0267000Y0082100D03*
X0264250Y0081850D03*
X0264200Y0081900D03*
X0264250Y0079650D03*
X0263950Y0079400D03*
X0262500Y0091450D03*
X0262400Y0096300D03*
X0255550Y0091100D03*
X0254100Y0093650D03*
X0262550Y0102500D03*
X0262750Y0106450D03*
X0262450Y0113350D03*
X0262400Y0118300D03*
X0255550Y0113100D03*
X0254100Y0115650D03*
X0255700Y0125300D03*
X0255650Y0125400D03*
X0265300Y0125350D03*
X0265300Y0133000D03*
X0262500Y0140250D03*
X0262400Y0145100D03*
X0255550Y0139900D03*
X0254100Y0142450D03*
X0255800Y0133050D03*
X0255600Y0155200D03*
X0255250Y0160200D03*
X0256200Y0161950D03*
X0256000Y0166450D03*
X0255200Y0167750D03*
X0255350Y0171950D03*
X0255700Y0177750D03*
X0255500Y0183150D03*
X0262400Y0183100D03*
X0262100Y0177550D03*
X0265350Y0190300D03*
X0255800Y0190350D03*
X0261450Y0161950D03*
X0262650Y0160300D03*
X0262650Y0155600D03*
D25*
X0261700Y0161850D03*
X0256000Y0161850D03*
X0255800Y0166550D03*
X0255250Y0171800D03*
X0255500Y0178050D03*
X0255350Y0182900D03*
X0262500Y0182900D03*
X0262300Y0177850D03*
X0262600Y0140450D03*
X0265500Y0132650D03*
X0255600Y0132750D03*
X0254100Y0129000D03*
X0255550Y0125600D03*
X0255300Y0117950D03*
X0262550Y0118000D03*
X0263700Y0115800D03*
X0262600Y0113650D03*
X0262250Y0107800D03*
X0262600Y0091650D03*
X0265400Y0080750D03*
X0265550Y0080750D03*
X0265550Y0068300D03*
X0265400Y0068300D03*
D26*
X0265100Y0068300D03*
X0265850Y0068300D03*
X0265850Y0080750D03*
X0265100Y0080750D03*
X0262700Y0095600D03*
X0262800Y0103100D03*
X0262700Y0117600D03*
X0265800Y0126350D03*
X0267000Y0129150D03*
X0255350Y0126100D03*
X0262700Y0144400D03*
X0255250Y0155900D03*
X0263800Y0158000D03*
X0262100Y0161600D03*
X0255450Y0166800D03*
X0262500Y0178250D03*
X0254200Y0180500D03*
X0255300Y0191400D03*
X0254150Y0194650D03*
X0265750Y0191150D03*
D27*
X0265550Y0190675D03*
X0255550Y0190775D03*
X0255500Y0190875D03*
X0254150Y0180475D03*
X0255200Y0171725D03*
X0255750Y0166575D03*
X0255950Y0161825D03*
X0255200Y0160025D03*
X0255400Y0155525D03*
X0262800Y0155925D03*
X0262800Y0160025D03*
X0261750Y0161825D03*
X0262550Y0144825D03*
X0263700Y0142625D03*
X0255400Y0140175D03*
X0255300Y0144775D03*
X0265550Y0132525D03*
X0265550Y0125775D03*
X0255400Y0113375D03*
X0262300Y0107775D03*
X0262700Y0102775D03*
X0262550Y0096025D03*
X0263700Y0093825D03*
X0255300Y0095975D03*
X0265600Y0080775D03*
X0265600Y0068325D03*
D28*
X0263600Y0093825D03*
X0262750Y0117375D03*
X0265850Y0131775D03*
X0263600Y0142625D03*
X0254300Y0157775D03*
X0254150Y0169725D03*
X0255250Y0191575D03*
D29*
X0255400Y0191125D03*
X0255250Y0182675D03*
X0255350Y0178325D03*
X0262400Y0178025D03*
X0261900Y0161725D03*
X0262650Y0144575D03*
X0262700Y0140725D03*
X0254150Y0142475D03*
X0255450Y0132475D03*
X0255450Y0125825D03*
X0265700Y0126075D03*
X0265650Y0132325D03*
X0262400Y0107675D03*
X0262650Y0095775D03*
X0262700Y0091925D03*
X0254150Y0093675D03*
D30*
X0263600Y0104550D03*
X0263600Y0115800D03*
X0265850Y0126500D03*
X0255300Y0126250D03*
X0254150Y0129000D03*
X0255250Y0131950D03*
X0262250Y0161500D03*
X0255350Y0166900D03*
X0262550Y0178400D03*
X0265000Y0080750D03*
X0265950Y0080750D03*
X0265950Y0068300D03*
X0265000Y0068300D03*
D31*
X0265250Y0068300D03*
X0265700Y0068300D03*
X0265700Y0080750D03*
X0265250Y0080750D03*
X0255350Y0091500D03*
X0262750Y0102900D03*
X0262800Y0106200D03*
X0255350Y0113500D03*
X0254150Y0115650D03*
X0255250Y0117800D03*
X0255350Y0140300D03*
X0255250Y0144600D03*
X0262850Y0156050D03*
X0261850Y0161750D03*
X0255800Y0161750D03*
X0255650Y0166650D03*
X0255100Y0168000D03*
X0255150Y0171600D03*
X0265650Y0190900D03*
D32*
X0266900Y0195550D03*
X0254200Y0195550D03*
X0263200Y0180450D03*
X0254750Y0157850D03*
X0254750Y0142500D03*
X0254750Y0093700D03*
D33*
X0263550Y0093825D03*
X0263700Y0157975D03*
X0254200Y0169725D03*
D34*
X0254200Y0166000D03*
X0254250Y0166000D03*
X0254300Y0166000D03*
X0254350Y0166000D03*
X0254400Y0166000D03*
X0254450Y0166000D03*
X0254500Y0166000D03*
X0254550Y0166000D03*
X0254600Y0166000D03*
X0254650Y0166000D03*
X0254700Y0166000D03*
X0254750Y0166000D03*
X0254800Y0166000D03*
X0254850Y0166000D03*
X0254900Y0166000D03*
X0254950Y0166000D03*
X0255000Y0166000D03*
X0255050Y0166000D03*
X0255100Y0166000D03*
X0255150Y0166000D03*
X0255200Y0166000D03*
X0258450Y0162400D03*
X0258500Y0162400D03*
X0258550Y0162400D03*
X0258600Y0162400D03*
X0258650Y0162400D03*
X0258700Y0162400D03*
X0258750Y0162400D03*
X0258800Y0162400D03*
X0258850Y0162400D03*
X0259500Y0162400D03*
X0259550Y0162400D03*
X0259600Y0162400D03*
X0259650Y0162400D03*
X0259700Y0162400D03*
X0259750Y0162400D03*
X0259800Y0162400D03*
X0259850Y0162400D03*
X0260800Y0154000D03*
X0260700Y0153950D03*
X0260650Y0153950D03*
X0260600Y0153900D03*
X0260550Y0153900D03*
X0258500Y0153650D03*
X0258200Y0153700D03*
X0258150Y0153700D03*
X0258100Y0153700D03*
X0258050Y0153700D03*
X0257950Y0153750D03*
X0257900Y0153750D03*
X0257850Y0153750D03*
X0257800Y0153750D03*
X0257700Y0153800D03*
X0257650Y0153800D03*
X0260000Y0138450D03*
X0260050Y0138450D03*
X0260100Y0138450D03*
X0259950Y0138400D03*
X0259900Y0138400D03*
X0258600Y0123200D03*
X0259750Y0120050D03*
X0263800Y0115800D03*
X0260100Y0111650D03*
X0260000Y0111600D03*
X0259950Y0111600D03*
X0260750Y0108350D03*
X0260800Y0108350D03*
X0260850Y0108350D03*
X0260900Y0108350D03*
X0260900Y0101300D03*
X0260850Y0101300D03*
X0260800Y0101300D03*
X0260700Y0101250D03*
X0260650Y0101250D03*
X0260600Y0101250D03*
X0260550Y0101250D03*
X0260500Y0101250D03*
X0260450Y0101250D03*
X0260100Y0089650D03*
X0260050Y0089650D03*
X0260000Y0089650D03*
X0259950Y0089600D03*
X0259900Y0089600D03*
D35*
X0259850Y0089575D03*
X0259800Y0089575D03*
X0259750Y0089575D03*
X0263800Y0093825D03*
X0260400Y0101225D03*
X0260350Y0101225D03*
X0260300Y0101225D03*
X0260250Y0101225D03*
X0260200Y0101225D03*
X0260150Y0101225D03*
X0260100Y0101225D03*
X0260050Y0101225D03*
X0260000Y0101225D03*
X0259950Y0101225D03*
X0259900Y0101225D03*
X0259850Y0101225D03*
X0259800Y0101225D03*
X0259750Y0101225D03*
X0259700Y0101225D03*
X0259650Y0101225D03*
X0259600Y0101225D03*
X0259550Y0101225D03*
X0259500Y0101225D03*
X0259450Y0101225D03*
X0259400Y0101225D03*
X0259350Y0101225D03*
X0259300Y0101225D03*
X0259250Y0101225D03*
X0259200Y0101225D03*
X0259150Y0101225D03*
X0259100Y0101225D03*
X0259050Y0101225D03*
X0259000Y0101225D03*
X0258950Y0101225D03*
X0258900Y0101225D03*
X0258850Y0101225D03*
X0258800Y0101225D03*
X0258750Y0101225D03*
X0258700Y0101225D03*
X0258650Y0101225D03*
X0258600Y0101225D03*
X0258550Y0101225D03*
X0258500Y0101225D03*
X0258450Y0101225D03*
X0258400Y0101225D03*
X0258350Y0101225D03*
X0258300Y0101225D03*
X0258250Y0101225D03*
X0258200Y0101225D03*
X0258150Y0101225D03*
X0258100Y0101225D03*
X0258050Y0101225D03*
X0258000Y0101225D03*
X0257950Y0101225D03*
X0257900Y0101225D03*
X0257850Y0101225D03*
X0257800Y0101225D03*
X0257750Y0101225D03*
X0257700Y0101225D03*
X0257650Y0101225D03*
X0257600Y0101225D03*
X0257550Y0101225D03*
X0257500Y0101225D03*
X0257450Y0101225D03*
X0257400Y0101225D03*
X0257350Y0101225D03*
X0257300Y0101225D03*
X0257250Y0101225D03*
X0257200Y0101225D03*
X0257150Y0101225D03*
X0257100Y0101225D03*
X0257050Y0101225D03*
X0257000Y0101225D03*
X0256950Y0101225D03*
X0256900Y0101225D03*
X0256850Y0101225D03*
X0256800Y0101225D03*
X0256750Y0101225D03*
X0256700Y0101225D03*
X0256650Y0101225D03*
X0256600Y0101225D03*
X0256550Y0101225D03*
X0256500Y0101225D03*
X0256450Y0101225D03*
X0256400Y0101225D03*
X0256350Y0101225D03*
X0256300Y0101225D03*
X0256250Y0101225D03*
X0256200Y0101225D03*
X0256150Y0101225D03*
X0256100Y0101225D03*
X0256050Y0101225D03*
X0256000Y0101225D03*
X0255950Y0101225D03*
X0255900Y0101225D03*
X0255850Y0101225D03*
X0255800Y0101225D03*
X0255750Y0101225D03*
X0255700Y0101225D03*
X0255650Y0101225D03*
X0255600Y0101225D03*
X0255550Y0101225D03*
X0255500Y0101225D03*
X0255450Y0101225D03*
X0255400Y0101225D03*
X0255350Y0101225D03*
X0255300Y0101225D03*
X0255250Y0101225D03*
X0255200Y0101225D03*
X0255150Y0101225D03*
X0255100Y0101225D03*
X0255050Y0101225D03*
X0255000Y0101225D03*
X0254950Y0101225D03*
X0254900Y0101225D03*
X0254850Y0101225D03*
X0254800Y0101225D03*
X0254750Y0101225D03*
X0254700Y0101225D03*
X0254650Y0101225D03*
X0254600Y0101225D03*
X0254550Y0101225D03*
X0254500Y0101225D03*
X0254450Y0101225D03*
X0254400Y0101225D03*
X0254350Y0101225D03*
X0254300Y0101225D03*
X0254250Y0101225D03*
X0254200Y0101225D03*
X0254200Y0108375D03*
X0254250Y0108375D03*
X0254300Y0108375D03*
X0254350Y0108375D03*
X0254400Y0108375D03*
X0254450Y0108375D03*
X0254500Y0108375D03*
X0254550Y0108375D03*
X0254600Y0108375D03*
X0254650Y0108375D03*
X0254700Y0108375D03*
X0254750Y0108375D03*
X0254800Y0108375D03*
X0254850Y0108375D03*
X0254900Y0108375D03*
X0254950Y0108375D03*
X0255000Y0108375D03*
X0255050Y0108375D03*
X0255100Y0108375D03*
X0255150Y0108375D03*
X0255200Y0108375D03*
X0255250Y0108375D03*
X0255300Y0108375D03*
X0255350Y0108375D03*
X0255400Y0108375D03*
X0255450Y0108375D03*
X0255500Y0108375D03*
X0255550Y0108375D03*
X0255600Y0108375D03*
X0255650Y0108375D03*
X0255700Y0108375D03*
X0255750Y0108375D03*
X0255800Y0108375D03*
X0255850Y0108375D03*
X0255900Y0108375D03*
X0255950Y0108375D03*
X0256000Y0108375D03*
X0256050Y0108375D03*
X0256100Y0108375D03*
X0256150Y0108375D03*
X0256200Y0108375D03*
X0256250Y0108375D03*
X0256300Y0108375D03*
X0256350Y0108375D03*
X0256400Y0108375D03*
X0256450Y0108375D03*
X0256500Y0108375D03*
X0256550Y0108375D03*
X0256600Y0108375D03*
X0256650Y0108375D03*
X0256700Y0108375D03*
X0256750Y0108375D03*
X0256800Y0108375D03*
X0256850Y0108375D03*
X0256900Y0108375D03*
X0256950Y0108375D03*
X0257000Y0108375D03*
X0257050Y0108375D03*
X0257100Y0108375D03*
X0257150Y0108375D03*
X0257200Y0108375D03*
X0257250Y0108375D03*
X0257300Y0108375D03*
X0257350Y0108375D03*
X0257400Y0108375D03*
X0257450Y0108375D03*
X0257500Y0108375D03*
X0257550Y0108375D03*
X0257600Y0108375D03*
X0257650Y0108375D03*
X0257700Y0108375D03*
X0257750Y0108375D03*
X0257800Y0108375D03*
X0257850Y0108375D03*
X0257900Y0108375D03*
X0257950Y0108375D03*
X0258000Y0108375D03*
X0258050Y0108375D03*
X0258100Y0108375D03*
X0258150Y0108375D03*
X0258200Y0108375D03*
X0258250Y0108375D03*
X0258300Y0108375D03*
X0258350Y0108375D03*
X0258400Y0108375D03*
X0258450Y0108375D03*
X0258500Y0108375D03*
X0258550Y0108375D03*
X0258600Y0108375D03*
X0258650Y0108375D03*
X0258700Y0108375D03*
X0258750Y0108375D03*
X0258800Y0108375D03*
X0258850Y0108375D03*
X0258900Y0108375D03*
X0258950Y0108375D03*
X0259000Y0108375D03*
X0259050Y0108375D03*
X0259100Y0108375D03*
X0259150Y0108375D03*
X0259200Y0108375D03*
X0259250Y0108375D03*
X0259300Y0108375D03*
X0259350Y0108375D03*
X0259400Y0108375D03*
X0259450Y0108375D03*
X0259500Y0108375D03*
X0259550Y0108375D03*
X0259600Y0108375D03*
X0259650Y0108375D03*
X0259700Y0108375D03*
X0259750Y0108375D03*
X0259800Y0108375D03*
X0259850Y0108375D03*
X0259900Y0108375D03*
X0259950Y0108375D03*
X0260000Y0108375D03*
X0260050Y0108375D03*
X0260350Y0108375D03*
X0260400Y0108375D03*
X0260450Y0108375D03*
X0260500Y0108375D03*
X0260550Y0108375D03*
X0260600Y0108375D03*
X0260650Y0108375D03*
X0260700Y0108375D03*
X0262550Y0108375D03*
X0262600Y0108375D03*
X0262650Y0108375D03*
X0262700Y0108375D03*
X0262750Y0108375D03*
X0262800Y0108375D03*
X0262850Y0108375D03*
X0262900Y0108375D03*
X0262950Y0108375D03*
X0263000Y0108375D03*
X0263050Y0108375D03*
X0263100Y0108375D03*
X0263150Y0108375D03*
X0263200Y0108375D03*
X0263250Y0108375D03*
X0263300Y0108375D03*
X0263350Y0108375D03*
X0263400Y0108375D03*
X0263450Y0108375D03*
X0263500Y0108375D03*
X0263550Y0108375D03*
X0263600Y0108375D03*
X0263650Y0108375D03*
X0263700Y0108375D03*
X0263750Y0108375D03*
X0259900Y0111575D03*
X0259850Y0111575D03*
X0259800Y0111575D03*
X0259700Y0111525D03*
X0259650Y0111525D03*
X0259750Y0138375D03*
X0259800Y0138375D03*
X0259850Y0138375D03*
X0263800Y0142625D03*
X0263800Y0150025D03*
X0263850Y0150025D03*
X0263900Y0150025D03*
X0263950Y0150025D03*
X0264000Y0150025D03*
X0264050Y0150025D03*
X0264100Y0150025D03*
X0264150Y0150025D03*
X0264200Y0150025D03*
X0264250Y0150025D03*
X0264300Y0150025D03*
X0264350Y0150025D03*
X0264400Y0150025D03*
X0264450Y0150025D03*
X0264500Y0150025D03*
X0264550Y0150025D03*
X0264600Y0150025D03*
X0264650Y0150025D03*
X0264700Y0150025D03*
X0264750Y0150025D03*
X0264800Y0150025D03*
X0264850Y0150025D03*
X0264900Y0150025D03*
X0264950Y0150025D03*
X0265000Y0150025D03*
X0265050Y0150025D03*
X0265100Y0150025D03*
X0265150Y0150025D03*
X0265200Y0150025D03*
X0265250Y0150025D03*
X0265300Y0150025D03*
X0265350Y0150025D03*
X0265400Y0150025D03*
X0265450Y0150025D03*
X0265500Y0150025D03*
X0265550Y0150025D03*
X0265600Y0150025D03*
X0265650Y0150025D03*
X0265700Y0150025D03*
X0265750Y0150025D03*
X0265800Y0150025D03*
X0265850Y0150025D03*
X0265900Y0150025D03*
X0265950Y0150025D03*
X0266000Y0150025D03*
X0266050Y0150025D03*
X0266100Y0150025D03*
X0266150Y0150025D03*
X0266200Y0150025D03*
X0266250Y0150025D03*
X0266300Y0150025D03*
X0266350Y0150025D03*
X0266400Y0150025D03*
X0266450Y0150025D03*
X0266500Y0150025D03*
X0266550Y0150025D03*
X0266600Y0150025D03*
X0266650Y0150025D03*
X0266700Y0150025D03*
X0266750Y0150025D03*
X0266800Y0150025D03*
X0266850Y0150025D03*
X0266900Y0150025D03*
X0266950Y0150025D03*
X0267000Y0150025D03*
X0263750Y0150025D03*
X0263700Y0150025D03*
X0263650Y0150025D03*
X0263600Y0150025D03*
X0263550Y0150025D03*
X0263500Y0150025D03*
X0263450Y0150025D03*
X0263400Y0150025D03*
X0263350Y0150025D03*
X0263300Y0150025D03*
X0263250Y0150025D03*
X0263200Y0150025D03*
X0263150Y0150025D03*
X0263100Y0150025D03*
X0263050Y0150025D03*
X0263000Y0150025D03*
X0262950Y0150025D03*
X0262900Y0150025D03*
X0262850Y0150025D03*
X0262800Y0150025D03*
X0262750Y0150025D03*
X0262700Y0150025D03*
X0262650Y0150025D03*
X0262600Y0150025D03*
X0262550Y0150025D03*
X0262500Y0150025D03*
X0262450Y0150025D03*
X0262400Y0150025D03*
X0262350Y0150025D03*
X0262300Y0150025D03*
X0262250Y0150025D03*
X0262200Y0150025D03*
X0262150Y0150025D03*
X0262100Y0150025D03*
X0262050Y0150025D03*
X0262000Y0150025D03*
X0261950Y0150025D03*
X0261900Y0150025D03*
X0261850Y0150025D03*
X0261800Y0150025D03*
X0261750Y0150025D03*
X0261700Y0150025D03*
X0261650Y0150025D03*
X0261600Y0150025D03*
X0261550Y0150025D03*
X0261500Y0150025D03*
X0261450Y0150025D03*
X0261400Y0150025D03*
X0261350Y0150025D03*
X0261300Y0150025D03*
X0261250Y0150025D03*
X0261200Y0150025D03*
X0261150Y0150025D03*
X0261100Y0150025D03*
X0261050Y0150025D03*
X0261000Y0150025D03*
X0260950Y0150025D03*
X0260900Y0150025D03*
X0260850Y0150025D03*
X0260800Y0150025D03*
X0260750Y0150025D03*
X0260700Y0150025D03*
X0260650Y0150025D03*
X0260600Y0150025D03*
X0260550Y0150025D03*
X0260500Y0150025D03*
X0260450Y0150025D03*
X0260400Y0150025D03*
X0260350Y0150025D03*
X0260300Y0150025D03*
X0260250Y0150025D03*
X0260200Y0150025D03*
X0260150Y0150025D03*
X0260100Y0150025D03*
X0260050Y0150025D03*
X0260000Y0150025D03*
X0259950Y0150025D03*
X0259900Y0150025D03*
X0259850Y0150025D03*
X0259800Y0150025D03*
X0259750Y0150025D03*
X0259700Y0150025D03*
X0259650Y0150025D03*
X0259600Y0150025D03*
X0259550Y0150025D03*
X0259500Y0150025D03*
X0259450Y0150025D03*
X0259400Y0150025D03*
X0259350Y0150025D03*
X0259300Y0150025D03*
X0259250Y0150025D03*
X0259200Y0150025D03*
X0259150Y0150025D03*
X0259100Y0150025D03*
X0259050Y0150025D03*
X0259000Y0150025D03*
X0258950Y0150025D03*
X0258900Y0150025D03*
X0258850Y0150025D03*
X0258800Y0150025D03*
X0258750Y0150025D03*
X0258700Y0150025D03*
X0258650Y0150025D03*
X0258600Y0150025D03*
X0258550Y0150025D03*
X0258500Y0150025D03*
X0258450Y0150025D03*
X0258400Y0150025D03*
X0258350Y0150025D03*
X0258300Y0150025D03*
X0258250Y0150025D03*
X0258200Y0150025D03*
X0258150Y0150025D03*
X0258100Y0150025D03*
X0258050Y0150025D03*
X0258000Y0150025D03*
X0257950Y0150025D03*
X0257900Y0150025D03*
X0257850Y0150025D03*
X0257800Y0150025D03*
X0257750Y0150025D03*
X0257700Y0150025D03*
X0257650Y0150025D03*
X0257600Y0150025D03*
X0257550Y0150025D03*
X0257500Y0150025D03*
X0257450Y0150025D03*
X0257400Y0150025D03*
X0257350Y0150025D03*
X0257300Y0150025D03*
X0257250Y0150025D03*
X0257200Y0150025D03*
X0257150Y0150025D03*
X0257100Y0150025D03*
X0257050Y0150025D03*
X0257000Y0150025D03*
X0256950Y0150025D03*
X0256900Y0150025D03*
X0256850Y0150025D03*
X0256800Y0150025D03*
X0256750Y0150025D03*
X0256700Y0150025D03*
X0256650Y0150025D03*
X0256600Y0150025D03*
X0256550Y0150025D03*
X0256500Y0150025D03*
X0256450Y0150025D03*
X0256400Y0150025D03*
X0256350Y0150025D03*
X0256300Y0150025D03*
X0256250Y0150025D03*
X0256200Y0150025D03*
X0256150Y0150025D03*
X0256100Y0150025D03*
X0256050Y0150025D03*
X0256000Y0150025D03*
X0255950Y0150025D03*
X0255900Y0150025D03*
X0255850Y0150025D03*
X0255800Y0150025D03*
X0255750Y0150025D03*
X0255700Y0150025D03*
X0255650Y0150025D03*
X0255600Y0150025D03*
X0255550Y0150025D03*
X0255500Y0150025D03*
X0255450Y0150025D03*
X0255400Y0150025D03*
X0255350Y0150025D03*
X0255300Y0150025D03*
X0255250Y0150025D03*
X0255200Y0150025D03*
X0255150Y0150025D03*
X0255100Y0150025D03*
X0255050Y0150025D03*
X0255000Y0150025D03*
X0254950Y0150025D03*
X0254900Y0150025D03*
X0254850Y0150025D03*
X0254800Y0150025D03*
X0254750Y0150025D03*
X0254700Y0150025D03*
X0254650Y0150025D03*
X0254600Y0150025D03*
X0254550Y0150025D03*
X0254500Y0150025D03*
X0254450Y0150025D03*
X0254400Y0150025D03*
X0254350Y0150025D03*
X0254300Y0150025D03*
X0254250Y0150025D03*
X0254200Y0150025D03*
X0258000Y0153725D03*
X0258250Y0153675D03*
X0258300Y0153675D03*
X0258350Y0153675D03*
X0258400Y0153675D03*
X0258450Y0153675D03*
X0258550Y0153625D03*
X0258600Y0153625D03*
X0258650Y0153625D03*
X0258700Y0153625D03*
X0258750Y0153625D03*
X0258800Y0153625D03*
X0258850Y0153625D03*
X0258900Y0153625D03*
X0258950Y0153625D03*
X0259000Y0153625D03*
X0259050Y0153625D03*
X0259100Y0153625D03*
X0259150Y0153625D03*
X0259200Y0153625D03*
X0259250Y0153625D03*
X0260000Y0153725D03*
X0260150Y0153775D03*
X0260200Y0153775D03*
X0260250Y0153775D03*
X0260300Y0153825D03*
X0260350Y0153825D03*
X0260400Y0153825D03*
X0260450Y0153875D03*
X0260500Y0153875D03*
X0259450Y0162425D03*
X0259400Y0162425D03*
X0259350Y0162425D03*
X0259300Y0162425D03*
X0259250Y0162425D03*
X0259200Y0162425D03*
X0259150Y0162425D03*
X0259100Y0162425D03*
X0259050Y0162425D03*
X0259000Y0162425D03*
X0258950Y0162425D03*
X0258900Y0162425D03*
X0255700Y0162425D03*
X0255650Y0162425D03*
X0255600Y0162425D03*
X0255550Y0162425D03*
X0255500Y0162425D03*
X0255450Y0162425D03*
X0255400Y0162425D03*
X0255350Y0162425D03*
X0255300Y0162425D03*
X0255250Y0162425D03*
X0255200Y0162425D03*
X0255150Y0162425D03*
X0255100Y0162425D03*
X0255050Y0162425D03*
X0255000Y0162425D03*
X0254950Y0162425D03*
X0254900Y0162425D03*
X0254850Y0162425D03*
X0254800Y0162425D03*
X0254750Y0162425D03*
X0254700Y0162425D03*
X0254650Y0162425D03*
X0254600Y0162425D03*
X0254550Y0162425D03*
X0254500Y0162425D03*
X0254450Y0162425D03*
X0254400Y0162425D03*
X0254350Y0162425D03*
X0254300Y0162425D03*
X0254250Y0162425D03*
X0254200Y0162425D03*
X0262300Y0162425D03*
X0262350Y0162425D03*
X0262400Y0162425D03*
X0262450Y0162425D03*
X0262500Y0162425D03*
X0262550Y0162425D03*
X0262600Y0162425D03*
X0262650Y0162425D03*
X0262700Y0162425D03*
X0262750Y0162425D03*
X0262800Y0162425D03*
X0262850Y0162425D03*
X0262900Y0162425D03*
X0262950Y0162425D03*
X0263000Y0162425D03*
X0263050Y0162425D03*
X0263100Y0162425D03*
X0263150Y0162425D03*
X0263200Y0162425D03*
X0263250Y0162425D03*
X0263300Y0162425D03*
X0263350Y0162425D03*
X0263400Y0162425D03*
X0263450Y0162425D03*
X0263500Y0162425D03*
X0263550Y0162425D03*
X0263600Y0162425D03*
X0263650Y0162425D03*
X0263700Y0162425D03*
X0263750Y0162425D03*
X0263800Y0162425D03*
X0263850Y0162425D03*
X0263900Y0162425D03*
X0263950Y0162425D03*
X0264000Y0162425D03*
X0264050Y0162425D03*
X0264100Y0162425D03*
X0264150Y0162425D03*
X0264200Y0162425D03*
X0264250Y0162425D03*
X0264300Y0162425D03*
X0264350Y0162425D03*
X0264400Y0162425D03*
X0264450Y0162425D03*
X0264500Y0162425D03*
X0264550Y0162425D03*
X0264600Y0162425D03*
X0264650Y0162425D03*
X0264700Y0162425D03*
X0264750Y0162425D03*
X0264800Y0162425D03*
X0264850Y0162425D03*
X0264900Y0162425D03*
X0264950Y0162425D03*
X0265000Y0162425D03*
X0265050Y0162425D03*
X0265100Y0162425D03*
X0265150Y0162425D03*
X0265200Y0162425D03*
X0265250Y0162425D03*
X0265300Y0162425D03*
X0265350Y0162425D03*
X0265400Y0162425D03*
X0265450Y0162425D03*
X0265500Y0162425D03*
X0265550Y0162425D03*
X0265600Y0162425D03*
X0265650Y0162425D03*
X0265700Y0162425D03*
X0265750Y0162425D03*
X0265800Y0162425D03*
X0265850Y0162425D03*
X0265900Y0162425D03*
X0265950Y0162425D03*
X0266000Y0162425D03*
X0266050Y0162425D03*
X0266100Y0162425D03*
X0266150Y0162425D03*
X0266200Y0162425D03*
X0266250Y0162425D03*
X0266300Y0162425D03*
X0266350Y0162425D03*
X0266400Y0162425D03*
X0266450Y0162425D03*
X0266500Y0162425D03*
X0266550Y0162425D03*
X0266600Y0162425D03*
X0266650Y0162425D03*
X0266700Y0162425D03*
X0266750Y0162425D03*
X0266800Y0162425D03*
X0266850Y0162425D03*
X0266900Y0162425D03*
X0266950Y0162425D03*
X0267000Y0162425D03*
X0265950Y0197625D03*
X0265900Y0197625D03*
X0265850Y0197625D03*
X0265800Y0197625D03*
X0265750Y0197625D03*
X0265700Y0197625D03*
X0265650Y0197625D03*
X0265600Y0197625D03*
X0265550Y0197625D03*
X0265500Y0197625D03*
X0265450Y0197625D03*
X0265400Y0197625D03*
X0265350Y0197625D03*
X0265300Y0197625D03*
X0265250Y0197625D03*
X0265200Y0197625D03*
X0265150Y0197625D03*
X0265100Y0197625D03*
X0265050Y0197625D03*
X0265000Y0197625D03*
X0264950Y0197625D03*
X0264900Y0197625D03*
X0264850Y0197625D03*
X0264800Y0197625D03*
X0264750Y0197625D03*
X0264700Y0197625D03*
X0264650Y0197625D03*
X0264600Y0197625D03*
X0264550Y0197625D03*
X0264500Y0197625D03*
X0264450Y0197625D03*
X0264400Y0197625D03*
X0264350Y0197625D03*
X0264300Y0197625D03*
X0264250Y0197625D03*
X0264200Y0197625D03*
X0264150Y0197625D03*
X0264100Y0197625D03*
X0264050Y0197625D03*
X0264000Y0197625D03*
X0263950Y0197625D03*
X0263900Y0197625D03*
X0263850Y0197625D03*
X0263800Y0197625D03*
X0263750Y0197625D03*
X0263700Y0197625D03*
X0263650Y0197625D03*
X0263600Y0197625D03*
X0263550Y0197625D03*
X0263500Y0197625D03*
X0263450Y0197625D03*
X0263400Y0197625D03*
X0263350Y0197625D03*
X0263300Y0197625D03*
X0263250Y0197625D03*
X0263200Y0197625D03*
X0263150Y0197625D03*
X0263100Y0197625D03*
X0263050Y0197625D03*
X0263000Y0197625D03*
X0262950Y0197625D03*
X0262900Y0197625D03*
X0262850Y0197625D03*
X0262800Y0197625D03*
X0262750Y0197625D03*
X0262700Y0197625D03*
X0262650Y0197625D03*
X0262600Y0197625D03*
X0262550Y0197625D03*
X0262500Y0197625D03*
X0262450Y0197625D03*
X0262400Y0197625D03*
X0262350Y0197625D03*
X0262300Y0197625D03*
X0262250Y0197625D03*
X0262200Y0197625D03*
X0262150Y0197625D03*
X0262100Y0197625D03*
X0262050Y0197625D03*
X0262000Y0197625D03*
X0261950Y0197625D03*
X0261900Y0197625D03*
X0261850Y0197625D03*
X0261800Y0197625D03*
X0261750Y0197625D03*
X0261700Y0197625D03*
X0261650Y0197625D03*
X0261600Y0197625D03*
X0261550Y0197625D03*
X0261500Y0197625D03*
X0261450Y0197625D03*
X0261400Y0197625D03*
X0261350Y0197625D03*
X0261300Y0197625D03*
X0261250Y0197625D03*
X0261200Y0197625D03*
X0261150Y0197625D03*
X0261100Y0197625D03*
X0261050Y0197625D03*
X0261000Y0197625D03*
X0260950Y0197625D03*
X0260900Y0197625D03*
X0260850Y0197625D03*
X0260800Y0197625D03*
X0260750Y0197625D03*
X0260700Y0197625D03*
X0260650Y0197625D03*
X0260600Y0197625D03*
X0260550Y0197625D03*
X0260500Y0197625D03*
X0260450Y0197625D03*
X0260400Y0197625D03*
X0260350Y0197625D03*
X0260300Y0197625D03*
X0260250Y0197625D03*
X0260200Y0197625D03*
X0260150Y0197625D03*
X0260100Y0197625D03*
X0260050Y0197625D03*
X0260000Y0197625D03*
X0259950Y0197625D03*
X0259900Y0197625D03*
X0259850Y0197625D03*
X0259800Y0197625D03*
X0259750Y0197625D03*
X0259700Y0197625D03*
X0259650Y0197625D03*
X0259600Y0197625D03*
X0259550Y0197625D03*
X0259500Y0197625D03*
X0259450Y0197625D03*
X0259400Y0197625D03*
X0259350Y0197625D03*
X0259300Y0197625D03*
X0259250Y0197625D03*
X0259200Y0197625D03*
X0259150Y0197625D03*
X0259100Y0197625D03*
X0259050Y0197625D03*
X0259000Y0197625D03*
X0258950Y0197625D03*
X0258900Y0197625D03*
X0258850Y0197625D03*
X0258800Y0197625D03*
X0258750Y0197625D03*
X0258700Y0197625D03*
X0258650Y0197625D03*
X0258600Y0197625D03*
X0258550Y0197625D03*
X0258500Y0197625D03*
X0258450Y0197625D03*
X0258400Y0197625D03*
X0258350Y0197625D03*
X0258300Y0197625D03*
X0258250Y0197625D03*
X0258200Y0197625D03*
X0258150Y0197625D03*
X0258100Y0197625D03*
X0258050Y0197625D03*
X0258000Y0197625D03*
X0257950Y0197625D03*
X0257900Y0197625D03*
X0257850Y0197625D03*
X0257800Y0197625D03*
X0257750Y0197625D03*
X0257700Y0197625D03*
X0257650Y0197625D03*
X0257600Y0197625D03*
X0257550Y0197625D03*
X0257500Y0197625D03*
X0257450Y0197625D03*
X0257400Y0197625D03*
X0257350Y0197625D03*
X0257300Y0197625D03*
X0257250Y0197625D03*
X0257200Y0197625D03*
X0257150Y0197625D03*
X0257100Y0197625D03*
X0257050Y0197625D03*
X0257000Y0197625D03*
X0256950Y0197625D03*
X0256900Y0197625D03*
X0256850Y0197625D03*
X0256800Y0197625D03*
X0256750Y0197625D03*
X0256700Y0197625D03*
X0256650Y0197625D03*
X0256600Y0197625D03*
X0256550Y0197625D03*
X0256500Y0197625D03*
X0256450Y0197625D03*
X0256400Y0197625D03*
X0256350Y0197625D03*
X0256300Y0197625D03*
X0256250Y0197625D03*
X0256200Y0197625D03*
X0256150Y0197625D03*
X0256100Y0197625D03*
X0256050Y0197625D03*
X0256000Y0197625D03*
X0255950Y0197625D03*
X0255900Y0197625D03*
X0255850Y0197625D03*
X0255800Y0197625D03*
X0255750Y0197625D03*
X0255700Y0197625D03*
X0255650Y0197625D03*
X0255600Y0197625D03*
X0255550Y0197625D03*
X0255500Y0197625D03*
X0255450Y0197625D03*
X0255400Y0197625D03*
X0255350Y0197625D03*
X0255300Y0197625D03*
X0255250Y0197625D03*
D36*
X0255850Y0190275D03*
X0255900Y0190175D03*
X0255550Y0183225D03*
X0262350Y0183175D03*
X0262050Y0177475D03*
X0255750Y0177675D03*
X0255400Y0172025D03*
X0256050Y0166425D03*
X0256250Y0161975D03*
X0256300Y0161975D03*
X0254200Y0157825D03*
X0255650Y0155125D03*
X0262600Y0155525D03*
X0261400Y0161975D03*
X0262350Y0145175D03*
X0262450Y0140175D03*
X0255600Y0139825D03*
X0255450Y0145075D03*
X0255850Y0133125D03*
X0265200Y0133125D03*
X0265250Y0133075D03*
X0265250Y0125275D03*
X0262350Y0118375D03*
X0255450Y0118275D03*
X0255750Y0125225D03*
X0262100Y0107925D03*
X0255450Y0096275D03*
X0255600Y0091025D03*
X0262450Y0091375D03*
X0263450Y0082525D03*
X0263700Y0082325D03*
X0263750Y0082275D03*
X0263800Y0082225D03*
X0263850Y0082175D03*
X0263900Y0082125D03*
X0263950Y0082125D03*
X0264000Y0082075D03*
X0264050Y0082025D03*
X0264100Y0081975D03*
X0264150Y0081925D03*
X0264200Y0079625D03*
X0264150Y0079575D03*
X0264100Y0079525D03*
X0264050Y0079475D03*
X0264000Y0079425D03*
X0263900Y0079375D03*
X0263850Y0079325D03*
X0263800Y0079275D03*
X0263750Y0079225D03*
X0263700Y0079175D03*
X0263500Y0079025D03*
X0266750Y0079625D03*
X0266800Y0079575D03*
X0266850Y0079525D03*
X0266900Y0079475D03*
X0267000Y0079425D03*
X0267050Y0079375D03*
X0267100Y0079325D03*
X0267150Y0079275D03*
X0267200Y0079225D03*
X0267400Y0079075D03*
X0267450Y0079025D03*
X0266750Y0081875D03*
X0266800Y0081925D03*
X0266850Y0081975D03*
X0266900Y0082025D03*
X0267050Y0082125D03*
X0267100Y0082175D03*
X0267150Y0082225D03*
X0267200Y0082275D03*
X0267250Y0082325D03*
X0267450Y0082475D03*
X0267450Y0070025D03*
X0267250Y0069875D03*
X0267200Y0069825D03*
X0267150Y0069775D03*
X0267100Y0069725D03*
X0267050Y0069675D03*
X0266950Y0069625D03*
X0266900Y0069575D03*
X0266850Y0069525D03*
X0266800Y0069475D03*
X0266750Y0069425D03*
X0266700Y0067225D03*
X0266750Y0067175D03*
X0266800Y0067125D03*
X0266850Y0067075D03*
X0267000Y0066975D03*
X0267050Y0066925D03*
X0267100Y0066875D03*
X0267150Y0066825D03*
X0267200Y0066775D03*
X0267400Y0066625D03*
X0267450Y0066575D03*
X0264200Y0067175D03*
X0264150Y0067125D03*
X0264100Y0067075D03*
X0264050Y0067025D03*
X0264000Y0066975D03*
X0263900Y0066925D03*
X0263850Y0066875D03*
X0263800Y0066825D03*
X0263750Y0066775D03*
X0263700Y0066725D03*
X0263500Y0066575D03*
X0264150Y0069475D03*
X0264100Y0069525D03*
X0264050Y0069575D03*
X0264000Y0069625D03*
X0263950Y0069675D03*
X0263900Y0069675D03*
X0263850Y0069725D03*
X0263800Y0069775D03*
X0263750Y0069825D03*
X0263700Y0069875D03*
X0263450Y0070075D03*
X0265300Y0190225D03*
D37*
X0262650Y0182400D03*
X0263700Y0180400D03*
X0255250Y0178600D03*
X0255400Y0166850D03*
X0262200Y0161550D03*
X0254200Y0142450D03*
X0255250Y0140600D03*
X0254200Y0115650D03*
X0255250Y0091800D03*
X0265050Y0080750D03*
X0265900Y0080750D03*
X0265900Y0068300D03*
X0265050Y0068300D03*
D38*
X0263500Y0093825D03*
X0263500Y0104575D03*
X0254200Y0129025D03*
X0254250Y0169725D03*
X0262650Y0178825D03*
X0263600Y0180425D03*
D39*
X0262150Y0161575D03*
X0262750Y0140925D03*
X0265800Y0131925D03*
X0255300Y0132125D03*
X0255250Y0113775D03*
X0262750Y0114125D03*
X0254200Y0093675D03*
X0262750Y0092125D03*
D40*
X0254850Y0157850D03*
X0254900Y0169750D03*
X0254800Y0180500D03*
X0254250Y0195400D03*
X0266850Y0195400D03*
D41*
X0254250Y0180475D03*
X0255250Y0126425D03*
X0266050Y0080775D03*
X0266050Y0068325D03*
D42*
X0265750Y0068300D03*
X0265200Y0068300D03*
X0265200Y0080750D03*
X0265750Y0080750D03*
X0262700Y0113900D03*
X0262650Y0117750D03*
X0265700Y0132200D03*
X0255400Y0132350D03*
X0255300Y0155750D03*
X0254250Y0157800D03*
X0255750Y0161700D03*
X0255600Y0166700D03*
X0261950Y0161700D03*
X0262900Y0159800D03*
X0262600Y0182650D03*
D43*
X0263650Y0180425D03*
X0255250Y0167025D03*
X0255200Y0156175D03*
X0254250Y0142475D03*
X0266950Y0129175D03*
X0254250Y0093675D03*
X0264850Y0080775D03*
X0264850Y0068325D03*
D44*
X0264400Y0068300D03*
X0266550Y0068300D03*
X0266550Y0080750D03*
X0264400Y0080750D03*
X0254400Y0093700D03*
X0254400Y0115650D03*
X0254250Y0129050D03*
X0266850Y0129150D03*
X0254400Y0142500D03*
X0254450Y0157800D03*
D45*
X0262600Y0178600D03*
X0265850Y0191500D03*
X0255200Y0131800D03*
X0265900Y0126700D03*
X0254250Y0115650D03*
X0264900Y0080750D03*
X0266100Y0080750D03*
X0266100Y0068300D03*
X0264900Y0068300D03*
D46*
X0262900Y0093825D03*
X0255000Y0169775D03*
X0254900Y0180525D03*
X0254300Y0195275D03*
X0266800Y0195275D03*
D47*
X0265900Y0191750D03*
X0254300Y0180500D03*
X0254300Y0115650D03*
X0264700Y0080750D03*
X0266250Y0080750D03*
X0266250Y0068300D03*
X0264700Y0068300D03*
D48*
X0264550Y0068300D03*
X0266450Y0068300D03*
X0266450Y0080750D03*
X0264550Y0080750D03*
X0263450Y0115800D03*
X0254300Y0169700D03*
X0254350Y0180500D03*
D49*
X0254300Y0142475D03*
X0255150Y0131575D03*
X0255200Y0126625D03*
X0254300Y0093675D03*
D50*
X0263300Y0093825D03*
X0254500Y0115675D03*
X0254300Y0129075D03*
X0254550Y0157825D03*
D51*
X0255000Y0157850D03*
X0255000Y0142500D03*
X0262800Y0142600D03*
X0262800Y0115800D03*
X0262800Y0093800D03*
X0255000Y0093700D03*
X0262950Y0180450D03*
X0254350Y0195150D03*
D52*
X0254400Y0180475D03*
X0254350Y0169725D03*
X0263400Y0142625D03*
X0263400Y0093825D03*
D53*
X0264750Y0080750D03*
X0266200Y0080750D03*
X0266200Y0068300D03*
X0264750Y0068300D03*
X0254350Y0157800D03*
D54*
X0254350Y0142475D03*
X0265950Y0127025D03*
X0254350Y0115675D03*
X0263450Y0104575D03*
X0254350Y0093675D03*
X0266400Y0080775D03*
X0266400Y0068325D03*
D55*
X0263200Y0093825D03*
X0263150Y0104575D03*
X0263200Y0115775D03*
X0254600Y0115675D03*
X0254350Y0129075D03*
X0263200Y0142625D03*
X0254600Y0169725D03*
D56*
X0255050Y0180525D03*
X0254400Y0195075D03*
X0255050Y0157875D03*
X0254600Y0129125D03*
X0255050Y0115675D03*
D57*
X0254450Y0115650D03*
X0254450Y0093700D03*
X0264300Y0080750D03*
X0266650Y0080750D03*
X0266650Y0068300D03*
X0264300Y0068300D03*
X0254450Y0142500D03*
X0254400Y0169700D03*
D58*
X0254400Y0157800D03*
X0265950Y0131300D03*
X0255150Y0126850D03*
X0264600Y0080750D03*
X0266350Y0080750D03*
X0266350Y0068300D03*
X0264600Y0068300D03*
D59*
X0263050Y0104575D03*
X0254700Y0115675D03*
X0254400Y0129075D03*
X0254700Y0142475D03*
X0254700Y0169725D03*
X0263250Y0180425D03*
D60*
X0255100Y0180525D03*
X0254450Y0194975D03*
X0266650Y0194975D03*
X0255150Y0115675D03*
D61*
X0263350Y0115800D03*
X0263500Y0158000D03*
X0254450Y0180500D03*
D62*
X0254450Y0169700D03*
X0254500Y0142500D03*
X0254500Y0093700D03*
X0267000Y0196000D03*
D63*
X0263150Y0180450D03*
X0254850Y0169750D03*
X0263150Y0158000D03*
X0263000Y0142600D03*
X0254800Y0142500D03*
X0254450Y0129100D03*
X0263000Y0115800D03*
X0254800Y0093700D03*
D64*
X0255200Y0093700D03*
X0255200Y0115700D03*
X0255200Y0142500D03*
X0262750Y0180450D03*
X0254500Y0194900D03*
D65*
X0254500Y0180500D03*
X0263450Y0158000D03*
X0263300Y0142600D03*
X0263300Y0115800D03*
D66*
X0263250Y0104575D03*
X0254500Y0169725D03*
X0263400Y0180425D03*
D67*
X0265950Y0192225D03*
X0254500Y0157825D03*
X0263350Y0142625D03*
X0263350Y0093825D03*
D68*
X0254900Y0093700D03*
X0254900Y0115700D03*
X0262900Y0115800D03*
X0254500Y0129100D03*
X0254900Y0142500D03*
X0262900Y0142600D03*
X0263050Y0158000D03*
X0254900Y0157850D03*
X0263050Y0180450D03*
D69*
X0262700Y0180450D03*
X0254550Y0194850D03*
D70*
X0254550Y0180500D03*
X0263250Y0115800D03*
D71*
X0254550Y0169725D03*
X0263350Y0180425D03*
D72*
X0254550Y0142500D03*
X0254550Y0093700D03*
D73*
X0262850Y0115800D03*
X0254550Y0129100D03*
X0263000Y0180450D03*
D74*
X0263400Y0157975D03*
X0254600Y0157825D03*
X0263250Y0142625D03*
X0266750Y0129175D03*
X0259100Y0124775D03*
X0254550Y0115675D03*
X0263200Y0104575D03*
X0263250Y0093825D03*
D75*
X0254600Y0194775D03*
D76*
X0266950Y0195750D03*
X0254600Y0180500D03*
X0254650Y0157850D03*
D77*
X0263350Y0158000D03*
X0254600Y0142500D03*
X0254600Y0093700D03*
D78*
X0254650Y0194700D03*
D79*
X0254650Y0180500D03*
X0254700Y0157850D03*
D80*
X0263300Y0158000D03*
X0254650Y0169750D03*
X0263300Y0180450D03*
X0254650Y0142500D03*
X0263150Y0115800D03*
X0254650Y0093700D03*
D81*
X0255150Y0093700D03*
X0254650Y0129100D03*
X0255150Y0142500D03*
X0255150Y0157850D03*
X0262800Y0180450D03*
D82*
X0266700Y0129175D03*
X0254650Y0115675D03*
X0263100Y0104575D03*
D83*
X0266200Y0129150D03*
X0266450Y0194650D03*
X0254700Y0194650D03*
D84*
X0254700Y0180525D03*
X0254750Y0169725D03*
X0263000Y0104575D03*
D85*
X0266300Y0129175D03*
X0254700Y0129125D03*
D86*
X0266650Y0129150D03*
X0263100Y0115800D03*
X0263100Y0093800D03*
X0254700Y0093700D03*
X0263100Y0142600D03*
X0263250Y0158000D03*
D87*
X0266400Y0194600D03*
X0254750Y0194600D03*
D88*
X0254750Y0180525D03*
X0254800Y0157825D03*
X0266600Y0129175D03*
X0254800Y0115675D03*
D89*
X0254750Y0129125D03*
X0266250Y0129175D03*
X0266500Y0194725D03*
D90*
X0263200Y0157975D03*
X0263050Y0142625D03*
X0254750Y0115675D03*
X0262950Y0104575D03*
X0263050Y0093825D03*
D91*
X0266150Y0129150D03*
X0254800Y0194550D03*
D92*
X0254800Y0169750D03*
X0263050Y0115800D03*
D93*
X0254800Y0129125D03*
D94*
X0262100Y0080750D03*
X0268850Y0080750D03*
X0268850Y0068300D03*
X0262100Y0068300D03*
X0254850Y0194500D03*
D95*
X0254850Y0180525D03*
D96*
X0263100Y0180425D03*
X0263100Y0157975D03*
X0262950Y0142625D03*
X0254850Y0142475D03*
X0254850Y0115675D03*
X0262850Y0104575D03*
X0262950Y0093825D03*
X0254850Y0093675D03*
D97*
X0254850Y0129125D03*
X0266350Y0194525D03*
D98*
X0254900Y0194450D03*
X0254900Y0129150D03*
X0266100Y0129150D03*
X0268900Y0080750D03*
X0268950Y0080750D03*
X0262050Y0080750D03*
X0262050Y0068300D03*
X0268900Y0068300D03*
X0268950Y0068300D03*
D99*
X0275000Y0063125D03*
X0275050Y0063125D03*
X0275100Y0063125D03*
X0275450Y0063075D03*
X0275500Y0063075D03*
X0275000Y0073475D03*
X0275350Y0073525D03*
X0275400Y0073525D03*
X0275450Y0073525D03*
X0275450Y0075525D03*
X0275500Y0075525D03*
X0275050Y0075575D03*
X0275000Y0075575D03*
X0275000Y0085925D03*
X0275050Y0085925D03*
X0275350Y0085975D03*
X0275400Y0085975D03*
X0275450Y0085975D03*
X0276050Y0086025D03*
X0260650Y0089875D03*
X0260550Y0089825D03*
X0256700Y0089975D03*
X0256650Y0090025D03*
X0256600Y0090025D03*
X0256550Y0090075D03*
X0255950Y0085925D03*
X0255600Y0085975D03*
X0255550Y0085975D03*
X0255500Y0085975D03*
X0254900Y0086025D03*
X0255900Y0075575D03*
X0255950Y0075575D03*
X0255550Y0075525D03*
X0255500Y0075525D03*
X0255450Y0075525D03*
X0255500Y0073525D03*
X0255550Y0073525D03*
X0255600Y0073525D03*
X0255950Y0073475D03*
X0255950Y0063125D03*
X0255900Y0063125D03*
X0255500Y0063075D03*
X0255450Y0063075D03*
X0256900Y0097675D03*
X0256950Y0097675D03*
X0257000Y0097725D03*
X0257050Y0097725D03*
X0257100Y0097775D03*
X0257150Y0097775D03*
X0257200Y0097775D03*
X0257250Y0097825D03*
X0257300Y0097825D03*
X0257400Y0097875D03*
X0257450Y0097875D03*
X0257550Y0097925D03*
X0257600Y0097925D03*
X0257750Y0097975D03*
X0257950Y0098025D03*
X0260450Y0097875D03*
X0260550Y0097825D03*
X0260600Y0097825D03*
X0260650Y0097775D03*
X0260700Y0097775D03*
X0260800Y0097725D03*
X0261500Y0101525D03*
X0261550Y0101525D03*
X0261600Y0101575D03*
X0261250Y0108275D03*
X0261200Y0108275D03*
X0260450Y0111775D03*
X0260550Y0111825D03*
X0260600Y0111825D03*
X0260700Y0111875D03*
X0256600Y0112025D03*
X0256550Y0112075D03*
X0256450Y0112125D03*
X0256850Y0119625D03*
X0256950Y0119675D03*
X0257050Y0119725D03*
X0257100Y0119725D03*
X0257150Y0119775D03*
X0257200Y0119775D03*
X0257250Y0119775D03*
X0257300Y0119825D03*
X0257350Y0119825D03*
X0257450Y0119875D03*
X0257500Y0119875D03*
X0257600Y0119925D03*
X0257650Y0119925D03*
X0257800Y0119975D03*
X0257850Y0119975D03*
X0260400Y0119875D03*
X0260500Y0119825D03*
X0260550Y0119825D03*
X0260600Y0119775D03*
X0260650Y0119775D03*
X0260750Y0119725D03*
X0260850Y0119675D03*
X0257750Y0123525D03*
X0257650Y0123575D03*
X0257600Y0123625D03*
X0257550Y0123625D03*
X0257500Y0123675D03*
X0257450Y0123675D03*
X0257400Y0123725D03*
X0257650Y0134725D03*
X0257750Y0134775D03*
X0257850Y0134825D03*
X0257950Y0134875D03*
X0258050Y0134925D03*
X0258100Y0134925D03*
X0258200Y0134975D03*
X0258250Y0134975D03*
X0258350Y0135025D03*
X0258400Y0135025D03*
X0258500Y0135075D03*
X0258550Y0135075D03*
X0258650Y0135125D03*
X0258700Y0135125D03*
X0258750Y0135125D03*
X0258800Y0135175D03*
X0258850Y0135175D03*
X0258900Y0135175D03*
X0258950Y0135175D03*
X0259000Y0135225D03*
X0259050Y0135225D03*
X0259100Y0135225D03*
X0259150Y0135225D03*
X0259250Y0135275D03*
X0259300Y0135275D03*
X0259350Y0135275D03*
X0259400Y0135275D03*
X0259450Y0135275D03*
X0259550Y0135325D03*
X0259600Y0135325D03*
X0259650Y0135325D03*
X0259700Y0135325D03*
X0259750Y0135325D03*
X0259800Y0135325D03*
X0260000Y0135375D03*
X0260050Y0135375D03*
X0260100Y0135375D03*
X0260150Y0135375D03*
X0260200Y0135375D03*
X0260250Y0135375D03*
X0260300Y0135375D03*
X0260350Y0135375D03*
X0260400Y0135375D03*
X0260450Y0135375D03*
X0260700Y0135375D03*
X0260750Y0135375D03*
X0260800Y0135375D03*
X0260850Y0135375D03*
X0260900Y0135375D03*
X0260950Y0135375D03*
X0261000Y0135375D03*
X0261300Y0135325D03*
X0261350Y0135325D03*
X0261650Y0135275D03*
X0260550Y0138625D03*
X0260650Y0138675D03*
X0256800Y0138725D03*
X0256700Y0138775D03*
X0256650Y0138825D03*
X0256600Y0138825D03*
X0256550Y0138875D03*
X0256900Y0146475D03*
X0256950Y0146475D03*
X0257000Y0146525D03*
X0257050Y0146525D03*
X0257100Y0146575D03*
X0257150Y0146575D03*
X0257200Y0146575D03*
X0257250Y0146625D03*
X0257300Y0146625D03*
X0257400Y0146675D03*
X0257450Y0146675D03*
X0257550Y0146725D03*
X0257600Y0146725D03*
X0257750Y0146775D03*
X0257800Y0146775D03*
X0258000Y0146825D03*
X0260450Y0146675D03*
X0260550Y0146625D03*
X0260600Y0146625D03*
X0260650Y0146575D03*
X0260700Y0146575D03*
X0260800Y0146525D03*
X0261150Y0154175D03*
X0261250Y0154225D03*
X0261300Y0154275D03*
X0257050Y0154025D03*
X0256950Y0154075D03*
X0256900Y0154125D03*
X0256850Y0154125D03*
X0263950Y0158025D03*
X0260350Y0162325D03*
X0260300Y0162325D03*
X0257850Y0162325D03*
X0257800Y0162325D03*
X0257750Y0162325D03*
X0255700Y0161025D03*
X0257400Y0166075D03*
X0257450Y0166075D03*
X0257500Y0166075D03*
X0257550Y0166075D03*
X0257600Y0166075D03*
X0257650Y0166075D03*
X0257700Y0166075D03*
X0257750Y0166075D03*
X0257750Y0173075D03*
X0257800Y0173075D03*
X0257850Y0173075D03*
X0257900Y0173075D03*
X0257950Y0173075D03*
X0258000Y0173075D03*
X0257700Y0173075D03*
X0257650Y0173075D03*
X0257600Y0173075D03*
X0257550Y0173075D03*
X0257500Y0173075D03*
X0257450Y0173075D03*
X0257400Y0173075D03*
X0258000Y0176325D03*
X0258050Y0176325D03*
X0257850Y0176375D03*
X0257800Y0176375D03*
X0257750Y0176375D03*
X0257700Y0176425D03*
X0257650Y0176425D03*
X0257600Y0176425D03*
X0257500Y0176475D03*
X0257450Y0176475D03*
X0257350Y0176525D03*
X0258300Y0176275D03*
X0258350Y0176275D03*
X0259750Y0176225D03*
X0260050Y0176275D03*
X0260100Y0176275D03*
X0260150Y0176275D03*
X0260250Y0176325D03*
X0260300Y0176325D03*
X0260350Y0176325D03*
X0260450Y0176375D03*
X0260500Y0176375D03*
X0260500Y0184625D03*
X0260350Y0184675D03*
X0260300Y0184675D03*
X0260200Y0184725D03*
X0260150Y0184725D03*
X0260100Y0184725D03*
X0260050Y0184775D03*
X0260000Y0184775D03*
X0259950Y0184775D03*
X0259900Y0184775D03*
X0259750Y0184825D03*
X0259700Y0184825D03*
X0259650Y0184825D03*
X0259600Y0184825D03*
X0258500Y0184825D03*
X0258450Y0184825D03*
X0258150Y0184775D03*
X0258100Y0184775D03*
X0257950Y0184725D03*
X0257900Y0184725D03*
X0257850Y0184725D03*
X0257800Y0184725D03*
X0257750Y0184675D03*
X0257700Y0184675D03*
X0257650Y0184675D03*
X0257550Y0184625D03*
X0257500Y0184625D03*
X0257350Y0184575D03*
X0258550Y0188175D03*
X0258600Y0188175D03*
X0258700Y0188125D03*
X0258750Y0188125D03*
X0258800Y0188125D03*
X0258850Y0188075D03*
X0258900Y0188075D03*
X0258950Y0188075D03*
X0259000Y0188075D03*
X0259100Y0188025D03*
X0259150Y0188025D03*
X0259200Y0188025D03*
X0259450Y0187975D03*
X0259500Y0187975D03*
X0258450Y0188225D03*
X0258400Y0188225D03*
X0261400Y0187975D03*
X0261450Y0187975D03*
X0261500Y0187975D03*
X0261700Y0188025D03*
X0261750Y0188025D03*
X0261800Y0188025D03*
X0261950Y0188075D03*
X0262000Y0188075D03*
X0262050Y0188075D03*
X0262150Y0188125D03*
X0262200Y0188125D03*
X0262250Y0188125D03*
X0262350Y0188175D03*
X0262400Y0188175D03*
X0262550Y0188225D03*
D100*
X0254950Y0194400D03*
X0261950Y0080750D03*
X0269000Y0080750D03*
X0269000Y0068300D03*
X0261950Y0068300D03*
D101*
X0255000Y0115675D03*
X0262950Y0157975D03*
X0254950Y0180525D03*
X0266750Y0195175D03*
D102*
X0254950Y0169750D03*
X0266550Y0129150D03*
X0262950Y0115800D03*
D103*
X0254950Y0115675D03*
X0254950Y0093675D03*
X0262850Y0093825D03*
X0262850Y0142625D03*
X0254950Y0142475D03*
X0254950Y0157875D03*
X0263000Y0157975D03*
X0255050Y0169775D03*
D104*
X0255000Y0194350D03*
X0254950Y0129150D03*
X0266050Y0129150D03*
X0269050Y0080750D03*
X0269100Y0080750D03*
X0261900Y0080750D03*
X0261850Y0080750D03*
X0261850Y0068300D03*
X0261900Y0068300D03*
X0269050Y0068300D03*
X0269100Y0068300D03*
D105*
X0266450Y0129175D03*
X0255000Y0180525D03*
D106*
X0255100Y0194250D03*
X0255000Y0129150D03*
X0261700Y0080750D03*
X0269250Y0080750D03*
X0269250Y0068300D03*
X0261700Y0068300D03*
D107*
X0261800Y0068300D03*
X0269150Y0068300D03*
X0269150Y0080750D03*
X0269200Y0080750D03*
X0261800Y0080750D03*
X0266000Y0129150D03*
X0255050Y0194300D03*
D108*
X0262900Y0180450D03*
X0255050Y0142500D03*
X0255050Y0093700D03*
D109*
X0261600Y0080750D03*
X0261650Y0080750D03*
X0269300Y0080750D03*
X0269350Y0080750D03*
X0269350Y0068300D03*
X0269300Y0068300D03*
X0261650Y0068300D03*
X0261600Y0068300D03*
X0255050Y0129150D03*
D110*
X0255400Y0125975D03*
X0255300Y0113625D03*
X0262450Y0107625D03*
X0263650Y0093825D03*
X0255300Y0091625D03*
X0255300Y0140425D03*
X0262000Y0161675D03*
X0255550Y0166725D03*
X0255100Y0171475D03*
X0262450Y0178125D03*
X0255200Y0182525D03*
X0255350Y0191225D03*
X0265700Y0191025D03*
D111*
X0255100Y0157875D03*
X0266400Y0129175D03*
X0255100Y0115675D03*
D112*
X0255100Y0093700D03*
X0255100Y0142500D03*
X0266700Y0195050D03*
D113*
X0255100Y0129150D03*
X0261450Y0080750D03*
X0269500Y0080750D03*
X0269550Y0080750D03*
X0269500Y0068300D03*
X0261450Y0068300D03*
D114*
X0266050Y0194225D03*
X0255150Y0194225D03*
D115*
X0255150Y0180525D03*
X0266350Y0129175D03*
D116*
X0265450Y0125600D03*
X0255600Y0125500D03*
X0255350Y0118050D03*
X0262550Y0113550D03*
X0262200Y0107850D03*
X0262550Y0091550D03*
X0255500Y0091200D03*
X0265450Y0080750D03*
X0265500Y0080750D03*
X0265500Y0068300D03*
X0265450Y0068300D03*
X0265400Y0132800D03*
X0265350Y0132900D03*
X0262550Y0140350D03*
X0255500Y0140000D03*
X0255700Y0132900D03*
X0255500Y0155350D03*
X0262700Y0155700D03*
X0261600Y0161900D03*
X0256100Y0161900D03*
X0255900Y0166500D03*
X0255150Y0167850D03*
X0255300Y0171900D03*
X0255600Y0177900D03*
X0262200Y0177700D03*
X0262450Y0183000D03*
X0265450Y0190500D03*
X0255700Y0190500D03*
X0255650Y0190600D03*
D117*
X0255200Y0194175D03*
X0266000Y0194175D03*
D118*
X0255200Y0178850D03*
X0263550Y0142600D03*
X0265900Y0131550D03*
X0263550Y0115800D03*
X0263550Y0104550D03*
X0264800Y0080750D03*
X0266150Y0080750D03*
X0266150Y0068300D03*
X0264800Y0068300D03*
D119*
X0265300Y0068325D03*
X0265300Y0080775D03*
X0262650Y0091775D03*
X0262600Y0095925D03*
X0255250Y0095825D03*
X0262350Y0107725D03*
X0262600Y0117875D03*
X0265650Y0125975D03*
X0265600Y0132425D03*
X0262650Y0140575D03*
X0262600Y0144725D03*
X0255350Y0155625D03*
X0255850Y0161775D03*
X0255700Y0166625D03*
X0261800Y0161775D03*
X0262850Y0159925D03*
X0262350Y0177925D03*
X0263750Y0180375D03*
X0262550Y0182775D03*
X0255400Y0178225D03*
X0255450Y0190975D03*
X0265600Y0190775D03*
X0255500Y0132575D03*
D120*
X0262750Y0144200D03*
X0263750Y0158000D03*
X0255300Y0166950D03*
X0262750Y0095400D03*
X0264950Y0080750D03*
X0266000Y0080750D03*
X0266000Y0068300D03*
X0264950Y0068300D03*
D121*
X0262900Y0066100D03*
X0262850Y0066050D03*
X0262700Y0065950D03*
X0262650Y0065900D03*
X0262600Y0065850D03*
X0262550Y0065850D03*
X0262500Y0065800D03*
X0262450Y0065750D03*
X0262300Y0065650D03*
X0262150Y0065550D03*
X0262850Y0070550D03*
X0262800Y0070600D03*
X0262700Y0070650D03*
X0262650Y0070700D03*
X0262600Y0070750D03*
X0262500Y0070800D03*
X0262450Y0070850D03*
X0268100Y0070550D03*
X0268250Y0070650D03*
X0268300Y0070700D03*
X0268350Y0070750D03*
X0268400Y0070750D03*
X0268450Y0070800D03*
X0268500Y0070850D03*
X0268650Y0070950D03*
X0268800Y0071050D03*
X0268050Y0066100D03*
X0268200Y0066000D03*
X0268250Y0065950D03*
X0268300Y0065900D03*
X0268350Y0065850D03*
X0268400Y0065850D03*
X0268450Y0065800D03*
X0268500Y0065750D03*
X0268650Y0065650D03*
X0268650Y0078100D03*
X0268500Y0078200D03*
X0268450Y0078250D03*
X0268400Y0078300D03*
X0268350Y0078300D03*
X0268300Y0078350D03*
X0268250Y0078400D03*
X0268200Y0078450D03*
X0268050Y0078550D03*
X0268050Y0082950D03*
X0268100Y0083000D03*
X0268250Y0083100D03*
X0268300Y0083150D03*
X0268350Y0083200D03*
X0268400Y0083200D03*
X0268450Y0083250D03*
X0268500Y0083300D03*
X0268650Y0083400D03*
X0268800Y0083500D03*
X0262850Y0083000D03*
X0262700Y0083100D03*
X0262650Y0083150D03*
X0262600Y0083200D03*
X0262500Y0083250D03*
X0262450Y0083300D03*
X0262150Y0083500D03*
X0262850Y0078500D03*
X0262700Y0078400D03*
X0262650Y0078350D03*
X0262600Y0078300D03*
X0262550Y0078300D03*
X0262500Y0078250D03*
X0262450Y0078200D03*
X0262300Y0078100D03*
X0262150Y0078000D03*
X0255700Y0090900D03*
X0255600Y0096500D03*
X0262150Y0096650D03*
X0262200Y0096600D03*
X0262700Y0106600D03*
X0261950Y0108000D03*
X0262250Y0113050D03*
X0262200Y0118600D03*
X0262150Y0118650D03*
X0255600Y0118500D03*
X0255700Y0112850D03*
X0255950Y0124950D03*
X0255900Y0125000D03*
X0265050Y0125000D03*
X0265050Y0133350D03*
X0265000Y0133400D03*
X0262250Y0139850D03*
X0262200Y0145400D03*
X0262150Y0145450D03*
X0255600Y0145300D03*
X0255700Y0139700D03*
X0256100Y0133450D03*
X0256050Y0133400D03*
X0255800Y0154950D03*
X0255750Y0155000D03*
X0255300Y0160350D03*
X0256500Y0162050D03*
X0256200Y0166350D03*
X0261250Y0162050D03*
X0262500Y0160550D03*
X0262450Y0155300D03*
X0262400Y0155250D03*
X0255550Y0172200D03*
X0255600Y0172250D03*
X0255650Y0172300D03*
X0255950Y0177450D03*
X0261850Y0177250D03*
X0261900Y0177300D03*
X0263800Y0180400D03*
X0255750Y0183450D03*
X0256200Y0189800D03*
X0256150Y0189850D03*
X0265100Y0189950D03*
X0265150Y0190000D03*
D122*
X0262000Y0183625D03*
X0262050Y0183575D03*
X0262100Y0183525D03*
X0256100Y0183825D03*
X0256050Y0183775D03*
X0256000Y0183725D03*
X0255950Y0183675D03*
X0256650Y0189325D03*
X0256600Y0189375D03*
X0256150Y0177275D03*
X0256200Y0177225D03*
X0256250Y0177175D03*
X0255900Y0172525D03*
X0255850Y0172475D03*
X0255800Y0172425D03*
X0261600Y0177025D03*
X0261650Y0177075D03*
X0256450Y0166275D03*
X0256400Y0166275D03*
X0256750Y0162125D03*
X0256800Y0162125D03*
X0255350Y0160475D03*
X0255950Y0154775D03*
X0256000Y0154725D03*
X0262200Y0155025D03*
X0262250Y0155075D03*
X0262300Y0160825D03*
X0261050Y0162125D03*
X0261900Y0145725D03*
X0261950Y0145675D03*
X0255800Y0145575D03*
X0255750Y0145525D03*
X0255850Y0139475D03*
X0261950Y0139525D03*
X0262000Y0139575D03*
X0262050Y0139625D03*
X0264650Y0133825D03*
X0264700Y0133775D03*
X0264750Y0133725D03*
X0264850Y0124775D03*
X0264800Y0124725D03*
X0264750Y0124675D03*
X0261850Y0118975D03*
X0261900Y0118925D03*
X0261950Y0118875D03*
X0262050Y0112825D03*
X0262000Y0112775D03*
X0261950Y0112725D03*
X0261900Y0112675D03*
X0255850Y0112675D03*
X0255800Y0118775D03*
X0256150Y0124725D03*
X0256100Y0124775D03*
X0261800Y0108075D03*
X0261950Y0096875D03*
X0262050Y0090825D03*
X0262000Y0090775D03*
X0261950Y0090725D03*
X0255850Y0090675D03*
X0255750Y0096725D03*
X0255800Y0096775D03*
D123*
X0255350Y0096075D03*
X0255450Y0091275D03*
X0262500Y0096125D03*
X0262650Y0102675D03*
X0255450Y0113275D03*
X0262500Y0118125D03*
X0265500Y0125675D03*
X0267050Y0129175D03*
X0265450Y0132725D03*
X0255650Y0132825D03*
X0255450Y0140075D03*
X0255350Y0144875D03*
X0262500Y0144925D03*
X0262750Y0155825D03*
X0262750Y0160125D03*
X0261650Y0161875D03*
X0256050Y0161875D03*
X0255850Y0166525D03*
X0255450Y0155425D03*
X0255550Y0177975D03*
X0255400Y0182975D03*
X0262250Y0177775D03*
X0265500Y0190575D03*
X0255600Y0190675D03*
D124*
X0256800Y0189175D03*
X0256850Y0189125D03*
X0256900Y0189075D03*
X0256950Y0189025D03*
X0256200Y0183925D03*
X0256150Y0183875D03*
X0261750Y0183875D03*
X0261800Y0183825D03*
X0261850Y0183775D03*
X0261900Y0183725D03*
X0264400Y0189225D03*
X0264450Y0189275D03*
X0264500Y0189325D03*
X0264550Y0189375D03*
X0261500Y0176925D03*
X0261450Y0176875D03*
X0256350Y0177075D03*
X0256050Y0172625D03*
X0256000Y0172575D03*
X0256600Y0166225D03*
X0256650Y0166225D03*
X0256950Y0162175D03*
X0257000Y0162175D03*
X0255400Y0160575D03*
X0260900Y0162175D03*
X0260950Y0162175D03*
X0262050Y0154875D03*
X0262000Y0154825D03*
X0256150Y0154625D03*
X0261650Y0145975D03*
X0261700Y0145925D03*
X0261750Y0145875D03*
X0261700Y0139325D03*
X0261650Y0139275D03*
X0261600Y0139225D03*
X0256000Y0139325D03*
X0255950Y0139375D03*
X0256500Y0133925D03*
X0256450Y0133875D03*
X0264400Y0134075D03*
X0264450Y0134025D03*
X0264500Y0133975D03*
X0264650Y0124575D03*
X0264600Y0124525D03*
X0264550Y0124475D03*
X0264500Y0124425D03*
X0261700Y0119125D03*
X0261750Y0119075D03*
X0261800Y0119025D03*
X0255950Y0118925D03*
X0255900Y0118875D03*
X0255850Y0118825D03*
X0255950Y0112575D03*
X0261550Y0112375D03*
X0261600Y0112425D03*
X0261650Y0112475D03*
X0261700Y0112475D03*
X0261750Y0112525D03*
X0261800Y0112575D03*
X0261700Y0108125D03*
X0262100Y0101925D03*
X0261650Y0097175D03*
X0261700Y0097125D03*
X0261750Y0097075D03*
X0261700Y0090525D03*
X0261650Y0090475D03*
X0261600Y0090425D03*
X0256000Y0090525D03*
X0255950Y0090575D03*
X0256500Y0124375D03*
X0256450Y0124425D03*
X0256400Y0124475D03*
D125*
X0255400Y0118175D03*
X0255500Y0113175D03*
X0262500Y0113425D03*
X0262450Y0118225D03*
X0265350Y0125425D03*
X0265400Y0125525D03*
X0255750Y0132975D03*
X0255400Y0144975D03*
X0262450Y0145025D03*
X0255550Y0155275D03*
X0262700Y0160225D03*
X0261550Y0161925D03*
X0261500Y0161925D03*
X0256150Y0161925D03*
X0255950Y0166475D03*
X0255650Y0177825D03*
X0255450Y0183075D03*
X0262150Y0177625D03*
X0265400Y0190375D03*
X0255750Y0190425D03*
X0262150Y0107875D03*
X0262600Y0102575D03*
X0262450Y0096225D03*
X0255400Y0096175D03*
D126*
X0262500Y0107575D03*
X0265750Y0132075D03*
X0255500Y0166775D03*
D127*
X0256900Y0166150D03*
X0256950Y0166150D03*
X0257000Y0166150D03*
X0257300Y0162250D03*
X0257350Y0162250D03*
X0255500Y0160750D03*
X0260650Y0162250D03*
X0260700Y0162250D03*
X0261750Y0154600D03*
X0261700Y0154550D03*
X0261650Y0154500D03*
X0256500Y0154350D03*
X0256400Y0154400D03*
X0256250Y0146050D03*
X0256200Y0146000D03*
X0256150Y0145950D03*
X0261200Y0146300D03*
X0261300Y0146250D03*
X0261350Y0146200D03*
X0256200Y0139150D03*
X0256250Y0139100D03*
X0261000Y0138850D03*
X0261100Y0138900D03*
X0261150Y0138950D03*
X0261200Y0138950D03*
X0261250Y0139000D03*
X0263450Y0134700D03*
X0263550Y0134650D03*
X0263650Y0134600D03*
X0263700Y0134550D03*
X0263750Y0134550D03*
X0263800Y0134500D03*
X0263900Y0134450D03*
X0263950Y0134400D03*
X0256850Y0134250D03*
X0256800Y0134200D03*
X0256750Y0134150D03*
X0256850Y0124100D03*
X0256900Y0124050D03*
X0256950Y0124000D03*
X0256200Y0119200D03*
X0256150Y0119150D03*
X0261250Y0119450D03*
X0261300Y0119400D03*
X0261350Y0119400D03*
X0261400Y0119350D03*
X0263800Y0123900D03*
X0263900Y0123950D03*
X0263950Y0124000D03*
X0264000Y0124050D03*
X0264100Y0124100D03*
X0261200Y0112150D03*
X0261150Y0112100D03*
X0261100Y0112100D03*
X0261050Y0112050D03*
X0261500Y0108200D03*
X0263800Y0104550D03*
X0261950Y0101800D03*
X0261900Y0101750D03*
X0261200Y0097500D03*
X0261300Y0097450D03*
X0261350Y0097400D03*
X0256300Y0097300D03*
X0256250Y0097250D03*
X0256200Y0097200D03*
X0256150Y0097150D03*
X0256200Y0090350D03*
X0256250Y0090300D03*
X0261000Y0090050D03*
X0261100Y0090100D03*
X0261150Y0090150D03*
X0261200Y0090150D03*
X0261250Y0090200D03*
X0259300Y0085100D03*
X0259250Y0085100D03*
X0259200Y0085100D03*
X0259150Y0085150D03*
X0259100Y0085150D03*
X0259000Y0085200D03*
X0258850Y0085250D03*
X0258700Y0085300D03*
X0259350Y0085050D03*
X0259400Y0085050D03*
X0259500Y0085000D03*
X0259600Y0084950D03*
X0259600Y0076550D03*
X0259500Y0076500D03*
X0259450Y0076500D03*
X0259400Y0076450D03*
X0259350Y0076450D03*
X0259250Y0076400D03*
X0259200Y0076400D03*
X0259150Y0076350D03*
X0259100Y0076350D03*
X0259000Y0076300D03*
X0258950Y0076300D03*
X0258850Y0076250D03*
X0258700Y0076200D03*
X0258850Y0072800D03*
X0259000Y0072750D03*
X0259100Y0072700D03*
X0259150Y0072700D03*
X0259200Y0072650D03*
X0259250Y0072650D03*
X0259300Y0072650D03*
X0259350Y0072600D03*
X0259400Y0072600D03*
X0259500Y0072550D03*
X0259600Y0072500D03*
X0259600Y0064100D03*
X0259500Y0064050D03*
X0259450Y0064050D03*
X0259400Y0064000D03*
X0259350Y0064000D03*
X0259250Y0063950D03*
X0259200Y0063950D03*
X0259150Y0063900D03*
X0259100Y0063900D03*
X0259000Y0063850D03*
X0258950Y0063850D03*
X0258850Y0063800D03*
X0271250Y0064150D03*
X0271350Y0064100D03*
X0271450Y0064050D03*
X0271500Y0064050D03*
X0271600Y0064000D03*
X0271650Y0064000D03*
X0271700Y0063950D03*
X0271750Y0063950D03*
X0271800Y0063900D03*
X0271850Y0063900D03*
X0271950Y0063850D03*
X0272000Y0063850D03*
X0271350Y0072500D03*
X0271450Y0072550D03*
X0271550Y0072600D03*
X0271600Y0072600D03*
X0271650Y0072650D03*
X0271700Y0072650D03*
X0271750Y0072650D03*
X0271800Y0072700D03*
X0271850Y0072700D03*
X0271950Y0072750D03*
X0272100Y0072800D03*
X0272250Y0072850D03*
X0272100Y0076250D03*
X0272000Y0076300D03*
X0271950Y0076300D03*
X0271850Y0076350D03*
X0271800Y0076350D03*
X0271750Y0076400D03*
X0271700Y0076400D03*
X0271650Y0076450D03*
X0271600Y0076450D03*
X0271550Y0076450D03*
X0271500Y0076500D03*
X0271450Y0076500D03*
X0271350Y0076550D03*
X0271250Y0076600D03*
X0271350Y0084950D03*
X0271450Y0085000D03*
X0271500Y0085000D03*
X0271550Y0085050D03*
X0271600Y0085050D03*
X0271650Y0085100D03*
X0271700Y0085100D03*
X0271750Y0085100D03*
X0271800Y0085150D03*
X0271850Y0085150D03*
X0271950Y0085200D03*
X0272000Y0085200D03*
X0272100Y0085250D03*
X0272250Y0085300D03*
X0256200Y0112300D03*
X0256450Y0172850D03*
X0256500Y0172850D03*
X0256600Y0172900D03*
X0256650Y0172900D03*
X0260900Y0176550D03*
X0261000Y0176600D03*
X0261050Y0176650D03*
X0261100Y0176650D03*
X0256850Y0176750D03*
X0256750Y0176800D03*
X0256700Y0176850D03*
X0256600Y0184200D03*
X0256650Y0184250D03*
X0256700Y0184250D03*
X0256750Y0184300D03*
X0256850Y0184350D03*
X0257600Y0188600D03*
X0257500Y0188650D03*
X0257450Y0188700D03*
X0257350Y0188750D03*
X0261250Y0184250D03*
X0261300Y0184200D03*
X0261350Y0184200D03*
X0261400Y0184150D03*
X0263350Y0188550D03*
X0263450Y0188600D03*
X0263500Y0188650D03*
X0263550Y0188650D03*
X0263600Y0188700D03*
X0263650Y0188700D03*
X0263700Y0188750D03*
X0263800Y0188800D03*
D128*
X0263400Y0188575D03*
X0263300Y0188525D03*
X0263250Y0188525D03*
X0263200Y0188475D03*
X0263150Y0188475D03*
X0263100Y0188425D03*
X0263050Y0188425D03*
X0262950Y0188375D03*
X0260950Y0184425D03*
X0261050Y0184375D03*
X0261100Y0184325D03*
X0261150Y0184325D03*
X0261200Y0184275D03*
X0260850Y0184475D03*
X0257100Y0184475D03*
X0257000Y0184425D03*
X0256900Y0184375D03*
X0256800Y0184325D03*
X0258150Y0188325D03*
X0258050Y0188375D03*
X0257950Y0188425D03*
X0257900Y0188425D03*
X0257850Y0188475D03*
X0257800Y0188475D03*
X0257750Y0188525D03*
X0257700Y0188525D03*
X0257650Y0188575D03*
X0257550Y0188625D03*
X0256800Y0176775D03*
X0256900Y0176725D03*
X0256950Y0176675D03*
X0257000Y0176675D03*
X0257100Y0176625D03*
X0260750Y0176475D03*
X0260850Y0176525D03*
X0260950Y0176575D03*
X0256900Y0172975D03*
X0256850Y0172975D03*
X0256800Y0172975D03*
X0256750Y0172925D03*
X0256700Y0172925D03*
X0256550Y0172875D03*
X0257050Y0166125D03*
X0257100Y0166125D03*
X0257150Y0166125D03*
X0257400Y0162275D03*
X0257450Y0162275D03*
X0257500Y0162275D03*
X0255550Y0160825D03*
X0260550Y0162275D03*
X0260600Y0162275D03*
X0261600Y0154475D03*
X0261550Y0154425D03*
X0261450Y0154375D03*
X0256600Y0154275D03*
X0256550Y0154325D03*
X0256650Y0146325D03*
X0256500Y0146225D03*
X0256400Y0146175D03*
X0256350Y0146125D03*
X0256300Y0146075D03*
X0261000Y0146425D03*
X0261050Y0146375D03*
X0261100Y0146375D03*
X0261150Y0146325D03*
X0261250Y0146275D03*
X0256300Y0139075D03*
X0256350Y0139025D03*
X0256400Y0138975D03*
X0260850Y0138775D03*
X0260900Y0138775D03*
X0260950Y0138825D03*
X0261050Y0138875D03*
X0261900Y0135225D03*
X0262100Y0135175D03*
X0262300Y0135125D03*
X0262350Y0135125D03*
X0262450Y0135075D03*
X0262500Y0135075D03*
X0262600Y0135025D03*
X0262650Y0135025D03*
X0262700Y0135025D03*
X0262750Y0134975D03*
X0262800Y0134975D03*
X0262850Y0134975D03*
X0262900Y0134925D03*
X0262950Y0134925D03*
X0263050Y0134875D03*
X0263100Y0134875D03*
X0263150Y0134825D03*
X0263200Y0134825D03*
X0263250Y0134775D03*
X0263300Y0134775D03*
X0263350Y0134775D03*
X0263400Y0134725D03*
X0263500Y0134675D03*
X0263600Y0134625D03*
X0257200Y0134475D03*
X0257100Y0134425D03*
X0257050Y0134375D03*
X0257000Y0134325D03*
X0256950Y0134325D03*
X0256900Y0134275D03*
X0257000Y0123975D03*
X0257050Y0123925D03*
X0257100Y0123925D03*
X0257150Y0123875D03*
X0256600Y0119475D03*
X0256500Y0119425D03*
X0256450Y0119375D03*
X0256400Y0119325D03*
X0256350Y0119325D03*
X0256300Y0119275D03*
X0256250Y0119225D03*
X0260950Y0119625D03*
X0261050Y0119575D03*
X0261100Y0119525D03*
X0261150Y0119525D03*
X0261200Y0119475D03*
X0263700Y0123825D03*
X0263750Y0123875D03*
X0263850Y0123925D03*
X0267100Y0129175D03*
X0261000Y0112025D03*
X0260950Y0112025D03*
X0260900Y0111975D03*
X0260800Y0111925D03*
X0261400Y0108225D03*
X0261450Y0108225D03*
X0256300Y0112225D03*
X0256250Y0112275D03*
X0261850Y0101725D03*
X0261800Y0101675D03*
X0261700Y0101625D03*
X0261000Y0097625D03*
X0261100Y0097575D03*
X0261150Y0097525D03*
X0261250Y0097475D03*
X0256550Y0097475D03*
X0256500Y0097425D03*
X0256400Y0097375D03*
X0256350Y0097325D03*
X0256300Y0090275D03*
X0256350Y0090225D03*
X0260850Y0089975D03*
X0260950Y0090025D03*
X0261050Y0090075D03*
X0258950Y0085225D03*
X0258900Y0085225D03*
X0258800Y0085275D03*
X0258750Y0085275D03*
X0258650Y0085325D03*
X0258600Y0085325D03*
X0258500Y0085375D03*
X0258450Y0085375D03*
X0258350Y0085425D03*
X0258300Y0085425D03*
X0258150Y0085475D03*
X0259050Y0085175D03*
X0259050Y0076325D03*
X0258900Y0076275D03*
X0258800Y0076225D03*
X0258750Y0076225D03*
X0258650Y0076175D03*
X0258600Y0076175D03*
X0258500Y0076125D03*
X0258450Y0076125D03*
X0258350Y0076075D03*
X0258300Y0076075D03*
X0258150Y0076025D03*
X0258000Y0073075D03*
X0258150Y0073025D03*
X0258300Y0072975D03*
X0258350Y0072975D03*
X0258450Y0072925D03*
X0258500Y0072925D03*
X0258550Y0072925D03*
X0258600Y0072875D03*
X0258650Y0072875D03*
X0258700Y0072875D03*
X0258750Y0072825D03*
X0258800Y0072825D03*
X0258900Y0072775D03*
X0258950Y0072775D03*
X0259050Y0072725D03*
X0259050Y0063875D03*
X0258900Y0063825D03*
X0258800Y0063775D03*
X0258750Y0063775D03*
X0258700Y0063775D03*
X0258650Y0063725D03*
X0258600Y0063725D03*
X0258550Y0063725D03*
X0258500Y0063675D03*
X0258450Y0063675D03*
X0258350Y0063625D03*
X0258300Y0063625D03*
X0258150Y0063575D03*
X0271900Y0063875D03*
X0272050Y0063825D03*
X0272100Y0063825D03*
X0272150Y0063775D03*
X0272200Y0063775D03*
X0272250Y0063775D03*
X0272300Y0063725D03*
X0272350Y0063725D03*
X0272400Y0063725D03*
X0272450Y0063675D03*
X0272500Y0063675D03*
X0272650Y0063625D03*
X0272800Y0063575D03*
X0273000Y0063525D03*
X0271900Y0072725D03*
X0272000Y0072775D03*
X0272050Y0072775D03*
X0272150Y0072825D03*
X0272200Y0072825D03*
X0272300Y0072875D03*
X0272350Y0072875D03*
X0272450Y0072925D03*
X0272500Y0072925D03*
X0272600Y0072975D03*
X0272650Y0072975D03*
X0272800Y0073025D03*
X0273000Y0075975D03*
X0272800Y0076025D03*
X0272650Y0076075D03*
X0272600Y0076075D03*
X0272500Y0076125D03*
X0272450Y0076125D03*
X0272400Y0076175D03*
X0272350Y0076175D03*
X0272300Y0076175D03*
X0272250Y0076225D03*
X0272200Y0076225D03*
X0272150Y0076225D03*
X0272050Y0076275D03*
X0271900Y0076325D03*
X0271900Y0085175D03*
X0272050Y0085225D03*
X0272150Y0085275D03*
X0272200Y0085275D03*
X0272300Y0085325D03*
X0272350Y0085325D03*
X0272450Y0085375D03*
X0272500Y0085375D03*
X0272600Y0085425D03*
X0272650Y0085425D03*
X0272800Y0085475D03*
D129*
X0268200Y0083075D03*
X0268150Y0083025D03*
X0268000Y0082925D03*
X0267950Y0082875D03*
X0267900Y0082825D03*
X0267750Y0082725D03*
X0267700Y0082675D03*
X0267700Y0078825D03*
X0267750Y0078775D03*
X0267900Y0078675D03*
X0267950Y0078625D03*
X0268000Y0078575D03*
X0268100Y0078525D03*
X0268150Y0078475D03*
X0263250Y0078825D03*
X0263200Y0078775D03*
X0263150Y0078725D03*
X0263050Y0078675D03*
X0263000Y0078625D03*
X0262950Y0078575D03*
X0262900Y0078525D03*
X0262800Y0078475D03*
X0262750Y0078425D03*
X0263200Y0082725D03*
X0263150Y0082775D03*
X0263050Y0082825D03*
X0263000Y0082875D03*
X0262950Y0082925D03*
X0262900Y0082975D03*
X0262800Y0083025D03*
X0262750Y0083075D03*
X0262300Y0091125D03*
X0262250Y0096525D03*
X0255550Y0096425D03*
X0255650Y0090975D03*
X0262400Y0102275D03*
X0262450Y0102325D03*
X0262000Y0107975D03*
X0262300Y0113125D03*
X0262350Y0113175D03*
X0262250Y0118525D03*
X0255550Y0118425D03*
X0255650Y0112925D03*
X0255850Y0125075D03*
X0265100Y0125075D03*
X0265150Y0125125D03*
X0265100Y0133275D03*
X0262300Y0139925D03*
X0262250Y0145325D03*
X0255550Y0145225D03*
X0255650Y0139775D03*
X0256000Y0133325D03*
X0255700Y0155075D03*
X0262500Y0155375D03*
X0263900Y0158025D03*
X0262550Y0160475D03*
X0261300Y0162025D03*
X0256450Y0162025D03*
X0256400Y0162025D03*
X0256150Y0166375D03*
X0255900Y0177525D03*
X0255850Y0177575D03*
X0261950Y0177375D03*
X0262000Y0177425D03*
X0262300Y0183275D03*
X0255700Y0183425D03*
X0256100Y0189925D03*
X0256050Y0189975D03*
X0265200Y0190075D03*
X0262750Y0070625D03*
X0262900Y0070525D03*
X0262950Y0070475D03*
X0263000Y0070425D03*
X0263050Y0070375D03*
X0263150Y0070325D03*
X0263200Y0070275D03*
X0263250Y0066375D03*
X0263200Y0066325D03*
X0263050Y0066225D03*
X0263000Y0066175D03*
X0262950Y0066125D03*
X0262800Y0066025D03*
X0262750Y0065975D03*
X0267700Y0066375D03*
X0267850Y0066275D03*
X0267900Y0066225D03*
X0267950Y0066175D03*
X0268000Y0066125D03*
X0268100Y0066075D03*
X0268150Y0066025D03*
X0267700Y0070225D03*
X0267750Y0070275D03*
X0267900Y0070375D03*
X0267950Y0070425D03*
X0268000Y0070475D03*
X0268050Y0070525D03*
X0268150Y0070575D03*
X0268200Y0070625D03*
D130*
X0262100Y0090900D03*
X0262150Y0090950D03*
X0262000Y0096850D03*
X0255700Y0096650D03*
X0255800Y0090750D03*
X0262250Y0102100D03*
X0262300Y0102150D03*
X0262650Y0106700D03*
X0261850Y0108050D03*
X0262100Y0112850D03*
X0262050Y0118750D03*
X0262000Y0118800D03*
X0255750Y0118700D03*
X0255700Y0118650D03*
X0255750Y0112800D03*
X0255800Y0112750D03*
X0256050Y0124800D03*
X0264900Y0124850D03*
X0264950Y0124900D03*
X0264850Y0133600D03*
X0264800Y0133650D03*
X0262100Y0139700D03*
X0262150Y0139750D03*
X0262000Y0145650D03*
X0255700Y0145450D03*
X0255800Y0139550D03*
X0256250Y0133650D03*
X0256200Y0133600D03*
X0255900Y0154850D03*
X0262300Y0155150D03*
X0262350Y0155200D03*
X0262400Y0160700D03*
X0262350Y0160750D03*
X0261150Y0162100D03*
X0261100Y0162100D03*
X0256700Y0162100D03*
X0256650Y0162100D03*
X0256350Y0166300D03*
X0255700Y0172350D03*
X0255750Y0172400D03*
X0256100Y0177300D03*
X0261700Y0177100D03*
X0261750Y0177150D03*
X0262150Y0183450D03*
X0255900Y0183650D03*
X0256550Y0189400D03*
X0256500Y0189450D03*
X0256450Y0189500D03*
X0256400Y0189550D03*
X0264900Y0189700D03*
X0264950Y0189750D03*
D131*
X0264850Y0189650D03*
X0264800Y0189600D03*
X0264750Y0189550D03*
X0264700Y0189500D03*
X0264650Y0189450D03*
X0264600Y0189400D03*
X0261950Y0183700D03*
X0256750Y0189200D03*
X0256700Y0189250D03*
X0256300Y0177150D03*
X0255950Y0172550D03*
X0261550Y0177000D03*
X0256550Y0166250D03*
X0256500Y0166250D03*
X0256850Y0162150D03*
X0256900Y0162150D03*
X0261000Y0162150D03*
X0262150Y0154950D03*
X0262100Y0154900D03*
X0256100Y0154650D03*
X0256050Y0154700D03*
X0255900Y0145700D03*
X0255850Y0145650D03*
X0261800Y0145850D03*
X0261850Y0145800D03*
X0261900Y0139500D03*
X0261850Y0139450D03*
X0261800Y0139400D03*
X0261750Y0139350D03*
X0255900Y0139450D03*
X0256400Y0133800D03*
X0256350Y0133750D03*
X0256300Y0133700D03*
X0264550Y0133900D03*
X0264600Y0133850D03*
X0264700Y0124600D03*
X0256350Y0124500D03*
X0256300Y0124550D03*
X0256250Y0124600D03*
X0256200Y0124650D03*
X0255900Y0112600D03*
X0261850Y0112600D03*
X0261750Y0108100D03*
X0262600Y0106800D03*
X0262200Y0102050D03*
X0262150Y0102000D03*
X0261800Y0097050D03*
X0261850Y0097000D03*
X0261900Y0096950D03*
X0255900Y0096900D03*
X0255850Y0096850D03*
X0255900Y0090650D03*
X0261750Y0090550D03*
X0261800Y0090600D03*
X0261850Y0090650D03*
X0261900Y0090700D03*
D132*
X0256000Y0080750D03*
X0256000Y0068300D03*
X0274950Y0068300D03*
X0274950Y0080750D03*
D133*
X0274900Y0080775D03*
X0274900Y0068325D03*
X0256050Y0068325D03*
X0256050Y0080775D03*
D134*
X0256100Y0080750D03*
X0256150Y0080750D03*
X0256200Y0080750D03*
X0256250Y0080750D03*
X0256300Y0080750D03*
X0256350Y0080750D03*
X0256400Y0080750D03*
X0256400Y0068300D03*
X0256350Y0068300D03*
X0256300Y0068300D03*
X0256250Y0068300D03*
X0256200Y0068300D03*
X0256150Y0068300D03*
X0256100Y0068300D03*
X0274550Y0068300D03*
X0274600Y0068300D03*
X0274650Y0068300D03*
X0274700Y0068300D03*
X0274750Y0068300D03*
X0274800Y0068300D03*
X0274850Y0068300D03*
X0274850Y0080750D03*
X0274800Y0080750D03*
X0274750Y0080750D03*
X0274700Y0080750D03*
X0274650Y0080750D03*
X0274600Y0080750D03*
X0274550Y0080750D03*
D135*
X0274500Y0080775D03*
X0274500Y0068325D03*
X0256450Y0068325D03*
X0256450Y0080775D03*
D136*
X0256500Y0080750D03*
X0256550Y0080750D03*
X0256600Y0080750D03*
X0256650Y0080750D03*
X0256700Y0080750D03*
X0256750Y0080750D03*
X0256750Y0068300D03*
X0256700Y0068300D03*
X0256650Y0068300D03*
X0256600Y0068300D03*
X0256550Y0068300D03*
X0256500Y0068300D03*
X0274250Y0068300D03*
X0274300Y0068300D03*
X0274350Y0068300D03*
X0274400Y0068300D03*
X0274450Y0068300D03*
X0274450Y0080750D03*
X0274400Y0080750D03*
X0274350Y0080750D03*
X0274300Y0080750D03*
X0274250Y0080750D03*
X0274200Y0080750D03*
D137*
X0274150Y0080750D03*
X0274100Y0080750D03*
X0274050Y0080750D03*
X0274000Y0080750D03*
X0273950Y0080750D03*
X0273950Y0068300D03*
X0274000Y0068300D03*
X0274050Y0068300D03*
X0274100Y0068300D03*
X0274150Y0068300D03*
X0257000Y0068300D03*
X0256950Y0068300D03*
X0256900Y0068300D03*
X0256850Y0068300D03*
X0256800Y0068300D03*
X0256800Y0080750D03*
X0256850Y0080750D03*
X0256900Y0080750D03*
X0256950Y0080750D03*
X0257000Y0080750D03*
X0257050Y0080750D03*
D138*
X0257050Y0068325D03*
X0273900Y0068325D03*
X0273900Y0080775D03*
D139*
X0273850Y0080750D03*
X0273800Y0080750D03*
X0273750Y0080750D03*
X0273700Y0080750D03*
X0273650Y0080750D03*
X0273700Y0068300D03*
X0273750Y0068300D03*
X0273800Y0068300D03*
X0273850Y0068300D03*
X0257300Y0068300D03*
X0257250Y0068300D03*
X0257200Y0068300D03*
X0257150Y0068300D03*
X0257100Y0068300D03*
X0257100Y0080750D03*
X0257150Y0080750D03*
X0257200Y0080750D03*
X0257250Y0080750D03*
X0257300Y0080750D03*
D140*
X0257250Y0089525D03*
X0257250Y0111475D03*
X0257250Y0138325D03*
D141*
X0257350Y0080750D03*
X0257400Y0080750D03*
X0257450Y0080750D03*
X0257500Y0080750D03*
X0257550Y0080750D03*
X0257500Y0068300D03*
X0257450Y0068300D03*
X0257400Y0068300D03*
X0257350Y0068300D03*
X0273450Y0068300D03*
X0273500Y0068300D03*
X0273550Y0068300D03*
X0273600Y0068300D03*
X0273600Y0080750D03*
X0273550Y0080750D03*
X0273500Y0080750D03*
X0273450Y0080750D03*
D142*
X0273400Y0080775D03*
X0273400Y0068325D03*
X0257550Y0068325D03*
D143*
X0257600Y0068300D03*
X0257650Y0068300D03*
X0257700Y0068300D03*
X0257750Y0068300D03*
X0257750Y0080750D03*
X0257700Y0080750D03*
X0257650Y0080750D03*
X0257600Y0080750D03*
X0273200Y0080750D03*
X0273250Y0080750D03*
X0273300Y0080750D03*
X0273350Y0080750D03*
X0273350Y0068300D03*
X0273300Y0068300D03*
X0273250Y0068300D03*
X0273200Y0068300D03*
D144*
X0273150Y0068300D03*
X0273150Y0080750D03*
X0257850Y0080750D03*
X0257800Y0080750D03*
X0257800Y0068300D03*
X0257850Y0068300D03*
D145*
X0258600Y0093850D03*
X0258650Y0093850D03*
X0258700Y0093850D03*
X0258750Y0093850D03*
X0258800Y0093850D03*
X0258850Y0093850D03*
X0258900Y0093850D03*
X0258950Y0093850D03*
X0259000Y0093850D03*
X0259050Y0093850D03*
X0259100Y0093850D03*
X0259150Y0093850D03*
X0259200Y0093850D03*
X0259250Y0093850D03*
X0259300Y0093850D03*
X0259350Y0093850D03*
X0259400Y0093850D03*
X0259450Y0093850D03*
X0259500Y0093850D03*
X0259300Y0115850D03*
X0259250Y0115850D03*
X0259200Y0115850D03*
X0259150Y0115850D03*
X0259100Y0115850D03*
X0259100Y0142650D03*
X0259150Y0142650D03*
X0259200Y0142650D03*
X0259250Y0142650D03*
X0259300Y0142650D03*
X0259350Y0142650D03*
X0259400Y0142650D03*
X0259450Y0142650D03*
X0259050Y0142650D03*
X0259000Y0142650D03*
X0258950Y0142650D03*
X0258900Y0142650D03*
X0258850Y0142650D03*
X0258800Y0142650D03*
X0258750Y0142650D03*
X0258700Y0142650D03*
X0258650Y0142650D03*
X0258600Y0142650D03*
D146*
X0258600Y0115825D03*
X0258650Y0115825D03*
X0258700Y0115825D03*
X0258750Y0115825D03*
X0258800Y0115825D03*
X0258850Y0115825D03*
X0258900Y0115825D03*
X0258950Y0115825D03*
X0259000Y0115825D03*
X0259050Y0115825D03*
D147*
X0259150Y0126800D03*
X0259200Y0126800D03*
X0260950Y0080750D03*
X0261000Y0080750D03*
X0269950Y0080750D03*
X0270000Y0080750D03*
X0270000Y0068300D03*
X0269950Y0068300D03*
X0261000Y0068300D03*
X0260950Y0068300D03*
D148*
X0259400Y0126775D03*
X0259350Y0126775D03*
X0259300Y0126775D03*
X0259250Y0126775D03*
D149*
X0259650Y0138350D03*
X0259700Y0138350D03*
X0259700Y0153650D03*
X0259650Y0153650D03*
X0259600Y0153650D03*
X0259550Y0153650D03*
X0259500Y0153650D03*
X0259450Y0153650D03*
X0259400Y0153650D03*
X0259350Y0153650D03*
X0259300Y0153650D03*
X0259750Y0153700D03*
X0259800Y0153700D03*
X0259850Y0153700D03*
X0259900Y0153700D03*
X0259950Y0153700D03*
X0260050Y0153750D03*
X0260100Y0153750D03*
X0259750Y0111550D03*
X0260100Y0108400D03*
X0260150Y0108400D03*
X0260200Y0108400D03*
X0260250Y0108400D03*
X0260300Y0108400D03*
X0259700Y0089550D03*
X0259650Y0089550D03*
D150*
X0259550Y0093825D03*
X0259550Y0115825D03*
X0259600Y0115825D03*
X0259500Y0115825D03*
X0259450Y0115825D03*
X0259400Y0115825D03*
X0259350Y0115825D03*
X0259500Y0142625D03*
X0259550Y0142625D03*
X0259600Y0142625D03*
D151*
X0259600Y0126750D03*
X0259650Y0126750D03*
X0259700Y0126750D03*
X0259550Y0126750D03*
X0259500Y0126750D03*
X0259450Y0126750D03*
X0260850Y0080750D03*
X0260900Y0080750D03*
X0270050Y0080750D03*
X0270100Y0080750D03*
X0270100Y0068300D03*
X0270050Y0068300D03*
X0260900Y0068300D03*
X0260850Y0068300D03*
D152*
X0259600Y0093850D03*
D153*
X0259750Y0126725D03*
X0259800Y0126725D03*
X0259850Y0126725D03*
X0259900Y0126725D03*
X0259950Y0126725D03*
X0260000Y0126725D03*
X0260050Y0126725D03*
D154*
X0260100Y0126700D03*
X0260150Y0126700D03*
X0260750Y0080750D03*
X0260800Y0080750D03*
X0270150Y0080750D03*
X0270200Y0080750D03*
X0270200Y0068300D03*
X0270150Y0068300D03*
X0260800Y0068300D03*
X0260750Y0068300D03*
D155*
X0260300Y0080750D03*
D156*
X0270650Y0080775D03*
X0270650Y0068325D03*
X0260300Y0068325D03*
D157*
X0260350Y0068300D03*
X0260400Y0068300D03*
X0270550Y0068300D03*
X0270600Y0068300D03*
X0270600Y0080750D03*
X0270550Y0080750D03*
X0260400Y0080750D03*
X0260350Y0080750D03*
D158*
X0260450Y0080750D03*
X0260500Y0080750D03*
X0270450Y0080750D03*
X0270500Y0080750D03*
X0270500Y0068300D03*
X0270450Y0068300D03*
X0260500Y0068300D03*
X0260450Y0068300D03*
D159*
X0260550Y0068300D03*
X0260600Y0068300D03*
X0270350Y0068300D03*
X0270400Y0068300D03*
X0270400Y0080750D03*
X0270350Y0080750D03*
X0260600Y0080750D03*
X0260550Y0080750D03*
D160*
X0260650Y0080750D03*
X0260700Y0080750D03*
X0270250Y0080750D03*
X0270300Y0080750D03*
X0270300Y0068300D03*
X0270250Y0068300D03*
X0260700Y0068300D03*
X0260650Y0068300D03*
D161*
X0261050Y0068300D03*
X0261100Y0068300D03*
X0269850Y0068300D03*
X0269900Y0068300D03*
X0269900Y0080750D03*
X0269850Y0080750D03*
X0261100Y0080750D03*
X0261050Y0080750D03*
D162*
X0261150Y0080750D03*
X0261200Y0080750D03*
X0269750Y0080750D03*
X0269800Y0080750D03*
X0269800Y0068300D03*
X0269750Y0068300D03*
X0261200Y0068300D03*
X0261150Y0068300D03*
D163*
X0261250Y0068300D03*
X0261300Y0068300D03*
X0269700Y0068300D03*
X0269700Y0080750D03*
X0269650Y0080750D03*
X0261300Y0080750D03*
X0261250Y0080750D03*
D164*
X0261350Y0080750D03*
X0269600Y0080750D03*
X0269600Y0068300D03*
X0261350Y0068300D03*
D165*
X0261400Y0068325D03*
X0269550Y0068325D03*
X0261400Y0080775D03*
D166*
X0261500Y0080750D03*
X0261550Y0080750D03*
X0269400Y0080750D03*
X0269450Y0080750D03*
X0269450Y0068300D03*
X0269400Y0068300D03*
X0261550Y0068300D03*
X0261500Y0068300D03*
D167*
X0261750Y0068325D03*
X0269200Y0068325D03*
X0261750Y0080775D03*
X0266100Y0194275D03*
D168*
X0266250Y0194425D03*
X0262000Y0080775D03*
X0262000Y0068325D03*
D169*
X0262850Y0180450D03*
D170*
X0262900Y0104575D03*
X0263000Y0093825D03*
D171*
X0263150Y0093825D03*
X0263150Y0142625D03*
D172*
X0266800Y0129175D03*
X0263300Y0104575D03*
X0263450Y0180425D03*
D173*
X0263500Y0180425D03*
X0263350Y0104575D03*
D174*
X0263400Y0115800D03*
X0264350Y0080750D03*
X0266600Y0080750D03*
X0266600Y0068300D03*
X0264350Y0068300D03*
X0263550Y0158000D03*
D175*
X0263400Y0104575D03*
D176*
X0263450Y0093825D03*
X0264500Y0080775D03*
X0264500Y0068325D03*
X0263450Y0142625D03*
X0263600Y0157975D03*
X0263550Y0180425D03*
D177*
X0263650Y0158000D03*
X0263500Y0142600D03*
X0263500Y0115800D03*
X0264650Y0080750D03*
X0266300Y0080750D03*
X0266300Y0068300D03*
X0264650Y0068300D03*
D178*
X0263850Y0180375D03*
D179*
X0263850Y0104600D03*
D180*
X0264450Y0080750D03*
X0266500Y0080750D03*
X0266500Y0068300D03*
X0264450Y0068300D03*
D181*
X0265800Y0191325D03*
D182*
X0266150Y0194325D03*
D183*
X0266200Y0194375D03*
D184*
X0266300Y0194475D03*
D185*
X0266500Y0129150D03*
D186*
X0266550Y0194800D03*
D187*
X0266600Y0194875D03*
D188*
X0266900Y0129175D03*
D189*
X0269650Y0068325D03*
D190*
X0273650Y0068325D03*
D191*
X0274200Y0068325D03*
D192*
X0262233Y0014536D02*
X0261616Y0014536D01*
X0260998Y0013918D01*
X0260998Y0012067D01*
X0262233Y0012067D01*
X0262850Y0012684D01*
X0262850Y0013918D01*
X0262233Y0014536D01*
X0259764Y0013301D02*
X0260998Y0012067D01*
X0259764Y0010852D02*
X0259147Y0010235D01*
X0259147Y0008384D01*
X0262850Y0008384D01*
X0262850Y0010235D01*
X0262233Y0010852D01*
X0259764Y0010852D01*
X0259764Y0013301D02*
X0259147Y0014536D01*
X0252750Y0014018D02*
X0252750Y0012167D01*
X0249047Y0012167D01*
X0249047Y0014018D01*
X0249664Y0014636D01*
X0252133Y0014636D01*
X0252750Y0014018D01*
X0252750Y0010952D02*
X0249047Y0010952D01*
X0249047Y0008484D02*
X0252750Y0010952D01*
X0252750Y0008484D02*
X0249047Y0008484D01*
X0249664Y0007269D02*
X0249047Y0006652D01*
X0249047Y0005418D01*
X0249664Y0004801D01*
X0252133Y0004801D01*
X0252750Y0005418D01*
X0252750Y0006652D01*
X0252133Y0007269D01*
X0250898Y0007269D01*
X0250898Y0006035D01*
X0242850Y0008484D02*
X0242850Y0010335D01*
X0242233Y0010952D01*
X0239764Y0010952D01*
X0239147Y0010335D01*
X0239147Y0008484D01*
X0242850Y0008484D01*
X0242233Y0012167D02*
X0242850Y0012784D01*
X0242850Y0014018D01*
X0242233Y0014636D01*
X0240998Y0014636D01*
X0240381Y0014018D01*
X0240381Y0013401D01*
X0240998Y0012167D01*
X0239147Y0012167D01*
X0239147Y0014636D01*
X0232800Y0014636D02*
X0232800Y0012167D01*
X0232800Y0010952D02*
X0231566Y0009718D01*
X0231566Y0010335D02*
X0231566Y0008484D01*
X0232800Y0008484D02*
X0229097Y0008484D01*
X0229097Y0010335D01*
X0229714Y0010952D01*
X0230948Y0010952D01*
X0231566Y0010335D01*
X0230331Y0012167D02*
X0229097Y0013401D01*
X0232800Y0013401D01*
X0222450Y0014018D02*
X0218747Y0014018D01*
X0220598Y0012167D01*
X0220598Y0014636D01*
X0219364Y0010952D02*
X0218747Y0010335D01*
X0218747Y0008484D01*
X0222450Y0008484D01*
X0222450Y0010335D01*
X0221833Y0010952D01*
X0219364Y0010952D01*
X0197950Y0011002D02*
X0194247Y0011002D01*
X0194247Y0012217D02*
X0194247Y0014068D01*
X0194864Y0014686D01*
X0197333Y0014686D01*
X0197950Y0014068D01*
X0197950Y0012217D01*
X0194247Y0012217D01*
X0194247Y0008534D02*
X0197950Y0011002D01*
X0197950Y0008534D02*
X0194247Y0008534D01*
X0194864Y0007319D02*
X0194247Y0006702D01*
X0194247Y0005468D01*
X0194864Y0004851D01*
X0197333Y0004851D01*
X0197950Y0005468D01*
X0197950Y0006702D01*
X0197333Y0007319D01*
X0196098Y0007319D01*
X0196098Y0006085D01*
X0188100Y0008951D02*
X0187483Y0008334D01*
X0188100Y0008951D02*
X0188100Y0010185D01*
X0187483Y0010802D01*
X0186248Y0010802D01*
X0185631Y0010185D01*
X0185631Y0009568D01*
X0186248Y0008334D01*
X0184397Y0008334D01*
X0184397Y0010802D01*
X0184397Y0012017D02*
X0186866Y0012017D01*
X0188100Y0013251D01*
X0186866Y0014486D01*
X0184397Y0014486D01*
X0177650Y0014536D02*
X0177650Y0012067D01*
X0175181Y0014536D01*
X0174564Y0014536D01*
X0173947Y0013918D01*
X0173947Y0012684D01*
X0174564Y0012067D01*
X0173947Y0009618D02*
X0177650Y0009618D01*
X0177650Y0008384D02*
X0177650Y0010852D01*
X0175181Y0008384D02*
X0173947Y0009618D01*
X0174564Y0007169D02*
X0173947Y0006552D01*
X0173947Y0004701D01*
X0177650Y0004701D01*
X0177650Y0006552D01*
X0177033Y0007169D01*
X0174564Y0007169D01*
X0167550Y0006552D02*
X0166933Y0007169D01*
X0164464Y0007169D01*
X0163847Y0006552D01*
X0163847Y0004701D01*
X0167550Y0004701D01*
X0167550Y0006552D01*
X0167550Y0008384D02*
X0167550Y0010852D01*
X0167550Y0012067D02*
X0167550Y0014536D01*
X0167550Y0013301D02*
X0163847Y0013301D01*
X0165081Y0012067D01*
X0163847Y0009618D02*
X0167550Y0009618D01*
X0165081Y0008384D02*
X0163847Y0009618D01*
X0157600Y0009618D02*
X0153897Y0009618D01*
X0155131Y0008384D01*
X0154514Y0007169D02*
X0156983Y0007169D01*
X0157600Y0006552D01*
X0157600Y0004701D01*
X0153897Y0004701D01*
X0153897Y0006552D01*
X0154514Y0007169D01*
X0157600Y0008384D02*
X0157600Y0010852D01*
X0156983Y0012067D02*
X0154514Y0012067D01*
X0153897Y0012684D01*
X0153897Y0013918D01*
X0154514Y0014536D01*
X0156983Y0012067D01*
X0157600Y0012684D01*
X0157600Y0013918D01*
X0156983Y0014536D01*
X0154514Y0014536D01*
X0147500Y0013918D02*
X0147500Y0012684D01*
X0146883Y0012067D01*
X0146883Y0010852D02*
X0144414Y0010852D01*
X0143797Y0010235D01*
X0143797Y0008384D01*
X0147500Y0008384D01*
X0147500Y0010235D01*
X0146883Y0010852D01*
X0145648Y0012684D02*
X0145648Y0014536D01*
X0144414Y0014536D02*
X0143797Y0013918D01*
X0143797Y0012684D01*
X0144414Y0012067D01*
X0145031Y0012067D01*
X0145648Y0012684D01*
X0144414Y0014536D02*
X0146883Y0014536D01*
X0147500Y0013918D01*
X0135548Y0014486D02*
X0135548Y0012017D01*
X0125498Y0012017D02*
X0125498Y0014486D01*
X0115498Y0014536D02*
X0115498Y0012067D01*
X0105448Y0012067D02*
X0105448Y0014536D01*
X0097750Y0013918D02*
X0097750Y0012684D01*
X0097133Y0012067D01*
X0096516Y0012067D01*
X0095898Y0012684D01*
X0095898Y0013918D01*
X0096516Y0014536D01*
X0097133Y0014536D01*
X0097750Y0013918D01*
X0095898Y0013918D02*
X0095281Y0014536D01*
X0094664Y0014536D01*
X0094047Y0013918D01*
X0094047Y0012684D01*
X0094664Y0012067D01*
X0095281Y0012067D01*
X0095898Y0012684D01*
X0094664Y0010852D02*
X0094047Y0010235D01*
X0094047Y0008384D01*
X0097750Y0008384D01*
X0097750Y0010235D01*
X0097133Y0010852D01*
X0094664Y0010852D01*
X0087850Y0010652D02*
X0084147Y0010652D01*
X0084147Y0011867D02*
X0084147Y0013718D01*
X0084764Y0014336D01*
X0087233Y0014336D01*
X0087850Y0013718D01*
X0087850Y0011867D01*
X0084147Y0011867D01*
X0084147Y0008184D02*
X0087850Y0010652D01*
X0087850Y0008184D02*
X0084147Y0008184D01*
X0084764Y0006969D02*
X0084147Y0006352D01*
X0084147Y0005118D01*
X0084764Y0004501D01*
X0087233Y0004501D01*
X0087850Y0005118D01*
X0087850Y0006352D01*
X0087233Y0006969D01*
X0085998Y0006969D01*
X0085998Y0005735D01*
X0078050Y0008250D02*
X0078050Y0010102D01*
X0077433Y0010719D01*
X0074964Y0010719D01*
X0074347Y0010102D01*
X0074347Y0008250D01*
X0078050Y0008250D01*
X0078050Y0011933D02*
X0077433Y0011933D01*
X0074964Y0014402D01*
X0074347Y0014402D01*
X0074347Y0011933D01*
X0068150Y0013451D02*
X0064447Y0013451D01*
X0064447Y0014685D02*
X0064447Y0012216D01*
X0065064Y0011002D02*
X0064447Y0010385D01*
X0064447Y0009150D01*
X0065064Y0008533D01*
X0067533Y0008533D01*
X0068150Y0009150D01*
X0068150Y0010385D01*
X0067533Y0011002D01*
X0065064Y0011002D01*
X0065064Y0007319D02*
X0066298Y0007319D01*
X0066916Y0006702D01*
X0066916Y0004850D01*
X0068150Y0004850D02*
X0064447Y0004850D01*
X0064447Y0006702D01*
X0065064Y0007319D01*
X0057900Y0008967D02*
X0057283Y0008350D01*
X0057900Y0008967D02*
X0057900Y0010202D01*
X0057283Y0010819D01*
X0056048Y0010819D01*
X0055431Y0010202D01*
X0055431Y0009584D01*
X0056048Y0008350D01*
X0054197Y0008350D01*
X0054197Y0010819D01*
X0054197Y0012033D02*
X0056666Y0012033D01*
X0057900Y0013268D01*
X0056666Y0014502D01*
X0054197Y0014502D01*
X0047600Y0014068D02*
X0047600Y0012216D01*
X0043897Y0012216D01*
X0043897Y0014068D01*
X0044514Y0014685D01*
X0046983Y0014685D01*
X0047600Y0014068D01*
X0047600Y0011002D02*
X0043897Y0011002D01*
X0043897Y0008533D02*
X0047600Y0011002D01*
X0047600Y0008533D02*
X0043897Y0008533D01*
X0044514Y0007319D02*
X0043897Y0006702D01*
X0043897Y0005467D01*
X0044514Y0004850D01*
X0046983Y0004850D01*
X0047600Y0005467D01*
X0047600Y0006702D01*
X0046983Y0007319D01*
X0045748Y0007319D01*
X0045748Y0006084D01*
X0024700Y0014571D02*
X0024166Y0015105D01*
X0024700Y0015639D01*
X0024166Y0016173D01*
X0022565Y0016173D01*
X0022565Y0017260D02*
X0024166Y0017260D01*
X0024700Y0017794D01*
X0024166Y0018328D01*
X0024700Y0018862D01*
X0024166Y0019395D01*
X0022565Y0019395D01*
X0022565Y0020483D02*
X0024166Y0020483D01*
X0024700Y0021017D01*
X0024166Y0021550D01*
X0024700Y0022084D01*
X0024166Y0022618D01*
X0022565Y0022618D01*
X0024166Y0023706D02*
X0024166Y0024239D01*
X0024700Y0024239D01*
X0024700Y0023706D01*
X0024166Y0023706D01*
X0024166Y0025317D02*
X0023099Y0025317D01*
X0022565Y0025851D01*
X0022565Y0027452D01*
X0021497Y0027452D02*
X0024700Y0027452D01*
X0024700Y0025851D01*
X0024166Y0025317D01*
X0024166Y0028540D02*
X0024700Y0029074D01*
X0024700Y0030141D01*
X0024166Y0030675D01*
X0023099Y0030675D01*
X0022565Y0030141D01*
X0022565Y0029074D01*
X0023099Y0028540D01*
X0024166Y0028540D01*
X0024166Y0031763D02*
X0022565Y0031763D01*
X0024166Y0031763D02*
X0024700Y0032296D01*
X0024700Y0033898D01*
X0022565Y0033898D01*
X0022565Y0034985D02*
X0022565Y0036587D01*
X0023099Y0037120D01*
X0024166Y0037120D01*
X0024700Y0036587D01*
X0024700Y0034985D01*
X0021497Y0034985D01*
X0021497Y0038208D02*
X0021497Y0038742D01*
X0024700Y0038742D01*
X0024700Y0038208D02*
X0024700Y0039276D01*
X0024166Y0040357D02*
X0023099Y0040357D01*
X0022565Y0040890D01*
X0022565Y0041958D01*
X0023099Y0042492D01*
X0023632Y0042492D01*
X0023632Y0040357D01*
X0024166Y0040357D02*
X0024700Y0040890D01*
X0024700Y0041958D01*
X0024166Y0043579D02*
X0024700Y0044113D01*
X0024700Y0045714D01*
X0025234Y0045714D02*
X0022565Y0045714D01*
X0022565Y0044113D01*
X0023099Y0043579D01*
X0024166Y0043579D01*
X0025768Y0044647D02*
X0025768Y0045181D01*
X0025234Y0045714D01*
X0024166Y0046802D02*
X0023099Y0046802D01*
X0022565Y0047336D01*
X0022565Y0048403D01*
X0023099Y0048937D01*
X0023632Y0048937D01*
X0023632Y0046802D01*
X0024166Y0046802D02*
X0024700Y0047336D01*
X0024700Y0048403D01*
X0024700Y0050025D02*
X0022565Y0050025D01*
X0022565Y0051626D01*
X0023099Y0052160D01*
X0024700Y0052160D01*
X0024166Y0053248D02*
X0023099Y0053248D01*
X0022565Y0053781D01*
X0022565Y0054849D01*
X0023099Y0055383D01*
X0023632Y0055383D01*
X0023632Y0053248D01*
X0024166Y0053248D02*
X0024700Y0053781D01*
X0024700Y0054849D01*
X0024700Y0056470D02*
X0024700Y0057004D01*
X0024166Y0057004D01*
X0024166Y0056470D01*
X0024700Y0056470D01*
X0024166Y0058082D02*
X0024700Y0058615D01*
X0024700Y0060217D01*
X0024166Y0061304D02*
X0024700Y0061838D01*
X0024700Y0062906D01*
X0024166Y0063440D01*
X0023099Y0063440D01*
X0022565Y0062906D01*
X0022565Y0061838D01*
X0023099Y0061304D01*
X0024166Y0061304D01*
X0022565Y0060217D02*
X0022565Y0058615D01*
X0023099Y0058082D01*
X0024166Y0058082D01*
X0024700Y0064527D02*
X0022565Y0064527D01*
X0022565Y0065061D01*
X0023099Y0065595D01*
X0022565Y0066129D01*
X0023099Y0066662D01*
X0024700Y0066662D01*
X0024700Y0065595D02*
X0023099Y0065595D01*
X0034297Y0066017D02*
X0034297Y0068486D01*
X0036148Y0067251D02*
X0036148Y0066017D01*
X0034297Y0066017D02*
X0038000Y0066017D01*
X0038000Y0064802D02*
X0038000Y0062334D01*
X0034297Y0062334D01*
X0034297Y0064802D01*
X0036148Y0063568D02*
X0036148Y0062334D01*
X0036148Y0061119D02*
X0036766Y0060502D01*
X0036766Y0058651D01*
X0036766Y0059885D02*
X0038000Y0061119D01*
X0036148Y0061119D02*
X0034914Y0061119D01*
X0034297Y0060502D01*
X0034297Y0058651D01*
X0038000Y0058651D01*
X0044347Y0063618D02*
X0045581Y0064852D01*
X0048050Y0064852D01*
X0047433Y0066067D02*
X0044964Y0068536D01*
X0047433Y0068536D01*
X0048050Y0067918D01*
X0048050Y0066684D01*
X0047433Y0066067D01*
X0044964Y0066067D01*
X0044347Y0066684D01*
X0044347Y0067918D01*
X0044964Y0068536D01*
X0046198Y0064852D02*
X0046198Y0062384D01*
X0045581Y0062384D02*
X0048050Y0062384D01*
X0045581Y0062384D02*
X0044347Y0063618D01*
X0054347Y0063468D02*
X0055581Y0064702D01*
X0058050Y0064702D01*
X0058050Y0065917D02*
X0058050Y0068386D01*
X0058050Y0067151D02*
X0054347Y0067151D01*
X0055581Y0065917D01*
X0056198Y0064702D02*
X0056198Y0062234D01*
X0055581Y0062234D02*
X0054347Y0063468D01*
X0055581Y0062234D02*
X0058050Y0062234D01*
X0064697Y0063218D02*
X0065931Y0064452D01*
X0068400Y0064452D01*
X0068400Y0065667D02*
X0065931Y0068136D01*
X0065314Y0068136D01*
X0064697Y0067518D01*
X0064697Y0066284D01*
X0065314Y0065667D01*
X0066548Y0064452D02*
X0066548Y0061984D01*
X0065931Y0061984D02*
X0068400Y0061984D01*
X0065931Y0061984D02*
X0064697Y0063218D01*
X0068400Y0065667D02*
X0068400Y0068136D01*
X0074597Y0067668D02*
X0075214Y0068286D01*
X0075831Y0068286D01*
X0076448Y0067668D01*
X0077066Y0068286D01*
X0077683Y0068286D01*
X0078300Y0067668D01*
X0078300Y0066434D01*
X0077683Y0065817D01*
X0078300Y0064602D02*
X0075831Y0064602D01*
X0074597Y0063368D01*
X0075831Y0062134D01*
X0078300Y0062134D01*
X0076448Y0062134D02*
X0076448Y0064602D01*
X0075214Y0065817D02*
X0074597Y0066434D01*
X0074597Y0067668D01*
X0076448Y0067668D02*
X0076448Y0067051D01*
X0084247Y0067818D02*
X0086098Y0065967D01*
X0086098Y0068436D01*
X0084247Y0067818D02*
X0087950Y0067818D01*
X0087950Y0064752D02*
X0085481Y0064752D01*
X0084247Y0063518D01*
X0085481Y0062284D01*
X0087950Y0062284D01*
X0086098Y0062284D02*
X0086098Y0064752D01*
X0094447Y0065917D02*
X0096298Y0065917D01*
X0095681Y0067151D01*
X0095681Y0067768D01*
X0096298Y0068386D01*
X0097533Y0068386D01*
X0098150Y0067768D01*
X0098150Y0066534D01*
X0097533Y0065917D01*
X0098150Y0064702D02*
X0095681Y0064702D01*
X0094447Y0063468D01*
X0095681Y0062234D01*
X0098150Y0062234D01*
X0096298Y0062234D02*
X0096298Y0064702D01*
X0094447Y0065917D02*
X0094447Y0068386D01*
X0104397Y0068336D02*
X0105014Y0067101D01*
X0106248Y0065867D01*
X0106248Y0067718D01*
X0106866Y0068336D01*
X0107483Y0068336D01*
X0108100Y0067718D01*
X0108100Y0066484D01*
X0107483Y0065867D01*
X0106248Y0065867D01*
X0106248Y0064652D02*
X0106248Y0062184D01*
X0105631Y0062184D02*
X0108100Y0062184D01*
X0108100Y0064652D02*
X0105631Y0064652D01*
X0104397Y0063418D01*
X0105631Y0062184D01*
X0114547Y0063318D02*
X0115781Y0064552D01*
X0118250Y0064552D01*
X0118250Y0065767D02*
X0117633Y0065767D01*
X0115164Y0068236D01*
X0114547Y0068236D01*
X0114547Y0065767D01*
X0116398Y0064552D02*
X0116398Y0062084D01*
X0115781Y0062084D02*
X0114547Y0063318D01*
X0115781Y0062084D02*
X0118250Y0062084D01*
X0124497Y0062034D02*
X0126348Y0062034D01*
X0125731Y0063268D01*
X0125731Y0063885D01*
X0126348Y0064502D01*
X0127583Y0064502D01*
X0128200Y0063885D01*
X0128200Y0062651D01*
X0127583Y0062034D01*
X0124497Y0062034D02*
X0124497Y0064502D01*
X0124497Y0065717D02*
X0126966Y0065717D01*
X0128200Y0066951D01*
X0126966Y0068186D01*
X0124497Y0068186D01*
X0134697Y0068086D02*
X0134697Y0065617D01*
X0134697Y0066851D02*
X0138400Y0066851D01*
X0137783Y0064402D02*
X0137166Y0064402D01*
X0136548Y0063785D01*
X0136548Y0062551D01*
X0135931Y0061934D01*
X0135314Y0061934D01*
X0134697Y0062551D01*
X0134697Y0063785D01*
X0135314Y0064402D01*
X0137783Y0064402D02*
X0138400Y0063785D01*
X0138400Y0062551D01*
X0137783Y0061934D01*
X0138400Y0060719D02*
X0137166Y0059485D01*
X0137166Y0060102D02*
X0137166Y0058251D01*
X0138400Y0058251D02*
X0134697Y0058251D01*
X0134697Y0060102D01*
X0135314Y0060719D01*
X0136548Y0060719D01*
X0137166Y0060102D01*
X0144297Y0060552D02*
X0144297Y0059318D01*
X0144914Y0058701D01*
X0147383Y0058701D01*
X0148000Y0059318D01*
X0148000Y0060552D01*
X0147383Y0061169D01*
X0146148Y0061169D01*
X0146148Y0059935D01*
X0144914Y0061169D02*
X0144297Y0060552D01*
X0144297Y0062384D02*
X0148000Y0064852D01*
X0144297Y0064852D01*
X0144297Y0066067D02*
X0144297Y0067918D01*
X0144914Y0068536D01*
X0147383Y0068536D01*
X0148000Y0067918D01*
X0148000Y0066067D01*
X0144297Y0066067D01*
X0144297Y0062384D02*
X0148000Y0062384D01*
X0154447Y0062147D02*
X0156916Y0062147D01*
X0158150Y0060913D01*
X0156916Y0059678D01*
X0154447Y0059678D01*
X0154447Y0063361D02*
X0154447Y0064596D01*
X0154447Y0063979D02*
X0158150Y0063979D01*
X0158150Y0064596D02*
X0158150Y0063361D01*
X0158150Y0065817D02*
X0154447Y0065817D01*
X0158150Y0068286D01*
X0154447Y0068286D01*
X0154097Y0142650D02*
X0154097Y0145119D01*
X0154097Y0146333D02*
X0157800Y0148802D01*
X0157800Y0150016D02*
X0157800Y0152485D01*
X0157800Y0151251D02*
X0154097Y0151251D01*
X0155331Y0150016D01*
X0154097Y0148802D02*
X0157800Y0146333D01*
X0157800Y0143884D02*
X0154097Y0143884D01*
X0147650Y0142700D02*
X0143947Y0142700D01*
X0143947Y0144552D01*
X0144564Y0145169D01*
X0145798Y0145169D01*
X0146416Y0144552D01*
X0146416Y0142700D01*
X0146416Y0143934D02*
X0147650Y0145169D01*
X0147650Y0146383D02*
X0143947Y0148852D01*
X0144564Y0150066D02*
X0143947Y0150683D01*
X0143947Y0151918D01*
X0144564Y0152535D01*
X0147033Y0150066D01*
X0147650Y0150683D01*
X0147650Y0151918D01*
X0147033Y0152535D01*
X0144564Y0152535D01*
X0144564Y0150066D02*
X0147033Y0150066D01*
X0147650Y0148852D02*
X0143947Y0146383D01*
X0137800Y0146900D02*
X0137183Y0146283D01*
X0137800Y0146900D02*
X0137800Y0148135D01*
X0137183Y0148752D01*
X0136566Y0148752D01*
X0135948Y0148135D01*
X0135948Y0146900D01*
X0135331Y0146283D01*
X0134714Y0146283D01*
X0134097Y0146900D01*
X0134097Y0148135D01*
X0134714Y0148752D01*
X0134097Y0149966D02*
X0134097Y0152435D01*
X0134097Y0151201D02*
X0137800Y0151201D01*
X0137800Y0145069D02*
X0136566Y0143834D01*
X0136566Y0144452D02*
X0136566Y0142600D01*
X0137800Y0142600D02*
X0134097Y0142600D01*
X0134097Y0144452D01*
X0134714Y0145069D01*
X0135948Y0145069D01*
X0136566Y0144452D01*
X0127950Y0144202D02*
X0127950Y0142967D01*
X0127333Y0142350D01*
X0124864Y0142350D01*
X0124247Y0142967D01*
X0124247Y0144202D01*
X0124864Y0144819D01*
X0126098Y0144819D02*
X0126098Y0143584D01*
X0126098Y0144819D02*
X0127333Y0144819D01*
X0127950Y0144202D01*
X0127950Y0146033D02*
X0124247Y0146033D01*
X0127950Y0148502D01*
X0124247Y0148502D01*
X0124247Y0149716D02*
X0124247Y0151568D01*
X0124864Y0152185D01*
X0127333Y0152185D01*
X0127950Y0151568D01*
X0127950Y0149716D01*
X0124247Y0149716D01*
X0117700Y0148752D02*
X0117700Y0146283D01*
X0115231Y0148752D01*
X0114614Y0148752D01*
X0113997Y0148135D01*
X0113997Y0146900D01*
X0114614Y0146283D01*
X0114614Y0145069D02*
X0113997Y0144452D01*
X0113997Y0142600D01*
X0117700Y0142600D01*
X0117700Y0144452D01*
X0117083Y0145069D01*
X0114614Y0145069D01*
X0108000Y0144202D02*
X0108000Y0142350D01*
X0104297Y0142350D01*
X0104297Y0144202D01*
X0104914Y0144819D01*
X0107383Y0144819D01*
X0108000Y0144202D01*
X0107383Y0146033D02*
X0108000Y0146650D01*
X0108000Y0147885D01*
X0107383Y0148502D01*
X0106766Y0148502D01*
X0106148Y0147885D01*
X0106148Y0147268D01*
X0106148Y0147885D02*
X0105531Y0148502D01*
X0104914Y0148502D01*
X0104297Y0147885D01*
X0104297Y0146650D01*
X0104914Y0146033D01*
X0097750Y0144502D02*
X0097750Y0142650D01*
X0094047Y0142650D01*
X0094047Y0144502D01*
X0094664Y0145119D01*
X0097133Y0145119D01*
X0097750Y0144502D01*
X0095898Y0146333D02*
X0095898Y0148802D01*
X0094047Y0148185D02*
X0095898Y0146333D01*
X0094047Y0148185D02*
X0097750Y0148185D01*
X0087750Y0148185D02*
X0087750Y0146950D01*
X0087133Y0146333D01*
X0087133Y0145119D02*
X0084664Y0145119D01*
X0084047Y0144502D01*
X0084047Y0142650D01*
X0087750Y0142650D01*
X0087750Y0144502D01*
X0087133Y0145119D01*
X0085898Y0146333D02*
X0085281Y0147568D01*
X0085281Y0148185D01*
X0085898Y0148802D01*
X0087133Y0148802D01*
X0087750Y0148185D01*
X0085898Y0146333D02*
X0084047Y0146333D01*
X0084047Y0148802D01*
X0077750Y0148235D02*
X0077750Y0147000D01*
X0077133Y0146383D01*
X0075898Y0146383D01*
X0075898Y0148235D01*
X0076516Y0148852D01*
X0077133Y0148852D01*
X0077750Y0148235D01*
X0075898Y0146383D02*
X0074664Y0147618D01*
X0074047Y0148852D01*
X0074664Y0145169D02*
X0074047Y0144552D01*
X0074047Y0142700D01*
X0077750Y0142700D01*
X0077750Y0144552D01*
X0077133Y0145169D01*
X0074664Y0145169D01*
X0067650Y0144652D02*
X0067650Y0142800D01*
X0063947Y0142800D01*
X0063947Y0144652D01*
X0064564Y0145269D01*
X0067033Y0145269D01*
X0067650Y0144652D01*
X0067650Y0146483D02*
X0067033Y0146483D01*
X0064564Y0148952D01*
X0063947Y0148952D01*
X0063947Y0146483D01*
X0057750Y0146850D02*
X0057133Y0146233D01*
X0056516Y0146233D01*
X0055898Y0146850D01*
X0055898Y0148085D01*
X0056516Y0148702D01*
X0057133Y0148702D01*
X0057750Y0148085D01*
X0057750Y0146850D01*
X0055898Y0146850D02*
X0055281Y0146233D01*
X0054664Y0146233D01*
X0054047Y0146850D01*
X0054047Y0148085D01*
X0054664Y0148702D01*
X0055281Y0148702D01*
X0055898Y0148085D01*
X0054664Y0145019D02*
X0054047Y0144402D01*
X0054047Y0142550D01*
X0057750Y0142550D01*
X0057750Y0144402D01*
X0057133Y0145019D01*
X0054664Y0145019D01*
X0047600Y0144552D02*
X0047600Y0142700D01*
X0043897Y0142700D01*
X0043897Y0144552D01*
X0044514Y0145169D01*
X0046983Y0145169D01*
X0047600Y0144552D01*
X0046983Y0146383D02*
X0047600Y0147000D01*
X0047600Y0148235D01*
X0046983Y0148852D01*
X0044514Y0148852D01*
X0043897Y0148235D01*
X0043897Y0147000D01*
X0044514Y0146383D01*
X0045131Y0146383D01*
X0045748Y0147000D01*
X0045748Y0148852D01*
X0037650Y0148802D02*
X0037650Y0146333D01*
X0037650Y0147568D02*
X0033947Y0147568D01*
X0035181Y0146333D01*
X0034564Y0145119D02*
X0033947Y0144502D01*
X0033947Y0142650D01*
X0037650Y0142650D01*
X0037650Y0144502D01*
X0037033Y0145119D01*
X0034564Y0145119D01*
X0034564Y0150016D02*
X0033947Y0150633D01*
X0033947Y0151868D01*
X0034564Y0152485D01*
X0037033Y0150016D01*
X0037650Y0150633D01*
X0037650Y0151868D01*
X0037033Y0152485D01*
X0034564Y0152485D01*
X0034564Y0150016D02*
X0037033Y0150016D01*
X0027750Y0149916D02*
X0027750Y0152385D01*
X0027750Y0151151D02*
X0024047Y0151151D01*
X0025281Y0149916D01*
X0024047Y0147468D02*
X0027750Y0147468D01*
X0027750Y0148702D02*
X0027750Y0146233D01*
X0027133Y0145019D02*
X0024664Y0145019D01*
X0024047Y0144402D01*
X0024047Y0142550D01*
X0027750Y0142550D01*
X0027750Y0144402D01*
X0027133Y0145019D01*
X0025281Y0146233D02*
X0024047Y0147468D01*
X0017900Y0147318D02*
X0014197Y0147318D01*
X0015431Y0146083D01*
X0014814Y0144869D02*
X0014197Y0144252D01*
X0014197Y0142400D01*
X0017900Y0142400D01*
X0017900Y0144252D01*
X0017283Y0144869D01*
X0014814Y0144869D01*
X0017900Y0146083D02*
X0017900Y0148552D01*
X0017900Y0149766D02*
X0015431Y0152235D01*
X0014814Y0152235D01*
X0014197Y0151618D01*
X0014197Y0150383D01*
X0014814Y0149766D01*
X0017900Y0149766D02*
X0017900Y0152235D01*
X0044097Y0175318D02*
X0044714Y0174701D01*
X0047183Y0174701D01*
X0047800Y0175318D01*
X0047800Y0176552D01*
X0047183Y0177169D01*
X0045948Y0177169D01*
X0045948Y0175935D01*
X0044714Y0177169D02*
X0044097Y0176552D01*
X0044097Y0175318D01*
X0044097Y0178384D02*
X0047800Y0180852D01*
X0044097Y0180852D01*
X0044097Y0182067D02*
X0044097Y0183918D01*
X0044714Y0184536D01*
X0047183Y0184536D01*
X0047800Y0183918D01*
X0047800Y0182067D01*
X0044097Y0182067D01*
X0044097Y0178384D02*
X0047800Y0178384D01*
X0055548Y0182067D02*
X0055548Y0184536D01*
X0064097Y0183968D02*
X0064097Y0182734D01*
X0064714Y0182117D01*
X0065948Y0183351D02*
X0065948Y0183968D01*
X0066566Y0184586D01*
X0067183Y0184586D01*
X0067800Y0183968D01*
X0067800Y0182734D01*
X0067183Y0182117D01*
X0067800Y0180902D02*
X0067800Y0178434D01*
X0067800Y0179668D02*
X0064097Y0179668D01*
X0065331Y0178434D01*
X0064714Y0177219D02*
X0064097Y0176602D01*
X0064097Y0174751D01*
X0067800Y0174751D01*
X0067800Y0176602D01*
X0067183Y0177219D01*
X0064714Y0177219D01*
X0064097Y0183968D02*
X0064714Y0184586D01*
X0065331Y0184586D01*
X0065948Y0183968D01*
X0093947Y0183968D02*
X0093947Y0182117D01*
X0097650Y0182117D01*
X0097650Y0183968D01*
X0097033Y0184586D01*
X0094564Y0184586D01*
X0093947Y0183968D01*
X0093947Y0180902D02*
X0097650Y0180902D01*
X0093947Y0178434D01*
X0097650Y0178434D01*
X0097033Y0177219D02*
X0097650Y0176602D01*
X0097650Y0175368D01*
X0097033Y0174751D01*
X0094564Y0174751D01*
X0093947Y0175368D01*
X0093947Y0176602D01*
X0094564Y0177219D01*
X0095798Y0177219D02*
X0095798Y0175985D01*
X0095798Y0177219D02*
X0097033Y0177219D01*
X0104197Y0176702D02*
X0104197Y0175468D01*
X0104814Y0174851D01*
X0107283Y0174851D01*
X0107900Y0175468D01*
X0107900Y0176702D01*
X0107283Y0177319D01*
X0106048Y0177319D01*
X0106048Y0176085D01*
X0104814Y0177319D02*
X0104197Y0176702D01*
X0104197Y0178534D02*
X0107900Y0181002D01*
X0104197Y0181002D01*
X0104197Y0182217D02*
X0104197Y0184068D01*
X0104814Y0184686D01*
X0107283Y0184686D01*
X0107900Y0184068D01*
X0107900Y0182217D01*
X0104197Y0182217D01*
X0104197Y0178534D02*
X0107900Y0178534D01*
X0114347Y0179718D02*
X0115581Y0180952D01*
X0118050Y0180952D01*
X0117433Y0182167D02*
X0114964Y0184636D01*
X0117433Y0184636D01*
X0118050Y0184018D01*
X0118050Y0182784D01*
X0117433Y0182167D01*
X0114964Y0182167D01*
X0114347Y0182784D01*
X0114347Y0184018D01*
X0114964Y0184636D01*
X0116198Y0180952D02*
X0116198Y0178484D01*
X0115581Y0178484D02*
X0114347Y0179718D01*
X0115581Y0178484D02*
X0118050Y0178484D01*
X0124047Y0178484D02*
X0124047Y0180335D01*
X0124664Y0180952D01*
X0125898Y0180952D01*
X0126516Y0180335D01*
X0126516Y0178484D01*
X0127750Y0178484D02*
X0124047Y0178484D01*
X0126516Y0179718D02*
X0127750Y0180952D01*
X0127133Y0182167D02*
X0127750Y0182784D01*
X0127750Y0184018D01*
X0127133Y0184636D01*
X0126516Y0184636D01*
X0125898Y0184018D01*
X0125898Y0183401D01*
X0125898Y0184018D02*
X0125281Y0184636D01*
X0124664Y0184636D01*
X0124047Y0184018D01*
X0124047Y0182784D01*
X0124664Y0182167D01*
X0158847Y0182117D02*
X0161316Y0182117D01*
X0162550Y0183351D01*
X0161316Y0184586D01*
X0158847Y0184586D01*
X0158847Y0180902D02*
X0159464Y0179668D01*
X0160698Y0178434D01*
X0160698Y0180285D01*
X0161316Y0180902D01*
X0161933Y0180902D01*
X0162550Y0180285D01*
X0162550Y0179051D01*
X0161933Y0178434D01*
X0160698Y0178434D01*
X0160698Y0177219D02*
X0160698Y0174751D01*
X0159464Y0175985D02*
X0161933Y0175985D01*
X0168847Y0175468D02*
X0169464Y0174851D01*
X0171933Y0174851D01*
X0172550Y0175468D01*
X0172550Y0176702D01*
X0171933Y0177319D01*
X0170698Y0177319D01*
X0170698Y0176085D01*
X0169464Y0177319D02*
X0168847Y0176702D01*
X0168847Y0175468D01*
X0168847Y0178534D02*
X0172550Y0181002D01*
X0168847Y0181002D01*
X0168847Y0182217D02*
X0168847Y0184068D01*
X0169464Y0184686D01*
X0171933Y0184686D01*
X0172550Y0184068D01*
X0172550Y0182217D01*
X0168847Y0182217D01*
X0168847Y0178534D02*
X0172550Y0178534D01*
X0189284Y0203300D02*
X0190351Y0203300D01*
X0190885Y0203834D01*
X0191973Y0204368D02*
X0193040Y0205435D01*
X0193574Y0205435D01*
X0194658Y0204901D02*
X0195192Y0205435D01*
X0196260Y0205435D01*
X0196794Y0204901D01*
X0196794Y0204368D01*
X0194658Y0204368D01*
X0194658Y0204901D02*
X0194658Y0203834D01*
X0195192Y0203300D01*
X0196260Y0203300D01*
X0197881Y0203834D02*
X0198415Y0204368D01*
X0200016Y0204368D01*
X0200016Y0204901D02*
X0200016Y0203300D01*
X0198415Y0203300D01*
X0197881Y0203834D01*
X0198415Y0205435D02*
X0199482Y0205435D01*
X0200016Y0204901D01*
X0201104Y0205435D02*
X0202171Y0205435D01*
X0201638Y0205969D02*
X0201638Y0203834D01*
X0202171Y0203300D01*
X0203252Y0203834D02*
X0203252Y0204901D01*
X0203786Y0205435D01*
X0204854Y0205435D01*
X0205388Y0204901D01*
X0205388Y0204368D01*
X0203252Y0204368D01*
X0203252Y0203834D02*
X0203786Y0203300D01*
X0204854Y0203300D01*
X0206475Y0203834D02*
X0206475Y0204901D01*
X0207009Y0205435D01*
X0208610Y0205435D01*
X0208610Y0206503D02*
X0208610Y0203300D01*
X0207009Y0203300D01*
X0206475Y0203834D01*
X0212921Y0203300D02*
X0214522Y0203300D01*
X0215056Y0203834D01*
X0215056Y0204901D01*
X0214522Y0205435D01*
X0212921Y0205435D01*
X0212921Y0206503D02*
X0212921Y0203300D01*
X0216143Y0203834D02*
X0216143Y0205435D01*
X0216143Y0203834D02*
X0216677Y0203300D01*
X0218279Y0203300D01*
X0218279Y0202766D02*
X0217745Y0202232D01*
X0217211Y0202232D01*
X0218279Y0202766D02*
X0218279Y0205435D01*
X0222589Y0203834D02*
X0223123Y0203300D01*
X0223656Y0203300D01*
X0224190Y0203834D01*
X0224190Y0206503D01*
X0223656Y0206503D02*
X0224724Y0206503D01*
X0226345Y0205435D02*
X0227413Y0205435D01*
X0227947Y0204901D01*
X0227947Y0203300D01*
X0226345Y0203300D01*
X0225812Y0203834D01*
X0226345Y0204368D01*
X0227947Y0204368D01*
X0229034Y0204901D02*
X0229568Y0205435D01*
X0231170Y0205435D01*
X0230636Y0204368D02*
X0229568Y0204368D01*
X0229034Y0204901D01*
X0229034Y0203300D02*
X0230636Y0203300D01*
X0231170Y0203834D01*
X0230636Y0204368D01*
X0232257Y0204901D02*
X0232257Y0203834D01*
X0232791Y0203300D01*
X0233858Y0203300D01*
X0234392Y0203834D01*
X0234392Y0204901D01*
X0233858Y0205435D01*
X0232791Y0205435D01*
X0232257Y0204901D01*
X0235480Y0205435D02*
X0235480Y0203300D01*
X0237615Y0203300D02*
X0237615Y0204901D01*
X0237081Y0205435D01*
X0235480Y0205435D01*
X0241925Y0206503D02*
X0241925Y0203300D01*
X0242993Y0204368D01*
X0244060Y0203300D01*
X0244060Y0206503D01*
X0245148Y0205435D02*
X0245148Y0203834D01*
X0245682Y0203300D01*
X0247283Y0203300D01*
X0247283Y0205435D01*
X0191973Y0205435D02*
X0191973Y0203300D01*
X0189284Y0203300D02*
X0188750Y0203834D01*
X0188750Y0205969D01*
X0189284Y0206503D01*
X0190351Y0206503D01*
X0190885Y0205969D01*
X0027850Y0091968D02*
X0027850Y0090733D01*
X0027233Y0090116D01*
X0026616Y0088902D02*
X0024147Y0088902D01*
X0024764Y0090116D02*
X0024147Y0090733D01*
X0024147Y0091968D01*
X0024764Y0092585D01*
X0025381Y0092585D01*
X0025998Y0091968D01*
X0026616Y0092585D01*
X0027233Y0092585D01*
X0027850Y0091968D01*
X0025998Y0091968D02*
X0025998Y0091351D01*
X0026616Y0088902D02*
X0027850Y0087668D01*
X0026616Y0086433D01*
X0024147Y0086433D01*
X0024764Y0085219D02*
X0025381Y0085219D01*
X0025998Y0084602D01*
X0026616Y0085219D01*
X0027233Y0085219D01*
X0027850Y0084602D01*
X0027850Y0083367D01*
X0027233Y0082750D01*
X0025998Y0083984D02*
X0025998Y0084602D01*
X0024764Y0085219D02*
X0024147Y0084602D01*
X0024147Y0083367D01*
X0024764Y0082750D01*
X0017700Y0082650D02*
X0017700Y0084502D01*
X0017083Y0085119D01*
X0014614Y0085119D01*
X0013997Y0084502D01*
X0013997Y0082650D01*
X0017700Y0082650D01*
X0017700Y0086333D02*
X0017700Y0088802D01*
X0017700Y0087568D02*
X0013997Y0087568D01*
X0015231Y0086333D01*
X0014614Y0090016D02*
X0013997Y0090633D01*
X0013997Y0091868D01*
X0014614Y0092485D01*
X0015231Y0092485D01*
X0015848Y0091868D01*
X0016466Y0092485D01*
X0017083Y0092485D01*
X0017700Y0091868D01*
X0017700Y0090633D01*
X0017083Y0090016D01*
X0015848Y0091251D02*
X0015848Y0091868D01*
X0024700Y0014571D02*
X0024166Y0014037D01*
X0022565Y0014037D01*
D193*
X0017582Y0021174D02*
X0014846Y0021174D01*
X0014846Y0023910D02*
X0017582Y0023910D01*
X0018950Y0022542D01*
X0017582Y0021174D01*
X0016214Y0025318D02*
X0016214Y0026001D01*
X0018950Y0026001D01*
X0018950Y0025318D02*
X0018950Y0026685D01*
X0018950Y0028080D02*
X0018950Y0030132D01*
X0018266Y0030816D01*
X0017582Y0030132D01*
X0017582Y0028764D01*
X0016898Y0028080D01*
X0016214Y0028764D01*
X0016214Y0030816D01*
X0016214Y0032223D02*
X0016214Y0032907D01*
X0018950Y0032907D01*
X0018950Y0032223D02*
X0018950Y0033591D01*
X0018266Y0035670D02*
X0015530Y0035670D01*
X0016214Y0034986D02*
X0016214Y0036354D01*
X0018266Y0035670D02*
X0018950Y0036354D01*
X0014846Y0032907D02*
X0014163Y0032907D01*
X0014163Y0026001D02*
X0014846Y0026001D01*
X0016214Y0041892D02*
X0018266Y0041892D01*
X0018950Y0042576D01*
X0018950Y0044627D01*
X0016214Y0044627D01*
X0016898Y0046035D02*
X0016214Y0046719D01*
X0016214Y0048771D01*
X0017582Y0048087D02*
X0017582Y0046719D01*
X0016898Y0046035D01*
X0018950Y0046035D02*
X0018950Y0048087D01*
X0018266Y0048771D01*
X0017582Y0048087D01*
X0018266Y0054322D02*
X0017582Y0055006D01*
X0017582Y0057058D01*
X0016898Y0057058D02*
X0018950Y0057058D01*
X0018950Y0055006D01*
X0018266Y0054322D01*
X0016214Y0055006D02*
X0016214Y0056374D01*
X0016898Y0057058D01*
X0016214Y0058466D02*
X0016214Y0059834D01*
X0015530Y0059150D02*
X0018266Y0059150D01*
X0018950Y0059834D01*
X0018950Y0061228D02*
X0018266Y0061228D01*
X0018266Y0061912D01*
X0018950Y0061912D01*
X0018950Y0061228D01*
X0016898Y0061228D02*
X0016898Y0061912D01*
X0016214Y0061912D01*
X0016214Y0061228D01*
X0016898Y0061228D01*
X0038762Y0209415D02*
X0039529Y0209415D01*
X0040296Y0210183D01*
X0040296Y0214019D01*
X0041831Y0213252D02*
X0043366Y0213252D01*
X0044900Y0214019D02*
X0044900Y0211717D01*
X0045668Y0210950D01*
X0047970Y0210950D01*
X0047970Y0214019D01*
X0049504Y0213252D02*
X0049504Y0211717D01*
X0050272Y0210950D01*
X0052574Y0210950D01*
X0052574Y0210183D02*
X0052574Y0214019D01*
X0050272Y0214019D01*
X0049504Y0213252D01*
X0052574Y0210183D02*
X0051806Y0209415D01*
X0051039Y0209415D01*
X0054108Y0211717D02*
X0054108Y0213252D01*
X0054875Y0214019D01*
X0056410Y0214019D01*
X0057177Y0213252D01*
X0057177Y0212485D01*
X0054108Y0212485D01*
X0054108Y0211717D02*
X0054875Y0210950D01*
X0056410Y0210950D01*
X0058712Y0210950D02*
X0058712Y0211717D01*
X0059479Y0211717D01*
X0059479Y0210950D01*
X0058712Y0210950D01*
X0058712Y0213252D02*
X0058712Y0214019D01*
X0059479Y0214019D01*
X0059479Y0213252D01*
X0058712Y0213252D01*
X0065618Y0213252D02*
X0068687Y0213252D01*
X0068687Y0214019D02*
X0068687Y0210950D01*
X0065618Y0210950D02*
X0065618Y0214019D01*
X0067153Y0215554D01*
X0068687Y0214019D01*
X0074826Y0215554D02*
X0074826Y0210950D01*
X0077128Y0210950D01*
X0077895Y0211717D01*
X0077895Y0214787D01*
X0077128Y0215554D01*
X0074826Y0215554D01*
X0079430Y0215554D02*
X0080964Y0215554D01*
X0080197Y0215554D02*
X0080197Y0210950D01*
X0079430Y0210950D02*
X0080964Y0210950D01*
X0084034Y0210950D02*
X0084034Y0213252D01*
X0085568Y0214787D01*
X0085568Y0215554D01*
X0084034Y0213252D02*
X0082499Y0214787D01*
X0082499Y0215554D01*
X0091707Y0214787D02*
X0091707Y0211717D01*
X0092474Y0210950D01*
X0094009Y0210950D01*
X0094776Y0211717D01*
X0094776Y0214787D01*
X0094009Y0215554D01*
X0092474Y0215554D01*
X0091707Y0214787D01*
X0096311Y0214019D02*
X0098613Y0214019D01*
X0099380Y0213252D01*
X0099380Y0211717D01*
X0098613Y0210950D01*
X0096311Y0210950D01*
X0096311Y0209415D02*
X0096311Y0214019D01*
X0100915Y0213252D02*
X0100915Y0211717D01*
X0101682Y0210950D01*
X0103217Y0210950D01*
X0103984Y0212485D02*
X0100915Y0212485D01*
X0100915Y0213252D02*
X0101682Y0214019D01*
X0103217Y0214019D01*
X0103984Y0213252D01*
X0103984Y0212485D01*
X0105519Y0214019D02*
X0107821Y0214019D01*
X0108588Y0213252D01*
X0108588Y0210950D01*
X0110123Y0213252D02*
X0113192Y0213252D01*
X0114727Y0214019D02*
X0115494Y0213252D01*
X0117028Y0213252D01*
X0117796Y0212485D01*
X0117796Y0211717D01*
X0117028Y0210950D01*
X0115494Y0210950D01*
X0114727Y0211717D01*
X0114727Y0214019D02*
X0114727Y0214787D01*
X0115494Y0215554D01*
X0117028Y0215554D01*
X0117796Y0214787D01*
X0119330Y0213252D02*
X0119330Y0211717D01*
X0120098Y0210950D01*
X0121632Y0210950D01*
X0122400Y0211717D01*
X0122400Y0213252D01*
X0121632Y0214019D01*
X0120098Y0214019D01*
X0119330Y0213252D01*
X0123934Y0214019D02*
X0123934Y0211717D01*
X0124702Y0210950D01*
X0127004Y0210950D01*
X0127004Y0214019D01*
X0128538Y0214019D02*
X0128538Y0210950D01*
X0128538Y0212485D02*
X0130073Y0214019D01*
X0130840Y0214019D01*
X0132375Y0213252D02*
X0132375Y0211717D01*
X0133142Y0210950D01*
X0135444Y0210950D01*
X0136979Y0211717D02*
X0136979Y0213252D01*
X0137746Y0214019D01*
X0139281Y0214019D01*
X0140048Y0213252D01*
X0140048Y0212485D01*
X0136979Y0212485D01*
X0136979Y0211717D02*
X0137746Y0210950D01*
X0139281Y0210950D01*
X0135444Y0214019D02*
X0133142Y0214019D01*
X0132375Y0213252D01*
X0146187Y0210950D02*
X0146187Y0215554D01*
X0147721Y0214019D01*
X0149256Y0215554D01*
X0149256Y0210950D01*
X0150791Y0210950D02*
X0152325Y0210950D01*
X0151558Y0210950D02*
X0151558Y0214019D01*
X0150791Y0214019D01*
X0151558Y0215554D02*
X0151558Y0216321D01*
X0153860Y0213252D02*
X0153860Y0211717D01*
X0154627Y0210950D01*
X0156929Y0210950D01*
X0158464Y0210950D02*
X0158464Y0214019D01*
X0158464Y0212485D02*
X0159998Y0214019D01*
X0160766Y0214019D01*
X0162300Y0213252D02*
X0162300Y0211717D01*
X0163068Y0210950D01*
X0164602Y0210950D01*
X0165370Y0211717D01*
X0165370Y0213252D01*
X0164602Y0214019D01*
X0163068Y0214019D01*
X0162300Y0213252D01*
X0166904Y0213252D02*
X0166904Y0211717D01*
X0167672Y0210950D01*
X0169974Y0210950D01*
X0171508Y0211717D02*
X0171508Y0213252D01*
X0172276Y0214019D01*
X0173810Y0214019D01*
X0174578Y0213252D01*
X0174578Y0212485D01*
X0171508Y0212485D01*
X0171508Y0211717D02*
X0172276Y0210950D01*
X0173810Y0210950D01*
X0176112Y0210950D02*
X0176112Y0214019D01*
X0178414Y0214019D01*
X0179181Y0213252D01*
X0179181Y0210950D01*
X0181483Y0211717D02*
X0182251Y0210950D01*
X0181483Y0211717D02*
X0181483Y0214787D01*
X0180716Y0214019D02*
X0182251Y0214019D01*
X0183785Y0214019D02*
X0183785Y0210950D01*
X0183785Y0212485D02*
X0185320Y0214019D01*
X0186087Y0214019D01*
X0187622Y0214019D02*
X0188389Y0214019D01*
X0188389Y0210950D01*
X0187622Y0210950D02*
X0189157Y0210950D01*
X0191459Y0210950D02*
X0191459Y0214787D01*
X0192226Y0215554D01*
X0193761Y0214019D02*
X0193761Y0211717D01*
X0194528Y0210950D01*
X0196830Y0210950D01*
X0196830Y0214019D01*
X0198364Y0213252D02*
X0198364Y0211717D01*
X0199132Y0210950D01*
X0201434Y0210950D01*
X0201434Y0210183D02*
X0201434Y0214019D01*
X0199132Y0214019D01*
X0198364Y0213252D01*
X0201434Y0210183D02*
X0200666Y0209415D01*
X0199899Y0209415D01*
X0202968Y0211717D02*
X0202968Y0213252D01*
X0203736Y0214019D01*
X0205270Y0214019D01*
X0206038Y0213252D01*
X0206038Y0212485D01*
X0202968Y0212485D01*
X0202968Y0211717D02*
X0203736Y0210950D01*
X0205270Y0210950D01*
X0212176Y0213252D02*
X0213711Y0213252D01*
X0215246Y0213252D02*
X0215246Y0211717D01*
X0216013Y0210950D01*
X0217547Y0210950D01*
X0218315Y0211717D01*
X0218315Y0213252D01*
X0217547Y0214019D01*
X0216013Y0214019D01*
X0215246Y0213252D01*
X0212944Y0214787D02*
X0213711Y0215554D01*
X0212944Y0214787D02*
X0212944Y0210950D01*
X0219849Y0210950D02*
X0219849Y0214019D01*
X0219849Y0212485D02*
X0221384Y0214019D01*
X0222151Y0214019D01*
X0228290Y0213252D02*
X0229825Y0213252D01*
X0231359Y0215554D02*
X0228290Y0215554D01*
X0228290Y0210950D01*
X0231359Y0210950D01*
X0234429Y0210950D02*
X0232894Y0214019D01*
X0235963Y0214019D02*
X0234429Y0210950D01*
X0237498Y0211717D02*
X0237498Y0213252D01*
X0238265Y0214019D01*
X0239800Y0214019D01*
X0240567Y0213252D01*
X0240567Y0212485D01*
X0237498Y0212485D01*
X0237498Y0211717D02*
X0238265Y0210950D01*
X0239800Y0210950D01*
X0242102Y0210950D02*
X0242102Y0214019D01*
X0243636Y0214019D02*
X0244404Y0214019D01*
X0243636Y0214019D02*
X0242102Y0212485D01*
X0245938Y0211717D02*
X0246706Y0210950D01*
X0249008Y0210950D01*
X0249008Y0210183D02*
X0248240Y0209415D01*
X0247473Y0209415D01*
X0249008Y0210183D02*
X0249008Y0214019D01*
X0250542Y0213252D02*
X0250542Y0211717D01*
X0251310Y0210950D01*
X0252844Y0210950D01*
X0253612Y0211717D01*
X0253612Y0213252D01*
X0252844Y0214019D01*
X0251310Y0214019D01*
X0250542Y0213252D01*
X0255146Y0214019D02*
X0255146Y0210950D01*
X0255146Y0214019D02*
X0257448Y0214019D01*
X0258215Y0213252D01*
X0258215Y0210950D01*
X0259750Y0211717D02*
X0259750Y0213252D01*
X0260517Y0214019D01*
X0262052Y0214019D01*
X0262819Y0213252D01*
X0262819Y0212485D01*
X0259750Y0212485D01*
X0259750Y0211717D02*
X0260517Y0210950D01*
X0262052Y0210950D01*
X0245938Y0211717D02*
X0245938Y0214019D01*
X0192226Y0213252D02*
X0190691Y0213252D01*
X0188389Y0215554D02*
X0188389Y0216321D01*
X0169974Y0214019D02*
X0167672Y0214019D01*
X0166904Y0213252D01*
X0156929Y0214019D02*
X0154627Y0214019D01*
X0153860Y0213252D01*
X0105519Y0214019D02*
X0105519Y0210950D01*
X0043366Y0215554D02*
X0042598Y0214787D01*
X0042598Y0210950D01*
X0040296Y0210950D02*
X0037994Y0210950D01*
X0037227Y0211717D01*
X0037227Y0214019D01*
X0034925Y0215554D02*
X0034158Y0215554D01*
X0034925Y0215554D02*
X0034925Y0210950D01*
X0034158Y0210950D02*
X0035692Y0210950D01*
X0032623Y0211717D02*
X0032623Y0213252D01*
X0031856Y0214019D01*
X0030321Y0214019D01*
X0029554Y0213252D01*
X0029554Y0211717D01*
X0030321Y0210950D01*
X0031856Y0210950D01*
X0032623Y0211717D01*
X0028019Y0213252D02*
X0028019Y0214787D01*
X0027252Y0215554D01*
X0024950Y0215554D01*
X0024950Y0210950D01*
X0024950Y0212485D02*
X0027252Y0212485D01*
X0028019Y0213252D01*
D194*
X0043500Y0196000D02*
X0041000Y0193500D01*
X0041000Y0188500D01*
X0043500Y0186000D01*
X0048500Y0186000D01*
X0051000Y0188500D01*
X0053500Y0186000D01*
X0058500Y0186000D01*
X0061000Y0188500D01*
X0063500Y0186000D01*
X0068500Y0186000D01*
X0071000Y0188500D01*
X0071000Y0193500D01*
X0068500Y0196000D01*
X0063500Y0196000D01*
X0061000Y0193500D01*
X0061000Y0188500D01*
X0061000Y0193500D02*
X0058500Y0196000D01*
X0053500Y0196000D01*
X0051000Y0193500D01*
X0051000Y0188500D01*
X0051000Y0193500D02*
X0048500Y0196000D01*
X0043500Y0196000D01*
X0091000Y0193500D02*
X0091000Y0188500D01*
X0093500Y0186000D01*
X0098500Y0186000D01*
X0101000Y0188500D01*
X0103500Y0186000D01*
X0108500Y0186000D01*
X0111000Y0188500D01*
X0111000Y0193500D01*
X0108500Y0196000D01*
X0103500Y0196000D01*
X0101000Y0193500D01*
X0101000Y0188500D01*
X0101000Y0193500D02*
X0098500Y0196000D01*
X0093500Y0196000D01*
X0091000Y0193500D01*
X0111000Y0193500D02*
X0113500Y0196000D01*
X0118500Y0196000D01*
X0121000Y0193500D01*
X0123500Y0196000D01*
X0128500Y0196000D01*
X0131000Y0193500D01*
X0131000Y0188500D01*
X0128500Y0186000D01*
X0123500Y0186000D01*
X0121000Y0188500D01*
X0118500Y0186000D01*
X0113500Y0186000D01*
X0111000Y0188500D01*
X0121000Y0188500D02*
X0121000Y0193500D01*
X0156000Y0193500D02*
X0156000Y0188500D01*
X0158500Y0186000D01*
X0163500Y0186000D01*
X0166000Y0188500D01*
X0168500Y0186000D01*
X0173500Y0186000D01*
X0176000Y0188500D01*
X0176000Y0193500D01*
X0173500Y0196000D01*
X0168500Y0196000D01*
X0166000Y0193500D01*
X0166000Y0188500D01*
X0166000Y0193500D02*
X0163500Y0196000D01*
X0158500Y0196000D01*
X0156000Y0193500D01*
X0208500Y0179500D02*
X0208500Y0172500D01*
X0208502Y0172440D01*
X0208507Y0172379D01*
X0208516Y0172320D01*
X0208529Y0172261D01*
X0208545Y0172202D01*
X0208565Y0172145D01*
X0208588Y0172090D01*
X0208615Y0172035D01*
X0208644Y0171983D01*
X0208677Y0171932D01*
X0208713Y0171883D01*
X0208751Y0171837D01*
X0208793Y0171793D01*
X0208837Y0171751D01*
X0208883Y0171713D01*
X0208932Y0171677D01*
X0208983Y0171644D01*
X0209035Y0171615D01*
X0209090Y0171588D01*
X0209145Y0171565D01*
X0209202Y0171545D01*
X0209261Y0171529D01*
X0209320Y0171516D01*
X0209379Y0171507D01*
X0209440Y0171502D01*
X0209500Y0171500D01*
X0211000Y0171500D01*
X0211500Y0172000D01*
X0230500Y0172000D01*
X0231000Y0171500D01*
X0232500Y0171500D01*
X0232560Y0171502D01*
X0232621Y0171507D01*
X0232680Y0171516D01*
X0232739Y0171529D01*
X0232798Y0171545D01*
X0232855Y0171565D01*
X0232910Y0171588D01*
X0232965Y0171615D01*
X0233017Y0171644D01*
X0233068Y0171677D01*
X0233117Y0171713D01*
X0233163Y0171751D01*
X0233207Y0171793D01*
X0233249Y0171837D01*
X0233287Y0171883D01*
X0233323Y0171932D01*
X0233356Y0171983D01*
X0233385Y0172035D01*
X0233412Y0172090D01*
X0233435Y0172145D01*
X0233455Y0172202D01*
X0233471Y0172261D01*
X0233484Y0172320D01*
X0233493Y0172379D01*
X0233498Y0172440D01*
X0233500Y0172500D01*
X0233500Y0179500D01*
X0233498Y0179560D01*
X0233493Y0179621D01*
X0233484Y0179680D01*
X0233471Y0179739D01*
X0233455Y0179798D01*
X0233435Y0179855D01*
X0233412Y0179910D01*
X0233385Y0179965D01*
X0233356Y0180017D01*
X0233323Y0180068D01*
X0233287Y0180117D01*
X0233249Y0180163D01*
X0233207Y0180207D01*
X0233163Y0180249D01*
X0233117Y0180287D01*
X0233068Y0180323D01*
X0233017Y0180356D01*
X0232965Y0180385D01*
X0232910Y0180412D01*
X0232855Y0180435D01*
X0232798Y0180455D01*
X0232739Y0180471D01*
X0232680Y0180484D01*
X0232621Y0180493D01*
X0232560Y0180498D01*
X0232500Y0180500D01*
X0231000Y0180500D01*
X0230500Y0180000D01*
X0211500Y0180000D01*
X0211000Y0180500D01*
X0209500Y0180500D01*
X0209440Y0180498D01*
X0209379Y0180493D01*
X0209320Y0180484D01*
X0209261Y0180471D01*
X0209202Y0180455D01*
X0209145Y0180435D01*
X0209090Y0180412D01*
X0209035Y0180385D01*
X0208983Y0180356D01*
X0208932Y0180323D01*
X0208883Y0180287D01*
X0208837Y0180249D01*
X0208793Y0180207D01*
X0208751Y0180163D01*
X0208713Y0180117D01*
X0208677Y0180068D01*
X0208644Y0180017D01*
X0208615Y0179965D01*
X0208588Y0179910D01*
X0208565Y0179855D01*
X0208545Y0179798D01*
X0208529Y0179739D01*
X0208516Y0179680D01*
X0208507Y0179621D01*
X0208502Y0179560D01*
X0208500Y0179500D01*
X0209500Y0150500D02*
X0211000Y0150500D01*
X0211500Y0150000D01*
X0230500Y0150000D01*
X0231000Y0150500D01*
X0232500Y0150500D01*
X0232560Y0150498D01*
X0232621Y0150493D01*
X0232680Y0150484D01*
X0232739Y0150471D01*
X0232798Y0150455D01*
X0232855Y0150435D01*
X0232910Y0150412D01*
X0232965Y0150385D01*
X0233017Y0150356D01*
X0233068Y0150323D01*
X0233117Y0150287D01*
X0233163Y0150249D01*
X0233207Y0150207D01*
X0233249Y0150163D01*
X0233287Y0150117D01*
X0233323Y0150068D01*
X0233356Y0150017D01*
X0233385Y0149965D01*
X0233412Y0149910D01*
X0233435Y0149855D01*
X0233455Y0149798D01*
X0233471Y0149739D01*
X0233484Y0149680D01*
X0233493Y0149621D01*
X0233498Y0149560D01*
X0233500Y0149500D01*
X0233500Y0142500D01*
X0233498Y0142440D01*
X0233493Y0142379D01*
X0233484Y0142320D01*
X0233471Y0142261D01*
X0233455Y0142202D01*
X0233435Y0142145D01*
X0233412Y0142090D01*
X0233385Y0142035D01*
X0233356Y0141983D01*
X0233323Y0141932D01*
X0233287Y0141883D01*
X0233249Y0141837D01*
X0233207Y0141793D01*
X0233163Y0141751D01*
X0233117Y0141713D01*
X0233068Y0141677D01*
X0233017Y0141644D01*
X0232965Y0141615D01*
X0232910Y0141588D01*
X0232855Y0141565D01*
X0232798Y0141545D01*
X0232739Y0141529D01*
X0232680Y0141516D01*
X0232621Y0141507D01*
X0232560Y0141502D01*
X0232500Y0141500D01*
X0231000Y0141500D01*
X0230500Y0142000D01*
X0211500Y0142000D01*
X0211000Y0141500D01*
X0209500Y0141500D01*
X0209440Y0141502D01*
X0209379Y0141507D01*
X0209320Y0141516D01*
X0209261Y0141529D01*
X0209202Y0141545D01*
X0209145Y0141565D01*
X0209090Y0141588D01*
X0209035Y0141615D01*
X0208983Y0141644D01*
X0208932Y0141677D01*
X0208883Y0141713D01*
X0208837Y0141751D01*
X0208793Y0141793D01*
X0208751Y0141837D01*
X0208713Y0141883D01*
X0208677Y0141932D01*
X0208644Y0141983D01*
X0208615Y0142035D01*
X0208588Y0142090D01*
X0208565Y0142145D01*
X0208545Y0142202D01*
X0208529Y0142261D01*
X0208516Y0142320D01*
X0208507Y0142379D01*
X0208502Y0142440D01*
X0208500Y0142500D01*
X0208500Y0149500D01*
X0208502Y0149560D01*
X0208507Y0149621D01*
X0208516Y0149680D01*
X0208529Y0149739D01*
X0208545Y0149798D01*
X0208565Y0149855D01*
X0208588Y0149910D01*
X0208615Y0149965D01*
X0208644Y0150017D01*
X0208677Y0150068D01*
X0208713Y0150117D01*
X0208751Y0150163D01*
X0208793Y0150207D01*
X0208837Y0150249D01*
X0208883Y0150287D01*
X0208932Y0150323D01*
X0208983Y0150356D01*
X0209035Y0150385D01*
X0209090Y0150412D01*
X0209145Y0150435D01*
X0209202Y0150455D01*
X0209261Y0150471D01*
X0209320Y0150484D01*
X0209379Y0150493D01*
X0209440Y0150498D01*
X0209500Y0150500D01*
X0209500Y0120500D02*
X0211000Y0120500D01*
X0211500Y0120000D01*
X0230500Y0120000D01*
X0231000Y0120500D01*
X0232500Y0120500D01*
X0232560Y0120498D01*
X0232621Y0120493D01*
X0232680Y0120484D01*
X0232739Y0120471D01*
X0232798Y0120455D01*
X0232855Y0120435D01*
X0232910Y0120412D01*
X0232965Y0120385D01*
X0233017Y0120356D01*
X0233068Y0120323D01*
X0233117Y0120287D01*
X0233163Y0120249D01*
X0233207Y0120207D01*
X0233249Y0120163D01*
X0233287Y0120117D01*
X0233323Y0120068D01*
X0233356Y0120017D01*
X0233385Y0119965D01*
X0233412Y0119910D01*
X0233435Y0119855D01*
X0233455Y0119798D01*
X0233471Y0119739D01*
X0233484Y0119680D01*
X0233493Y0119621D01*
X0233498Y0119560D01*
X0233500Y0119500D01*
X0233500Y0112500D01*
X0233498Y0112440D01*
X0233493Y0112379D01*
X0233484Y0112320D01*
X0233471Y0112261D01*
X0233455Y0112202D01*
X0233435Y0112145D01*
X0233412Y0112090D01*
X0233385Y0112035D01*
X0233356Y0111983D01*
X0233323Y0111932D01*
X0233287Y0111883D01*
X0233249Y0111837D01*
X0233207Y0111793D01*
X0233163Y0111751D01*
X0233117Y0111713D01*
X0233068Y0111677D01*
X0233017Y0111644D01*
X0232965Y0111615D01*
X0232910Y0111588D01*
X0232855Y0111565D01*
X0232798Y0111545D01*
X0232739Y0111529D01*
X0232680Y0111516D01*
X0232621Y0111507D01*
X0232560Y0111502D01*
X0232500Y0111500D01*
X0231000Y0111500D01*
X0230500Y0112000D01*
X0211500Y0112000D01*
X0211000Y0111500D01*
X0209500Y0111500D01*
X0209440Y0111502D01*
X0209379Y0111507D01*
X0209320Y0111516D01*
X0209261Y0111529D01*
X0209202Y0111545D01*
X0209145Y0111565D01*
X0209090Y0111588D01*
X0209035Y0111615D01*
X0208983Y0111644D01*
X0208932Y0111677D01*
X0208883Y0111713D01*
X0208837Y0111751D01*
X0208793Y0111793D01*
X0208751Y0111837D01*
X0208713Y0111883D01*
X0208677Y0111932D01*
X0208644Y0111983D01*
X0208615Y0112035D01*
X0208588Y0112090D01*
X0208565Y0112145D01*
X0208545Y0112202D01*
X0208529Y0112261D01*
X0208516Y0112320D01*
X0208507Y0112379D01*
X0208502Y0112440D01*
X0208500Y0112500D01*
X0208500Y0119500D01*
X0208502Y0119560D01*
X0208507Y0119621D01*
X0208516Y0119680D01*
X0208529Y0119739D01*
X0208545Y0119798D01*
X0208565Y0119855D01*
X0208588Y0119910D01*
X0208615Y0119965D01*
X0208644Y0120017D01*
X0208677Y0120068D01*
X0208713Y0120117D01*
X0208751Y0120163D01*
X0208793Y0120207D01*
X0208837Y0120249D01*
X0208883Y0120287D01*
X0208932Y0120323D01*
X0208983Y0120356D01*
X0209035Y0120385D01*
X0209090Y0120412D01*
X0209145Y0120435D01*
X0209202Y0120455D01*
X0209261Y0120471D01*
X0209320Y0120484D01*
X0209379Y0120493D01*
X0209440Y0120498D01*
X0209500Y0120500D01*
X0213500Y0084386D02*
X0207594Y0078480D01*
X0207594Y0052496D01*
X0216039Y0052496D01*
X0216039Y0054858D01*
X0225961Y0054858D01*
X0225961Y0052496D01*
X0234406Y0052496D01*
X0234406Y0078480D01*
X0228500Y0084386D01*
X0213500Y0084386D01*
X0219346Y0077628D02*
X0219346Y0072654D01*
X0214169Y0071000D02*
X0214171Y0071168D01*
X0214177Y0071335D01*
X0214188Y0071503D01*
X0214202Y0071670D01*
X0214220Y0071836D01*
X0214243Y0072002D01*
X0214270Y0072168D01*
X0214300Y0072333D01*
X0214335Y0072497D01*
X0214374Y0072660D01*
X0214416Y0072822D01*
X0214463Y0072983D01*
X0214514Y0073143D01*
X0214568Y0073301D01*
X0214627Y0073458D01*
X0214689Y0073614D01*
X0214755Y0073768D01*
X0214825Y0073921D01*
X0214898Y0074071D01*
X0214976Y0074220D01*
X0215056Y0074367D01*
X0215141Y0074512D01*
X0215229Y0074655D01*
X0215320Y0074795D01*
X0215415Y0074933D01*
X0215513Y0075069D01*
X0215615Y0075203D01*
X0215720Y0075334D01*
X0215828Y0075462D01*
X0215939Y0075587D01*
X0216053Y0075710D01*
X0216170Y0075830D01*
X0216290Y0075947D01*
X0216413Y0076061D01*
X0216538Y0076172D01*
X0216666Y0076280D01*
X0216797Y0076385D01*
X0216931Y0076487D01*
X0217067Y0076585D01*
X0217205Y0076680D01*
X0217345Y0076771D01*
X0217488Y0076859D01*
X0217633Y0076944D01*
X0217780Y0077024D01*
X0217929Y0077102D01*
X0218079Y0077175D01*
X0218232Y0077245D01*
X0218386Y0077311D01*
X0218542Y0077373D01*
X0218699Y0077432D01*
X0218857Y0077486D01*
X0219017Y0077537D01*
X0219178Y0077584D01*
X0219340Y0077626D01*
X0219503Y0077665D01*
X0219667Y0077700D01*
X0219832Y0077730D01*
X0219998Y0077757D01*
X0220164Y0077780D01*
X0220330Y0077798D01*
X0220497Y0077812D01*
X0220665Y0077823D01*
X0220832Y0077829D01*
X0221000Y0077831D01*
X0221168Y0077829D01*
X0221335Y0077823D01*
X0221503Y0077812D01*
X0221670Y0077798D01*
X0221836Y0077780D01*
X0222002Y0077757D01*
X0222168Y0077730D01*
X0222333Y0077700D01*
X0222497Y0077665D01*
X0222660Y0077626D01*
X0222822Y0077584D01*
X0222983Y0077537D01*
X0223143Y0077486D01*
X0223301Y0077432D01*
X0223458Y0077373D01*
X0223614Y0077311D01*
X0223768Y0077245D01*
X0223921Y0077175D01*
X0224071Y0077102D01*
X0224220Y0077024D01*
X0224367Y0076944D01*
X0224512Y0076859D01*
X0224655Y0076771D01*
X0224795Y0076680D01*
X0224933Y0076585D01*
X0225069Y0076487D01*
X0225203Y0076385D01*
X0225334Y0076280D01*
X0225462Y0076172D01*
X0225587Y0076061D01*
X0225710Y0075947D01*
X0225830Y0075830D01*
X0225947Y0075710D01*
X0226061Y0075587D01*
X0226172Y0075462D01*
X0226280Y0075334D01*
X0226385Y0075203D01*
X0226487Y0075069D01*
X0226585Y0074933D01*
X0226680Y0074795D01*
X0226771Y0074655D01*
X0226859Y0074512D01*
X0226944Y0074367D01*
X0227024Y0074220D01*
X0227102Y0074071D01*
X0227175Y0073921D01*
X0227245Y0073768D01*
X0227311Y0073614D01*
X0227373Y0073458D01*
X0227432Y0073301D01*
X0227486Y0073143D01*
X0227537Y0072983D01*
X0227584Y0072822D01*
X0227626Y0072660D01*
X0227665Y0072497D01*
X0227700Y0072333D01*
X0227730Y0072168D01*
X0227757Y0072002D01*
X0227780Y0071836D01*
X0227798Y0071670D01*
X0227812Y0071503D01*
X0227823Y0071335D01*
X0227829Y0071168D01*
X0227831Y0071000D01*
X0227829Y0070832D01*
X0227823Y0070665D01*
X0227812Y0070497D01*
X0227798Y0070330D01*
X0227780Y0070164D01*
X0227757Y0069998D01*
X0227730Y0069832D01*
X0227700Y0069667D01*
X0227665Y0069503D01*
X0227626Y0069340D01*
X0227584Y0069178D01*
X0227537Y0069017D01*
X0227486Y0068857D01*
X0227432Y0068699D01*
X0227373Y0068542D01*
X0227311Y0068386D01*
X0227245Y0068232D01*
X0227175Y0068079D01*
X0227102Y0067929D01*
X0227024Y0067780D01*
X0226944Y0067633D01*
X0226859Y0067488D01*
X0226771Y0067345D01*
X0226680Y0067205D01*
X0226585Y0067067D01*
X0226487Y0066931D01*
X0226385Y0066797D01*
X0226280Y0066666D01*
X0226172Y0066538D01*
X0226061Y0066413D01*
X0225947Y0066290D01*
X0225830Y0066170D01*
X0225710Y0066053D01*
X0225587Y0065939D01*
X0225462Y0065828D01*
X0225334Y0065720D01*
X0225203Y0065615D01*
X0225069Y0065513D01*
X0224933Y0065415D01*
X0224795Y0065320D01*
X0224655Y0065229D01*
X0224512Y0065141D01*
X0224367Y0065056D01*
X0224220Y0064976D01*
X0224071Y0064898D01*
X0223921Y0064825D01*
X0223768Y0064755D01*
X0223614Y0064689D01*
X0223458Y0064627D01*
X0223301Y0064568D01*
X0223143Y0064514D01*
X0222983Y0064463D01*
X0222822Y0064416D01*
X0222660Y0064374D01*
X0222497Y0064335D01*
X0222333Y0064300D01*
X0222168Y0064270D01*
X0222002Y0064243D01*
X0221836Y0064220D01*
X0221670Y0064202D01*
X0221503Y0064188D01*
X0221335Y0064177D01*
X0221168Y0064171D01*
X0221000Y0064169D01*
X0220832Y0064171D01*
X0220665Y0064177D01*
X0220497Y0064188D01*
X0220330Y0064202D01*
X0220164Y0064220D01*
X0219998Y0064243D01*
X0219832Y0064270D01*
X0219667Y0064300D01*
X0219503Y0064335D01*
X0219340Y0064374D01*
X0219178Y0064416D01*
X0219017Y0064463D01*
X0218857Y0064514D01*
X0218699Y0064568D01*
X0218542Y0064627D01*
X0218386Y0064689D01*
X0218232Y0064755D01*
X0218079Y0064825D01*
X0217929Y0064898D01*
X0217780Y0064976D01*
X0217633Y0065056D01*
X0217488Y0065141D01*
X0217345Y0065229D01*
X0217205Y0065320D01*
X0217067Y0065415D01*
X0216931Y0065513D01*
X0216797Y0065615D01*
X0216666Y0065720D01*
X0216538Y0065828D01*
X0216413Y0065939D01*
X0216290Y0066053D01*
X0216170Y0066170D01*
X0216053Y0066290D01*
X0215939Y0066413D01*
X0215828Y0066538D01*
X0215720Y0066666D01*
X0215615Y0066797D01*
X0215513Y0066931D01*
X0215415Y0067067D01*
X0215320Y0067205D01*
X0215229Y0067345D01*
X0215141Y0067488D01*
X0215056Y0067633D01*
X0214976Y0067780D01*
X0214898Y0067929D01*
X0214825Y0068079D01*
X0214755Y0068232D01*
X0214689Y0068386D01*
X0214627Y0068542D01*
X0214568Y0068699D01*
X0214514Y0068857D01*
X0214463Y0069017D01*
X0214416Y0069178D01*
X0214374Y0069340D01*
X0214335Y0069503D01*
X0214300Y0069667D01*
X0214270Y0069832D01*
X0214243Y0069998D01*
X0214220Y0070164D01*
X0214202Y0070330D01*
X0214188Y0070497D01*
X0214177Y0070665D01*
X0214171Y0070832D01*
X0214169Y0071000D01*
X0214372Y0072654D02*
X0227628Y0072654D01*
X0227628Y0069346D02*
X0214372Y0069346D01*
X0219346Y0069346D02*
X0219346Y0064372D01*
X0222654Y0064372D02*
X0222654Y0069346D01*
X0222654Y0072654D02*
X0222654Y0077628D01*
X0223500Y0026000D02*
X0218500Y0026000D01*
X0216000Y0023500D01*
X0216000Y0018500D01*
X0218500Y0016000D01*
X0223500Y0016000D01*
X0226000Y0018500D01*
X0228500Y0016000D01*
X0233500Y0016000D01*
X0236000Y0018500D01*
X0236000Y0023500D01*
X0233500Y0026000D01*
X0228500Y0026000D01*
X0226000Y0023500D01*
X0226000Y0018500D01*
X0226000Y0023500D02*
X0223500Y0026000D01*
X0236000Y0023500D02*
X0238500Y0026000D01*
X0243500Y0026000D01*
X0246000Y0023500D01*
X0248500Y0026000D01*
X0253500Y0026000D01*
X0256000Y0023500D01*
X0258500Y0026000D01*
X0263500Y0026000D01*
X0266000Y0023500D01*
X0266000Y0018500D01*
X0263500Y0016000D01*
X0258500Y0016000D01*
X0256000Y0018500D01*
X0253500Y0016000D01*
X0248500Y0016000D01*
X0246000Y0018500D01*
X0243500Y0016000D01*
X0238500Y0016000D01*
X0236000Y0018500D01*
X0246000Y0018500D02*
X0246000Y0023500D01*
X0256000Y0023500D02*
X0256000Y0018500D01*
X0201000Y0018500D02*
X0198500Y0016000D01*
X0193500Y0016000D01*
X0191000Y0018500D01*
X0188500Y0016000D01*
X0183500Y0016000D01*
X0181000Y0018500D01*
X0178500Y0016000D01*
X0173500Y0016000D01*
X0171000Y0018500D01*
X0168500Y0016000D01*
X0163500Y0016000D01*
X0161000Y0018500D01*
X0158500Y0016000D01*
X0153500Y0016000D01*
X0151000Y0018500D01*
X0148500Y0016000D01*
X0143500Y0016000D01*
X0141000Y0018500D01*
X0138500Y0016000D01*
X0133500Y0016000D01*
X0131000Y0018500D01*
X0128500Y0016000D01*
X0123500Y0016000D01*
X0121000Y0018500D01*
X0118500Y0016000D01*
X0113500Y0016000D01*
X0111000Y0018500D01*
X0108500Y0016000D01*
X0103500Y0016000D01*
X0101000Y0018500D01*
X0098500Y0016000D01*
X0093500Y0016000D01*
X0091000Y0018500D01*
X0088500Y0016000D01*
X0083500Y0016000D01*
X0081000Y0018500D01*
X0078500Y0016000D01*
X0073500Y0016000D01*
X0071000Y0018500D01*
X0068500Y0016000D01*
X0063500Y0016000D01*
X0061000Y0018500D01*
X0058500Y0016000D01*
X0053500Y0016000D01*
X0051000Y0018500D01*
X0048500Y0016000D01*
X0043500Y0016000D01*
X0041000Y0018500D01*
X0041000Y0023500D01*
X0043500Y0026000D01*
X0048500Y0026000D01*
X0051000Y0023500D01*
X0053500Y0026000D01*
X0058500Y0026000D01*
X0061000Y0023500D01*
X0061000Y0018500D01*
X0061000Y0023500D02*
X0063500Y0026000D01*
X0068500Y0026000D01*
X0071000Y0023500D01*
X0073500Y0026000D01*
X0078500Y0026000D01*
X0081000Y0023500D01*
X0083500Y0026000D01*
X0088500Y0026000D01*
X0091000Y0023500D01*
X0091000Y0018500D01*
X0091000Y0023500D02*
X0093500Y0026000D01*
X0098500Y0026000D01*
X0101000Y0023500D01*
X0103500Y0026000D01*
X0108500Y0026000D01*
X0111000Y0023500D01*
X0113500Y0026000D01*
X0118500Y0026000D01*
X0121000Y0023500D01*
X0121000Y0018500D01*
X0121000Y0023500D02*
X0123500Y0026000D01*
X0128500Y0026000D01*
X0131000Y0023500D01*
X0133500Y0026000D01*
X0138500Y0026000D01*
X0141000Y0023500D01*
X0143500Y0026000D01*
X0148500Y0026000D01*
X0151000Y0023500D01*
X0151000Y0018500D01*
X0151000Y0023500D02*
X0153500Y0026000D01*
X0158500Y0026000D01*
X0161000Y0023500D01*
X0163500Y0026000D01*
X0168500Y0026000D01*
X0171000Y0023500D01*
X0173500Y0026000D01*
X0178500Y0026000D01*
X0181000Y0023500D01*
X0181000Y0018500D01*
X0181000Y0023500D02*
X0183500Y0026000D01*
X0188500Y0026000D01*
X0191000Y0023500D01*
X0193500Y0026000D01*
X0198500Y0026000D01*
X0201000Y0023500D01*
X0201000Y0018500D01*
X0191000Y0018500D02*
X0191000Y0023500D01*
X0171000Y0023500D02*
X0171000Y0018500D01*
X0161000Y0018500D02*
X0161000Y0023500D01*
X0141000Y0023500D02*
X0141000Y0018500D01*
X0131000Y0018500D02*
X0131000Y0023500D01*
X0111000Y0023500D02*
X0111000Y0018500D01*
X0101000Y0018500D02*
X0101000Y0023500D01*
X0081000Y0023500D02*
X0081000Y0018500D01*
X0071000Y0018500D02*
X0071000Y0023500D01*
X0051000Y0023500D02*
X0051000Y0018500D01*
D195*
X0050158Y0028450D02*
X0052410Y0028450D01*
X0053160Y0029201D01*
X0053160Y0032203D01*
X0052410Y0032954D01*
X0050158Y0032954D01*
X0050158Y0028450D01*
X0048556Y0029201D02*
X0047806Y0028450D01*
X0046305Y0028450D01*
X0045554Y0029201D01*
X0045554Y0032203D01*
X0046305Y0032954D01*
X0047806Y0032954D01*
X0048556Y0032203D01*
X0043953Y0028450D02*
X0040950Y0028450D01*
X0040950Y0032954D01*
X0209250Y0122250D02*
X0209250Y0126754D01*
X0211502Y0126754D01*
X0212253Y0126003D01*
X0212253Y0124502D01*
X0211502Y0123751D01*
X0209250Y0123751D01*
X0210751Y0123751D02*
X0212253Y0122250D01*
X0213854Y0123001D02*
X0214605Y0122250D01*
X0216106Y0122250D01*
X0216856Y0123001D01*
X0216856Y0123751D01*
X0216106Y0124502D01*
X0215355Y0124502D01*
X0216106Y0124502D02*
X0216856Y0125253D01*
X0216856Y0126003D01*
X0216106Y0126754D01*
X0214605Y0126754D01*
X0213854Y0126003D01*
X0213854Y0152250D02*
X0216856Y0155253D01*
X0216856Y0156003D01*
X0216106Y0156754D01*
X0214605Y0156754D01*
X0213854Y0156003D01*
X0212253Y0156003D02*
X0211502Y0156754D01*
X0209250Y0156754D01*
X0209250Y0152250D01*
X0209250Y0153751D02*
X0211502Y0153751D01*
X0212253Y0154502D01*
X0212253Y0156003D01*
X0210751Y0153751D02*
X0212253Y0152250D01*
X0213854Y0152250D02*
X0216856Y0152250D01*
X0216856Y0182250D02*
X0213854Y0182250D01*
X0215355Y0182250D02*
X0215355Y0186754D01*
X0213854Y0185253D01*
X0212253Y0186003D02*
X0212253Y0184502D01*
X0211502Y0183751D01*
X0209250Y0183751D01*
X0209250Y0182250D02*
X0209250Y0186754D01*
X0211502Y0186754D01*
X0212253Y0186003D01*
X0210751Y0183751D02*
X0212253Y0182250D01*
X0177368Y0198450D02*
X0175867Y0199951D01*
X0176618Y0199951D02*
X0174366Y0199951D01*
X0174366Y0198450D02*
X0174366Y0202954D01*
X0176618Y0202954D01*
X0177368Y0202203D01*
X0177368Y0200702D01*
X0176618Y0199951D01*
X0172764Y0198450D02*
X0169762Y0198450D01*
X0169762Y0202954D01*
X0172764Y0202954D01*
X0171263Y0200702D02*
X0169762Y0200702D01*
X0168160Y0198450D02*
X0168160Y0202954D01*
X0165158Y0202954D02*
X0165158Y0198450D01*
X0166659Y0199951D01*
X0168160Y0198450D01*
X0163556Y0199201D02*
X0163556Y0202203D01*
X0162806Y0202954D01*
X0161305Y0202954D01*
X0160554Y0202203D01*
X0160554Y0199201D01*
X0161305Y0198450D01*
X0162806Y0198450D01*
X0163556Y0199201D01*
X0158953Y0200702D02*
X0158202Y0199951D01*
X0155950Y0199951D01*
X0155950Y0198450D02*
X0155950Y0202954D01*
X0158202Y0202954D01*
X0158953Y0202203D01*
X0158953Y0200702D01*
X0124645Y0200702D02*
X0123895Y0199951D01*
X0121643Y0199951D01*
X0121643Y0198450D02*
X0121643Y0202954D01*
X0123895Y0202954D01*
X0124645Y0202203D01*
X0124645Y0200702D01*
X0123144Y0199951D02*
X0124645Y0198450D01*
X0120041Y0199201D02*
X0120041Y0202203D01*
X0119291Y0202954D01*
X0117790Y0202954D01*
X0117039Y0202203D01*
X0117039Y0199201D01*
X0117790Y0198450D01*
X0119291Y0198450D01*
X0120041Y0199201D01*
X0115438Y0199201D02*
X0114687Y0198450D01*
X0113186Y0198450D01*
X0112435Y0199201D01*
X0113186Y0200702D02*
X0114687Y0200702D01*
X0115438Y0199951D01*
X0115438Y0199201D01*
X0113186Y0200702D02*
X0112435Y0201453D01*
X0112435Y0202203D01*
X0113186Y0202954D01*
X0114687Y0202954D01*
X0115438Y0202203D01*
X0110834Y0202954D02*
X0110834Y0198450D01*
X0107831Y0202954D01*
X0107831Y0198450D01*
X0106230Y0198450D02*
X0103227Y0198450D01*
X0103227Y0202954D01*
X0106230Y0202954D01*
X0104728Y0200702D02*
X0103227Y0200702D01*
X0101626Y0199951D02*
X0101626Y0199201D01*
X0100875Y0198450D01*
X0099374Y0198450D01*
X0098623Y0199201D01*
X0099374Y0200702D02*
X0100875Y0200702D01*
X0101626Y0199951D01*
X0101626Y0202203D02*
X0100875Y0202954D01*
X0099374Y0202954D01*
X0098623Y0202203D01*
X0098623Y0201453D01*
X0099374Y0200702D01*
X0097022Y0200702D02*
X0097022Y0202203D01*
X0096271Y0202954D01*
X0094019Y0202954D01*
X0094019Y0198450D01*
X0094019Y0199951D02*
X0096271Y0199951D01*
X0097022Y0200702D01*
X0095521Y0199951D02*
X0097022Y0198450D01*
X0092451Y0198450D02*
X0090950Y0198450D01*
X0091701Y0198450D02*
X0091701Y0202954D01*
X0092451Y0202954D02*
X0090950Y0202954D01*
X0053160Y0202203D02*
X0052410Y0202954D01*
X0050908Y0202954D01*
X0050158Y0202203D01*
X0050158Y0199201D01*
X0050908Y0198450D01*
X0052410Y0198450D01*
X0053160Y0199201D01*
X0048556Y0199201D02*
X0047806Y0198450D01*
X0046305Y0198450D01*
X0045554Y0199201D01*
X0046305Y0200702D02*
X0045554Y0201453D01*
X0045554Y0202203D01*
X0046305Y0202954D01*
X0047806Y0202954D01*
X0048556Y0202203D01*
X0047806Y0200702D02*
X0048556Y0199951D01*
X0048556Y0199201D01*
X0047806Y0200702D02*
X0046305Y0200702D01*
X0043953Y0202954D02*
X0040950Y0202954D01*
X0040950Y0198450D01*
X0043953Y0198450D01*
X0042451Y0200702D02*
X0040950Y0200702D01*
X0215950Y0032954D02*
X0218202Y0032954D01*
X0218953Y0032203D01*
X0218953Y0030702D01*
X0218202Y0029951D01*
X0215950Y0029951D01*
X0215950Y0028450D02*
X0215950Y0032954D01*
X0217451Y0029951D02*
X0218953Y0028450D01*
X0220554Y0029201D02*
X0221305Y0028450D01*
X0222806Y0028450D01*
X0223556Y0029201D01*
X0223556Y0032203D01*
X0222806Y0032954D01*
X0221305Y0032954D01*
X0220554Y0032203D01*
X0220554Y0029201D01*
X0225158Y0032954D02*
X0228160Y0032954D01*
X0226659Y0032954D02*
X0226659Y0028450D01*
X0229762Y0028450D02*
X0229762Y0031453D01*
X0231263Y0032954D01*
X0232764Y0031453D01*
X0232764Y0028450D01*
X0234366Y0028450D02*
X0234366Y0032954D01*
X0236618Y0032954D01*
X0237368Y0032203D01*
X0237368Y0030702D01*
X0236618Y0029951D01*
X0234366Y0029951D01*
X0235867Y0029951D02*
X0237368Y0028450D01*
X0240471Y0028450D02*
X0240471Y0030702D01*
X0241972Y0032203D01*
X0241972Y0032954D01*
X0243574Y0032954D02*
X0243574Y0028450D01*
X0246576Y0028450D01*
X0248177Y0028450D02*
X0248177Y0032954D01*
X0251180Y0028450D01*
X0251180Y0032954D01*
X0252781Y0032203D02*
X0252781Y0029201D01*
X0253532Y0028450D01*
X0255033Y0028450D01*
X0255784Y0029201D01*
X0257385Y0029201D02*
X0258136Y0028450D01*
X0259637Y0028450D01*
X0260388Y0029201D01*
X0260388Y0032203D01*
X0259637Y0032954D01*
X0258136Y0032954D01*
X0257385Y0032203D01*
X0257385Y0029201D01*
X0255784Y0032203D02*
X0255033Y0032954D01*
X0253532Y0032954D01*
X0252781Y0032203D01*
X0246576Y0032954D02*
X0243574Y0032954D01*
X0243574Y0030702D02*
X0245075Y0030702D01*
X0240471Y0030702D02*
X0238970Y0032203D01*
X0238970Y0032954D01*
X0232764Y0030702D02*
X0229762Y0030702D01*
X0261989Y0032954D02*
X0261989Y0028450D01*
X0264241Y0028450D01*
X0264992Y0029201D01*
X0264992Y0032203D01*
X0264241Y0032954D01*
X0261989Y0032954D01*
X0266593Y0032954D02*
X0266593Y0028450D01*
X0269596Y0028450D01*
X0271197Y0028450D02*
X0271197Y0032954D01*
X0273449Y0032954D01*
X0274200Y0032203D01*
X0274200Y0030702D01*
X0273449Y0029951D01*
X0271197Y0029951D01*
X0272698Y0029951D02*
X0274200Y0028450D01*
X0269596Y0032954D02*
X0266593Y0032954D01*
X0266593Y0030702D02*
X0268094Y0030702D01*
D196*
X0220595Y0087098D02*
X0220595Y0093403D01*
X0218493Y0093403D02*
X0222697Y0093403D01*
X0216251Y0092353D02*
X0215200Y0093403D01*
X0213098Y0093403D01*
X0212047Y0092353D01*
X0212047Y0088149D01*
X0213098Y0087098D01*
X0215200Y0087098D01*
X0216251Y0088149D01*
X0216251Y0092353D01*
X0209806Y0092353D02*
X0209806Y0090251D01*
X0208755Y0089200D01*
X0205602Y0089200D01*
X0205602Y0087098D02*
X0205602Y0093403D01*
X0208755Y0093403D01*
X0209806Y0092353D01*
D197*
X0206800Y0116000D03*
X0235200Y0116000D03*
X0235200Y0146000D03*
X0206800Y0146000D03*
X0206800Y0176000D03*
X0235200Y0176000D03*
M02*
