<?xml version="1.0" standalone="no"?>
<!DOCTYPE svg PUBLIC "-//W3C//DTD SVG 1.1//EN"
"http://www.w3.org/Graphics/SVG/1.1/DTD/svg11.dtd">
<svg width="170.5mm" height="209mm" viewBox="-157.75 -14.5 170.5 209" xmlns="http://www.w3.org/2000/svg" version = "1.1">
<title>Top Panel Top.123dx</title>
<desc> made with 123D Design </desc>
<path d="M -127.748 169 L -127.75 169 L -127.75 171.994 L -127.75 172 L -126.503 172 L -126.5 172 L -126.5 179.984 L -126.5 180 L -126.537 180 L -145 180 L -145 179.913 L -145 136.5 L -137.016 136.5 L -137 136.5 L -137 137.748 L -137 137.75 L -134.006 137.75 L -134 137.75 L -134 136.503 L -134 136.5 L -127.014 136.5 L -127 136.5 L -127 133.506 L -127 133.5 L -133.986 133.5 L -134 133.5 L -134 132.253 L -134 132.25 L -136.994 132.25 L -137 132.25 L -137 133.498 L -137 133.5 L -144.984 133.5 L -145 133.5 L -145 133.443 L -145 105 L -145.01 105 L -150 105 L -150 104.94 L -150 75 L -149.99 75 L -145 75 L -145 74.943 L -145 46.5 L -137.016 46.5 L -137 46.5 L -137 47.7475 L -137 47.75 L -134.006 47.75 L -134 47.75 L -134 46.5025 L -134 46.5 L -127.014 46.5 L -127 46.5 L -127 43.506 L -127 43.5 L -133.986 43.5 L -134 43.5 L -134 42.2525 L -134 42.25 L -136.994 42.25 L -137 42.25 L -137 43.4975 L -137 43.5 L -144.984 43.5 L -145 43.5 L -145 43.413 L -145 0 L -144.963 0 L -126.5 0 L -126.5 7.984 L -126.5 8 L -127.748 8 L -127.75 8 L -127.75 10.994 L -127.75 11 L -126.503 11 L -126.5 11 L -126.5 17.986 L -126.5 18 L -123.506 18 L -123.5 18 L -123.5 11.014 L -123.5 11 L -122.253 11 L -122.25 11 L -122.25 8.006 L -122.25 8 L -123.498 8 L -123.5 8 L -123.5 0.016 L -123.5 0 L -123.496 1.52588e-008 L -121.5 7.62939e-006 L -121.494 7.62939e-006 L -118.5 7.62939e-006 L -118.443 7.61414e-006 L -90 0 L -90 -0.01 L -90 -5 L -89.94 -5 L -60 -5 L -60 -4.99 L -60 0 L -59.943 1.52588e-008 L -31.5 7.62939e-006 L -31.5 7.984 L -31.5 8 L -32.7475 8 L -32.75 8 L -32.75 10.994 L -32.75 11 L -31.5025 11 L -31.5 11 L -31.5 17.986 L -31.5 18 L -28.506 18 L -28.5 18 L -28.5 11.014 L -28.5 11 L -27.2525 11 L -27.25 11 L -27.25 8.006 L -27.25 8 L -28.4975 8 L -28.5 8 L -28.5 0.0160076 L -28.5 7.62939e-006 L -28.443 7.61414e-006 L 0 0 L -1.71661e-008 0.087 L -8.58307e-006 43.5 L -7.984 43.5 L -8 43.5 L -8 42.2525 L -8 42.25 L -10.994 42.25 L -11 42.25 L -11 43.4975 L -11 43.5 L -17.986 43.5 L -18 43.5 L -18 46.494 L -18 46.5 L -11.014 46.5 L -11 46.5 L -11 47.7475 L -11 47.75 L -8.006 47.75 L -8 47.75 L -8 46.5025 L -8 46.5 L -0.0160086 46.5 L -8.58307e-006 46.5 L -8.5659e-006 46.557 L 0 75 L 0.01 75 L 5 75 L 5 75.06 L 5 105 L 4.99 105 L 0 105 L -1.71661e-008 105.057 L -8.58307e-006 133.5 L -7.984 133.5 L -8 133.5 L -8 132.253 L -8 132.25 L -10.994 132.25 L -11 132.25 L -11 133.498 L -11 133.5 L -17.986 133.5 L -18 133.5 L -18 136.494 L -18 136.5 L -11.014 136.5 L -11 136.5 L -11 137.748 L -11 137.75 L -8.006 137.75 L -8 137.75 L -8 136.503 L -8 136.5 L -0.0160086 136.5 L -8.58307e-006 136.5 L -8.5659e-006 136.587 L 0 180 L -0.057 180 L -28.5 180 L -28.5 172.016 L -28.5 172 L -27.2525 172 L -27.25 172 L -27.25 169.006 L -27.25 169 L -28.4975 169 L -28.5 169 L -28.5 162.014 L -28.5 162 L -31.494 162 L -31.5 162 L -31.5 168.986 L -31.5 169 L -32.7475 169 L -32.75 169 L -32.75 171.994 L -32.75 172 L -31.5025 172 L -31.5 172 L -31.5 179.984 L -31.5 180 L -31.557 180 L -60 180 L -60 180.01 L -60 185 L -60.06 185 L -90 185 L -90 184.99 L -90 180 L -90.067 180 L -123.5 180 L -123.5 172.016 L -123.5 172 L -122.253 172 L -122.25 172 L -122.25 169.006 L -122.25 169 L -123.498 169 L -123.5 169 L -123.5 162.014 L -123.5 162 L -126.494 162 L -126.5 162 L -126.5 168.986 L -126.5 169 z  " fill= "none" stroke="rgb(0,0,255)" stroke-width="0.05mm" />
</svg>
