<?xml version="1.0" encoding="utf-8"?>
<!-- Generator: Adobe Illustrator 16.0.0, SVG Export Plug-In . SVG Version: 6.00 Build 0)  -->
<!DOCTYPE svg PUBLIC "-//W3C//DTD SVG 1.1//EN" "http://www.w3.org/Graphics/SVG/1.1/DTD/svg11.dtd">
<svg version="1.1" id="Layer_1" xmlns="http://www.w3.org/2000/svg" xmlns:xlink="http://www.w3.org/1999/xlink" x="0px" y="0px"
	 width="93.543px" height="31.182px" viewBox="0 0 93.543 31.182" enable-background="new 0 0 93.543 31.182" xml:space="preserve">
<title>Hinge.123dx</title>
<desc>made with 123D Design</desc>
<path fill="none" stroke="#0000FF" stroke-width="0.1417" d="M87.199,13.125l-0.638-2.382l-0.002-0.005l-1.042-2.234l-0.003-0.003
	L84.101,6.48l-0.004-0.003l-1.743-1.743L82.35,4.731l-2.021-1.415l-0.004-0.003l-2.234-1.04L78.086,2.27l-2.382-0.638h-0.005
	l-2.456-0.215h-56.58H16.55h-0.005l-2.456,0.215h-0.005l-2.382,0.641h-0.004L9.463,3.316L9.459,3.319L7.44,4.734L7.436,4.737
	L5.693,6.48L5.69,6.483L4.276,8.504L4.274,8.51l-1.042,2.233l-0.001,0.006L2.592,13.13v0.003l-0.215,2.458v0.006l0.215,2.454
	l0.002,0.006l0.638,2.382l0.002,0.005l1.042,2.234l0.003,0.003l1.414,2.021l0.004,0.003l1.743,1.743l0.004,0.003l2.02,1.415
	l0.005,0.002l2.234,1.041l0.005,0.003l2.382,0.638h0.005l2.456,0.215h56.58h0.113h0.005l2.456-0.215h0.005l2.382-0.641h0.004
	l2.234-1.043l0.004-0.003l2.021-1.415l0.003-0.003l1.744-1.743l0.002-0.003l1.415-2.021l0.002-0.006l1.042-2.233l0.001-0.006
	l0.638-2.382l0.001-0.002l0.215-2.458v-0.006L87.2,13.13L87.199,13.125z M15.096,19.588l0.715,0.189h0.001l0.737,0.065h0.001
	l0.737-0.065h0.001l0.715-0.189h0.001l0.671-0.314h0.001l0.606-0.426h0.001l0.522-0.521l0.002-0.003l0.424-0.606h0.001l0.313-0.669
	l0.001-0.003l0.191-0.714v-0.003l0.064-0.734v-0.003l-0.064-0.737l0,0l-0.191-0.717l0,0l-0.313-0.672l0,0l-0.425-0.606l0,0
	l-0.523-0.524h-0.001l-0.606-0.426h-0.001l-0.67-0.312l-0.002-0.003l-0.714-0.189h-0.002l-0.736-0.065H16.55l-0.737,0.065h-0.001
	l-0.714,0.189h-0.002l-0.67,0.314h-0.002l-0.605,0.426h-0.002l-0.522,0.521l-0.001,0.003l-0.425,0.606l0,0l-0.313,0.669v0.003
	l-0.191,0.714l-0.001,0.003l-0.064,0.734v0.003l0.064,0.737l0,0l0.191,0.717h0.001l0.313,0.672h0.001l0.424,0.606h0.001l0.522,0.524
	h0.001l0.606,0.426h0.001l0.671,0.312L15.096,19.588z M48.579,17.717L48.579,17.717l-0.426,0.606l-0.001,0.003l-0.522,0.521h-0.002
	l-0.605,0.426h-0.001l-0.671,0.314H46.35l-0.715,0.189h-0.002l-0.736,0.065h-0.002l-0.736-0.065h-0.002l-0.714-0.189l-0.002-0.003
	l-0.67-0.312H42.77l-0.606-0.426h-0.001l-0.522-0.524h-0.001l-0.425-0.606l0,0l-0.313-0.672l0,0l-0.191-0.717l0,0l-0.064-0.737
	v-0.003l0.064-0.734V14.85l0.191-0.714l0.001-0.003l0.313-0.669h0.001l0.425-0.606l0.001-0.003l0.522-0.521h0.001l0.606-0.426h0.001
	l0.671-0.314h0.001l0.715-0.189h0.001l0.737-0.065h0.001l0.737,0.065h0.001l0.715,0.189l0.001,0.003l0.671,0.312h0.001l0.606,0.426
	h0.001l0.522,0.524h0.001l0.425,0.606l0,0l0.313,0.672h0.001l0.191,0.717l0,0l0.064,0.737v0.003l-0.064,0.734l-0.001,0.003
	l-0.191,0.714v0.003L48.579,17.717z M76.924,17.717L76.5,18.323l-0.001,0.003l-0.523,0.521h-0.001l-0.605,0.426h-0.002l-0.67,0.314
	h-0.002l-0.714,0.189H73.98l-0.736,0.065h-0.002l-0.736-0.065h-0.002l-0.714-0.189l-0.002-0.003l-0.67-0.312h-0.002l-0.605-0.426
	h-0.001l-0.523-0.524h-0.001l-0.424-0.606H69.56l-0.313-0.672l0,0l-0.191-0.717l-0.064-0.734v-0.003v-0.003l0.064-0.734V14.85
	l0.191-0.714l0.001-0.003l0.313-0.669h0.001l0.424-0.606l0.001-0.003l0.523-0.521h0.001l0.606-0.426h0.001l0.671-0.314h0.001
	l0.715-0.189h0.001l0.737-0.065h0.001l0.737,0.065h0.001l0.715,0.189l0.001,0.003l0.671,0.312h0.001l0.605,0.426h0.002l0.522,0.524
	h0.001l0.424,0.606h0.001l0.313,0.672h0.001l0.191,0.717l0,0l0.064,0.737v0.003l-0.064,0.734l-0.001,0.003l-0.191,0.714
	l-0.001,0.003L76.924,17.717L76.924,17.717z"/>
</svg>
