<?xml version="1.0" encoding="utf-8"?>
<!-- Generator: Adobe Illustrator 16.0.0, SVG Export Plug-In . SVG Version: 6.00 Build 0)  -->
<!DOCTYPE svg PUBLIC "-//W3C//DTD SVG 1.1//EN" "http://www.w3.org/Graphics/SVG/1.1/DTD/svg11.dtd">
<svg version="1.1" id="Layer_1" xmlns="http://www.w3.org/2000/svg" xmlns:xlink="http://www.w3.org/1999/xlink" x="0px" y="0px"
	 width="70.158px" height="34.299px" viewBox="0 0 70.158 34.299" enable-background="new 0 0 70.158 34.299" xml:space="preserve">
<title>TCRT5000 Mount Test.123dx</title>
<desc>made with 123D Design</desc>
<path fill="none" stroke="#0000FF" stroke-width="0.1417" d="M66.456,7.156l0.001,0.003l0.383,1.429V8.59l0.129,1.474v0.028v14.145
	v0.003l-0.129,1.474l-0.001,0.004l-0.383,1.429l-0.001,0.003l-0.626,1.34l-0.001,0.003l-0.849,1.212l-0.002,0.002l-1.047,1.046
	l-0.002,0.002l-1.212,0.849l-0.003,0.001l-1.341,0.625l-0.003,0.001l-1.429,0.383h-0.003l-1.474,0.129h-0.094H11.693H11.69
	l-1.474-0.129h-0.003l-1.43-0.384l-0.002-0.001l-1.341-0.625L7.438,31.6l-1.212-0.849l-0.002-0.002l-1.046-1.046L5.177,29.7
	l-0.849-1.212l-0.001-0.002l-0.625-1.341l-0.001-0.003l-0.383-1.43v-0.002l-0.129-1.475v-0.028V10.064v-0.003l0.129-1.474
	l0.001-0.003l0.383-1.429l0.001-0.003l0.625-1.341L4.33,5.81l0.849-1.212L5.18,4.596l1.046-1.047l0.003-0.001l1.212-0.849
	l0.002-0.002l1.341-0.625l0.003-0.001l1.43-0.383h0.003l1.474-0.129h0.094h46.678h0.003l1.474,0.129l0.003,0.001l1.429,0.383
	l0.003,0.001l1.341,0.626L62.719,2.7l1.212,0.849l0.003,0.002l1.046,1.047L64.98,4.6l0.849,1.212l0.002,0.003L66.456,7.156z
	 M11.693,12.899L11.693,12.899l0.738,0.064h0.001l0.715,0.191l0.001,0.001l0.671,0.313l0.001,0.001l0.606,0.424l0.001,0.001
	l0.522,0.523l0.001,0.001l0.424,0.606l0.001,0.001l0.313,0.671l0.001,0.001l0.191,0.715v0.001l0.064,0.737v0.001l-0.064,0.737
	L15.88,17.89l-0.191,0.715v0.001l-0.313,0.671v0.001l-0.425,0.605l-0.001,0.002l-0.522,0.522l-0.002,0.001l-0.605,0.424
	l-0.002,0.001l-0.67,0.313l-0.002,0.001l-0.714,0.191h-0.002l-0.736,0.064h-0.002l-0.736-0.064l-0.002-0.001l-0.714-0.191h-0.002
	l-0.67-0.313H9.566L8.96,20.407l-0.001-0.001l-0.523-0.523l-0.001-0.001L8.01,19.277L8.01,19.275l-0.313-0.67v-0.002l-0.191-0.714
	v-0.002l-0.064-0.736v-0.002l0.064-0.736V16.41l0.191-0.714l0.001-0.002l0.313-0.67l0.001-0.001l0.424-0.606l0.001-0.001
	l0.523-0.523h0.001l0.606-0.425l0.001-0.001l0.671-0.313h0.001l0.715-0.191h0.001L11.693,12.899z M62.461,15.698l0.191,0.715v0.001
	l0.064,0.737v0.001l-0.064,0.737l-0.001,0.001l-0.191,0.715v0.001l-0.313,0.671l-0.001,0.001l-0.425,0.605l-0.001,0.002
	l-0.522,0.522l-0.002,0.001l-0.605,0.424l-0.001,0.001l-0.671,0.313l-0.001,0.001l-0.715,0.191h-0.001l-0.737,0.064h-0.002
	l-0.736-0.064l-0.002-0.001l-0.714-0.191h-0.002l-0.67-0.313h-0.001l-0.606-0.425l-0.001-0.001l-0.522-0.523l-0.001-0.001
	l-0.425-0.605v-0.002l-0.313-0.67l-0.001-0.002l-0.191-0.714v-0.002l-0.064-0.736v-0.002l0.064-0.736V16.41l0.192-0.714v-0.002
	l0.313-0.67l0.001-0.001l0.425-0.606l0.001-0.001l0.522-0.523h0.002l0.605-0.425l0.001-0.001l0.671-0.313h0.001l0.715-0.191h0.001
	l0.737-0.064h0.001l0.737,0.064h0.002l0.714,0.191l0.001,0.001l0.671,0.313l0.001,0.001l0.606,0.424l0.001,0.001l0.522,0.523
	l0.001,0.001l0.425,0.606v0.001L62.461,15.698L62.461,15.698z M40.758,25.655h4.951V25.62V8.647h-0.01h-4.951v0.034v16.974H40.758z
	 M21.623,12.899h4.243v0.025v12.73h0.01h4.951V25.62V8.647h-0.019h-9.194v0.008v4.244H21.623z M33.662,14.316V8.657V8.647h4.243
	h0.009v5.657v0.012H33.67H33.662z M37.914,25.643v-5.658h-0.009h-4.243v0.012v5.658h0.008h4.244V25.643z"/>
</svg>
