<?xml version="1.0" standalone="no"?>
<!DOCTYPE svg PUBLIC "-//W3C//DTD SVG 1.1//EN"
"http://www.w3.org/Graphics/SVG/1.1/DTD/svg11.dtd">
<svg width="203.5mm" height="209mm" viewBox="-194.25 -14.5 203.5 209" xmlns="http://www.w3.org/2000/svg" version = "1.1">
<title>Base.123dx</title>
<desc> made with 123D Design </desc>
<path d="M -66.7642 71.8509 L -66.7638 71.8506 L -66.55 71.701 L -66.5495 71.7007 L -66.313 71.5905 L -66.3125 71.5903 L -66.0605 71.5228 L -66.06 71.5227 L -65.8 71.5 L -65.7995 71.5 L -65.5395 71.5228 L -65.539 71.5229 L -65.287 71.5905 L -65.2865 71.5907 L -65.05 71.701 L -65.0496 71.7013 L -64.8358 71.8509 L -64.8354 71.8513 L -64.6509 72.0358 L -64.6506 72.0362 L -64.501 72.25 L -64.5007 72.2505 L -64.3905 72.487 L -64.3903 72.4875 L -64.3228 72.7395 L -64.3227 72.74 L -64.3 73 L -64.3 73.0005 L -64.3228 73.2605 L -64.3229 73.261 L -64.3905 73.513 L -64.3907 73.5135 L -64.501 73.75 L -64.5013 73.7504 L -64.6509 73.9642 L -64.6513 73.9646 L -64.8358 74.1491 L -64.8362 74.1494 L -65.05 74.299 L -65.0505 74.2993 L -65.287 74.4095 L -65.2875 74.4097 L -65.5395 74.4772 L -65.54 74.4773 L -65.8 74.5 L -65.8005 74.5 L -66.0605 74.4772 L -66.061 74.4771 L -66.313 74.4095 L -66.3135 74.4093 L -66.55 74.299 L -66.5504 74.2987 L -66.7642 74.1491 L -66.7646 74.1487 L -66.9491 73.9642 L -66.9494 73.9638 L -67.099 73.75 L -67.0993 73.7495 L -67.2095 73.513 L -67.2097 73.5125 L -67.2772 73.2605 L -67.2773 73.26 L -67.3 73 L -67.3 72.9995 L -67.2772 72.7395 L -67.2771 72.739 L -67.2095 72.487 L -67.2093 72.4865 L -67.099 72.25 L -67.0987 72.2496 L -66.9491 72.0358 L -66.9487 72.0354 z  M -115.09 6.01303 L -115.091 6.0135 L -115.201 6.25 L -115.201 6.25043 L -115.351 6.46418 L -115.351 6.46455 L -115.536 6.64907 L -115.536 6.64937 L -115.75 6.79904 L -115.75 6.79926 L -115.987 6.90954 L -115.987 6.90967 L -116.24 6.97721 L -116.24 6.97726 L -116.5 7 L -116.501 6.99995 L -116.76 6.97721 L -116.761 6.97708 L -117.013 6.90954 L -117.014 6.90932 L -117.25 6.79904 L -117.25 6.79874 L -117.464 6.64907 L -117.465 6.6487 L -117.649 6.46418 L -117.649 6.46375 L -117.799 6.25 L -117.799 6.24953 L -117.91 6.01303 L -117.91 6.01253 L -117.977 5.76047 L -117.977 5.75995 L -118 5.5 L -118 5.49948 L -117.977 5.23953 L -117.977 5.23902 L -117.91 4.98697 L -117.909 4.9865 L -117.799 4.75 L -117.799 4.74957 L -117.649 4.53582 L -117.649 4.53545 L -117.464 4.35093 L -117.464 4.35063 L -117.25 4.20096 L -117.25 4.20074 L -117.013 4.09046 L -117.013 4.09033 L -116.76 4.02279 L -116.76 4.02274 L -116.5 4 L -116.499 4.00005 L -116.24 4.02279 L -116.239 4.02292 L -115.987 4.09046 L -115.986 4.09068 L -115.75 4.20096 L -115.75 4.20126 L -115.536 4.35093 L -115.535 4.3513 L -115.351 4.53582 L -115.351 4.53625 L -115.201 4.75 L -115.201 4.75047 L -115.09 4.98697 L -115.09 4.98747 L -115.023 5.23953 L -115.023 5.24005 L -115 5.5 L -115 5.50052 L -115.023 5.76047 L -115.023 5.76098 z  M -105.1 180 L -155 180 L -155 172.016 L -155 172 L -153.752 172 L -153.75 172 L -153.75 169.006 L -153.75 169 L -154.998 169 L -155 169 L -155 162.014 L -155 162 L -157.994 162 L -158 162 L -158 168.986 L -158 169 L -159.248 169 L -159.25 169 L -159.25 171.994 L -159.25 172 L -158.003 172 L -158 172 L -158 179.984 L -158 180 L -158.044 180 L -180 180 L -180 179.916 L -180 138 L -172.016 138 L -172 138 L -172 139.248 L -172 139.25 L -169.006 139.25 L -169 139.25 L -169 138.003 L -169 138 L -162.014 138 L -162 138 L -162 135.006 L -162 135 L -168.986 135 L -169 135 L -169 133.752 L -169 133.75 L -171.994 133.75 L -172 133.75 L -172 134.998 L -172 135 L -179.984 135 L -180 135 L -180 134.94 L -180 105 L -180.01 105 L -185 105 L -185 104.94 L -185 75 L -184.99 75 L -180 75 L -180 74.94 L -180 45 L -172.016 45 L -172 45 L -172 46.2475 L -172 46.25 L -169.006 46.25 L -169 46.25 L -169 45.0025 L -169 45 L -162.014 45 L -162 45 L -162 42.006 L -162 42 L -168.986 42 L -169 42 L -169 40.7525 L -169 40.75 L -171.994 40.75 L -172 40.75 L -172 41.9975 L -172 42 L -179.984 42 L -180 42 L -180 41.916 L -180 0 L -179.956 1.52588e-008 L -158 7.62939e-006 L -158 7.984 L -158 8 L -159.248 8 L -159.25 8 L -159.25 10.994 L -159.25 11 L -158.003 11 L -158 11 L -158 17.986 L -158 18 L -155.006 18 L -155 18 L -155 11.014 L -155 11 L -153.752 11 L -153.75 11 L -153.75 8.006 L -153.75 8 L -154.998 8 L -155 8 L -155 0.0160076 L -155 7.62939e-006 L -154.9 7.61414e-006 L -105 0 L -105 -0.01 L -105 -5 L -104.94 -5 L -75 -5 L -75 -4.99 L -75 0 L -74.9 1.52588e-008 L -25 7.62939e-006 L -25 7.984 L -25 8 L -26.2475 8 L -26.25 8 L -26.25 10.994 L -26.25 11 L -25.0025 11 L -25 11 L -25 17.986 L -25 18 L -22.006 18 L -22 18 L -22 11.014 L -22 11 L -20.7525 11 L -20.75 11 L -20.75 8.006 L -20.75 8 L -21.9975 8 L -22 8 L -22 7.984 L -22 1.52588e-008 L -21.956 0 L 0 0 L 0 0.36 L 0 180 L -0.044 180 L -22 180 L -22 172.016 L -22 172 L -20.7525 172 L -20.75 172 L -20.75 169.006 L -20.75 169 L -21.9975 169 L -22 169 L -22 162.014 L -22 162 L -24.994 162 L -25 162 L -25 168.986 L -25 169 L -26.2475 169 L -26.25 169 L -26.25 171.994 L -26.25 172 L -25.0025 172 L -25 172 L -25 179.984 L -25 180 L -25.1 180 L -75 180 L -75 180.01 L -75 185 L -75.06 185 L -105 185 L -105 184.99 L -105 180 z  M -162.987 30.4097 L -162.987 30.4095 L -162.75 30.2993 L -162.75 30.299 L -162.536 30.1494 L -162.536 30.1491 L -162.351 29.9646 L -162.351 29.9642 L -162.201 29.7504 L -162.201 29.75 L -162.091 29.5135 L -162.09 29.513 L -162.023 29.261 L -162.023 29.2605 L -162 29.0005 L -162 29 L -162.023 28.74 L -162.023 28.7395 L -162.09 28.4875 L -162.09 28.487 L -162.201 28.2505 L -162.201 28.25 L -162.351 28.0362 L -162.351 28.0358 L -162.535 27.8513 L -162.536 27.8509 L -162.75 27.7013 L -162.75 27.701 L -162.986 27.5907 L -162.987 27.5905 L -163.239 27.5229 L -163.24 27.5228 L -163.499 27.5 L -163.5 27.5 L -163.76 27.5227 L -163.76 27.5228 L -164.013 27.5903 L -164.013 27.5905 L -164.25 27.7007 L -164.25 27.701 L -164.464 27.8506 L -164.464 27.8509 L -164.649 28.0354 L -164.649 28.0358 L -164.799 28.2496 L -164.799 28.25 L -164.909 28.4865 L -164.91 28.487 L -164.977 28.739 L -164.977 28.7395 L -165 28.9995 L -165 29 L -164.977 29.26 L -164.977 29.2605 L -164.91 29.5125 L -164.91 29.513 L -164.799 29.7495 L -164.799 29.75 L -164.649 29.9638 L -164.649 29.9642 L -164.465 30.1487 L -164.464 30.1491 L -164.25 30.2987 L -164.25 30.299 L -164.014 30.4093 L -164.013 30.4095 L -163.761 30.4771 L -163.76 30.4772 L -163.501 30.5 L -163.5 30.5 L -163.24 30.4773 L -163.24 30.4772 z  M -65.8 7 L -65.54 6.97726 L -65.5395 6.97721 L -65.2875 6.90967 L -65.287 6.90954 L -65.0505 6.79926 L -65.05 6.79904 L -64.8362 6.64937 L -64.8358 6.64907 L -64.6513 6.46455 L -64.6509 6.46418 L -64.5013 6.25043 L -64.501 6.25 L -64.3907 6.0135 L -64.3905 6.01303 L -64.3229 5.76098 L -64.3228 5.76047 L -64.3 5.50052 L -64.3 5.5 L -64.3227 5.24005 L -64.3228 5.23953 L -64.3903 4.98747 L -64.3905 4.98697 L -64.5007 4.75047 L -64.501 4.75 L -64.6506 4.53625 L -64.6509 4.53582 L -64.8354 4.3513 L -64.8358 4.35093 L -65.0496 4.20126 L -65.05 4.20096 L -65.2865 4.09068 L -65.287 4.09046 L -65.539 4.02292 L -65.5395 4.02279 L -65.7995 4.00005 L -65.8 4 L -66.06 4.02274 L -66.0605 4.02279 L -66.3125 4.09033 L -66.313 4.09046 L -66.5495 4.20074 L -66.55 4.20096 L -66.7638 4.35063 L -66.7642 4.35093 L -66.9487 4.53545 L -66.9491 4.53582 L -67.0987 4.74957 L -67.099 4.75 L -67.2093 4.9865 L -67.2095 4.98697 L -67.2771 5.23902 L -67.2772 5.23953 L -67.3 5.49948 L -67.3 5.5 L -67.2773 5.75995 L -67.2772 5.76047 L -67.2097 6.01253 L -67.2095 6.01303 L -67.0993 6.24953 L -67.099 6.25 L -66.9494 6.46375 L -66.9491 6.46418 L -66.7646 6.6487 L -66.7642 6.64907 L -66.5504 6.79874 L -66.55 6.79904 L -66.3135 6.90932 L -66.313 6.90954 L -66.061 6.97708 L -66.0605 6.97721 L -65.8005 6.99995 z  M -164.649 58.1854 L -164.649 58.1858 L -164.799 58.3996 L -164.799 58.4 L -164.909 58.6365 L -164.91 58.637 L -164.977 58.889 L -164.977 58.8895 L -165 59.1495 L -165 59.15 L -164.977 59.41 L -164.977 59.4105 L -164.91 59.6625 L -164.91 59.663 L -164.799 59.8995 L -164.799 59.9 L -164.649 60.1138 L -164.649 60.1142 L -164.465 60.2987 L -164.464 60.2991 L -164.25 60.4487 L -164.25 60.449 L -164.014 60.5593 L -164.013 60.5595 L -163.761 60.6271 L -163.76 60.6272 L -163.501 60.65 L -163.5 60.65 L -163.24 60.6273 L -163.24 60.6272 L -162.987 60.5597 L -162.987 60.5595 L -162.75 60.4493 L -162.75 60.449 L -162.536 60.2994 L -162.536 60.2991 L -162.351 60.1146 L -162.351 60.1142 L -162.201 59.9004 L -162.201 59.9 L -162.091 59.6635 L -162.09 59.663 L -162.023 59.411 L -162.023 59.4105 L -162 59.1505 L -162 59.15 L -162.023 58.89 L -162.023 58.8895 L -162.09 58.6375 L -162.09 58.637 L -162.201 58.4005 L -162.201 58.4 L -162.351 58.1862 L -162.351 58.1858 L -162.535 58.0013 L -162.536 58.0009 L -162.75 57.8513 L -162.75 57.851 L -162.986 57.7407 L -162.987 57.7405 L -163.239 57.6729 L -163.24 57.6728 L -163.499 57.65 L -163.5 57.65 L -163.76 57.6727 L -163.76 57.6728 L -164.013 57.7403 L -164.013 57.7405 L -164.25 57.8507 L -164.25 57.851 L -164.464 58.0006 L -164.464 58.0009 z  M -117.977 73.2605 L -117.91 73.5125 L -117.91 73.513 L -117.799 73.7495 L -117.799 73.75 L -117.649 73.9638 L -117.649 73.9642 L -117.465 74.1487 L -117.464 74.1491 L -117.25 74.2987 L -117.25 74.299 L -117.014 74.4093 L -117.013 74.4095 L -116.761 74.4771 L -116.76 74.4772 L -116.501 74.5 L -116.5 74.5 L -116.24 74.4773 L -116.24 74.4772 L -115.987 74.4097 L -115.987 74.4095 L -115.75 74.2993 L -115.75 74.299 L -115.536 74.1494 L -115.536 74.1491 L -115.351 73.9646 L -115.351 73.9642 L -115.201 73.7504 L -115.201 73.75 L -115.091 73.5135 L -115.09 73.513 L -115.023 73.261 L -115.023 73.2605 L -115 73.0005 L -115 73 L -115.023 72.74 L -115.023 72.7395 L -115.09 72.4875 L -115.09 72.487 L -115.201 72.2505 L -115.201 72.25 L -115.351 72.0362 L -115.351 72.0358 L -115.535 71.8513 L -115.536 71.8509 L -115.75 71.7013 L -115.75 71.701 L -115.986 71.5907 L -115.987 71.5905 L -116.239 71.5229 L -116.24 71.5228 L -116.499 71.5 L -116.5 71.5 L -116.76 71.5227 L -116.76 71.5228 L -117.013 71.5903 L -117.013 71.5905 L -117.25 71.7007 L -117.25 71.701 L -117.464 71.8506 L -117.464 71.8509 L -117.649 72.0354 L -117.649 72.0358 L -117.799 72.2496 L -117.799 72.25 L -117.909 72.4865 L -117.91 72.487 L -117.977 72.739 L -117.977 72.7395 L -118 72.9995 L -118 73 L -117.977 73.26 z  " fill= "none" stroke="rgb(0,0,255)" stroke-width="0.05mm" />
</svg>
