<?xml version="1.0" standalone="no"?>
<!DOCTYPE svg PUBLIC "-//W3C//DTD SVG 1.1//EN"
"http://www.w3.org/Graphics/SVG/1.1/DTD/svg11.dtd">
<svg width="55mm" height="209mm" viewBox="-52.5 -14.5 55 209" xmlns="http://www.w3.org/2000/svg" version = "1.1">
<title>Back Panel.123dx</title>
<desc> made with 123D Design </desc>
<path d="M -8.79926 137.25 L -8.79904 137.25 L -8.64937 137.464 L -8.64907 137.464 L -8.46455 137.649 L -8.46418 137.649 L -8.25043 137.799 L -8.25 137.799 L -8.0135 137.909 L -8.01303 137.91 L -7.76098 137.977 L -7.76047 137.977 L -7.50052 138 L -7.5 138 L -7.24005 137.977 L -7.23953 137.977 L -6.98747 137.91 L -6.98697 137.91 L -6.75047 137.799 L -6.75 137.799 L -6.53625 137.649 L -6.53582 137.649 L -6.3513 137.465 L -6.35093 137.464 L -6.20126 137.25 L -6.20096 137.25 L -6.09068 137.014 L -6.09046 137.013 L -6.02292 136.761 L -6.02279 136.76 L -6.00005 136.501 L -6 136.5 L -6.02274 136.24 L -6.02279 136.24 L -6.09033 135.987 L -6.09046 135.987 L -6.20074 135.75 L -6.20096 135.75 L -6.35063 135.536 L -6.35093 135.536 L -6.53545 135.351 L -6.53582 135.351 L -6.74957 135.201 L -6.75 135.201 L -6.9865 135.091 L -6.98697 135.09 L -7.23902 135.023 L -7.23953 135.023 L -7.49948 135 L -7.5 135 L -7.75995 135.023 L -7.76047 135.023 L -8.01253 135.09 L -8.01303 135.09 L -8.24953 135.201 L -8.25 135.201 L -8.46375 135.351 L -8.46418 135.351 L -8.6487 135.535 L -8.64907 135.536 L -8.79874 135.75 L -8.79904 135.75 L -8.90932 135.986 L -8.90954 135.987 L -8.97708 136.239 L -8.97721 136.24 L -8.99995 136.499 L -9 136.5 L -8.97726 136.76 L -8.97721 136.76 L -8.90967 137.013 L -8.90954 137.013 z  M -7.23953 44.9772 L -6.98747 44.9097 L -6.98697 44.9095 L -6.75047 44.7993 L -6.75 44.799 L -6.53625 44.6494 L -6.53582 44.6491 L -6.3513 44.4646 L -6.35093 44.4642 L -6.20126 44.2504 L -6.20096 44.25 L -6.09068 44.0135 L -6.09046 44.013 L -6.02292 43.761 L -6.02279 43.7605 L -6.00005 43.5005 L -6 43.5 L -6.02274 43.24 L -6.02279 43.2395 L -6.09033 42.9875 L -6.09046 42.987 L -6.20074 42.7505 L -6.20096 42.75 L -6.35063 42.5362 L -6.35093 42.5358 L -6.53545 42.3513 L -6.53582 42.3509 L -6.74957 42.2013 L -6.75 42.201 L -6.9865 42.0907 L -6.98697 42.0905 L -7.23902 42.0229 L -7.23953 42.0228 L -7.49948 42 L -7.5 42 L -7.75995 42.0227 L -7.76047 42.0228 L -8.01253 42.0903 L -8.01303 42.0905 L -8.24953 42.2007 L -8.25 42.201 L -8.46375 42.3506 L -8.46418 42.3509 L -8.6487 42.5354 L -8.64907 42.5358 L -8.79874 42.7496 L -8.79904 42.75 L -8.90932 42.9865 L -8.90954 42.987 L -8.97708 43.239 L -8.97721 43.2395 L -8.99995 43.4995 L -9 43.5 L -8.97726 43.76 L -8.97721 43.7605 L -8.90967 44.0125 L -8.90954 44.013 L -8.79926 44.2495 L -8.79904 44.25 L -8.64937 44.4638 L -8.64907 44.4642 L -8.46455 44.6487 L -8.46418 44.6491 L -8.25043 44.7987 L -8.25 44.799 L -8.0135 44.9093 L -8.01303 44.9095 L -7.76098 44.9771 L -7.76047 44.9772 L -7.50052 45 L -7.5 45 L -7.24005 44.9773 z  M -45 104.94 L -45 105 L -49.99 105 L -50 105 L -50 179.85 L -50 180 L -35.03 180 L -35 180 L -35 184.99 L -35 185 L -15.04 185 L -15 185 L -15 180.01 L -15 180 L -0.03 180 L 0 180 L 0 0.36 L 0 0 L -14.97 0 L -15 0 L -15 -4.99 L -15 -5 L -34.96 -5 L -35 -5 L -35 -0.01 L -35 0 L -49.97 0 L -50 0 L -50 74.85 L -50 75 L -45.01 75 L -45 75 z  M -25.0217 139.3 L -24.3759 139.945 L -24.3746 139.947 L -23.6265 140.471 L -23.625 140.472 L -22.7973 140.858 L -22.7956 140.858 L -21.9134 141.095 L -21.9117 141.095 L -21.0018 141.175 L -21 141.175 L -20.0902 141.095 L -20.0883 141.095 L -19.2062 140.859 L -19.2044 140.858 L -18.3767 140.472 L -18.375 140.472 L -17.6269 139.948 L -17.6254 139.947 L -16.9796 139.301 L -16.9783 139.3 L -16.4544 138.551 L -16.4534 138.55 L -16.0674 137.722 L -16.0666 137.721 L -15.8302 136.838 L -15.8298 136.837 L -15.7502 135.927 L -15.75 135.925 L -15.8296 135.015 L -15.8298 135.013 L -16.0661 134.131 L -16.0666 134.129 L -16.4526 133.302 L -16.4534 133.3 L -16.9772 132.552 L -16.9783 132.55 L -17.6241 131.905 L -17.6254 131.903 L -18.3735 131.379 L -18.375 131.378 L -19.2027 130.992 L -19.2044 130.992 L -20.0866 130.755 L -20.0883 130.755 L -20.9982 130.675 L -21 130.675 L -21.9098 130.755 L -21.9117 130.755 L -22.7938 130.991 L -22.7956 130.992 L -23.6233 131.378 L -23.625 131.378 L -24.3731 131.902 L -24.3746 131.903 L -25.0204 132.549 L -25.0217 132.55 L -25.5456 133.299 L -25.5466 133.3 L -25.9326 134.128 L -25.9334 134.129 L -26.1698 135.012 L -26.1702 135.013 L -26.2498 135.923 L -26.25 135.925 L -26.1704 136.835 L -26.1702 136.837 L -25.9339 137.719 L -25.9334 137.721 L -25.5474 138.548 L -25.5466 138.55 L -25.0228 139.298 z  M -46.0905 44.013 L -46.0907 44.0135 L -46.201 44.25 L -46.2013 44.2504 L -46.3509 44.4642 L -46.3513 44.4646 L -46.5358 44.6491 L -46.5363 44.6494 L -46.75 44.799 L -46.7505 44.7993 L -46.987 44.9095 L -46.9875 44.9097 L -47.2395 44.9772 L -47.24 44.9773 L -47.5 45 L -47.5005 45 L -47.7605 44.9772 L -47.761 44.9771 L -48.013 44.9095 L -48.0135 44.9093 L -48.25 44.799 L -48.2504 44.7987 L -48.4642 44.6491 L -48.4646 44.6487 L -48.6491 44.4642 L -48.6494 44.4638 L -48.799 44.25 L -48.7993 44.2495 L -48.9095 44.013 L -48.9097 44.0125 L -48.9772 43.7605 L -48.9773 43.76 L -49 43.5 L -49 43.4995 L -48.9772 43.2395 L -48.9771 43.239 L -48.9095 42.987 L -48.9093 42.9865 L -48.799 42.75 L -48.7987 42.7496 L -48.6491 42.5358 L -48.6487 42.5354 L -48.4642 42.3509 L -48.4637 42.3506 L -48.25 42.201 L -48.2495 42.2007 L -48.013 42.0905 L -48.0125 42.0903 L -47.7605 42.0228 L -47.76 42.0227 L -47.5 42 L -47.4995 42 L -47.2395 42.0228 L -47.239 42.0229 L -46.987 42.0905 L -46.9865 42.0907 L -46.75 42.201 L -46.7496 42.2013 L -46.5358 42.3509 L -46.5354 42.3513 L -46.3509 42.5358 L -46.3506 42.5362 L -46.201 42.75 L -46.2007 42.7505 L -46.0905 42.987 L -46.0903 42.9875 L -46.0228 43.2395 L -46.0227 43.24 L -46 43.5 L -46 43.5005 L -46.0228 43.7605 L -46.0229 43.761 z  M -46.7496 135.201 L -46.5358 135.351 L -46.5354 135.351 L -46.3509 135.536 L -46.3506 135.536 L -46.201 135.75 L -46.2007 135.75 L -46.0905 135.987 L -46.0903 135.987 L -46.0228 136.24 L -46.0227 136.24 L -46 136.5 L -46 136.501 L -46.0228 136.76 L -46.0229 136.761 L -46.0905 137.013 L -46.0907 137.014 L -46.201 137.25 L -46.2013 137.25 L -46.3509 137.464 L -46.3513 137.465 L -46.5358 137.649 L -46.5363 137.649 L -46.75 137.799 L -46.7505 137.799 L -46.987 137.91 L -46.9875 137.91 L -47.2395 137.977 L -47.24 137.977 L -47.5 138 L -47.5005 138 L -47.7605 137.977 L -47.761 137.977 L -48.013 137.91 L -48.0135 137.909 L -48.25 137.799 L -48.2504 137.799 L -48.4642 137.649 L -48.4646 137.649 L -48.6491 137.464 L -48.6494 137.464 L -48.799 137.25 L -48.7993 137.25 L -48.9095 137.013 L -48.9097 137.013 L -48.9772 136.76 L -48.9773 136.76 L -49 136.5 L -49 136.499 L -48.9772 136.24 L -48.9771 136.239 L -48.9095 135.987 L -48.9093 135.986 L -48.799 135.75 L -48.7987 135.75 L -48.6491 135.536 L -48.6487 135.535 L -48.4642 135.351 L -48.4637 135.351 L -48.25 135.201 L -48.2495 135.201 L -48.013 135.09 L -48.0125 135.09 L -47.7605 135.023 L -47.76 135.023 L -47.5 135 L -47.4995 135 L -47.2395 135.023 L -47.239 135.023 L -46.987 135.09 L -46.9865 135.091 L -46.75 135.201 z  M -29.975 50 L -17.5 50 L -17.5 49.961 L -17.5 30.5 L -17.525 30.5 L -30 30.5 L -30 30.539 L -30 50 z  M -5 104.94 L -5 75 L -5.01 75 L -10 75 L -10 75.06 L -10 105 L -9.99 105 L -5 105 z  " fill= "none" stroke="rgb(0,0,255)" stroke-width="0.05mm" />
</svg>
