<?xml version="1.0" standalone="no"?>
<!DOCTYPE svg PUBLIC "-//W3C//DTD SVG 1.1//EN"
"http://www.w3.org/Graphics/SVG/1.1/DTD/svg11.dtd">
<svg width="55mm" height="209mm" viewBox="-52.5 -9.5 55 209" xmlns="http://www.w3.org/2000/svg" version = "1.1">
<title>Front Panel.123dx</title>
<desc> made with 123D Design </desc>
<path d="M -8.98697 35.7905 L -8.9865 35.7907 L -8.75 35.901 L -8.74957 35.9013 L -8.53582 36.0509 L -8.53545 36.0513 L -8.35093 36.2358 L -8.35063 36.2362 L -8.20096 36.45 L -8.20074 36.4505 L -8.09046 36.687 L -8.09033 36.6875 L -8.02279 36.9395 L -8.02274 36.9401 L -8 37.2 L -8.00005 37.2005 L -8.02279 37.4605 L -8.02292 37.461 L -8.09046 37.713 L -8.09068 37.7135 L -8.20096 37.95 L -8.20126 37.9504 L -8.35093 38.1642 L -8.3513 38.1646 L -8.53582 38.3491 L -8.53625 38.3494 L -8.75 38.499 L -8.75047 38.4993 L -8.98697 38.6095 L -8.98747 38.6097 L -9.23953 38.6772 L -9.24005 38.6773 L -9.5 38.7 L -9.50052 38.7 L -9.76047 38.6772 L -9.76098 38.6771 L -10.013 38.6095 L -10.0135 38.6093 L -10.25 38.499 L -10.2504 38.4987 L -10.4642 38.3491 L -10.4646 38.3487 L -10.6491 38.1642 L -10.6494 38.1638 L -10.799 37.95 L -10.7993 37.9495 L -10.9095 37.713 L -10.9097 37.7125 L -10.9772 37.4605 L -10.9773 37.46 L -11 37.2 L -11 37.1995 L -10.9772 36.9395 L -10.9771 36.939 L -10.9095 36.687 L -10.9093 36.6865 L -10.799 36.45 L -10.7987 36.4496 L -10.6491 36.2358 L -10.6487 36.2354 L -10.4642 36.0509 L -10.4638 36.0506 L -10.25 35.901 L -10.2495 35.9007 L -10.013 35.7905 L -10.0125 35.7903 L -9.76047 35.7228 L -9.75995 35.7227 L -9.5 35.7 L -9.49948 35.7 L -9.23953 35.7228 L -9.23902 35.7229 z  M -7.79904 186.75 L -7.90932 186.986 L -7.90954 186.987 L -7.97708 187.239 L -7.97721 187.24 L -7.99995 187.499 L -8 187.5 L -7.97726 187.76 L -7.97721 187.76 L -7.90967 188.013 L -7.90954 188.013 L -7.79926 188.25 L -7.79904 188.25 L -7.64937 188.464 L -7.64907 188.464 L -7.46455 188.649 L -7.46418 188.649 L -7.25043 188.799 L -7.25 188.799 L -7.0135 188.909 L -7.01303 188.91 L -6.76098 188.977 L -6.76047 188.977 L -6.50052 189 L -6.5 189 L -6.24005 188.977 L -6.23953 188.977 L -5.98747 188.91 L -5.98697 188.91 L -5.75047 188.799 L -5.75 188.799 L -5.53625 188.649 L -5.53582 188.649 L -5.3513 188.465 L -5.35093 188.464 L -5.20126 188.25 L -5.20096 188.25 L -5.09068 188.014 L -5.09046 188.013 L -5.02292 187.761 L -5.02279 187.76 L -5.00005 187.501 L -5 187.5 L -5.02274 187.24 L -5.02279 187.24 L -5.09033 186.987 L -5.09046 186.987 L -5.20074 186.75 L -5.20096 186.75 L -5.35063 186.536 L -5.35093 186.536 L -5.53545 186.351 L -5.53582 186.351 L -5.74957 186.201 L -5.75 186.201 L -5.9865 186.091 L -5.98697 186.09 L -6.23902 186.023 L -6.23953 186.023 L -6.49948 186 L -6.5 186 L -6.75995 186.023 L -6.76047 186.023 L -7.01253 186.09 L -7.01303 186.09 L -7.24953 186.201 L -7.25 186.201 L -7.46375 186.351 L -7.46418 186.351 L -7.6487 186.535 L -7.64907 186.536 L -7.79874 186.75 z  M -10.0504 113.699 L -10.05 113.699 L -9.8135 113.809 L -9.81303 113.81 L -9.56098 113.877 L -9.56047 113.877 L -9.30052 113.9 L -9.3 113.9 L -9.04005 113.877 L -9.03953 113.877 L -8.78747 113.81 L -8.78697 113.81 L -8.55047 113.699 L -8.55 113.699 L -8.33625 113.549 L -8.33582 113.549 L -8.1513 113.365 L -8.15093 113.364 L -8.00126 113.15 L -8.00096 113.15 L -7.89068 112.914 L -7.89046 112.913 L -7.82292 112.661 L -7.82279 112.66 L -7.80005 112.401 L -7.8 112.4 L -7.82274 112.14 L -7.82279 112.14 L -7.89033 111.887 L -7.89046 111.887 L -8.00074 111.65 L -8.00096 111.65 L -8.15063 111.436 L -8.15093 111.436 L -8.33545 111.251 L -8.33582 111.251 L -8.54957 111.101 L -8.55 111.101 L -8.7865 110.991 L -8.78697 110.99 L -9.03902 110.923 L -9.03953 110.923 L -9.29948 110.9 L -9.3 110.9 L -9.55995 110.923 L -9.56047 110.923 L -9.81253 110.99 L -9.81303 110.99 L -10.0495 111.101 L -10.05 111.101 L -10.2638 111.251 L -10.2642 111.251 L -10.4487 111.435 L -10.4491 111.436 L -10.5987 111.65 L -10.599 111.65 L -10.7093 111.886 L -10.7095 111.887 L -10.7771 112.139 L -10.7772 112.14 L -10.8 112.399 L -10.8 112.4 L -10.7773 112.66 L -10.7772 112.66 L -10.7097 112.913 L -10.7095 112.913 L -10.5993 113.15 L -10.599 113.15 L -10.4494 113.364 L -10.4491 113.364 L -10.2646 113.549 L -10.2642 113.549 z  M -5.02274 2.24005 L -5 2.5 L -5.00005 2.50052 L -5.02279 2.76047 L -5.02292 2.76098 L -5.09046 3.01303 L -5.09068 3.0135 L -5.20096 3.25 L -5.20126 3.25043 L -5.35093 3.46418 L -5.3513 3.46455 L -5.53582 3.64907 L -5.53625 3.64937 L -5.75 3.79904 L -5.75047 3.79926 L -5.98697 3.90954 L -5.98747 3.90967 L -6.23953 3.97721 L -6.24005 3.97726 L -6.5 4 L -6.50052 3.99995 L -6.76047 3.97721 L -6.76098 3.97708 L -7.01303 3.90954 L -7.0135 3.90932 L -7.25 3.79904 L -7.25043 3.79874 L -7.46418 3.64907 L -7.46455 3.6487 L -7.64907 3.46418 L -7.64937 3.46375 L -7.79904 3.25 L -7.79926 3.24953 L -7.90954 3.01303 L -7.90967 3.01253 L -7.97721 2.76047 L -7.97726 2.75995 L -8 2.5 L -7.99995 2.49948 L -7.97721 2.23953 L -7.97708 2.23902 L -7.90954 1.98697 L -7.90932 1.9865 L -7.79904 1.75 L -7.79874 1.74957 L -7.64907 1.53582 L -7.6487 1.53545 L -7.46418 1.35093 L -7.46375 1.35063 L -7.25 1.20096 L -7.24953 1.20074 L -7.01303 1.09046 L -7.01253 1.09033 L -6.76047 1.02279 L -6.75995 1.02274 L -6.5 1 L -6.49948 1.00005 L -6.23953 1.02279 L -6.23902 1.02292 L -5.98697 1.09046 L -5.9865 1.09068 L -5.75 1.20096 L -5.74957 1.20126 L -5.53582 1.35093 L -5.53545 1.3513 L -5.35093 1.53582 L -5.35063 1.53625 L -5.20096 1.75 L -5.20074 1.75047 L -5.09046 1.98697 L -5.09033 1.98748 L -5.02279 2.23953 z  M -40.4 111.3 L -40.3995 111.3 L -40.1395 111.323 L -40.139 111.323 L -39.887 111.39 L -39.8865 111.391 L -39.65 111.501 L -39.6496 111.501 L -39.4358 111.651 L -39.4354 111.651 L -39.2509 111.836 L -39.2506 111.836 L -39.101 112.05 L -39.1007 112.05 L -38.9905 112.287 L -38.9903 112.287 L -38.9228 112.54 L -38.9227 112.54 L -38.9 112.8 L -38.9 112.801 L -38.9228 113.06 L -38.9229 113.061 L -38.9905 113.313 L -38.9907 113.314 L -39.101 113.55 L -39.1013 113.55 L -39.2509 113.764 L -39.2513 113.765 L -39.4358 113.949 L -39.4362 113.949 L -39.65 114.099 L -39.6505 114.099 L -39.887 114.21 L -39.8875 114.21 L -40.1395 114.277 L -40.14 114.277 L -40.4 114.3 L -40.4005 114.3 L -40.6605 114.277 L -40.661 114.277 L -40.913 114.21 L -40.9135 114.209 L -41.15 114.099 L -41.1504 114.099 L -41.3642 113.949 L -41.3646 113.949 L -41.5491 113.764 L -41.5494 113.764 L -41.699 113.55 L -41.6993 113.55 L -41.8095 113.313 L -41.8097 113.313 L -41.8772 113.06 L -41.8773 113.06 L -41.9 112.8 L -41.9 112.799 L -41.8772 112.54 L -41.8771 112.539 L -41.8095 112.287 L -41.8093 112.286 L -41.699 112.05 L -41.6987 112.05 L -41.5491 111.836 L -41.5487 111.835 L -41.3642 111.651 L -41.3638 111.651 L -41.15 111.501 L -41.1495 111.501 L -40.913 111.39 L -40.9125 111.39 L -40.6605 111.323 L -40.66 111.323 z  M -28.0311 147.75 L -27.6819 148.249 L -27.6812 148.25 L -27.2506 148.68 L -27.2498 148.681 L -26.751 149.03 L -26.75 149.031 L -26.1982 149.288 L -26.1971 149.289 L -25.6089 149.447 L -25.6078 149.447 L -25.0012 149.5 L -25 149.5 L -24.3934 149.447 L -24.3922 149.447 L -23.8041 149.289 L -23.8029 149.289 L -23.2511 149.032 L -23.25 149.031 L -22.7512 148.682 L -22.7502 148.681 L -22.3197 148.251 L -22.3188 148.25 L -21.9696 147.751 L -21.9689 147.75 L -21.7116 147.198 L -21.7111 147.197 L -21.5535 146.609 L -21.5532 146.608 L -21.5001 146.001 L -21.5 146 L -21.5531 145.393 L -21.5532 145.392 L -21.7108 144.804 L -21.7111 144.803 L -21.9684 144.251 L -21.9689 144.25 L -22.3181 143.751 L -22.3188 143.75 L -22.7494 143.32 L -22.7502 143.319 L -23.249 142.97 L -23.25 142.969 L -23.8018 142.712 L -23.8029 142.711 L -24.3911 142.553 L -24.3922 142.553 L -24.9988 142.5 L -25 142.5 L -25.6066 142.553 L -25.6078 142.553 L -26.1959 142.711 L -26.1971 142.711 L -26.7489 142.968 L -26.75 142.969 L -27.2488 143.318 L -27.2498 143.319 L -27.6803 143.749 L -27.6812 143.75 L -28.0304 144.249 L -28.0311 144.25 L -28.2884 144.802 L -28.2889 144.803 L -28.4465 145.391 L -28.4468 145.392 L -28.4999 145.999 L -28.5 146 L -28.4469 146.607 L -28.4468 146.608 L -28.2892 147.196 L -28.2889 147.197 L -28.0316 147.749 z  M -44.9772 2.76047 L -44.9097 3.01253 L -44.9095 3.01303 L -44.7993 3.24953 L -44.799 3.25 L -44.6494 3.46375 L -44.6491 3.46418 L -44.4646 3.6487 L -44.4642 3.64907 L -44.2504 3.79874 L -44.25 3.79904 L -44.0135 3.90932 L -44.013 3.90954 L -43.761 3.97708 L -43.7605 3.97721 L -43.5005 3.99995 L -43.5 4 L -43.24 3.97726 L -43.2395 3.97721 L -42.9875 3.90967 L -42.987 3.90954 L -42.7505 3.79926 L -42.75 3.79904 L -42.5362 3.64937 L -42.5358 3.64907 L -42.3513 3.46455 L -42.3509 3.46418 L -42.2013 3.25043 L -42.201 3.25 L -42.0907 3.0135 L -42.0905 3.01303 L -42.0229 2.76098 L -42.0228 2.76047 L -42 2.50052 L -42 2.5 L -42.0227 2.24005 L -42.0228 2.23953 L -42.0903 1.98748 L -42.0905 1.98697 L -42.2007 1.75047 L -42.201 1.75 L -42.3506 1.53625 L -42.3509 1.53582 L -42.5354 1.3513 L -42.5358 1.35093 L -42.7496 1.20126 L -42.75 1.20096 L -42.9865 1.09068 L -42.987 1.09046 L -43.239 1.02292 L -43.2395 1.02279 L -43.4995 1.00005 L -43.5 1 L -43.76 1.02274 L -43.7605 1.02279 L -44.0125 1.09033 L -44.013 1.09046 L -44.2495 1.20074 L -44.25 1.20096 L -44.4638 1.35063 L -44.4642 1.35093 L -44.6487 1.53545 L -44.6491 1.53582 L -44.7987 1.74957 L -44.799 1.75 L -44.9093 1.9865 L -44.9095 1.98697 L -44.9771 2.23902 L -44.9772 2.23953 L -45 2.49948 L -45 2.5 L -44.9773 2.75995 z  M -42.0772 37.7605 L -42.0097 38.0125 L -42.0095 38.013 L -41.8993 38.2495 L -41.899 38.25 L -41.7494 38.4638 L -41.7491 38.4642 L -41.5646 38.6487 L -41.5642 38.6491 L -41.3504 38.7987 L -41.35 38.799 L -41.1135 38.9093 L -41.113 38.9095 L -40.861 38.9771 L -40.8605 38.9772 L -40.6005 39 L -40.6 39 L -40.34 38.9773 L -40.3395 38.9772 L -40.0875 38.9097 L -40.087 38.9095 L -39.8505 38.7993 L -39.85 38.799 L -39.6362 38.6494 L -39.6358 38.6491 L -39.4513 38.4646 L -39.4509 38.4642 L -39.3013 38.2504 L -39.301 38.25 L -39.1907 38.0135 L -39.1905 38.013 L -39.1229 37.761 L -39.1228 37.7605 L -39.1 37.5005 L -39.1 37.5 L -39.1227 37.24 L -39.1228 37.2395 L -39.1903 36.9875 L -39.1905 36.987 L -39.3007 36.7505 L -39.301 36.75 L -39.4506 36.5362 L -39.4509 36.5358 L -39.6354 36.3513 L -39.6358 36.3509 L -39.8496 36.2013 L -39.85 36.201 L -40.0865 36.0907 L -40.087 36.0905 L -40.339 36.0229 L -40.3395 36.0228 L -40.5995 36 L -40.6 36 L -40.86 36.0227 L -40.8605 36.0228 L -41.1125 36.0903 L -41.113 36.0905 L -41.3495 36.2007 L -41.35 36.201 L -41.5638 36.3506 L -41.5642 36.3509 L -41.7487 36.5354 L -41.7491 36.5358 L -41.8987 36.7496 L -41.899 36.75 L -42.0093 36.9865 L -42.0095 36.987 L -42.0771 37.239 L -42.0772 37.2395 L -42.1 37.4995 L -42.1 37.5 L -42.0773 37.76 z  M -44.9772 187.76 L -44.9097 188.013 L -44.9095 188.013 L -44.7993 188.25 L -44.799 188.25 L -44.6494 188.464 L -44.6491 188.464 L -44.4646 188.649 L -44.4642 188.649 L -44.2504 188.799 L -44.25 188.799 L -44.0135 188.909 L -44.013 188.91 L -43.761 188.977 L -43.7605 188.977 L -43.5005 189 L -43.5 189 L -43.24 188.977 L -43.2395 188.977 L -42.9875 188.91 L -42.987 188.91 L -42.7505 188.799 L -42.75 188.799 L -42.5362 188.649 L -42.5358 188.649 L -42.3513 188.465 L -42.3509 188.464 L -42.2013 188.25 L -42.201 188.25 L -42.0907 188.014 L -42.0905 188.013 L -42.0229 187.761 L -42.0228 187.76 L -42 187.501 L -42 187.5 L -42.0227 187.24 L -42.0228 187.24 L -42.0903 186.987 L -42.0905 186.987 L -42.2007 186.75 L -42.201 186.75 L -42.3506 186.536 L -42.3509 186.536 L -42.5354 186.351 L -42.5358 186.351 L -42.7496 186.201 L -42.75 186.201 L -42.9865 186.091 L -42.987 186.09 L -43.239 186.023 L -43.2395 186.023 L -43.4995 186 L -43.5 186 L -43.76 186.023 L -43.7605 186.023 L -44.0125 186.09 L -44.013 186.09 L -44.2495 186.201 L -44.25 186.201 L -44.4638 186.351 L -44.4642 186.351 L -44.6487 186.535 L -44.6491 186.536 L -44.7987 186.75 L -44.799 186.75 L -44.9093 186.986 L -44.9095 186.987 L -44.9771 187.239 L -44.9772 187.24 L -45 187.499 L -45 187.5 L -44.9773 187.76 z  M 0 0 L -49.9 0 L -50 0 L -50 189.62 L -50 190 L -0.1 190 L 0 190 L 0 0.38 z  M -12 114.848 L -12 39 L -12.05 39 L -37 39 L -37 39.152 L -37 115 L -36.95 115 L -12 115 z  " fill= "none" stroke="rgb(0,0,255)" stroke-width="0.05mm" />
</svg>
