<?xml version="1.0" standalone="no"?>
<!DOCTYPE svg PUBLIC "-//W3C//DTD SVG 1.1//EN"
"http://www.w3.org/Graphics/SVG/1.1/DTD/svg11.dtd">
<svg width="60.5mm" height="220mm" viewBox="-57.75 -10 60.5 220" xmlns="http://www.w3.org/2000/svg" version = "1.1">
<title>Side Panel (USB CUTOUT)].123dx</title>
<desc> made with 123D Design </desc>
<path d="M -32 77.55 L -32 102.5 L -31.98 102.5 L -22 102.5 L -22 102.45 L -22 77.5 L -22.02 77.5 L -32 77.5 z  M -6.75 157.799 L -6.53625 157.649 L -6.53582 157.649 L -6.3513 157.465 L -6.35093 157.464 L -6.20126 157.25 L -6.20096 157.25 L -6.09068 157.014 L -6.09046 157.013 L -6.02292 156.761 L -6.02279 156.76 L -6.00005 156.501 L -6 156.5 L -6.02274 156.24 L -6.02279 156.24 L -6.09033 155.987 L -6.09046 155.987 L -6.20074 155.75 L -6.20096 155.75 L -6.35063 155.536 L -6.35093 155.536 L -6.53545 155.351 L -6.53582 155.351 L -6.74957 155.201 L -6.75 155.201 L -6.9865 155.091 L -6.98697 155.09 L -7.23902 155.023 L -7.23953 155.023 L -7.49948 155 L -7.5 155 L -7.75995 155.023 L -7.76047 155.023 L -8.01253 155.09 L -8.01303 155.09 L -8.24953 155.201 L -8.25 155.201 L -8.46375 155.351 L -8.46418 155.351 L -8.6487 155.535 L -8.64907 155.536 L -8.79874 155.75 L -8.79904 155.75 L -8.90932 155.986 L -8.90954 155.987 L -8.97708 156.239 L -8.97721 156.24 L -8.99995 156.499 L -9 156.5 L -8.97726 156.76 L -8.97721 156.76 L -8.90967 157.013 L -8.90954 157.013 L -8.79926 157.25 L -8.79904 157.25 L -8.64937 157.464 L -8.64907 157.464 L -8.46455 157.649 L -8.46418 157.649 L -8.25043 157.799 L -8.25 157.799 L -8.0135 157.909 L -8.01303 157.91 L -7.76098 157.977 L -7.76047 157.977 L -7.50052 158 L -7.5 158 L -7.24005 157.977 L -7.23953 157.977 L -6.98747 157.91 L -6.98697 157.91 L -6.75047 157.799 z  M -6.09046 22.987 L -6.09033 22.9875 L -6.02279 23.2395 L -6.02274 23.24 L -6 23.5 L -6.00005 23.5005 L -6.02279 23.7605 L -6.02292 23.761 L -6.09046 24.013 L -6.09068 24.0135 L -6.20096 24.25 L -6.20126 24.2504 L -6.35093 24.4642 L -6.3513 24.4646 L -6.53582 24.6491 L -6.53625 24.6494 L -6.75 24.799 L -6.75047 24.7993 L -6.98697 24.9095 L -6.98747 24.9097 L -7.23953 24.9772 L -7.24005 24.9773 L -7.5 25 L -7.50052 25 L -7.76047 24.9772 L -7.76098 24.9771 L -8.01303 24.9095 L -8.0135 24.9093 L -8.25 24.799 L -8.25043 24.7987 L -8.46418 24.6491 L -8.46455 24.6487 L -8.64907 24.4642 L -8.64937 24.4638 L -8.79904 24.25 L -8.79926 24.2495 L -8.90954 24.013 L -8.90967 24.0125 L -8.97721 23.7605 L -8.97726 23.76 L -9 23.5 L -8.99995 23.4995 L -8.97721 23.2395 L -8.97708 23.239 L -8.90954 22.987 L -8.90932 22.9865 L -8.79904 22.75 L -8.79874 22.7496 L -8.64907 22.5358 L -8.6487 22.5354 L -8.46418 22.3509 L -8.46375 22.3506 L -8.25 22.201 L -8.24953 22.2007 L -8.01303 22.0905 L -8.01253 22.0903 L -7.76047 22.0228 L -7.75995 22.0227 L -7.5 22 L -7.49948 22 L -7.23953 22.0228 L -7.23902 22.0229 L -6.98697 22.0905 L -6.9865 22.0907 L -6.75 22.201 L -6.74957 22.2013 L -6.53582 22.3509 L -6.53545 22.3513 L -6.35093 22.5358 L -6.35063 22.5362 L -6.20096 22.75 L -6.20074 22.7505 z  M -50.8682 65.076 L -50.0017 65.0002 L -50 65 L -50 64.93 L -50 30 L -49.992 29.994 L -46 27 L -44.3234 29.2355 L -44.32 29.24 L -45.318 29.9885 L -45.32 29.99 L -43.5236 32.3852 L -43.52 32.39 L -42.522 31.6415 L -42.52 31.64 L -40.7236 34.0352 L -40.72 34.04 L -38.3248 32.2436 L -38.32 32.24 L -40.1164 29.8448 L -40.12 29.84 L -39.122 29.0915 L -39.12 29.09 L -40.9164 26.6948 L -40.92 26.69 L -41.918 27.4385 L -41.92 27.44 L -43.5966 25.2045 L -43.6 25.2 L -43.5456 25.1592 L -16.4 4.8 L -14.6036 7.1952 L -14.6 7.2 L -15.598 7.9485 L -15.6 7.95 L -13.8036 10.3452 L -13.8 10.35 L -12.802 9.6015 L -12.8 9.6 L -11.0036 11.9952 L -11 12 L -8.6048 10.2036 L -8.6 10.2 L -10.3964 7.8048 L -10.4 7.8 L -9.402 7.0515 L -9.4 7.05 L -11.1964 4.6548 L -11.2 4.65 L -12.198 5.3985 L -12.2 5.4 L -12.2036 5.3952 L -14 3 L -13.992 2.994 L -10 0 L -9.98 0 L 0 0 L 0 0.38 L 0 190 L -0.08 190 L -40 190 L -40 190.02 L -40 200 L -40.02 200 L -50 200 L -50 199.84 L -50 120 L -49.99 120 L -45 120 L -45 119.94 L -45 90 L -45.01 90 L -50 90 L -50 89.97 L -50 75 L -50.8665 74.9242 L -50.8682 74.924 L -51.7084 74.6989 L -51.7101 74.6985 L -52.4984 74.3309 L -52.5 74.3301 L -53.2125 73.8312 L -53.2139 73.8302 L -53.829 73.2152 L -53.8302 73.2139 L -54.3291 72.5014 L -54.3301 72.5 L -54.6977 71.7117 L -54.6985 71.7101 L -54.9236 70.8699 L -54.924 70.8682 L -54.9998 70.0017 L -55 70 L -54.9242 69.1335 L -54.924 69.1318 L -54.6989 68.2916 L -54.6985 68.2899 L -54.3309 67.5016 L -54.3301 67.5 L -53.8312 66.7875 L -53.8302 66.7861 L -53.2152 66.171 L -53.2139 66.1698 L -52.5014 65.6709 L -52.5 65.6699 L -51.7117 65.3023 L -51.7101 65.3015 L -50.8699 65.0764 z  M -46.5358 53.8509 L -46.5354 53.8513 L -46.3509 54.0358 L -46.3506 54.0363 L -46.201 54.25 L -46.2007 54.2505 L -46.0905 54.487 L -46.0903 54.4875 L -46.0228 54.7395 L -46.0227 54.74 L -46 55 L -46 55.0005 L -46.0228 55.2605 L -46.0229 55.261 L -46.0905 55.513 L -46.0907 55.5135 L -46.201 55.75 L -46.2013 55.7504 L -46.3509 55.9642 L -46.3513 55.9646 L -46.5358 56.1491 L -46.5363 56.1494 L -46.75 56.299 L -46.7505 56.2993 L -46.987 56.4095 L -46.9875 56.4097 L -47.2395 56.4772 L -47.24 56.4773 L -47.5 56.5 L -47.5005 56.5 L -47.7605 56.4772 L -47.761 56.4771 L -48.013 56.4095 L -48.0135 56.4093 L -48.25 56.299 L -48.2504 56.2987 L -48.4642 56.1491 L -48.4646 56.1487 L -48.6491 55.9642 L -48.6494 55.9637 L -48.799 55.75 L -48.7993 55.7495 L -48.9095 55.513 L -48.9097 55.5125 L -48.9772 55.2605 L -48.9773 55.26 L -49 55 L -49 54.9995 L -48.9772 54.7395 L -48.9771 54.739 L -48.9095 54.487 L -48.9093 54.4865 L -48.799 54.25 L -48.7987 54.2496 L -48.6491 54.0358 L -48.6487 54.0354 L -48.4642 53.8509 L -48.4637 53.8506 L -48.25 53.701 L -48.2495 53.7007 L -48.013 53.5905 L -48.0125 53.5903 L -47.7605 53.5228 L -47.76 53.5227 L -47.5 53.5 L -47.4995 53.5 L -47.2395 53.5228 L -47.239 53.5229 L -46.987 53.5905 L -46.9865 53.5907 L -46.75 53.701 L -46.7496 53.7013 z  M -48.9095 155.513 L -48.9097 155.513 L -48.9772 155.26 L -48.9773 155.26 L -49 155 L -49 154.999 L -48.9772 154.74 L -48.9771 154.739 L -48.9095 154.487 L -48.9093 154.486 L -48.799 154.25 L -48.7987 154.25 L -48.6491 154.036 L -48.6487 154.035 L -48.4642 153.851 L -48.4637 153.851 L -48.25 153.701 L -48.2495 153.701 L -48.013 153.59 L -48.0125 153.59 L -47.7605 153.523 L -47.76 153.523 L -47.5 153.5 L -47.4995 153.5 L -47.2395 153.523 L -47.239 153.523 L -46.987 153.59 L -46.9865 153.591 L -46.75 153.701 L -46.7496 153.701 L -46.5358 153.851 L -46.5354 153.851 L -46.3509 154.036 L -46.3506 154.036 L -46.201 154.25 L -46.2007 154.25 L -46.0905 154.487 L -46.0903 154.487 L -46.0228 154.74 L -46.0227 154.74 L -46 155 L -46 155.001 L -46.0228 155.26 L -46.0229 155.261 L -46.0905 155.513 L -46.0907 155.514 L -46.201 155.75 L -46.2013 155.75 L -46.3509 155.964 L -46.3513 155.965 L -46.5358 156.149 L -46.5363 156.149 L -46.75 156.299 L -46.7505 156.299 L -46.987 156.41 L -46.9875 156.41 L -47.2395 156.477 L -47.24 156.477 L -47.5 156.5 L -47.5005 156.5 L -47.7605 156.477 L -47.761 156.477 L -48.013 156.41 L -48.0135 156.409 L -48.25 156.299 L -48.2504 156.299 L -48.4642 156.149 L -48.4646 156.149 L -48.6491 155.964 L -48.6494 155.964 L -48.799 155.75 L -48.7993 155.75 z  M -45 197 L -44.6534 196.97 L -44.6527 196.97 L -44.3166 196.88 L -44.316 196.879 L -44.0006 196.732 L -44 196.732 L -43.715 196.532 L -43.7144 196.532 L -43.4684 196.286 L -43.4679 196.286 L -43.2684 196.001 L -43.268 196 L -43.1209 195.685 L -43.1206 195.684 L -43.0306 195.348 L -43.0304 195.347 L -43.0001 195.001 L -43 195 L -43.0303 194.653 L -43.0304 194.653 L -43.1204 194.317 L -43.1206 194.316 L -43.2677 194.001 L -43.268 194 L -43.4675 193.715 L -43.4679 193.714 L -43.7139 193.468 L -43.7144 193.468 L -43.9994 193.268 L -44 193.268 L -44.3153 193.121 L -44.316 193.121 L -44.652 193.031 L -44.6527 193.03 L -44.9993 193 L -45 193 L -45.3466 193.03 L -45.3473 193.03 L -45.6834 193.12 L -45.684 193.121 L -45.9994 193.268 L -46 193.268 L -46.285 193.468 L -46.2856 193.468 L -46.5316 193.714 L -46.5321 193.714 L -46.7316 193.999 L -46.732 194 L -46.8791 194.315 L -46.8794 194.316 L -46.9694 194.652 L -46.9696 194.653 L -46.9999 194.999 L -47 195 L -46.9697 195.347 L -46.9696 195.347 L -46.8796 195.683 L -46.8794 195.684 L -46.7323 195.999 L -46.732 196 L -46.5325 196.285 L -46.5321 196.286 L -46.2861 196.532 L -46.2856 196.532 L -46.0006 196.732 L -46 196.732 L -45.6847 196.879 L -45.684 196.879 L -45.348 196.969 L -45.3473 196.97 L -45.0007 197 z  M -15 184.99 L -15 180 L -15.04 180 L -35 180 L -35 180.01 L -35 185 L -34.96 185 L -15 185 z  M -10 75 L -5.01 75 L -5 75 L -5 104.94 L -5 105 L -9.99 105 L -10 105 L -10 75.06 z  " fill= "none" stroke="rgb(0,0,255)" stroke-width="0.05mm" />
</svg>
