<?xml version="1.0" standalone="no"?>
<!DOCTYPE svg PUBLIC "-//W3C//DTD SVG 1.1//EN"
"http://www.w3.org/Graphics/SVG/1.1/DTD/svg11.dtd">
<svg width="170.5mm" height="209mm" viewBox="-162.75 -14.5 170.5 209" xmlns="http://www.w3.org/2000/svg" version = "1.1">
<title>Top Panel.123dx</title>
<desc> made with 123D Design </desc>
<path d="M -82.4875 91.4097 L -82.487 91.4095 L -82.2505 91.2993 L -82.25 91.299 L -82.0362 91.1494 L -82.0358 91.1491 L -81.8513 90.9646 L -81.8509 90.9642 L -81.7013 90.7504 L -81.701 90.75 L -81.5907 90.5135 L -81.5905 90.513 L -81.5229 90.261 L -81.5228 90.2605 L -81.5 90.0005 L -81.5 90 L -81.5227 89.7401 L -81.5228 89.7395 L -81.5903 89.4875 L -81.5905 89.487 L -81.7007 89.2505 L -81.701 89.25 L -81.8506 89.0362 L -81.8509 89.0358 L -82.0354 88.8513 L -82.0358 88.8509 L -82.2496 88.7013 L -82.25 88.701 L -82.4865 88.5907 L -82.487 88.5905 L -82.739 88.5229 L -82.7395 88.5228 L -82.9995 88.5001 L -83 88.5 L -83.2599 88.5227 L -83.2605 88.5228 L -83.5125 88.5903 L -83.513 88.5905 L -83.7495 88.7007 L -83.75 88.701 L -83.9638 88.8506 L -83.9642 88.8509 L -84.1487 89.0354 L -84.1491 89.0358 L -84.2987 89.2496 L -84.299 89.25 L -84.4093 89.4865 L -84.4095 89.487 L -84.4771 89.739 L -84.4772 89.7395 L -84.5 89.9995 L -84.5 90 L -84.4773 90.2599 L -84.4772 90.2605 L -84.4097 90.5125 L -84.4095 90.513 L -84.2993 90.7495 L -84.299 90.75 L -84.1494 90.9638 L -84.1491 90.9642 L -83.9646 91.1487 L -83.9642 91.1491 L -83.7504 91.2987 L -83.75 91.299 L -83.5135 91.4093 L -83.513 91.4095 L -83.261 91.4771 L -83.2605 91.4772 L -83.0005 91.4999 L -83 91.5 L -82.74 91.4773 L -82.7395 91.4772 z  M -101.71 85.3015 L -101.708 85.3011 L -100.868 85.076 L -100.867 85.0758 L -100 85 L -99.9983 85.0002 L -99.1318 85.076 L -99.1301 85.0764 L -98.2899 85.3015 L -98.2883 85.3023 L -97.5 85.6699 L -97.4986 85.6709 L -96.7861 86.1698 L -96.7848 86.171 L -96.1698 86.7861 L -96.1688 86.7875 L -95.6699 87.5 L -95.6691 87.5016 L -95.3015 88.2899 L -95.3011 88.2916 L -95.076 89.1318 L -95.0758 89.1335 L -95 90 L -95.0002 90.0017 L -95.076 90.8682 L -95.0764 90.8699 L -95.3015 91.7101 L -95.3023 91.7117 L -95.6699 92.5 L -95.6709 92.5014 L -96.1698 93.2139 L -96.171 93.2152 L -96.7861 93.8302 L -96.7875 93.8312 L -97.5 94.3301 L -97.5016 94.3309 L -98.2899 94.6985 L -98.2916 94.6989 L -99.1318 94.924 L -99.1335 94.9242 L -100 95 L -100.002 94.9998 L -100.868 94.924 L -100.87 94.9236 L -101.71 94.6985 L -101.712 94.6977 L -102.5 94.3301 L -102.501 94.3291 L -103.214 93.8302 L -103.215 93.829 L -103.83 93.2139 L -103.831 93.2125 L -104.33 92.5 L -104.331 92.4984 L -104.698 91.7101 L -104.699 91.7084 L -104.924 90.8682 L -104.924 90.8665 L -105 90 L -105 89.9983 L -104.924 89.1318 L -104.924 89.1301 L -104.698 88.2899 L -104.698 88.2883 L -104.33 87.5 L -104.329 87.4986 L -103.83 86.7861 L -103.829 86.7848 L -103.214 86.1698 L -103.213 86.1688 L -102.5 85.6699 L -102.498 85.6691 z  M -27.75 8 L -27.7475 8 L -26.5 8 L -26.5 7.984 L -26.5 7.62939e-006 L -59.933 1.52588e-008 L -60 0 L -60 -4.99 L -60 -5 L -89.94 -5 L -90 -5 L -90 -0.01 L -90 0 L -123.433 7.61414e-006 L -123.5 7.62939e-006 L -123.5 0.0160076 L -123.5 8 L -123.498 8 L -122.25 8 L -122.25 8.006 L -122.25 11 L -122.253 11 L -123.5 11 L -123.5 11.014 L -123.5 18 L -123.506 18 L -126.5 18 L -126.5 17.986 L -126.5 11 L -126.503 11 L -127.75 11 L -127.75 10.994 L -127.75 8 L -127.748 8 L -126.5 8 L -126.5 7.984 L -126.5 7.62939e-006 L -149.953 1.52588e-008 L -150 0 L -150 41.916 L -150 42 L -149.984 42 L -142 42 L -142 41.9975 L -142 40.75 L -141.994 40.75 L -139 40.75 L -139 40.7525 L -139 42 L -138.986 42 L -132 42 L -132 42.006 L -132 45 L -132.014 45 L -139 45 L -139 45.0025 L -139 46.25 L -139.006 46.25 L -142 46.25 L -142 46.2475 L -142 45 L -142.016 45 L -150 45 L -150 74.94 L -150 75 L -154.99 75 L -155 75 L -155 104.94 L -155 105 L -150.01 105 L -150 105 L -150 134.94 L -150 135 L -149.984 135 L -142 135 L -142 134.998 L -142 133.75 L -141.994 133.75 L -139 133.75 L -139 133.752 L -139 135 L -138.986 135 L -132 135 L -132 135.006 L -132 138 L -132.014 138 L -139 138 L -139 138.003 L -139 139.25 L -139.006 139.25 L -142 139.25 L -142 139.248 L -142 138 L -142.016 138 L -150 138 L -150 179.916 L -150 180 L -126.547 180 L -126.5 180 L -126.5 179.984 L -126.5 172 L -126.503 172 L -127.75 172 L -127.75 171.994 L -127.75 169 L -127.748 169 L -126.5 169 L -126.5 168.986 L -126.5 162 L -126.494 162 L -123.5 162 L -123.5 162.014 L -123.5 169 L -123.498 169 L -122.25 169 L -122.25 169.006 L -122.25 172 L -122.253 172 L -123.5 172 L -123.5 172.016 L -123.5 180 L -90.067 180 L -90 180 L -90 184.99 L -90 185 L -60.06 185 L -60 185 L -60 180.01 L -60 180 L -26.567 180 L -26.5 180 L -26.5 179.984 L -26.5 172 L -26.5025 172 L -27.75 172 L -27.75 171.994 L -27.75 169 L -27.7475 169 L -26.5 169 L -26.5 168.986 L -26.5 162 L -26.494 162 L -23.5 162 L -23.5 162.014 L -23.5 169 L -23.4975 169 L -22.25 169 L -22.25 169.006 L -22.25 172 L -22.2525 172 L -23.5 172 L -23.5 172.016 L -23.5 180 L -0.047 180 L 0 180 L 0 0.36 L 0 0 L -23.453 7.61414e-006 L -23.5 7.62939e-006 L -23.5 0.0160076 L -23.5 8 L -23.4975 8 L -22.25 8 L -22.25 8.006 L -22.25 11 L -22.2525 11 L -23.5 11 L -23.5 11.014 L -23.5 18 L -23.506 18 L -26.5 18 L -26.5 17.986 L -26.5 11 L -26.5025 11 L -27.75 11 L -27.75 10.994 z  M -68.1491 89.0358 L -68.1487 89.0354 L -67.9642 88.8509 L -67.9638 88.8506 L -67.75 88.701 L -67.7495 88.7007 L -67.513 88.5905 L -67.5125 88.5903 L -67.2605 88.5228 L -67.26 88.5227 L -67 88.5 L -66.9995 88.5001 L -66.7395 88.5228 L -66.739 88.5229 L -66.487 88.5905 L -66.4865 88.5907 L -66.25 88.701 L -66.2496 88.7013 L -66.0358 88.8509 L -66.0354 88.8513 L -65.8509 89.0358 L -65.8506 89.0362 L -65.701 89.25 L -65.7007 89.2505 L -65.5905 89.487 L -65.5903 89.4875 L -65.5228 89.7395 L -65.5227 89.7401 L -65.5 90 L -65.5 90.0005 L -65.5228 90.2605 L -65.5229 90.261 L -65.5905 90.513 L -65.5907 90.5135 L -65.701 90.75 L -65.7013 90.7504 L -65.8509 90.9642 L -65.8513 90.9646 L -66.0358 91.1491 L -66.0362 91.1494 L -66.25 91.299 L -66.2505 91.2993 L -66.487 91.4095 L -66.4875 91.4097 L -66.7395 91.4772 L -66.74 91.4773 L -67 91.5 L -67.0005 91.4999 L -67.2605 91.4772 L -67.261 91.4771 L -67.513 91.4095 L -67.5135 91.4093 L -67.75 91.299 L -67.7504 91.2987 L -67.9642 91.1491 L -67.9646 91.1487 L -68.1491 90.9642 L -68.1494 90.9638 L -68.299 90.75 L -68.2993 90.7495 L -68.4095 90.513 L -68.4097 90.5125 L -68.4772 90.2605 L -68.4773 90.2599 L -68.5 90 L -68.5 89.9995 L -68.4772 89.7395 L -68.4771 89.739 L -68.4095 89.487 L -68.4093 89.4865 L -68.299 89.25 L -68.2987 89.2496 z  M -74.739 79.0229 L -74.487 79.0905 L -74.4865 79.0907 L -74.25 79.201 L -74.2496 79.2013 L -74.0358 79.3509 L -74.0354 79.3513 L -73.8509 79.5358 L -73.8506 79.5362 L -73.701 79.75 L -73.7007 79.7505 L -73.5905 79.987 L -73.5903 79.9875 L -73.5228 80.2395 L -73.5227 80.24 L -73.5 80.5 L -73.5 80.5005 L -73.5228 80.7605 L -73.5229 80.761 L -73.5905 81.013 L -73.5907 81.0135 L -73.701 81.25 L -73.7013 81.2504 L -73.8509 81.4642 L -73.8513 81.4646 L -74.0358 81.6491 L -74.0363 81.6494 L -74.25 81.799 L -74.2505 81.7993 L -74.487 81.9095 L -74.4875 81.9097 L -74.7395 81.9772 L -74.74 81.9773 L -75 82 L -75.0005 82 L -75.2605 81.9772 L -75.261 81.9771 L -75.513 81.9095 L -75.5135 81.9093 L -75.75 81.799 L -75.7504 81.7987 L -75.9642 81.6491 L -75.9646 81.6487 L -76.1491 81.4642 L -76.1494 81.4638 L -76.299 81.25 L -76.2993 81.2495 L -76.4095 81.013 L -76.4097 81.0125 L -76.4772 80.7605 L -76.4773 80.7599 L -76.5 80.5 L -76.5 80.4995 L -76.4772 80.2395 L -76.4771 80.239 L -76.4095 79.987 L -76.4093 79.9865 L -76.299 79.75 L -76.2987 79.7496 L -76.1491 79.5358 L -76.1487 79.5354 L -75.9642 79.3509 L -75.9637 79.3506 L -75.75 79.201 L -75.7495 79.2007 L -75.513 79.0905 L -75.5125 79.0903 L -75.2605 79.0228 L -75.26 79.0227 L -75 79 L -74.9995 79 L -74.7395 79.0228 z  M -92.487 9.90955 L -92.2505 9.79927 L -92.25 9.79905 L -92.0362 9.64937 L -92.0358 9.64907 L -91.8513 9.46456 L -91.8509 9.46419 L -91.7013 9.25044 L -91.701 9.25001 L -91.5907 9.01351 L -91.5905 9.01304 L -91.5229 8.76098 L -91.5228 8.76048 L -91.5001 8.50053 L -91.5 8.50001 L -91.5227 8.24006 L -91.5228 8.23954 L -91.5903 7.98748 L -91.5905 7.98698 L -91.7007 7.75048 L -91.701 7.75001 L -91.8506 7.53625 L -91.8509 7.53583 L -92.0354 7.35131 L -92.0358 7.35094 L -92.2496 7.20127 L -92.25 7.20097 L -92.4865 7.09069 L -92.487 7.09047 L -92.739 7.02293 L -92.7395 7.0228 L -92.9995 7.00005 L -93 7.00001 L -93.26 7.02275 L -93.2605 7.0228 L -93.5125 7.09033 L -93.513 7.09047 L -93.7495 7.20075 L -93.75 7.20097 L -93.9638 7.35064 L -93.9642 7.35094 L -94.1487 7.53546 L -94.1491 7.53583 L -94.2987 7.74958 L -94.299 7.75001 L -94.4093 7.9865 L -94.4095 7.98698 L -94.4771 8.23903 L -94.4772 8.23954 L -94.5 8.49949 L -94.5 8.50001 L -94.4773 8.75996 L -94.4772 8.76048 L -94.4097 9.01253 L -94.4095 9.01304 L -94.2993 9.24953 L -94.299 9.25001 L -94.1494 9.46376 L -94.1491 9.46419 L -93.9646 9.6487 L -93.9642 9.64907 L -93.7504 9.79875 L -93.75 9.79905 L -93.5135 9.90933 L -93.513 9.90955 L -93.261 9.97708 L -93.2605 9.97722 L -93.0005 9.99996 L -93 10 L -92.7401 9.97726 L -92.7395 9.97722 L -92.4875 9.90968 z  M -79.1854 90.738 L -78.9941 91.4522 L -78.9937 91.4536 L -78.6812 92.1237 L -78.6806 92.125 L -78.2565 92.7306 L -78.2557 92.7318 L -77.7329 93.2546 L -77.7318 93.2557 L -77.1262 93.6798 L -77.125 93.6806 L -76.4549 93.9931 L -76.4536 93.9937 L -75.7394 94.185 L -75.738 94.1854 L -75.0015 94.2499 L -75 94.25 L -74.2635 94.1856 L -74.262 94.1854 L -73.5478 93.9941 L -73.5464 93.9937 L -72.8763 93.6812 L -72.875 93.6806 L -72.2694 93.2565 L -72.2682 93.2557 L -71.7454 92.7329 L -71.7443 92.7318 L -71.3202 92.1262 L -71.3194 92.125 L -71.0069 91.4549 L -71.0063 91.4536 L -70.8149 90.7394 L -70.8146 90.738 L -70.7501 90.0015 L -70.75 90 L -70.8144 89.2635 L -70.8146 89.262 L -71.0059 88.5478 L -71.0063 88.5464 L -71.3188 87.8763 L -71.3194 87.875 L -71.7435 87.2694 L -71.7443 87.2682 L -72.2671 86.7454 L -72.2682 86.7443 L -72.8738 86.3202 L -72.875 86.3194 L -73.5451 86.0069 L -73.5464 86.0063 L -74.2606 85.815 L -74.262 85.8146 L -74.9985 85.7501 L -75 85.75 L -75.7365 85.8144 L -75.738 85.8146 L -76.4522 86.0059 L -76.4536 86.0063 L -77.1237 86.3188 L -77.125 86.3194 L -77.7306 86.7435 L -77.7318 86.7443 L -78.2546 87.2671 L -78.2557 87.2682 L -78.6798 87.8738 L -78.6806 87.875 L -78.9931 88.5451 L -78.9937 88.5464 L -79.1851 89.2606 L -79.1854 89.262 L -79.2499 89.9985 L -79.25 90 L -79.1856 90.7365 z  M -110.977 8.76048 L -110.91 9.01253 L -110.91 9.01304 L -110.799 9.24953 L -110.799 9.25001 L -110.649 9.46376 L -110.649 9.46419 L -110.465 9.6487 L -110.464 9.64907 L -110.25 9.79875 L -110.25 9.79905 L -110.014 9.90933 L -110.013 9.90955 L -109.761 9.97708 L -109.76 9.97722 L -109.501 9.99996 L -109.5 10 L -109.24 9.97726 L -109.24 9.97722 L -108.987 9.90968 L -108.987 9.90955 L -108.75 9.79927 L -108.75 9.79905 L -108.536 9.64937 L -108.536 9.64907 L -108.351 9.46456 L -108.351 9.46419 L -108.201 9.25044 L -108.201 9.25001 L -108.091 9.01351 L -108.09 9.01304 L -108.023 8.76098 L -108.023 8.76048 L -108 8.50053 L -108 8.50001 L -108.023 8.24006 L -108.023 8.23954 L -108.09 7.98748 L -108.09 7.98698 L -108.201 7.75048 L -108.201 7.75001 L -108.351 7.53625 L -108.351 7.53583 L -108.535 7.35131 L -108.536 7.35094 L -108.75 7.20127 L -108.75 7.20097 L -108.986 7.09069 L -108.987 7.09047 L -109.239 7.02293 L -109.24 7.0228 L -109.499 7.00005 L -109.5 7.00001 L -109.76 7.02275 L -109.76 7.0228 L -110.013 7.09033 L -110.013 7.09047 L -110.25 7.20075 L -110.25 7.20097 L -110.464 7.35064 L -110.464 7.35094 L -110.649 7.53546 L -110.649 7.53583 L -110.799 7.74958 L -110.799 7.75001 L -110.909 7.9865 L -110.91 7.98698 L -110.977 8.23903 L -110.977 8.23954 L -111 8.49949 L -111 8.50001 L -110.977 8.75996 z  M -76.4772 99.7605 L -76.4097 100.013 L -76.4095 100.013 L -76.2993 100.25 L -76.299 100.25 L -76.1494 100.464 L -76.1491 100.464 L -75.9646 100.649 L -75.9642 100.649 L -75.7504 100.799 L -75.75 100.799 L -75.5135 100.909 L -75.513 100.91 L -75.261 100.977 L -75.2605 100.977 L -75.0005 101 L -75 101 L -74.74 100.977 L -74.7395 100.977 L -74.4875 100.91 L -74.487 100.91 L -74.2505 100.799 L -74.25 100.799 L -74.0363 100.649 L -74.0358 100.649 L -73.8513 100.465 L -73.8509 100.464 L -73.7013 100.25 L -73.701 100.25 L -73.5907 100.014 L -73.5905 100.013 L -73.5229 99.761 L -73.5228 99.7605 L -73.5 99.5005 L -73.5 99.5 L -73.5227 99.2401 L -73.5228 99.2395 L -73.5903 98.9875 L -73.5905 98.987 L -73.7007 98.7505 L -73.701 98.75 L -73.8506 98.5362 L -73.8509 98.5358 L -74.0354 98.3513 L -74.0358 98.3509 L -74.2496 98.2013 L -74.25 98.201 L -74.4865 98.0907 L -74.487 98.0905 L -74.739 98.0229 L -74.7395 98.0228 L -74.9995 98 L -75 98 L -75.26 98.0227 L -75.2605 98.0228 L -75.5125 98.0903 L -75.513 98.0905 L -75.7495 98.2007 L -75.75 98.201 L -75.9637 98.3506 L -75.9642 98.3509 L -76.1487 98.5354 L -76.1491 98.5358 L -76.2987 98.7496 L -76.299 98.75 L -76.4093 98.9865 L -76.4095 98.987 L -76.4771 99.239 L -76.4772 99.2395 L -76.5 99.4995 L -76.5 99.5 L -76.4773 99.76 z  M -106 11.5 L -106 5.51201 L -106 5.50001 L -97.517 5.50001 L -97.5 5.50001 L -97.5 11.488 L -97.5 11.5 L -105.983 11.5 z  " fill= "none" stroke="rgb(0,0,255)" stroke-width="0.05mm" />
</svg>
