<?xml version="1.0" standalone="no"?>
<!DOCTYPE svg PUBLIC "-//W3C//DTD SVG 1.1//EN"
"http://www.w3.org/Graphics/SVG/1.1/DTD/svg11.dtd">
<svg width="59.4mm" height="209mm" viewBox="-57.7 -14.5 59.4 209" xmlns="http://www.w3.org/2000/svg" version = "1.1">
<title>Back Top Panel.123dx</title>
<desc> made with 123D Design </desc>
<path d="M -54.983 1.52588e-008 L -46.5 7.62939e-006 L -46.5 7.984 L -46.5 8 L -47.7475 8 L -47.75 8 L -47.75 10.994 L -47.75 11 L -46.5025 11 L -46.5 11 L -46.5 17.986 L -46.5 18 L -43.506 18 L -43.5 18 L -43.5 11.014 L -43.5 11 L -42.2525 11 L -42.25 11 L -42.25 8.006 L -42.25 8 L -43.4975 8 L -43.5 8 L -43.5 0.0160076 L -43.5 7.62939e-006 L -43.483 7.61414e-006 L -35 0 L -35 -0.01 L -35 -5 L -34.97 -5 L -20 -5 L -20 -4.99 L -20 0 L -19.983 1.52588e-008 L -11.5 7.62939e-006 L -11.5 7.984 L -11.5 8 L -12.7475 8 L -12.75 8 L -12.75 10.994 L -12.75 11 L -11.5025 11 L -11.5 11 L -11.5 17.986 L -11.5 18 L -8.506 18 L -8.5 18 L -8.5 11.014 L -8.5 11 L -7.2525 11 L -7.25 11 L -7.25 8.006 L -7.25 8 L -8.4975 8 L -8.5 8 L -8.5 0.0160076 L -8.5 7.62939e-006 L -8.485 7.61414e-006 L -1.00002 0 L -1.00002 0.36 L -1.00002 180 L -1.01502 180 L -8.5 180 L -8.5 172.016 L -8.5 172 L -7.2525 172 L -7.25 172 L -7.25 169.006 L -7.25 169 L -8.4975 169 L -8.5 169 L -8.5 162.014 L -8.5 162 L -11.494 162 L -11.5 162 L -11.5 168.986 L -11.5 169 L -12.7475 169 L -12.75 169 L -12.75 171.994 L -12.75 172 L -11.5025 172 L -11.5 172 L -11.5 179.984 L -11.5 180 L -11.517 180 L -20 180 L -20 180.01 L -20 185 L -20.03 185 L -35 185 L -35 184.99 L -35 180 L -35.017 180 L -43.5 180 L -43.5 172.016 L -43.5 172 L -42.2525 172 L -42.25 172 L -42.25 169.006 L -42.25 169 L -43.4975 169 L -43.5 169 L -43.5 162.014 L -43.5 162 L -46.494 162 L -46.5 162 L -46.5 168.986 L -46.5 169 L -47.7475 169 L -47.75 169 L -47.75 171.994 L -47.75 172 L -46.5025 172 L -46.5 172 L -46.5 179.984 L -46.5 180 L -46.517 180 L -55 180 L -55 179.85 L -55 105 L -54.99 105 L -50 105 L -50 104.94 L -50 75 L -50.01 75 L -55 75 L -55 74.85 L -55 0 z  M -52.5 133.5 L -52.4995 133.5 L -52.2395 133.523 L -52.239 133.523 L -51.987 133.59 L -51.9865 133.591 L -51.75 133.701 L -51.7496 133.701 L -51.5358 133.851 L -51.5354 133.851 L -51.3509 134.036 L -51.3506 134.036 L -51.201 134.25 L -51.2007 134.25 L -51.0905 134.487 L -51.0903 134.487 L -51.0228 134.74 L -51.0227 134.74 L -51 135 L -51 135.001 L -51.0228 135.26 L -51.0229 135.261 L -51.0905 135.513 L -51.0907 135.514 L -51.201 135.75 L -51.2013 135.75 L -51.3509 135.964 L -51.3513 135.965 L -51.5358 136.149 L -51.5363 136.149 L -51.75 136.299 L -51.7505 136.299 L -51.987 136.41 L -51.9875 136.41 L -52.2395 136.477 L -52.24 136.477 L -52.5 136.5 L -52.5005 136.5 L -52.7605 136.477 L -52.761 136.477 L -53.013 136.41 L -53.0135 136.409 L -53.25 136.299 L -53.2504 136.299 L -53.4642 136.149 L -53.4646 136.149 L -53.6491 135.964 L -53.6494 135.964 L -53.799 135.75 L -53.7993 135.75 L -53.9095 135.513 L -53.9097 135.513 L -53.9772 135.26 L -53.9773 135.26 L -54 135 L -54 134.999 L -53.9772 134.74 L -53.9771 134.739 L -53.9095 134.487 L -53.9093 134.486 L -53.799 134.25 L -53.7987 134.25 L -53.6491 134.036 L -53.6487 134.035 L -53.4642 133.851 L -53.4637 133.851 L -53.25 133.701 L -53.2495 133.701 L -53.013 133.59 L -53.0125 133.59 L -52.7605 133.523 L -52.76 133.523 z  M -51.0903 44.4875 L -51.0228 44.7395 L -51.0227 44.74 L -51 45 L -51 45.0005 L -51.0228 45.2605 L -51.0229 45.261 L -51.0905 45.513 L -51.0907 45.5135 L -51.201 45.75 L -51.2013 45.7504 L -51.3509 45.9642 L -51.3513 45.9646 L -51.5358 46.1491 L -51.5363 46.1494 L -51.75 46.299 L -51.7505 46.2993 L -51.987 46.4095 L -51.9875 46.4097 L -52.2395 46.4772 L -52.24 46.4773 L -52.5 46.5 L -52.5005 46.5 L -52.7605 46.4772 L -52.761 46.4771 L -53.013 46.4095 L -53.0135 46.4093 L -53.25 46.299 L -53.2504 46.2987 L -53.4642 46.1491 L -53.4646 46.1487 L -53.6491 45.9642 L -53.6494 45.9637 L -53.799 45.75 L -53.7993 45.7495 L -53.9095 45.513 L -53.9097 45.5125 L -53.9772 45.2605 L -53.9773 45.26 L -54 45 L -54 44.9995 L -53.9772 44.7395 L -53.9771 44.739 L -53.9095 44.487 L -53.9093 44.4865 L -53.799 44.25 L -53.7987 44.2496 L -53.6491 44.0358 L -53.6487 44.0354 L -53.4642 43.8509 L -53.4637 43.8506 L -53.25 43.701 L -53.2495 43.7007 L -53.013 43.5905 L -53.0125 43.5903 L -52.7605 43.5228 L -52.76 43.5227 L -52.5 43.5 L -52.4995 43.5 L -52.2395 43.5228 L -52.239 43.5229 L -51.987 43.5905 L -51.9865 43.5907 L -51.75 43.701 L -51.7496 43.7013 L -51.5358 43.8509 L -51.5354 43.8513 L -51.3509 44.0358 L -51.3506 44.0363 L -51.201 44.25 L -51.2007 44.2505 L -51.0905 44.487 z  " fill= "none" stroke="rgb(0,0,255)" stroke-width="0.05mm" />
</svg>
