<?xml version="1.0" encoding="utf-8"?>
<!-- Generator: Adobe Illustrator 16.0.0, SVG Export Plug-In . SVG Version: 6.00 Build 0)  -->
<!DOCTYPE svg PUBLIC "-//W3C//DTD SVG 1.1//EN" "http://www.w3.org/Graphics/SVG/1.1/DTD/svg11.dtd">
<svg version="1.1" id="Layer_1" xmlns="http://www.w3.org/2000/svg" xmlns:xlink="http://www.w3.org/1999/xlink" x="0px" y="0px"
	 width="592.441px" height="171.496px" viewBox="-210.473 210.472 592.441 171.496"
	 enable-background="new -210.473 210.472 592.441 171.496" xml:space="preserve">
<title>Front Top Panel.123dx</title>
<desc>made with 123D Design</desc>
<path fill="none" stroke="#6FCCDD" d="M-164.454,374.011v-21.218h22.633h0.045v3.536v0.007h8.486h0.018V352.8v-0.007h19.803h0.039
	v-8.487v-0.017h-19.803h-0.039v-3.536v-0.008h-8.486h-0.018v3.537v0.007h-22.631h-0.047v-0.048v-24.047h-0.027h-14.145v-0.085
	v-42.435h0.027h14.145v-0.048v-24.046h22.633h0.045v3.536v0.007h8.486h0.018v-3.536v-0.007h19.803h0.039v-8.487v-0.017h-19.803
	h-0.039v-3.536v-0.007h-8.486h-0.018v3.536v0.007h-22.631h-0.047v-0.048v-24.046h0.426H48.146v0.028v14.145h0.17h84.869v-0.029
	v-14.145h0.425h212.173v0.048v24.046h-22.631h-0.045v-3.536v-0.007h-8.488h-0.016v3.536v0.007h-19.804h-0.04v8.487v0.017h19.803
	h0.041v3.536v0.007h8.486h0.018v-3.536v-0.007h22.631h0.045v0.048v24.046h0.029h14.145v0.085v42.435h-0.028h-14.146v0.049v24.046
	h-22.631h-0.045v-3.536v-0.008h-8.488h-0.016v3.537v0.007h-19.804h-0.04v8.487v0.017h19.803h0.041v3.536v0.007h8.486h0.018V352.8
	v-0.007h22.631h0.045v0.048v24.047h-0.016l0,0v-0.006v-2.829h-1.02h-509.201V374.011z M-34.159,224.813l-0.002-0.001l-0.607-0.424
	v-0.001l-0.668-0.313l-0.004,0l-0.715-0.192l-0.002,0l-0.734-0.064h-0.002l-0.738,0.064l0,0l-0.717,0.191v0.001l-0.672,0.312v0.001
	l-0.605,0.424v0.001l-0.525,0.523v0.001l-0.426,0.606v0.001l-0.311,0.67l-0.004,0.001l-0.189,0.714v0.001l-0.064,0.737v0.001
	l0.064,0.737v0.001l0.189,0.714v0.001l0.314,0.67v0.001l0.426,0.606v0.001l0.521,0.523l0.004,0.001l0.605,0.424v0l0.67,0.313
	l0.002,0l0.715,0.191l0.002,0l0.734,0.064h0.004l0.736-0.064l0,0l0.717-0.191v0l0.672-0.313v-0.001l0.607-0.424v-0.001l0.523-0.523
	v-0.001l0.426-0.606v-0.001l0.313-0.67l0.002-0.001l0.189-0.714v-0.001l0.066-0.737v-0.001l-0.066-0.737v-0.001l-0.189-0.714v-0.001
	l-0.314-0.67v-0.001l-0.426-0.605v-0.001L-34.159,224.813z M222.219,229.524l-0.313,0.67l-0.001,0.001l-0.424,0.606l-0.002,0.001
	l-0.522,0.523l-0.001,0.001l-0.605,0.424l-0.002,0.001l-0.67,0.313l-0.002,0l-0.715,0.191h-0.001l-0.737,0.064h-0.002l-0.736-0.064
	l-0.002,0l-0.714-0.191l-0.001,0l-0.67-0.313l-0.002,0l-0.605-0.424l-0.002-0.001l-0.523-0.523v-0.001l-0.424-0.606l-0.002-0.001
	l-0.312-0.67l-0.001-0.001l-0.191-0.714v-0.001l-0.064-0.737v-0.001l0.064-0.737v-0.001l0.192-0.714l0.001-0.001l0.313-0.67v-0.001
	l0.424-0.606l0.002-0.001l0.523-0.523l0.001-0.001l0.606-0.424v-0.001l0.671-0.312l0.001-0.001l0.715-0.191h0.002l0.736-0.064h0.002
	l0.736,0.064l0.002,0l0.715,0.192v0l0.672,0.313v0.001l0.606,0.424l0.001,0.001l0.523,0.523v0.001l0.425,0.605l0.001,0.001
	l0.313,0.67v0.001l0.191,0.714v0.001l0.064,0.737v0.001l-0.064,0.737v0.001l-0.191,0.714L222.219,229.524z"/>
<g>
	<title>Front Top Panel.123dx</title>
	<desc>made with 123D Design</desc>
	<rect x="-312.34" y="481.41" fill="none" width="241" height="66.5"/>
	<g>
		<rect x="-77.545" y="277.437" fill="none" width="238" height="78.5"/>
		<text transform="matrix(1 0 0 1 -77.5439 318.4214)" font-family="'AvantGarde'" font-size="62">Polyfuge</text>
		<g>
			<g>
				<g>
					<g>
						<g>
							<defs>
								<rect id="SVGID_1_" x="179.956" y="264.789" width="71.911" height="68.292"/>
							</defs>
							<clipPath id="SVGID_2_">
								<use xlink:href="#SVGID_1_"  overflow="visible"/>
							</clipPath>
							<g clip-path="url(#SVGID_2_)">
								<g>
									<g>
										<g>
											<defs>
												<rect id="SVGID_3_" x="179.956" y="264.789" width="71.911" height="68.292"/>
											</defs>
											<defs>
												<rect id="SVGID_4_" x="179.956" y="264.789" width="71.911" height="68.292"/>
											</defs>
											<defs>
												<rect id="SVGID_5_" x="179.956" y="264.789" width="71.911" height="68.292"/>
											</defs>
											<defs>
												<rect id="SVGID_6_" x="179.956" y="264.789" width="71.911" height="68.292"/>
											</defs>
											<defs>
												<rect id="SVGID_7_" x="179.956" y="264.789" width="71.911" height="68.292"/>
											</defs>
											<defs>
												<rect id="SVGID_8_" x="179.956" y="264.789" width="71.911" height="68.292"/>
											</defs>
											<defs>
												<rect id="SVGID_9_" x="179.956" y="264.789" width="71.911" height="68.292"/>
											</defs>
											<defs>
												<rect id="SVGID_10_" x="179.956" y="264.789" width="71.911" height="68.292"/>
											</defs>
											<defs>
												<rect id="SVGID_11_" x="179.956" y="264.789" width="71.911" height="68.292"/>
											</defs>
											<defs>
												<rect id="SVGID_12_" x="179.956" y="264.789" width="71.911" height="68.292"/>
											</defs>
											<defs>
												<rect id="SVGID_13_" x="179.956" y="264.789" width="71.911" height="68.292"/>
											</defs>
											<defs>
												<rect id="SVGID_14_" x="179.956" y="264.789" width="71.911" height="68.292"/>
											</defs>
											<defs>
												<rect id="SVGID_15_" x="179.956" y="264.789" width="71.911" height="68.292"/>
											</defs>
											<defs>
												<rect id="SVGID_16_" x="179.956" y="264.789" width="71.911" height="68.292"/>
											</defs>
											<defs>
												<rect id="SVGID_17_" x="179.956" y="264.789" width="71.911" height="68.292"/>
											</defs>
											<defs>
												<rect id="SVGID_18_" x="179.956" y="264.789" width="71.911" height="68.292"/>
											</defs>
											<defs>
												<rect id="SVGID_19_" x="179.956" y="264.789" width="71.911" height="68.292"/>
											</defs>
											<defs>
												<rect id="SVGID_20_" x="179.956" y="264.789" width="71.911" height="68.292"/>
											</defs>
											<defs>
												<rect id="SVGID_21_" x="179.956" y="264.789" width="71.911" height="68.292"/>
											</defs>
											<defs>
												<rect id="SVGID_22_" x="179.956" y="264.789" width="71.911" height="68.292"/>
											</defs>
											<clipPath id="SVGID_23_">
												<use xlink:href="#SVGID_3_"  overflow="visible"/>
											</clipPath>
											<clipPath id="SVGID_24_" clip-path="url(#SVGID_23_)">
												<use xlink:href="#SVGID_4_"  overflow="visible"/>
											</clipPath>
											<clipPath id="SVGID_25_" clip-path="url(#SVGID_24_)">
												<use xlink:href="#SVGID_5_"  overflow="visible"/>
											</clipPath>
											<clipPath id="SVGID_26_" clip-path="url(#SVGID_25_)">
												<use xlink:href="#SVGID_6_"  overflow="visible"/>
											</clipPath>
											<clipPath id="SVGID_27_" clip-path="url(#SVGID_26_)">
												<use xlink:href="#SVGID_7_"  overflow="visible"/>
											</clipPath>
											<clipPath id="SVGID_28_" clip-path="url(#SVGID_27_)">
												<use xlink:href="#SVGID_8_"  overflow="visible"/>
											</clipPath>
											<clipPath id="SVGID_29_" clip-path="url(#SVGID_28_)">
												<use xlink:href="#SVGID_9_"  overflow="visible"/>
											</clipPath>
											<clipPath id="SVGID_30_" clip-path="url(#SVGID_29_)">
												<use xlink:href="#SVGID_10_"  overflow="visible"/>
											</clipPath>
											<clipPath id="SVGID_31_" clip-path="url(#SVGID_30_)">
												<use xlink:href="#SVGID_11_"  overflow="visible"/>
											</clipPath>
											<clipPath id="SVGID_32_" clip-path="url(#SVGID_31_)">
												<use xlink:href="#SVGID_12_"  overflow="visible"/>
											</clipPath>
											<clipPath id="SVGID_33_" clip-path="url(#SVGID_32_)">
												<use xlink:href="#SVGID_13_"  overflow="visible"/>
											</clipPath>
											<clipPath id="SVGID_34_" clip-path="url(#SVGID_33_)">
												<use xlink:href="#SVGID_14_"  overflow="visible"/>
											</clipPath>
											<clipPath id="SVGID_35_" clip-path="url(#SVGID_34_)">
												<use xlink:href="#SVGID_15_"  overflow="visible"/>
											</clipPath>
											<clipPath id="SVGID_36_" clip-path="url(#SVGID_35_)">
												<use xlink:href="#SVGID_16_"  overflow="visible"/>
											</clipPath>
											<clipPath id="SVGID_37_" clip-path="url(#SVGID_36_)">
												<use xlink:href="#SVGID_17_"  overflow="visible"/>
											</clipPath>
											<clipPath id="SVGID_38_" clip-path="url(#SVGID_37_)">
												<use xlink:href="#SVGID_18_"  overflow="visible"/>
											</clipPath>
											<clipPath id="SVGID_39_" clip-path="url(#SVGID_38_)">
												<use xlink:href="#SVGID_19_"  overflow="visible"/>
											</clipPath>
											<clipPath id="SVGID_40_" clip-path="url(#SVGID_39_)">
												<use xlink:href="#SVGID_20_"  overflow="visible"/>
											</clipPath>
											<clipPath id="SVGID_41_" clip-path="url(#SVGID_40_)">
												<use xlink:href="#SVGID_21_"  overflow="visible"/>
											</clipPath>
											<clipPath id="SVGID_42_" clip-path="url(#SVGID_41_)">
												<use xlink:href="#SVGID_22_"  overflow="visible"/>
											</clipPath>
											<path clip-path="url(#SVGID_42_)" d="M211.571,266.119c0,2.118-0.146,4.073-0.401,5.918h-25.46
												c-0.252-1.846-0.397-3.801-0.397-5.918h-3.895c0,16.326,6.77,25.075,13.889,32.974
												c-7.119,7.9-13.889,16.646-13.889,32.973h3.895c0-2.117,0.146-4.072,0.397-5.918h25.46
												c0.256,1.846,0.401,3.801,0.401,5.918h3.893c0-16.326-6.769-25.07-13.889-32.973c7.12-7.899,13.889-16.648,13.889-32.974
												H211.571z M210.005,320.738h-23.127c0.738-2.465,1.694-4.705,2.838-6.766h17.452
												C208.308,316.033,209.267,318.273,210.005,320.738 M203.572,308.562h-10.264c1.603-2.086,3.342-4.057,5.133-6.021
												C200.23,304.505,201.974,306.476,203.572,308.562 M198.441,295.646c-1.791-1.967-3.53-3.939-5.133-6.024h10.264
												C201.974,291.707,200.23,293.681,198.441,295.646 M207.168,284.212h-17.451c-1.145-2.061-2.101-4.299-2.839-6.764h23.127
												C209.267,279.913,208.308,282.152,207.168,284.212"/>
											<path clip-path="url(#SVGID_42_)" d="M250.86,266.119h-3.893c0,2.118-0.146,4.075-0.398,5.918h-25.462
												c-0.252-1.844-0.4-3.801-0.4-5.918h-3.89c0,16.328,6.767,25.075,13.885,32.974c-7.118,7.9-13.885,16.646-13.885,32.973
												h3.89c0-2.113,0.148-4.072,0.4-5.918h25.462c0.253,1.846,0.398,3.805,0.398,5.918h3.893
												c0-16.324-6.768-25.07-13.887-32.973C244.096,291.194,250.86,282.447,250.86,266.119 M222.276,277.449h23.125
												c-0.735,2.466-1.695,4.703-2.837,6.764H225.11C223.969,282.152,223.013,279.915,222.276,277.449 M228.709,289.623h10.262
												c-1.604,2.086-3.341,4.058-5.133,6.026C232.05,293.681,230.308,291.709,228.709,289.623 M245.401,320.738h-23.125
												c0.733-2.465,1.689-4.703,2.834-6.766h17.454C243.706,316.035,244.666,318.273,245.401,320.738 M238.969,308.562h-10.26
												c1.601-2.086,3.341-4.057,5.129-6.021C235.63,304.505,237.367,306.476,238.969,308.562"/>
										</g>
									</g>
								</g>
							</g>
						</g>
					</g>
				</g>
			</g>
		</g>
	</g>
</g>
</svg>
