<?xml version="1.0" standalone="no"?>
<!DOCTYPE svg PUBLIC "-//W3C//DTD SVG 1.1//EN"
"http://www.w3.org/Graphics/SVG/1.1/DTD/svg11.dtd">
<svg width="60.5mm" height="187mm" viewBox="-82.75 11.5 60.5 187" xmlns="http://www.w3.org/2000/svg" version = "1.1">
<title>Top Side Panel (IR Blocker) + Hinge.123dx</title>
<desc> made with 123D Design </desc>
<path d="M -35.513 23.9095 L -35.261 23.9771 L -35.2605 23.9772 L -35.0005 24 L -35 24 L -34.74 23.9773 L -34.7395 23.9772 L -34.4875 23.9097 L -34.487 23.9095 L -34.2505 23.7993 L -34.25 23.799 L -34.0362 23.6494 L -34.0358 23.6491 L -33.8513 23.4646 L -33.8509 23.4642 L -33.7013 23.2504 L -33.701 23.25 L -33.5907 23.0135 L -33.5905 23.013 L -33.5229 22.761 L -33.5228 22.7605 L -33.5 22.5005 L -33.5 22.5 L -33.5227 22.24 L -33.5228 22.2395 L -33.5903 21.9875 L -33.5905 21.987 L -33.7007 21.7505 L -33.701 21.75 L -33.8506 21.5362 L -33.8509 21.5358 L -34.0354 21.3513 L -34.0358 21.3509 L -34.2496 21.2013 L -34.25 21.201 L -34.4865 21.0907 L -34.487 21.0905 L -34.739 21.0229 L -34.7395 21.0228 L -34.9995 21 L -35 21 L -35.26 21.0227 L -35.2605 21.0228 L -35.5125 21.0903 L -35.513 21.0905 L -35.7495 21.2007 L -35.75 21.201 L -35.9638 21.3506 L -35.9642 21.3509 L -36.1487 21.5354 L -36.1491 21.5358 L -36.2987 21.7496 L -36.299 21.75 L -36.4093 21.9865 L -36.4095 21.987 L -36.4771 22.239 L -36.4772 22.2395 L -36.5 22.4995 L -36.5 22.5 L -36.4773 22.76 L -36.4772 22.7605 L -36.4097 23.0125 L -36.4095 23.013 L -36.2993 23.2495 L -36.299 23.25 L -36.1494 23.4638 L -36.1491 23.4642 L -35.9646 23.6487 L -35.9642 23.6491 L -35.7504 23.7987 L -35.75 23.799 L -35.5135 23.9093 z  M -69.0354 171.351 L -68.8509 171.536 L -68.8506 171.536 L -68.701 171.75 L -68.7007 171.75 L -68.5905 171.987 L -68.5903 171.987 L -68.5228 172.24 L -68.5227 172.24 L -68.5 172.5 L -68.5 172.501 L -68.5228 172.76 L -68.5229 172.761 L -68.5905 173.013 L -68.5907 173.014 L -68.701 173.25 L -68.7013 173.25 L -68.8509 173.464 L -68.8513 173.465 L -69.0358 173.649 L -69.0363 173.649 L -69.25 173.799 L -69.2505 173.799 L -69.487 173.91 L -69.4875 173.91 L -69.7395 173.977 L -69.74 173.977 L -70 174 L -70.0005 174 L -70.2605 173.977 L -70.261 173.977 L -70.513 173.91 L -70.5135 173.909 L -70.75 173.799 L -70.7504 173.799 L -70.9642 173.649 L -70.9646 173.649 L -71.1491 173.464 L -71.1494 173.464 L -71.299 173.25 L -71.2993 173.25 L -71.4095 173.013 L -71.4097 173.013 L -71.4772 172.76 L -71.4773 172.76 L -71.5 172.5 L -71.5 172.499 L -71.4772 172.24 L -71.4771 172.239 L -71.4095 171.987 L -71.4093 171.986 L -71.299 171.75 L -71.2987 171.75 L -71.1491 171.536 L -71.1487 171.535 L -70.9642 171.351 L -70.9637 171.351 L -70.75 171.201 L -70.7495 171.201 L -70.513 171.09 L -70.5125 171.09 L -70.2605 171.023 L -70.26 171.023 L -70 171 L -69.9995 171 L -69.7395 171.023 L -69.739 171.023 L -69.487 171.09 L -69.4865 171.091 L -69.25 171.201 L -69.2496 171.201 L -69.0358 171.351 z  M -76.5354 148.851 L -76.3509 149.036 L -76.3506 149.036 L -76.201 149.25 L -76.2007 149.25 L -76.0905 149.487 L -76.0903 149.487 L -76.0228 149.74 L -76.0227 149.74 L -76 150 L -76 150.001 L -76.0228 150.26 L -76.0229 150.261 L -76.0905 150.513 L -76.0907 150.514 L -76.201 150.75 L -76.2013 150.75 L -76.3509 150.964 L -76.3513 150.965 L -76.5358 151.149 L -76.5363 151.149 L -76.75 151.299 L -76.7505 151.299 L -76.987 151.41 L -76.9875 151.41 L -77.2395 151.477 L -77.24 151.477 L -77.5 151.5 L -77.5005 151.5 L -77.7605 151.477 L -77.761 151.477 L -78.013 151.41 L -78.0135 151.409 L -78.25 151.299 L -78.2504 151.299 L -78.4642 151.149 L -78.4646 151.149 L -78.6491 150.964 L -78.6494 150.964 L -78.799 150.75 L -78.7993 150.75 L -78.9095 150.513 L -78.9097 150.513 L -78.9772 150.26 L -78.9773 150.26 L -79 150 L -79 149.999 L -78.9772 149.74 L -78.9771 149.739 L -78.9095 149.487 L -78.9093 149.486 L -78.799 149.25 L -78.7987 149.25 L -78.6491 149.036 L -78.6487 149.035 L -78.4642 148.851 L -78.4637 148.851 L -78.25 148.701 L -78.2495 148.701 L -78.013 148.59 L -78.0125 148.59 L -77.7605 148.523 L -77.76 148.523 L -77.5 148.5 L -77.4995 148.5 L -77.2395 148.523 L -77.239 148.523 L -76.987 148.59 L -76.9865 148.591 L -76.75 148.701 L -76.7496 148.701 L -76.5358 148.851 z  M -41.4771 184.739 L -41.4772 184.74 L -41.5 184.999 L -41.5 185 L -41.4773 185.26 L -41.4772 185.26 L -41.4097 185.513 L -41.4095 185.513 L -41.2993 185.75 L -41.299 185.75 L -41.1494 185.964 L -41.1491 185.964 L -40.9646 186.149 L -40.9642 186.149 L -40.7504 186.299 L -40.75 186.299 L -40.5135 186.409 L -40.513 186.41 L -40.261 186.477 L -40.2605 186.477 L -40.0005 186.5 L -40 186.5 L -39.74 186.477 L -39.7395 186.477 L -39.4875 186.41 L -39.487 186.41 L -39.2505 186.299 L -39.25 186.299 L -39.0362 186.149 L -39.0358 186.149 L -38.8513 185.965 L -38.8509 185.964 L -38.7013 185.75 L -38.701 185.75 L -38.5907 185.514 L -38.5905 185.513 L -38.5229 185.261 L -38.5228 185.26 L -38.5 185.001 L -38.5 185 L -38.5227 184.74 L -38.5228 184.74 L -38.5903 184.487 L -38.5905 184.487 L -38.7007 184.25 L -38.701 184.25 L -38.8506 184.036 L -38.8509 184.036 L -39.0354 183.851 L -39.0358 183.851 L -39.2496 183.701 L -39.25 183.701 L -39.4865 183.591 L -39.487 183.59 L -39.739 183.523 L -39.7395 183.523 L -39.9995 183.5 L -40 183.5 L -40.26 183.523 L -40.2605 183.523 L -40.5125 183.59 L -40.513 183.59 L -40.7495 183.701 L -40.75 183.701 L -40.9637 183.851 L -40.9642 183.851 L -41.1487 184.035 L -41.1491 184.036 L -41.2987 184.25 L -41.299 184.25 L -41.4093 184.486 L -41.4095 184.487 z  M -60 175 L -59.97 175 L -45 175 L -45 174.99 L -45 170 L -45.03 170 L -60 170 L -60 170.01 z  M -70.513 21.0905 L -70.5125 21.0903 L -70.2605 21.0228 L -70.26 21.0227 L -70 21 L -69.9995 21 L -69.7395 21.0228 L -69.739 21.0229 L -69.487 21.0905 L -69.4865 21.0907 L -69.25 21.201 L -69.2496 21.2013 L -69.0358 21.3509 L -69.0354 21.3513 L -68.8509 21.5358 L -68.8506 21.5362 L -68.701 21.75 L -68.7007 21.7505 L -68.5905 21.987 L -68.5903 21.9875 L -68.5228 22.2395 L -68.5227 22.24 L -68.5 22.5 L -68.5 22.5005 L -68.5228 22.7605 L -68.5229 22.761 L -68.5905 23.013 L -68.5907 23.0135 L -68.701 23.25 L -68.7013 23.2504 L -68.8509 23.4642 L -68.8513 23.4646 L -69.0358 23.6491 L -69.0363 23.6494 L -69.25 23.799 L -69.2505 23.7993 L -69.487 23.9095 L -69.4875 23.9097 L -69.7395 23.9772 L -69.74 23.9773 L -70 24 L -70.0005 24 L -70.2605 23.9772 L -70.261 23.9771 L -70.513 23.9095 L -70.5135 23.9093 L -70.75 23.799 L -70.7504 23.7987 L -70.9642 23.6491 L -70.9646 23.6487 L -71.1491 23.4642 L -71.1494 23.4638 L -71.299 23.25 L -71.2993 23.2495 L -71.4095 23.013 L -71.4097 23.0125 L -71.4772 22.7605 L -71.4773 22.76 L -71.5 22.5 L -71.5 22.4995 L -71.4772 22.2395 L -71.4771 22.239 L -71.4095 21.987 L -71.4093 21.9865 L -71.299 21.75 L -71.2987 21.7496 L -71.1491 21.5358 L -71.1487 21.5354 L -70.9642 21.3509 L -70.9637 21.3506 L -70.75 21.201 L -70.7495 21.2007 z  M -35.02 190 L -45 190 L -45.02 189.98 L -55 180 L -55.05 180 L -80 180 L -80 179.87 L -80 115 L -79.99 115 L -75 115 L -75 114.94 L -75 85 L -75.01 85 L -80 85 L -80 84.87 L -80 20 L -79.96 20 L -60 20 L -60 20.01 L -60 25 L -59.97 25 L -45 25 L -45 24.99 L -45 20 L -44.96 20 L -25 20 L -25 20.069 L -25 54.5 L -25.9532 54.5834 L -25.9551 54.5836 L -26.8793 54.8312 L -26.8811 54.8317 L -27.7483 55.236 L -27.75 55.2369 L -28.5338 55.7857 L -28.5353 55.7868 L -29.2119 56.4633 L -29.2132 56.4647 L -29.762 57.2484 L -29.7631 57.25 L -30.1675 58.1172 L -30.1683 58.1189 L -30.4159 59.0431 L -30.4164 59.0449 L -30.4998 59.9981 L -30.5 60 L -30.4166 60.9532 L -30.4164 60.9551 L -30.1688 61.8793 L -30.1683 61.8811 L -29.764 62.7483 L -29.7631 62.75 L -29.2143 63.5338 L -29.2132 63.5353 L -28.5367 64.2119 L -28.5353 64.2132 L -27.7516 64.762 L -27.75 64.7631 L -26.8828 65.1675 L -26.8811 65.1683 L -25.9569 65.4159 L -25.9551 65.4164 L -25.0019 65.4998 L -25 65.5 L -25 65.729 L -25 180 L -25.01 180 L -30 180 L -30.01 180.01 L -35 185 L -35 185.01 L -35 190 z  M -78.9771 54.739 L -78.9772 54.7395 L -79 54.9995 L -79 55 L -78.9773 55.26 L -78.9772 55.2605 L -78.9097 55.5125 L -78.9095 55.513 L -78.7993 55.7495 L -78.799 55.75 L -78.6494 55.9637 L -78.6491 55.9642 L -78.4646 56.1487 L -78.4642 56.1491 L -78.2504 56.2987 L -78.25 56.299 L -78.0135 56.4093 L -78.013 56.4095 L -77.761 56.4771 L -77.7605 56.4772 L -77.5005 56.5 L -77.5 56.5 L -77.24 56.4773 L -77.2395 56.4772 L -76.9875 56.4097 L -76.987 56.4095 L -76.7505 56.2993 L -76.75 56.299 L -76.5363 56.1494 L -76.5358 56.1491 L -76.3513 55.9646 L -76.3509 55.9642 L -76.2013 55.7504 L -76.201 55.75 L -76.0907 55.5135 L -76.0905 55.513 L -76.0229 55.261 L -76.0228 55.2605 L -76 55.0005 L -76 55 L -76.0227 54.74 L -76.0228 54.7395 L -76.0903 54.4875 L -76.0905 54.487 L -76.2007 54.2505 L -76.201 54.25 L -76.3506 54.0363 L -76.3509 54.0358 L -76.5354 53.8513 L -76.5358 53.8509 L -76.7496 53.7013 L -76.75 53.701 L -76.9865 53.5907 L -76.987 53.5905 L -77.239 53.5229 L -77.2395 53.5228 L -77.4995 53.5 L -77.5 53.5 L -77.76 53.5227 L -77.7605 53.5228 L -78.0125 53.5903 L -78.013 53.5905 L -78.2495 53.7007 L -78.25 53.701 L -78.4637 53.8506 L -78.4642 53.8509 L -78.6487 54.0354 L -78.6491 54.0358 L -78.7987 54.2496 L -78.799 54.25 L -78.9093 54.4865 L -78.9095 54.487 z  M -36.4771 172.239 L -36.4772 172.24 L -36.5 172.499 L -36.5 172.5 L -36.4773 172.76 L -36.4772 172.76 L -36.4097 173.013 L -36.4095 173.013 L -36.2993 173.25 L -36.299 173.25 L -36.1494 173.464 L -36.1491 173.464 L -35.9646 173.649 L -35.9642 173.649 L -35.7504 173.799 L -35.75 173.799 L -35.5135 173.909 L -35.513 173.91 L -35.261 173.977 L -35.2605 173.977 L -35.0005 174 L -35 174 L -34.74 173.977 L -34.7395 173.977 L -34.4875 173.91 L -34.487 173.91 L -34.2505 173.799 L -34.25 173.799 L -34.0362 173.649 L -34.0358 173.649 L -33.8513 173.465 L -33.8509 173.464 L -33.7013 173.25 L -33.701 173.25 L -33.5907 173.014 L -33.5905 173.013 L -33.5229 172.761 L -33.5228 172.76 L -33.5 172.501 L -33.5 172.5 L -33.5227 172.24 L -33.5228 172.24 L -33.5903 171.987 L -33.5905 171.987 L -33.7007 171.75 L -33.701 171.75 L -33.8506 171.536 L -33.8509 171.536 L -34.0354 171.351 L -34.0358 171.351 L -34.2496 171.201 L -34.25 171.201 L -34.4865 171.091 L -34.487 171.09 L -34.739 171.023 L -34.7395 171.023 L -34.9995 171 L -35 171 L -35.26 171.023 L -35.2605 171.023 L -35.5125 171.09 L -35.513 171.09 L -35.7495 171.201 L -35.75 171.201 L -35.9638 171.351 L -35.9642 171.351 L -36.1487 171.535 L -36.1491 171.536 L -36.2987 171.75 L -36.299 171.75 L -36.4093 171.986 L -36.4095 171.987 z  M -41.9772 123.01 L -41.9097 123.263 L -41.9095 123.263 L -41.7993 123.5 L -41.799 123.5 L -41.6494 123.714 L -41.6491 123.714 L -41.4646 123.899 L -41.4642 123.899 L -41.2504 124.049 L -41.25 124.049 L -41.0135 124.159 L -41.013 124.16 L -40.761 124.227 L -40.7605 124.227 L -40.5005 124.25 L -40.5 124.25 L -40.24 124.227 L -40.2395 124.227 L -39.9875 124.16 L -39.987 124.16 L -39.7505 124.049 L -39.75 124.049 L -39.5362 123.899 L -39.5358 123.899 L -39.3513 123.715 L -39.3509 123.714 L -39.2013 123.5 L -39.201 123.5 L -39.0907 123.264 L -39.0905 123.263 L -39.0229 123.011 L -39.0228 123.01 L -39 122.751 L -39 122.75 L -39.0227 122.49 L -39.0228 122.49 L -39.0903 122.237 L -39.0905 122.237 L -39.2007 122 L -39.201 122 L -39.3506 121.786 L -39.3509 121.786 L -39.5354 121.601 L -39.5358 121.601 L -39.7496 121.451 L -39.75 121.451 L -39.9865 121.341 L -39.987 121.34 L -40.239 121.273 L -40.2395 121.273 L -40.4995 121.25 L -40.5 121.25 L -40.76 121.273 L -40.7605 121.273 L -41.0125 121.34 L -41.013 121.34 L -41.2495 121.451 L -41.25 121.451 L -41.4638 121.601 L -41.4642 121.601 L -41.6487 121.785 L -41.6491 121.786 L -41.7987 122 L -41.799 122 L -41.9093 122.236 L -41.9095 122.237 L -41.9771 122.489 L -41.9772 122.49 L -42 122.749 L -42 122.75 L -41.9773 123.01 z  " fill= "none" stroke="rgb(0,0,255)" stroke-width="0.05mm" />
</svg>
