solid ascii
  facet normal 0.000000e+000 0.000000e+000 -1.000000e+000
    outer loop
      vertex   -2.500000e+001 1.295000e+002 2.300000e+001
      vertex   -3.000000e+001 1.295000e+002 2.300000e+001
      vertex   -2.500000e+001 1.325000e+002 2.300000e+001
    endloop
  endfacet
  facet normal -0.000000e+000 0.000000e+000 -5.144957e-001
    outer loop
      vertex   -2.500000e+001 1.325000e+002 2.300000e+001
      vertex   -3.000000e+001 1.295000e+002 2.300000e+001
      vertex   -3.000000e+001 1.325000e+002 2.300000e+001
    endloop
  endfacet
  facet normal 0.000000e+000 -1.000000e+000 0.000000e+000
    outer loop
      vertex   -2.500000e+001 1.325000e+002 2.000000e+001
      vertex   -2.500000e+001 1.325000e+002 2.300000e+001
      vertex   -3.000000e+001 1.325000e+002 2.000000e+001
    endloop
  endfacet
  facet normal 0.000000e+000 -8.574928e-001 0.000000e+000
    outer loop
      vertex   -3.000000e+001 1.325000e+002 2.000000e+001
      vertex   -2.500000e+001 1.325000e+002 2.300000e+001
      vertex   -3.000000e+001 1.325000e+002 2.300000e+001
    endloop
  endfacet
  facet normal 0.000000e+000 0.000000e+000 -1.000000e+000
    outer loop
      vertex   -2.500000e+001 1.325000e+002 2.000000e+001
      vertex   -3.000000e+001 1.325000e+002 2.000000e+001
      vertex   -2.500000e+001 1.337500e+002 2.000000e+001
    endloop
  endfacet
  facet normal -0.000000e+000 0.000000e+000 -2.425356e-001
    outer loop
      vertex   -2.500000e+001 1.337500e+002 2.000000e+001
      vertex   -3.000000e+001 1.325000e+002 2.000000e+001
      vertex   -3.000000e+001 1.337500e+002 2.000000e+001
    endloop
  endfacet
  facet normal 0.000000e+000 -1.000000e+000 0.000000e+000
    outer loop
      vertex   -2.500000e+001 1.337500e+002 1.700000e+001
      vertex   -2.500000e+001 1.337500e+002 2.000000e+001
      vertex   -3.000000e+001 1.337500e+002 1.700000e+001
    endloop
  endfacet
  facet normal 0.000000e+000 -8.574932e-001 0.000000e+000
    outer loop
      vertex   -3.000000e+001 1.337500e+002 1.700000e+001
      vertex   -2.500000e+001 1.337500e+002 2.000000e+001
      vertex   -3.000000e+001 1.337500e+002 2.000000e+001
    endloop
  endfacet
  facet normal 0.000000e+000 0.000000e+000 1.000000e+000
    outer loop
      vertex   -2.500000e+001 1.337500e+002 1.700000e+001
      vertex   -3.000000e+001 1.337500e+002 1.700000e+001
      vertex   -2.500000e+001 1.325000e+002 1.700000e+001
    endloop
  endfacet
  facet normal 0.000000e+000 0.000000e+000 2.425356e-001
    outer loop
      vertex   -2.500000e+001 1.325000e+002 1.700000e+001
      vertex   -3.000000e+001 1.337500e+002 1.700000e+001
      vertex   -3.000000e+001 1.325000e+002 1.700000e+001
    endloop
  endfacet
  facet normal 0.000000e+000 -1.000000e+000 0.000000e+000
    outer loop
      vertex   -2.500000e+001 1.325000e+002 1.400000e+001
      vertex   -2.500000e+001 1.325000e+002 1.700000e+001
      vertex   -3.000000e+001 1.325000e+002 1.400000e+001
    endloop
  endfacet
  facet normal 0.000000e+000 -8.574927e-001 0.000000e+000
    outer loop
      vertex   -3.000000e+001 1.325000e+002 1.400000e+001
      vertex   -2.500000e+001 1.325000e+002 1.700000e+001
      vertex   -3.000000e+001 1.325000e+002 1.700000e+001
    endloop
  endfacet
  facet normal 0.000000e+000 1.000000e+000 0.000000e+000
    outer loop
      vertex   -2.500000e+001 1.295000e+002 2.300000e+001
      vertex   -2.500000e+001 1.295000e+002 2.000000e+001
      vertex   -3.000000e+001 1.295000e+002 2.300000e+001
    endloop
  endfacet
  facet normal 0.000000e+000 8.574928e-001 0.000000e+000
    outer loop
      vertex   -3.000000e+001 1.295000e+002 2.300000e+001
      vertex   -2.500000e+001 1.295000e+002 2.000000e+001
      vertex   -3.000000e+001 1.295000e+002 2.000000e+001
    endloop
  endfacet
  facet normal 0.000000e+000 0.000000e+000 -1.000000e+000
    outer loop
      vertex   -2.500000e+001 1.282500e+002 2.000000e+001
      vertex   -3.000000e+001 1.282500e+002 2.000000e+001
      vertex   -2.500000e+001 1.295000e+002 2.000000e+001
    endloop
  endfacet
  facet normal -0.000000e+000 0.000000e+000 -2.425356e-001
    outer loop
      vertex   -2.500000e+001 1.295000e+002 2.000000e+001
      vertex   -3.000000e+001 1.282500e+002 2.000000e+001
      vertex   -3.000000e+001 1.295000e+002 2.000000e+001
    endloop
  endfacet
  facet normal 0.000000e+000 1.000000e+000 0.000000e+000
    outer loop
      vertex   -2.500000e+001 1.295000e+002 1.700000e+001
      vertex   -2.500000e+001 1.295000e+002 1.400000e+001
      vertex   -3.000000e+001 1.295000e+002 1.700000e+001
    endloop
  endfacet
  facet normal 0.000000e+000 8.574927e-001 0.000000e+000
    outer loop
      vertex   -3.000000e+001 1.295000e+002 1.700000e+001
      vertex   -2.500000e+001 1.295000e+002 1.400000e+001
      vertex   -3.000000e+001 1.295000e+002 1.400000e+001
    endloop
  endfacet
  facet normal 0.000000e+000 1.000000e+000 0.000000e+000
    outer loop
      vertex   -2.500000e+001 1.282500e+002 2.000000e+001
      vertex   -2.500000e+001 1.282500e+002 1.700000e+001
      vertex   -3.000000e+001 1.282500e+002 2.000000e+001
    endloop
  endfacet
  facet normal 0.000000e+000 8.574932e-001 0.000000e+000
    outer loop
      vertex   -3.000000e+001 1.282500e+002 2.000000e+001
      vertex   -2.500000e+001 1.282500e+002 1.700000e+001
      vertex   -3.000000e+001 1.282500e+002 1.700000e+001
    endloop
  endfacet
  facet normal 0.000000e+000 0.000000e+000 1.000000e+000
    outer loop
      vertex   -2.500000e+001 1.295000e+002 1.700000e+001
      vertex   -3.000000e+001 1.295000e+002 1.700000e+001
      vertex   -2.500000e+001 1.282500e+002 1.700000e+001
    endloop
  endfacet
  facet normal 0.000000e+000 0.000000e+000 2.425356e-001
    outer loop
      vertex   -2.500000e+001 1.282500e+002 1.700000e+001
      vertex   -3.000000e+001 1.295000e+002 1.700000e+001
      vertex   -3.000000e+001 1.282500e+002 1.700000e+001
    endloop
  endfacet
  facet normal 1.000000e+000 0.000000e+000 0.000000e+000
    outer loop
      vertex   -2.500000e+001 1.295000e+002 1.700000e+001
      vertex   -2.500000e+001 1.282500e+002 1.700000e+001
      vertex   -2.500000e+001 1.295000e+002 1.400000e+001
    endloop
  endfacet
  facet normal 9.230770e-001 0.000000e+000 0.000000e+000
    outer loop
      vertex   -2.500000e+001 1.295000e+002 1.400000e+001
      vertex   -2.500000e+001 1.282500e+002 1.700000e+001
      vertex   -2.500000e+001 1.220000e+002 1.400000e+001
    endloop
  endfacet
  facet normal 3.121663e-001 0.000000e+000 0.000000e+000
    outer loop
      vertex   -2.500000e+001 1.220000e+002 1.400000e+001
      vertex   -2.500000e+001 1.282500e+002 1.700000e+001
      vertex   -2.500000e+001 1.282500e+002 2.000000e+001
    endloop
  endfacet
  facet normal 7.213874e-001 0.000000e+000 0.000000e+000
    outer loop
      vertex   -2.500000e+001 1.220000e+002 1.400000e+001
      vertex   -2.500000e+001 1.282500e+002 2.000000e+001
      vertex   -2.500000e+001 1.220000e+002 2.900000e+001
    endloop
  endfacet
  facet normal 2.850589e-001 0.000000e+000 0.000000e+000
    outer loop
      vertex   -2.500000e+001 1.220000e+002 2.900000e+001
      vertex   -2.500000e+001 1.282500e+002 2.000000e+001
      vertex   -2.500000e+001 1.295000e+002 2.300000e+001
    endloop
  endfacet
  facet normal 1.549678e-001 0.000000e+000 0.000000e+000
    outer loop
      vertex   -2.500000e+001 1.220000e+002 2.900000e+001
      vertex   -2.500000e+001 1.295000e+002 2.300000e+001
      vertex   -2.500000e+001 1.325000e+002 2.300000e+001
    endloop
  endfacet
  facet normal 9.230770e-001 0.000000e+000 0.000000e+000
    outer loop
      vertex   -2.500000e+001 1.282500e+002 2.000000e+001
      vertex   -2.500000e+001 1.295000e+002 2.000000e+001
      vertex   -2.500000e+001 1.295000e+002 2.300000e+001
    endloop
  endfacet
  facet normal 1.000000e+000 0.000000e+000 0.000000e+000
    outer loop
      vertex   -2.500000e+001 1.325000e+002 2.000000e+001
      vertex   -2.500000e+001 1.337500e+002 2.000000e+001
      vertex   -2.500000e+001 1.325000e+002 2.300000e+001
    endloop
  endfacet
  facet normal 9.610692e-001 -0.000000e+000 0.000000e+000
    outer loop
      vertex   -2.500000e+001 1.325000e+002 2.300000e+001
      vertex   -2.500000e+001 1.337500e+002 2.000000e+001
      vertex   -2.500000e+001 1.400000e+002 2.900000e+001
    endloop
  endfacet
  facet normal 9.298066e-001 0.000000e+000 -0.000000e+000
    outer loop
      vertex   -2.500000e+001 1.325000e+002 2.300000e+001
      vertex   -2.500000e+001 1.400000e+002 2.900000e+001
      vertex   -2.500000e+001 1.220000e+002 2.900000e+001
    endloop
  endfacet
  facet normal 5.703957e-001 0.000000e+000 0.000000e+000
    outer loop
      vertex   -2.500000e+001 1.400000e+002 2.900000e+001
      vertex   -2.500000e+001 1.337500e+002 2.000000e+001
      vertex   -2.500000e+001 1.400000e+002 1.400000e+001
    endloop
  endfacet
  facet normal 3.121663e-001 0.000000e+000 0.000000e+000
    outer loop
      vertex   -2.500000e+001 1.400000e+002 1.400000e+001
      vertex   -2.500000e+001 1.337500e+002 2.000000e+001
      vertex   -2.500000e+001 1.337500e+002 1.700000e+001
    endloop
  endfacet
  facet normal 4.327314e-001 0.000000e+000 0.000000e+000
    outer loop
      vertex   -2.500000e+001 1.400000e+002 1.400000e+001
      vertex   -2.500000e+001 1.337500e+002 1.700000e+001
      vertex   -2.500000e+001 1.325000e+002 1.400000e+001
    endloop
  endfacet
  facet normal 3.846151e-001 0.000000e+000 0.000000e+000
    outer loop
      vertex   -2.500000e+001 1.325000e+002 1.400000e+001
      vertex   -2.500000e+001 1.337500e+002 1.700000e+001
      vertex   -2.500000e+001 1.325000e+002 1.700000e+001
    endloop
  endfacet
  facet normal 0.000000e+000 1.271566e-007 -1.000000e+000
    outer loop
      vertex   -3.000000e+001 1.325000e+002 1.400000e+001
      vertex   -3.000000e+001 1.400000e+002 1.400000e+001
      vertex   -2.500000e+001 1.325000e+002 1.400000e+001
    endloop
  endfacet
  facet normal 0.000000e+000 7.053378e-008 -5.547002e-001
    outer loop
      vertex   -2.500000e+001 1.325000e+002 1.400000e+001
      vertex   -3.000000e+001 1.400000e+002 1.400000e+001
      vertex   -2.500000e+001 1.400000e+002 1.400000e+001
    endloop
  endfacet
  facet normal 0.000000e+000 0.000000e+000 1.000000e+000
    outer loop
      vertex   -2.500000e+001 1.400000e+002 2.900000e+001
      vertex   -3.000000e+001 1.400000e+002 2.900000e+001
      vertex   -2.500000e+001 1.220000e+002 2.900000e+001
    endloop
  endfacet
  facet normal 0.000000e+000 0.000000e+000 9.635179e-001
    outer loop
      vertex   -2.500000e+001 1.220000e+002 2.900000e+001
      vertex   -3.000000e+001 1.400000e+002 2.900000e+001
      vertex   -3.000000e+001 1.220000e+002 2.900000e+001
    endloop
  endfacet
  facet normal 0.000000e+000 1.000000e+000 -0.000000e+000
    outer loop
      vertex   -2.500000e+001 1.400000e+002 1.400000e+001
      vertex   -3.000000e+001 1.400000e+002 1.400000e+001
      vertex   -2.500000e+001 1.400000e+002 2.900000e+001
    endloop
  endfacet
  facet normal 0.000000e+000 9.486833e-001 0.000000e+000
    outer loop
      vertex   -2.500000e+001 1.400000e+002 2.900000e+001
      vertex   -3.000000e+001 1.400000e+002 1.400000e+001
      vertex   -3.000000e+001 1.400000e+002 2.900000e+001
    endloop
  endfacet
  facet normal -1.000000e+000 -0.000000e+000 -0.000000e+000
    outer loop
      vertex   -3.000000e+001 1.295000e+002 1.700000e+001
      vertex   -3.000000e+001 1.295000e+002 1.400000e+001
      vertex   -3.000000e+001 1.282500e+002 1.700000e+001
    endloop
  endfacet
  facet normal -9.986101e-001 0.000000e+000 -0.000000e+000
    outer loop
      vertex   -3.000000e+001 1.282500e+002 1.700000e+001
      vertex   -3.000000e+001 1.295000e+002 1.400000e+001
      vertex   -3.000000e+001 1.220000e+002 1.400000e+001
    endloop
  endfacet
  facet normal -9.015229e-001 -0.000000e+000 0.000000e+000
    outer loop
      vertex   -3.000000e+001 1.282500e+002 1.700000e+001
      vertex   -3.000000e+001 1.220000e+002 1.400000e+001
      vertex   -3.000000e+001 1.282500e+002 2.000000e+001
    endloop
  endfacet
  facet normal -9.875432e-001 -0.000000e+000 0.000000e+000
    outer loop
      vertex   -3.000000e+001 1.282500e+002 2.000000e+001
      vertex   -3.000000e+001 1.220000e+002 1.400000e+001
      vertex   -3.000000e+001 1.220000e+002 2.900000e+001
    endloop
  endfacet
  facet normal -8.424305e-001 0.000000e+000 0.000000e+000
    outer loop
      vertex   -3.000000e+001 1.282500e+002 2.000000e+001
      vertex   -3.000000e+001 1.220000e+002 2.900000e+001
      vertex   -3.000000e+001 1.295000e+002 2.300000e+001
    endloop
  endfacet
  facet normal -9.298066e-001 0.000000e+000 0.000000e+000
    outer loop
      vertex   -3.000000e+001 1.295000e+002 2.300000e+001
      vertex   -3.000000e+001 1.220000e+002 2.900000e+001
      vertex   -3.000000e+001 1.400000e+002 2.900000e+001
    endloop
  endfacet
  facet normal -4.961389e-001 0.000000e+000 0.000000e+000
    outer loop
      vertex   -3.000000e+001 1.295000e+002 2.300000e+001
      vertex   -3.000000e+001 1.400000e+002 2.900000e+001
      vertex   -3.000000e+001 1.325000e+002 2.300000e+001
    endloop
  endfacet
  facet normal -9.610692e-001 0.000000e+000 0.000000e+000
    outer loop
      vertex   -3.000000e+001 1.325000e+002 2.300000e+001
      vertex   -3.000000e+001 1.400000e+002 2.900000e+001
      vertex   -3.000000e+001 1.337500e+002 2.000000e+001
    endloop
  endfacet
  facet normal -3.846152e-001 0.000000e+000 0.000000e+000
    outer loop
      vertex   -3.000000e+001 1.325000e+002 2.300000e+001
      vertex   -3.000000e+001 1.337500e+002 2.000000e+001
      vertex   -3.000000e+001 1.325000e+002 2.000000e+001
    endloop
  endfacet
  facet normal -5.703957e-001 0.000000e+000 -0.000000e+000
    outer loop
      vertex   -3.000000e+001 1.400000e+002 2.900000e+001
      vertex   -3.000000e+001 1.400000e+002 1.400000e+001
      vertex   -3.000000e+001 1.337500e+002 2.000000e+001
    endloop
  endfacet
  facet normal -7.213874e-001 0.000000e+000 0.000000e+000
    outer loop
      vertex   -3.000000e+001 1.337500e+002 2.000000e+001
      vertex   -3.000000e+001 1.400000e+002 1.400000e+001
      vertex   -3.000000e+001 1.337500e+002 1.700000e+001
    endloop
  endfacet
  facet normal -9.986101e-001 0.000000e+000 -0.000000e+000
    outer loop
      vertex   -3.000000e+001 1.337500e+002 1.700000e+001
      vertex   -3.000000e+001 1.400000e+002 1.400000e+001
      vertex   -3.000000e+001 1.325000e+002 1.400000e+001
    endloop
  endfacet
  facet normal -9.230770e-001 -0.000000e+000 0.000000e+000
    outer loop
      vertex   -3.000000e+001 1.337500e+002 1.700000e+001
      vertex   -3.000000e+001 1.325000e+002 1.400000e+001
      vertex   -3.000000e+001 1.325000e+002 1.700000e+001
    endloop
  endfacet
  facet normal -3.846152e-001 0.000000e+000 -0.000000e+000
    outer loop
      vertex   -3.000000e+001 1.295000e+002 2.300000e+001
      vertex   -3.000000e+001 1.295000e+002 2.000000e+001
      vertex   -3.000000e+001 1.282500e+002 2.000000e+001
    endloop
  endfacet
  facet normal 0.000000e+000 -1.000000e+000 0.000000e+000
    outer loop
      vertex   -3.000000e+001 1.220000e+002 1.400000e+001
      vertex   -2.500000e+001 1.220000e+002 1.400000e+001
      vertex   -3.000000e+001 1.220000e+002 2.900000e+001
    endloop
  endfacet
  facet normal 0.000000e+000 -9.486833e-001 0.000000e+000
    outer loop
      vertex   -3.000000e+001 1.220000e+002 2.900000e+001
      vertex   -2.500000e+001 1.220000e+002 1.400000e+001
      vertex   -2.500000e+001 1.220000e+002 2.900000e+001
    endloop
  endfacet
  facet normal -0.000000e+000 -1.271566e-007 -1.000000e+000
    outer loop
      vertex   -2.500000e+001 1.295000e+002 1.400000e+001
      vertex   -2.500000e+001 1.220000e+002 1.400000e+001
      vertex   -3.000000e+001 1.295000e+002 1.400000e+001
    endloop
  endfacet
  facet normal 0.000000e+000 -7.053378e-008 -5.547002e-001
    outer loop
      vertex   -3.000000e+001 1.295000e+002 1.400000e+001
      vertex   -2.500000e+001 1.220000e+002 1.400000e+001
      vertex   -3.000000e+001 1.220000e+002 1.400000e+001
    endloop
  endfacet
endsolid
